  0
SECTION
  2
HEADER
  9
$ACADVER
  1
AC1014
  9
$HANDSEED
  5
FFFF
  9
$MEASUREMENT
 70
     1
  0
ENDSEC
  0
SECTION
  2
TABLES
  0
TABLE
  2
VPORT
  5
8
330
0
100
AcDbSymbolTable
 70
     4
  0
VPORT
  5
2E
330
8
100
AcDbSymbolTableRecord
100
AcDbViewportTableRecord
  2
*ACTIVE
 70
     0
 10
0.0
 20
0.0
 11
1.0
 21
1.0
 12
210.0
 22
148.5
 13
0.0
 23
0.0
 14
10.0
 24
10.0
 15
10.0
 25
10.0
 16
0.0
 26
0.0
 36
1.0
 17
0.0
 27
0.0
 37
0.0
 40
341.0
 41
1.24
 42
50.0
 43
0.0
 44
0.0
 50
0.0
 51
0.0
 71
     0
 72
   100
 73
     1
 74
     3
 75
     0
 76
     0
 77
     0
 78
     0
  0
ENDTAB
  0
TABLE
  2
LTYPE
  5
5
330
0
100
AcDbSymbolTable
 70
     1
  0
LTYPE
  5
14
330
5
100
AcDbSymbolTableRecord
100
AcDbLinetypeTableRecord
  2
BYBLOCK
 70
     0
  3

 72
    65
 73
     0
 40
0.0
  0
LTYPE
  5
15
330
5
100
AcDbSymbolTableRecord
100
AcDbLinetypeTableRecord
  2
BYLAYER
 70
     0
  3

 72
    65
 73
     0
 40
0.0
  0
LTYPE
  5
16
330
5
100
AcDbSymbolTableRecord
100
AcDbLinetypeTableRecord
  2
CONTINUOUS
 70
     0
  3
Solid line
 72
    65
 73
     0
 40
0.0
  0
ENDTAB
  0
TABLE
  2
LAYER
  5
2
100
AcDbSymbolTable
 70
2
  0
LAYER
  5
50
100
AcDbSymbolTableRecord
100
AcDbLayerTableRecord
  2
0
 70
0
  6
CONTINUOUS
  0
LAYER
  5
51
100
AcDbSymbolTableRecord
100
AcDbLayerTableRecord
  2
Calque_1
 70
0
  6
CONTINUOUS
  0
ENDTAB
  0
TABLE
  2
STYLE
  5
3
330
0
100
AcDbSymbolTable
 70
     1
  0
STYLE
  5
11
330
3
100
AcDbSymbolTableRecord
100
AcDbTextStyleTableRecord
  2
STANDARD
 70
     0
 40
0.0
 41
1.0
 50
0.0
 71
     0
 42
2.5
  3
txt
  4

  0
ENDTAB
  0
TABLE
  2
VIEW
  5
6
330
0
100
AcDbSymbolTable
 70
     0
  0
ENDTAB
  0
TABLE
  2
UCS
  5
7
330
0
100
AcDbSymbolTable
 70
     0
  0
ENDTAB
  0
TABLE
  2
APPID
  5
9
330
0
100
AcDbSymbolTable
 70
     2
  0
APPID
  5
12
330
9
100
AcDbSymbolTableRecord
100
AcDbRegAppTableRecord
  2
ACAD
 70
     0
  0
ENDTAB
  0
TABLE
  2
DIMSTYLE
  5
A
330
0
100
AcDbSymbolTable
 70
     1
  0
DIMSTYLE
105
27
330
A
100
AcDbSymbolTableRecord
100
AcDbDimStyleTableRecord
  2
ISO-25
 70
     0
  3

  4

  5

  6

  7

 40
1.0
 41
2.5
 42
0.625
 43
3.75
 44
1.25
 45
0.0
 46
0.0
 47
0.0
 48
0.0
140
2.5
141
2.5
142
0.0
143
0.03937007874016
144
1.0
145
0.0
146
1.0
147
0.625
 71
     0
 72
     0
 73
     0
 74
     0
 75
     0
 76
     0
 77
     1
 78
     8
170
     0
171
     3
172
     1
173
     0
174
     0
175
     0
176
     0
177
     0
178
     0
270
     2
271
     2
272
     2
273
     2
274
     3
340
11
275
     0
280
     0
281
     0
282
     0
283
     0
284
     8
285
     0
286
     0
287
     3
288
     0
  0
ENDTAB
  0
TABLE
  2
BLOCK_RECORD
  5
1
330
0
100
AcDbSymbolTable
 70
     1
  0
BLOCK_RECORD
  5
1F
330
1
100
AcDbSymbolTableRecord
100
AcDbBlockTableRecord
  2
*MODEL_SPACE
  0
BLOCK_RECORD
  5
1B
330
1
100
AcDbSymbolTableRecord
100
AcDbBlockTableRecord
  2
*PAPER_SPACE
  0
ENDTAB
  0
ENDSEC
  0
SECTION
  2
BLOCKS
  0
BLOCK
  5
20
330
1F
100
AcDbEntity
  8
0
100
AcDbBlockBegin
  2
*MODEL_SPACE
 70
     0
 10
0.0
 20
0.0
 30
0.0
  3
*MODEL_SPACE
  1

  0
ENDBLK
  5
21
330
1F
100
AcDbEntity
  8
0
100
AcDbBlockEnd
  0
BLOCK
  5
1C
330
1B
100
AcDbEntity
 67
     1
  8
0
100
AcDbBlockBegin
  2
*PAPER_SPACE
  1

  0
ENDBLK
  5
1D
330
1B
100
AcDbEntity
 67
     1
  8
0
100
AcDbBlockEnd
  0
ENDSEC
  0
SECTION
  2
ENTITIES
  0
SPLINE
  5
100
100
AcDbEntity
  8
Calque_1
 62
7
100
AcDbSpline
 70
0
 71
3
 72
19
 73
15
 74
13
 40
0.000000
 40
0.000000
 40
0.000000
 40
0.000000
 40
2.092521
 40
4.122154
 40
6.214214
 40
8.305523
 40
10.334833
 40
12.427315
 40
14.518983
 40
16.548592
 40
18.640010
 40
20.732181
 40
22.762112
 40
24.853818
 40
24.853818
 40
24.853818
 40
24.853818
 10
106.827712
 20
214.561917
 30
0.0
 10
106.122175
 20
214.452047
 30
0.0
 10
104.732307
 20
214.235608
 30
0.0
 10
103.202306
 20
212.642466
 30
0.0
 10
102.636060
 20
210.564837
 30
0.0
 10
103.202377
 20
208.465528
 30
0.0
 10
104.732454
 20
206.937106
 30
0.0
 10
106.827474
 20
206.370462
 30
0.0
 10
108.922374
 20
206.937414
 30
0.0
 10
110.452517
 20
208.465421
 30
0.0
 10
111.019624
 20
210.564837
 30
0.0
 10
110.452583
 20
212.642574
 30
0.0
 10
108.922539
 20
214.235291
 30
0.0
 10
107.532930
 20
214.451959
 30
0.0
 10
106.827712
 20
214.561917
 30
0.0
 11
106.827712
 21
214.561917
 31
0.0
 11
104.807724
 21
214.015757
 31
0.0
 11
103.372661
 21
212.580484
 31
0.0
 11
102.826711
 21
210.560917
 31
0.0
 11
103.372661
 21
208.542128
 31
0.0
 11
104.807724
 21
207.107311
 31
0.0
 11
106.827712
 21
206.561299
 31
0.0
 11
108.846856
 21
207.107311
 31
0.0
 11
110.282340
 21
208.542128
 31
0.0
 11
110.828712
 21
210.560917
 31
0.0
 11
110.282340
 21
212.580484
 31
0.0
 11
108.846856
 21
214.015757
 31
0.0
 11
106.827712
 21
214.561917
 31
0.0
  0
LWPOLYLINE
  5
101
100
AcDbEntity
  8
Calque_1
 62
7
100
AcDbPolyline
 90
1
 70
1
 10
106.827712
 20
214.561917
 30
0.0
  0
SPLINE
  5
102
100
AcDbEntity
  8
Calque_1
 62
7
100
AcDbSpline
 70
0
 71
3
 72
10
 73
6
 74
4
 40
0.000000
 40
0.000000
 40
0.000000
 40
0.000000
 40
0.327753
 40
0.645188
 40
0.966000
 40
0.966000
 40
0.966000
 40
0.966000
 10
105.415027
 20
213.034841
 30
0.0
 10
105.524736
 20
213.020483
 30
0.0
 10
105.740701
 20
212.992219
 30
0.0
 10
106.010176
 20
212.784532
 30
0.0
 10
106.100221
 20
212.589733
 30
0.0
 10
106.145482
 20
212.491817
 30
0.0
 11
105.415027
 21
213.034841
 31
0.0
 11
105.734869
 21
212.963264
 31
0.0
 11
105.987466
 21
212.771016
 31
0.0
 11
106.145482
 21
212.491817
 31
0.0
  0
LWPOLYLINE
  5
103
100
AcDbEntity
  8
Calque_1
 62
7
100
AcDbPolyline
 90
4
 70
0
 10
106.145482
 20
212.491817
 30
0.0
 10
108.783413
 20
212.491817
 30
0.0
 10
108.783413
 20
212.021840
 30
0.0
 10
106.145482
 20
212.021840
 30
0.0
  0
SPLINE
  5
104
100
AcDbEntity
  8
Calque_1
 62
7
100
AcDbSpline
 70
0
 71
3
 72
16
 73
12
 74
10
 40
0.000000
 40
0.000000
 40
0.000000
 40
0.000000
 40
0.320498
 40
0.637530
 40
0.965206
 40
1.371189
 40
1.765944
 40
2.171930
 40
2.577908
 40
2.972664
 40
3.378647
 40
3.378647
 40
3.378647
 40
3.378647
 10
106.145482
 20
212.021840
 30
0.0
 10
106.100248
 20
211.923490
 30
0.0
 10
106.010270
 20
211.727853
 30
0.0
 10
105.740363
 20
211.528793
 30
0.0
 10
105.389466
 20
211.449799
 30
0.0
 10
105.008055
 20
211.553963
 30
0.0
 10
104.711408
 20
211.850578
 30
0.0
 10
104.600347
 20
212.258245
 30
0.0
 10
104.711350
 20
212.661609
 30
0.0
 10
105.008289
 20
212.970887
 30
0.0
 10
105.278186
 20
213.013325
 30
0.0
 10
105.415027
 20
213.034841
 30
0.0
 11
106.145482
 21
212.021840
 31
0.0
 11
105.987466
 21
211.743003
 31
0.0
 11
105.734869
 21
211.551419
 31
0.0
 11
105.415027
 21
211.480199
 31
0.0
 11
105.023234
 21
211.586594
 31
0.0
 11
104.744099
 21
211.865727
 31
0.0
 11
104.637702
 21
212.257524
 31
0.0
 11
104.744099
 21
212.649312
 31
0.0
 11
105.023234
 21
212.928445
 31
0.0
 11
105.415027
 21
213.034841
 31
0.0
  0
LWPOLYLINE
  5
105
100
AcDbEntity
  8
Calque_1
 62
7
100
AcDbPolyline
 90
1
 70
1
 10
105.415027
 20
213.034841
 30
0.0
  0
SPLINE
  5
106
100
AcDbEntity
  8
Calque_1
 62
7
100
AcDbSpline
 70
0
 71
3
 72
13
 73
9
 74
7
 40
0.000000
 40
0.000000
 40
0.000000
 40
0.000000
 40
0.982138
 40
1.804910
 40
2.376212
 40
2.447517
 40
2.517655
 40
2.587882
 40
2.587882
 40
2.587882
 40
2.587882
 10
106.802897
 20
211.551869
 30
0.0
 10
107.130406
 20
211.532269
 30
0.0
 10
107.732281
 20
211.496249
 30
0.0
 10
108.504464
 20
211.309027
 30
0.0
 10
108.887367
 20
210.874972
 30
0.0
 10
108.866242
 20
210.635982
 30
0.0
 10
108.849849
 20
210.567045
 30
0.0
 10
108.830384
 20
210.524379
 30
0.0
 10
108.820645
 20
210.503033
 30
0.0
 11
106.802897
 21
211.551869
 31
0.0
 11
107.780880
 21
211.461627
 31
0.0
 11
108.555268
 21
211.183637
 31
0.0
 11
108.870245
 21
210.707009
 31
0.0
 11
108.864489
 21
210.635937
 31
0.0
 11
108.847709
 21
210.567835
 31
0.0
 11
108.820645
 21
210.503033
 31
0.0
  0
LWPOLYLINE
  5
107
100
AcDbEntity
  8
Calque_1
 62
7
100
AcDbPolyline
 90
3
 70
0
 10
108.820645
 20
210.503033
 30
0.0
 10
108.870245
 20
210.503033
 30
0.0
 10
108.870245
 20
208.935987
 30
0.0
  0
SPLINE
  5
108
100
AcDbEntity
  8
Calque_1
 62
7
100
AcDbSpline
 70
0
 71
3
 72
13
 73
9
 74
7
 40
0.000000
 40
0.000000
 40
0.000000
 40
0.000000
 40
0.572294
 40
1.395148
 40
2.377280
 40
3.360593
 40
4.183677
 40
4.755937
 40
4.755937
 40
4.755937
 40
4.755937
 10
108.870245
 20
208.935987
 30
0.0
 10
108.781119
 20
208.757881
 30
0.0
 10
108.563846
 20
208.323691
 30
0.0
 10
107.711607
 20
208.156005
 30
0.0
 10
106.802507
 20
208.053713
 30
0.0
 10
105.893362
 20
208.155970
 30
0.0
 10
105.040551
 20
208.323598
 30
0.0
 10
104.823285
 20
208.757879
 30
0.0
 10
104.734180
 20
208.935987
 30
0.0
 11
108.870245
 21
208.935987
 31
0.0
 11
108.555268
 21
208.458170
 31
0.0
 11
107.780880
 21
208.179938
 31
0.0
 11
106.802897
 21
208.089758
 31
0.0
 11
105.823728
 21
208.179938
 31
0.0
 11
105.049097
 21
208.458170
 31
0.0
 11
104.734180
 21
208.935987
 31
0.0
  0
LWPOLYLINE
  5
109
100
AcDbEntity
  8
Calque_1
 62
7
100
AcDbPolyline
 90
2
 70
0
 10
104.734180
 20
208.935987
 30
0.0
 10
104.734180
 20
210.707009
 30
0.0
  0
SPLINE
  5
10a
100
AcDbEntity
  8
Calque_1
 62
7
100
AcDbSpline
 70
0
 71
3
 72
10
 73
6
 74
4
 40
0.000000
 40
0.000000
 40
0.000000
 40
0.000000
 40
0.571268
 40
1.394270
 40
2.377588
 40
2.377588
 40
2.377588
 40
2.377588
 10
104.734180
 20
210.707009
 30
0.0
 10
104.823363
 20
210.884309
 30
0.0
 10
105.041027
 20
211.317036
 30
0.0
 10
105.893369
 20
211.493516
 30
0.0
 10
106.482298
 20
211.531300
 30
0.0
 10
106.802897
 20
211.551869
 30
0.0
 11
104.734180
 21
210.707009
 31
0.0
 11
105.049097
 21
211.183637
 31
0.0
 11
105.823728
 21
211.461627
 31
0.0
 11
106.802897
 21
211.551869
 31
0.0
  0
SPLINE
  5
10b
100
AcDbEntity
  8
Calque_1
 62
7
100
AcDbSpline
 70
0
 71
3
 72
19
 73
15
 74
13
 40
0.000000
 40
0.000000
 40
0.000000
 40
0.000000
 40
0.160355
 40
0.315983
 40
0.476338
 40
0.636695
 40
0.792325
 40
0.952681
 40
1.113039
 40
1.268671
 40
1.429029
 40
1.589384
 40
1.745014
 40
1.905372
 40
1.905372
 40
1.905372
 40
1.905372
 10
105.414957
 20
211.950381
 30
0.0
 10
105.469020
 20
211.958817
 30
0.0
 10
105.575551
 20
211.975439
 30
0.0
 10
105.692828
 20
212.097542
 30
0.0
 10
105.736315
 20
212.256819
 30
0.0
 10
105.692828
 20
212.417770
 30
0.0
 10
105.575553
 20
212.534955
 30
0.0
 10
105.414956
 20
212.578478
 30
0.0
 10
105.254359
 20
212.534955
 30
0.0
 10
105.137081
 20
212.417771
 30
0.0
 10
105.093590
 20
212.256819
 30
0.0
 10
105.137080
 20
212.097541
 30
0.0
 10
105.254360
 20
211.975439
 30
0.0
 10
105.360893
 20
211.958817
 30
0.0
 10
105.414957
 20
211.950381
 30
0.0
 11
105.414957
 21
211.950381
 31
0.0
 11
105.569745
 21
211.992267
 31
0.0
 11
105.679790
 21
212.102312
 31
0.0
 11
105.721676
 21
212.257100
 31
0.0
 11
105.679790
 21
212.411891
 31
0.0
 11
105.569745
 21
212.521939
 31
0.0
 11
105.414957
 21
212.563826
 31
0.0
 11
105.260166
 21
212.521939
 31
0.0
 11
105.150118
 21
212.411891
 31
0.0
 11
105.108230
 21
212.257100
 31
0.0
 11
105.150118
 21
212.102312
 31
0.0
 11
105.260166
 21
211.992267
 31
0.0
 11
105.414957
 21
211.950381
 31
0.0
  0
LWPOLYLINE
  5
10c
100
AcDbEntity
  8
Calque_1
 62
7
100
AcDbPolyline
 90
1
 70
1
 10
106.802897
 20
211.551869
 30
0.0
  0
SPLINE
  5
10d
100
AcDbEntity
  8
Calque_1
 62
7
100
AcDbSpline
 70
0
 71
3
 72
10
 73
6
 74
4
 40
0.000000
 40
0.000000
 40
0.000000
 40
0.000000
 40
0.585876
 40
1.143461
 40
1.633973
 40
1.633973
 40
1.633973
 40
1.633973
 10
106.803208
 20
209.860984
 30
0.0
 10
106.608060
 20
209.867505
 30
0.0
 10
106.227188
 20
209.880230
 30
0.0
 10
105.685281
 20
209.965115
 30
0.0
 10
105.358531
 20
210.090944
 30
0.0
 10
105.205611
 20
210.149832
 30
0.0
 11
106.803208
 21
209.860984
 31
0.0
 11
106.218196
 21
209.892799
 31
0.0
 11
105.668938
 21
209.988802
 31
0.0
 11
105.205611
 21
210.149832
 31
0.0
  0
LWPOLYLINE
  5
10e
100
AcDbEntity
  8
Calque_1
 62
7
100
AcDbPolyline
 90
2
 70
0
 10
105.205611
 20
210.149832
 30
0.0
 10
105.205611
 20
208.936107
 30
0.0
  0
SPLINE
  5
10f
100
AcDbEntity
  8
Calque_1
 62
7
100
AcDbSpline
 70
0
 71
3
 72
13
 73
9
 74
7
 40
0.000000
 40
0.000000
 40
0.000000
 40
0.000000
 40
0.247520
 40
0.805900
 40
1.668740
 40
2.537530
 40
3.091981
 40
3.340169
 40
3.340169
 40
3.340169
 40
3.340169
 10
105.205611
 20
208.936107
 30
0.0
 10
105.271422
 20
208.885325
 30
0.0
 10
105.485695
 20
208.719984
 30
0.0
 10
106.047364
 20
208.606920
 30
0.0
 10
106.805423
 20
208.531268
 30
0.0
 10
107.560876
 20
208.606180
 30
0.0
 10
108.125896
 20
208.717751
 30
0.0
 10
108.335164
 20
208.888124
 30
0.0
 10
108.399873
 20
208.940806
 30
0.0
 11
105.205611
 21
208.936107
 31
0.0
 11
105.408418
 21
208.794207
 31
0.0
 11
105.943669
 21
208.635165
 31
0.0
 11
106.803208
 21
208.559756
 31
0.0
 11
107.668776
 21
208.634503
 31
0.0
 11
108.199812
 21
208.793928
 31
0.0
 11
108.399873
 21
208.940806
 31
0.0
  0
SPLINE
  5
110
100
AcDbEntity
  8
Calque_1
 62
7
100
AcDbSpline
 70
0
 71
3
 72
10
 73
6
 74
4
 40
0.000000
 40
0.000000
 40
0.000000
 40
0.000000
 40
0.490250
 40
1.047150
 40
1.632124
 40
1.632124
 40
1.632124
 40
1.632124
 10
108.399167
 20
210.149832
 30
0.0
 10
108.246340
 20
210.090948
 30
0.0
 10
107.919909
 20
209.965174
 30
0.0
 10
107.378640
 20
209.880229
 30
0.0
 10
106.998295
 20
209.867503
 30
0.0
 10
106.803448
 20
209.860984
 30
0.0
 11
108.399167
 21
210.149832
 31
0.0
 11
107.936119
 21
209.988802
 31
0.0
 11
107.387555
 21
209.892799
 31
0.0
 11
106.803448
 21
209.860984
 31
0.0
  0
SPLINE
  5
111
100
AcDbEntity
  8
Calque_1
 62
7
100
AcDbSpline
 70
0
 71
3
 72
13
 73
9
 74
7
 40
0.000000
 40
0.000000
 40
0.000000
 40
0.000000
 40
0.246654
 40
0.804226
 40
1.664946
 40
2.526561
 40
3.085430
 40
3.336651
 40
3.336651
 40
3.336651
 40
3.336651
 10
105.205661
 20
210.699862
 30
0.0
 10
105.272391
 20
210.650909
 30
0.0
 10
105.489970
 20
210.491297
 30
0.0
 10
106.048340
 20
210.377444
 30
0.0
 10
106.803903
 20
210.302587
 30
0.0
 10
107.558044
 20
210.378467
 30
0.0
 10
108.121618
 20
210.492166
 30
0.0
 10
108.334761
 20
210.661469
 30
0.0
 10
108.400861
 20
210.713973
 30
0.0
 11
105.205661
 21
210.699862
 31
0.0
 11
105.410757
 21
210.562844
 31
0.0
 11
105.945804
 21
210.405966
 31
0.0
 11
106.803257
 21
210.331047
 31
0.0
 11
107.661544
 21
210.406699
 31
0.0
 11
108.196797
 21
210.567445
 31
0.0
 11
108.400861
 21
210.713973
 31
0.0
  0
LWPOLYLINE
  5
112
100
AcDbEntity
  8
Calque_1
 62
7
100
AcDbPolyline
 90
2
 70
0
 10
108.399873
 20
208.940806
 30
0.0
 10
108.399167
 20
210.149832
 30
0.0
  0
SPLINE
  5
113
100
AcDbEntity
  8
Calque_1
 62
7
100
AcDbSpline
 70
0
 71
3
 72
13
 73
9
 74
7
 40
0.000000
 40
0.000000
 40
0.000000
 40
0.000000
 40
0.244078
 40
0.798069
 40
1.665383
 40
2.531452
 40
3.086276
 40
3.336572
 40
3.336572
 40
3.336572
 40
3.336572
 10
108.400861
 20
210.713973
 30
0.0
 10
108.335292
 20
210.763101
 30
0.0
 10
108.120898
 20
210.923739
 30
0.0
 10
107.560985
 20
211.035506
 30
0.0
 10
106.803401
 20
211.108762
 30
0.0
 10
106.046955
 20
211.035022
 30
0.0
 10
105.482820
 20
210.923125
 30
0.0
 10
105.271390
 20
210.754247
 30
0.0
 10
105.205661
 20
210.701745
 30
0.0
 11
108.400861
 21
210.713973
 31
0.0
 11
108.199110
 21
210.851343
 31
0.0
 11
107.667407
 21
211.006902
 31
0.0
 11
106.803257
 21
211.080918
 31
0.0
 11
105.940377
 21
211.006658
 31
0.0
 11
105.408681
 21
210.848137
 31
0.0
 11
105.205661
 21
210.701745
 31
0.0
  0
LWPOLYLINE
  5
114
100
AcDbEntity
  8
Calque_1
 62
7
100
AcDbPolyline
 90
2
 70
0
 10
105.205661
 20
210.701745
 30
0.0
 10
105.205661
 20
210.699862
 30
0.0
  0
SPLINE
  5
115
100
AcDbEntity
  8
Calque_1
 62
7
100
AcDbSpline
 70
0
 71
3
 72
13
 73
9
 74
7
 40
0.000000
 40
0.000000
 40
0.000000
 40
0.000000
 40
1.055192
 40
2.079942
 40
3.134673
 40
4.114353
 40
5.064250
 40
6.033231
 40
6.033231
 40
6.033231
 40
6.033231
 10
106.828050
 20
223.626225
 30
0.0
 10
106.472327
 20
223.570476
 30
0.0
 10
105.771144
 20
223.460588
 30
0.0
 10
104.999777
 20
222.657624
 30
0.0
 10
104.719268
 20
221.632416
 30
0.0
 10
104.974194
 20
220.633097
 30
0.0
 10
105.644224
 20
219.863291
 30
0.0
 10
106.274563
 20
219.696394
 30
0.0
 10
106.592867
 20
219.612115
 30
0.0
 11
106.828050
 21
223.626225
 31
0.0
 11
105.809618
 21
223.350137
 31
0.0
 11
105.085115
 21
222.625424
 31
0.0
 11
104.809237
 21
221.607412
 31
0.0
 11
105.049228
 21
220.657582
 31
0.0
 11
105.685581
 21
219.952345
 31
0.0
 11
106.592867
 21
219.612115
 31
0.0
  0
LWPOLYLINE
  5
116
100
AcDbEntity
  8
Calque_1
 62
7
100
AcDbPolyline
 90
2
 70
0
 10
106.592867
 20
219.612115
 30
0.0
 10
106.592867
 20
220.334596
 30
0.0
  0
SPLINE
  5
117
100
AcDbEntity
  8
Calque_1
 62
7
100
AcDbSpline
 70
0
 71
3
 72
19
 73
15
 74
13
 40
0.000000
 40
0.000000
 40
0.000000
 40
0.000000
 40
0.305234
 40
0.607656
 40
0.920849
 40
1.311041
 40
1.690154
 40
2.080693
 40
2.470357
 40
2.848979
 40
3.239099
 40
3.552232
 40
3.854238
 40
4.158691
 40
4.158691
 40
4.158691
 40
4.158691
 10
106.592867
 20
220.334596
 30
0.0
 10
106.499624
 20
220.378551
 30
0.0
 10
106.313995
 20
220.466054
 30
0.0
 10
106.125938
 20
220.724712
 30
0.0
 10
106.051266
 20
221.060569
 30
0.0
 10
106.150876
 20
221.426601
 30
0.0
 10
106.436952
 20
221.711150
 30
0.0
 10
106.827752
 20
221.817114
 30
0.0
 10
107.218405
 20
221.711112
 30
0.0
 10
107.503661
 20
221.426370
 30
0.0
 10
107.602826
 20
221.060563
 30
0.0
 10
107.528549
 20
220.724906
 30
0.0
 10
107.341334
 20
220.466166
 30
0.0
 10
107.156182
 20
220.378571
 30
0.0
 10
107.063233
 20
220.334596
 30
0.0
 11
106.592867
 21
220.334596
 31
0.0
 11
106.328662
 21
220.487447
 31
0.0
 11
106.147449
 21
220.729565
 31
0.0
 11
106.080168
 21
221.035446
 31
0.0
 11
106.182498
 21
221.411981
 31
0.0
 11
106.451024
 21
221.679601
 31
0.0
 11
106.828050
 21
221.781444
 31
0.0
 11
107.204170
 21
221.679601
 31
0.0
 11
107.472002
 21
221.411981
 31
0.0
 11
107.574055
 21
221.035446
 31
0.0
 11
107.507053
 21
220.729565
 31
0.0
 11
107.326535
 21
220.487447
 31
0.0
 11
107.063233
 21
220.334596
 31
0.0
  0
SPLINE
  5
118
100
AcDbEntity
  8
Calque_1
 62
7
100
AcDbSpline
 70
0
 71
3
 72
13
 73
9
 74
7
 40
0.000000
 40
0.000000
 40
0.000000
 40
0.000000
 40
0.968981
 40
1.918879
 40
2.898558
 40
3.953290
 40
4.978040
 40
6.033231
 40
6.033231
 40
6.033231
 40
6.033231
 10
107.063233
 20
219.612115
 30
0.0
 10
107.381537
 20
219.696394
 30
0.0
 10
108.011877
 20
219.863291
 30
0.0
 10
108.681906
 20
220.633097
 30
0.0
 10
108.936833
 20
221.632416
 30
0.0
 10
108.656324
 20
222.657624
 30
0.0
 10
107.884956
 20
223.460588
 30
0.0
 10
107.183773
 20
223.570476
 30
0.0
 10
106.828050
 20
223.626225
 30
0.0
 11
107.063233
 21
219.612115
 31
0.0
 11
107.970519
 21
219.952345
 31
0.0
 11
108.606873
 21
220.657582
 31
0.0
 11
108.846863
 21
221.607412
 31
0.0
 11
108.570986
 21
222.625424
 31
0.0
 11
107.846483
 21
223.350137
 31
0.0
 11
106.828050
 21
223.626225
 31
0.0
  0
LWPOLYLINE
  5
119
100
AcDbEntity
  8
Calque_1
 62
7
100
AcDbPolyline
 90
2
 70
0
 10
107.063233
 20
220.334596
 30
0.0
 10
107.063233
 20
219.612115
 30
0.0
  0
SPLINE
  5
11a
100
AcDbEntity
  8
Calque_1
 62
7
100
AcDbSpline
 70
0
 71
3
 72
19
 73
15
 74
13
 40
0.000000
 40
0.000000
 40
0.000000
 40
0.000000
 40
0.145110
 40
0.285541
 40
0.429390
 40
0.574754
 40
0.715853
 40
0.861045
 40
1.004961
 40
1.145714
 40
1.291060
 40
1.434890
 40
1.574974
 40
1.718808
 40
1.718808
 40
1.718808
 40
1.718808
 10
106.828050
 20
221.311078
 30
0.0
 10
106.779137
 20
221.303466
 30
0.0
 10
106.682888
 20
221.288486
 30
0.0
 10
106.576814
 20
221.178818
 30
0.0
 10
106.537249
 20
221.035196
 30
0.0
 10
106.576683
 20
220.889806
 30
0.0
 10
106.682563
 20
220.783385
 30
0.0
 10
106.827635
 20
220.743567
 30
0.0
 10
106.972501
 20
220.783576
 30
0.0
 10
107.077582
 20
220.889986
 30
0.0
 10
107.116958
 20
221.035195
 30
0.0
 10
107.077450
 20
221.178645
 30
0.0
 10
106.972184
 20
221.288261
 30
0.0
 10
106.876516
 20
221.303406
 30
0.0
 10
106.828050
 20
221.311078
 30
0.0
 11
106.828050
 21
221.311078
 31
0.0
 11
106.687951
 21
221.273275
 31
0.0
 11
106.588408
 21
221.174219
 31
0.0
 11
106.550534
 21
221.035446
 31
0.0
 11
106.588408
 21
220.895102
 31
0.0
 11
106.687951
 21
220.795103
 31
0.0
 11
106.828050
 21
220.756984
 31
0.0
 11
106.966827
 21
220.795103
 31
0.0
 11
107.065880
 21
220.895102
 31
0.0
 11
107.103683
 21
221.035446
 31
0.0
 11
107.065880
 21
221.174219
 31
0.0
 11
106.966827
 21
221.273275
 31
0.0
 11
106.828050
 21
221.311078
 31
0.0
  0
LWPOLYLINE
  5
11b
100
AcDbEntity
  8
Calque_1
 62
7
100
AcDbPolyline
 90
4
 70
0
 10
108.839998
 20
220.114936
 30
0.0
 10
108.839998
 20
218.569311
 30
0.0
 10
108.369633
 20
218.569311
 30
0.0
 10
108.369633
 20
219.668086
 30
0.0
  0
SPLINE
  5
11c
100
AcDbEntity
  8
Calque_1
 62
7
100
AcDbSpline
 70
0
 71
3
 72
10
 73
6
 74
4
 40
0.000000
 40
0.000000
 40
0.000000
 40
0.000000
 40
0.468154
 40
0.940982
 40
1.426193
 40
1.426193
 40
1.426193
 40
1.426193
 10
108.369633
 20
219.668086
 30
0.0
 10
108.241970
 20
219.577807
 30
0.0
 10
107.985371
 20
219.396347
 30
0.0
 10
107.539503
 20
219.215261
 30
0.0
 10
107.223165
 20
219.166772
 30
0.0
 10
107.062951
 20
219.142215
 30
0.0
 11
108.369633
 21
219.668086
 31
0.0
 11
107.977345
 21
219.412590
 31
0.0
 11
107.539275
 21
219.234652
 31
0.0
 11
107.062951
 21
219.142215
 31
0.0
  0
LWPOLYLINE
  5
11d
100
AcDbEntity
  8
Calque_1
 62
7
100
AcDbPolyline
 90
4
 70
0
 10
107.062951
 20
219.142215
 30
0.0
 10
107.062951
 20
218.569311
 30
0.0
 10
106.592585
 20
218.569311
 30
0.0
 10
106.592585
 20
219.142215
 30
0.0
  0
SPLINE
  5
11e
100
AcDbEntity
  8
Calque_1
 62
7
100
AcDbSpline
 70
0
 71
3
 72
10
 73
6
 74
4
 40
0.000000
 40
0.000000
 40
0.000000
 40
0.000000
 40
0.444663
 40
0.879320
 40
1.308548
 40
1.308548
 40
1.308548
 40
1.308548
 10
106.592585
 20
219.142215
 30
0.0
 10
106.445718
 20
219.163856
 30
0.0
 10
106.155289
 20
219.206651
 30
0.0
 10
105.741885
 20
219.359217
 30
0.0
 10
105.498851
 20
219.514656
 30
0.0
 10
105.378098
 20
219.591886
 30
0.0
 11
106.592585
 21
219.142215
 31
0.0
 11
106.155213
 21
219.222412
 31
0.0
 11
105.747737
 21
219.373702
 31
0.0
 11
105.378098
 21
219.591886
 31
0.0
  0
LWPOLYLINE
  5
11f
100
AcDbEntity
  8
Calque_1
 62
7
100
AcDbPolyline
 90
4
 70
0
 10
105.378098
 20
219.591886
 30
0.0
 10
105.378098
 20
218.569311
 30
0.0
 10
104.907733
 20
218.569311
 30
0.0
 10
104.907733
 20
220.042496
 30
0.0
  0
SPLINE
  5
120
100
AcDbEntity
  8
Calque_1
 62
7
100
AcDbSpline
 70
0
 71
3
 72
19
 73
15
 74
13
 40
0.000000
 40
0.000000
 40
0.000000
 40
0.000000
 40
0.554589
 40
1.115980
 40
1.695343
 40
2.995782
 40
4.259046
 40
5.559655
 40
6.860501
 40
8.124086
 40
9.424590
 40
9.972600
 40
10.503628
 40
11.027238
 40
11.027238
 40
11.027238
 40
11.027238
 10
104.907733
 20
220.042496
 30
0.0
 10
104.799133
 20
220.192968
 30
0.0
 10
104.580602
 20
220.495756
 30
0.0
 10
104.385734
 20
221.034187
 30
0.0
 10
104.285114
 20
221.846860
 30
0.0
 10
104.573681
 20
222.911912
 30
0.0
 10
105.525006
 20
223.860989
 30
0.0
 10
106.827861
 20
224.215420
 30
0.0
 10
108.130747
 20
223.860921
 30
0.0
 10
109.082539
 20
222.912097
 30
0.0
 10
109.368468
 20
221.857383
 30
0.0
 10
109.275754
 20
221.065295
 30
0.0
 10
109.101837
 20
220.553477
 30
0.0
 10
108.905498
 20
220.260429
 30
0.0
 10
108.808019
 20
220.114936
 30
0.0
 11
104.907733
 21
220.042496
 31
0.0
 11
104.604224
 21
220.506663
 31
0.0
 11
104.408169
 21
221.032708
 31
0.0
 11
104.338589
 21
221.607877
 31
0.0
 11
104.678925
 21
222.862992
 31
0.0
 11
105.572411
 21
223.756031
 31
0.0
 11
106.827768
 21
224.096125
 31
0.0
 11
108.083370
 21
223.756031
 31
0.0
 11
108.977311
 21
222.862992
 31
0.0
 11
109.317892
 21
221.607877
 31
0.0
 11
109.255734
 21
221.063404
 31
0.0
 11
109.080271
 21
220.562202
 31
0.0
 11
108.808019
 21
220.114936
 31
0.0
  0
LWPOLYLINE
  5
121
100
AcDbEntity
  8
Calque_1
 62
7
100
AcDbPolyline
 90
2
 70
0
 10
108.808019
 20
220.114936
 30
0.0
 10
108.839998
 20
220.114936
 30
0.0
  0
SPLINE
  5
122
100
AcDbEntity
  8
Calque_1
 62
7
100
AcDbSpline
 70
0
 71
3
 72
19
 73
15
 74
13
 40
0.000000
 40
0.000000
 40
0.000000
 40
0.000000
 40
2.091676
 40
4.120877
 40
6.212554
 40
8.304230
 40
10.333431
 40
12.425107
 40
14.516378
 40
16.545727
 40
18.637458
 40
20.729189
 40
22.758539
 40
24.849810
 40
24.849810
 40
24.849810
 40
24.849810
 10
106.827768
 20
225.215594
 30
0.0
 10
106.122533
 20
225.105737
 30
0.0
 10
104.733127
 20
224.889302
 30
0.0
 10
103.203403
 20
223.296735
 30
0.0
 10
102.637104
 20
221.219265
 30
0.0
 10
103.203404
 20
219.119995
 30
0.0
 10
104.733122
 20
217.591527
 30
0.0
 10
106.827650
 20
217.024755
 30
0.0
 10
108.922117
 20
217.591680
 30
0.0
 10
110.451868
 20
219.119942
 30
0.0
 10
111.018562
 20
221.219265
 30
0.0
 10
110.451867
 20
223.296789
 30
0.0
 10
108.922122
 20
224.889145
 30
0.0
 10
107.532845
 20
225.105693
 30
0.0
 10
106.827768
 20
225.215594
 30
0.0
 11
106.827768
 21
225.215594
 31
0.0
 11
104.808604
 21
224.669621
 31
0.0
 11
103.373742
 21
223.234759
 31
0.0
 11
102.827769
 21
221.215595
 31
0.0
 11
103.373742
 21
219.196432
 31
0.0
 11
104.808604
 21
217.761570
 31
0.0
 11
106.827768
 21
217.215597
 31
0.0
 11
108.846512
 21
217.761570
 31
0.0
 11
110.281584
 21
219.196432
 31
0.0
 11
110.827767
 21
221.215595
 31
0.0
 11
110.281584
 21
223.234759
 31
0.0
 11
108.846512
 21
224.669621
 31
0.0
 11
106.827768
 21
225.215594
 31
0.0
  0
LWPOLYLINE
  5
123
100
AcDbEntity
  8
Calque_1
 62
7
100
AcDbPolyline
 90
4
 70
0
 10
109.561097
 20
199.264697
 30
0.0
 10
104.229016
 20
199.264697
 30
0.0
 10
104.229016
 20
199.735063
 30
0.0
 10
104.331555
 20
199.735063
 30
0.0
  0
SPLINE
  5
124
100
AcDbEntity
  8
Calque_1
 62
7
100
AcDbSpline
 70
0
 71
3
 72
19
 73
15
 74
13
 40
0.000000
 40
0.000000
 40
0.000000
 40
0.000000
 40
0.389373
 40
0.808143
 40
1.284057
 40
1.864078
 40
2.453437
 40
3.074881
 40
3.695902
 40
4.285519
 40
4.866456
 40
5.342395
 40
5.761362
 40
6.151376
 40
6.151376
 40
6.151376
 40
6.151376
 10
104.331555
 20
199.735063
 30
0.0
 10
104.461924
 20
199.756183
 30
0.0
 10
104.732505
 20
199.800019
 30
0.0
 10
105.070592
 20
200.083935
 30
0.0
 10
105.408757
 20
200.435618
 30
0.0
 10
105.788322
 20
200.833048
 30
0.0
 10
106.278506
 20
201.188097
 30
0.0
 10
106.893988
 20
201.331037
 30
0.0
 10
107.509490
 20
201.188142
 30
0.0
 10
108.000153
 20
200.833355
 30
0.0
 10
108.380263
 20
200.435878
 30
0.0
 10
108.718620
 20
200.083850
 30
0.0
 10
109.057082
 20
199.799916
 30
0.0
 10
109.327965
 20
199.756159
 30
0.0
 10
109.458559
 20
199.735063
 30
0.0
 11
104.331555
 21
199.735063
 31
0.0
 11
104.709245
 21
199.829729
 31
0.0
 11
105.048885
 21
200.074704
 31
0.0
 11
105.385182
 21
200.411451
 31
0.0
 11
105.798545
 21
200.818336
 31
0.0
 11
106.287588
 21
201.147245
 31
0.0
 11
106.894118
 21
201.282572
 31
0.0
 11
107.500262
 21
201.147454
 31
0.0
 11
107.989756
 21
200.818753
 31
0.0
 11
108.403993
 21
200.411451
 31
0.0
 11
108.740325
 21
200.074704
 31
0.0
 11
109.080209
 21
199.829729
 31
0.0
 11
109.458559
 21
199.735063
 31
0.0
  0
SPLINE
  5
125
100
AcDbEntity
  8
Calque_1
 62
7
100
AcDbSpline
 70
0
 71
3
 72
10
 73
6
 74
4
 40
0.000000
 40
0.000000
 40
0.000000
 40
0.000000
 40
0.389336
 40
0.807908
 40
1.283354
 40
1.283354
 40
1.283354
 40
1.283354
 10
109.456675
 20
198.358771
 30
0.0
 10
109.326311
 20
198.337646
 30
0.0
 10
109.055793
 20
198.293809
 30
0.0
 10
108.718015
 20
198.010147
 30
0.0
 10
108.513014
 20
197.796175
 30
0.0
 10
108.403993
 20
197.682383
 30
0.0
 11
109.456675
 21
198.358771
 31
0.0
 11
109.079023
 21
198.264105
 31
0.0
 11
108.739627
 21
198.019130
 31
0.0
 11
108.403993
 21
197.682383
 31
0.0
  0
LWPOLYLINE
  5
126
100
AcDbEntity
  8
Calque_1
 62
7
100
AcDbPolyline
 90
3
 70
0
 10
109.458559
 20
199.735063
 30
0.0
 10
109.561097
 20
199.735063
 30
0.0
 10
109.561097
 20
199.264697
 30
0.0
  0
SPLINE
  5
127
100
AcDbEntity
  8
Calque_1
 62
7
100
AcDbSpline
 70
0
 71
3
 72
16
 73
12
 74
10
 40
0.000000
 40
0.000000
 40
0.000000
 40
0.000000
 40
0.580323
 40
1.169629
 40
1.791051
 40
2.411989
 40
3.001151
 40
3.581442
 40
4.057849
 40
4.477015
 40
4.867059
 40
4.867059
 40
4.867059
 40
4.867059
 10
108.403993
 20
197.682383
 30
0.0
 10
108.270143
 20
197.542769
 30
0.0
 10
108.000370
 20
197.261380
 30
0.0
 10
107.509666
 20
196.906388
 30
0.0
 10
106.894276
 20
196.763878
 30
0.0
 10
106.278966
 20
196.906371
 30
0.0
 10
105.788252
 20
197.260525
 30
0.0
 10
105.408866
 20
197.658431
 30
0.0
 10
105.069882
 20
198.009852
 30
0.0
 10
104.731242
 20
198.293897
 30
0.0
 10
104.460282
 20
198.337671
 30
0.0
 10
104.329678
 20
198.358771
 30
0.0
 11
108.403993
 21
197.682383
 31
0.0
 11
107.989966
 21
197.275743
 31
0.0
 11
107.500682
 21
196.947289
 31
0.0
 11
106.894118
 21
196.812207
 31
0.0
 11
106.288005
 21
196.947080
 31
0.0
 11
105.798754
 21
197.275326
 31
0.0
 11
105.385182
 21
197.682383
 31
0.0
 11
105.048188
 21
198.019130
 31
0.0
 11
104.708060
 21
198.264105
 31
0.0
 11
104.329678
 21
198.358771
 31
0.0
  0
SPLINE
  5
128
100
AcDbEntity
  8
Calque_1
 62
7
100
AcDbSpline
 70
0
 71
3
 72
19
 73
15
 74
13
 40
0.000000
 40
0.000000
 40
0.000000
 40
0.000000
 40
2.092133
 40
4.121334
 40
6.212554
 40
8.304172
 40
10.333227
 40
12.425306
 40
14.516577
 40
16.545928
 40
18.637656
 40
20.728985
 40
22.758482
 40
24.849807
 40
24.849807
 40
24.849807
 40
24.849807
 10
106.894118
 20
203.047385
 30
0.0
 10
106.188718
 20
202.937496
 30
0.0
 10
104.799135
 20
202.721023
 30
0.0
 10
103.269660
 20
201.128177
 30
0.0
 10
102.703548
 20
199.050941
 30
0.0
 10
103.269512
 20
196.951841
 30
0.0
 10
104.799178
 20
195.423150
 30
0.0
 10
106.893883
 20
194.856580
 30
0.0
 10
108.988468
 20
195.423456
 30
0.0
 10
110.518200
 20
196.951735
 30
0.0
 10
111.084948
 20
199.050940
 30
0.0
 10
110.518047
 20
201.128284
 30
0.0
 10
108.988530
 20
202.720709
 30
0.0
 10
107.599204
 20
202.937409
 30
0.0
 10
106.894118
 20
203.047385
 30
0.0
 11
106.894118
 21
203.047385
 31
0.0
 11
104.874538
 21
202.501203
 31
0.0
 11
103.439884
 21
201.066133
 31
0.0
 11
102.894119
 21
199.047386
 31
0.0
 11
103.439884
 21
197.028225
 31
0.0
 11
104.874538
 21
195.593362
 31
0.0
 11
106.894118
 21
195.047387
 31
0.0
 11
108.912862
 21
195.593362
 31
0.0
 11
110.347934
 21
197.028225
 31
0.0
 11
110.894117
 21
199.047386
 31
0.0
 11
110.347934
 21
201.066133
 31
0.0
 11
108.912862
 21
202.501203
 31
0.0
 11
106.894118
 21
203.047385
 31
0.0
  0
LWPOLYLINE
  5
129
100
AcDbEntity
  8
Calque_1
 62
7
100
AcDbPolyline
 90
5
 70
0
 10
104.329678
 20
198.358771
 30
0.0
 10
104.227140
 20
198.358771
 30
0.0
 10
104.227140
 20
198.829137
 30
0.0
 10
109.456675
 20
198.829137
 30
0.0
 10
109.456675
 20
198.358771
 30
0.0
  0
SPLINE
  5
12a
100
AcDbEntity
  8
Calque_1
 62
7
100
AcDbSpline
 70
0
 71
3
 72
13
 73
9
 74
7
 40
0.000000
 40
0.000000
 40
0.000000
 40
0.000000
 40
0.448352
 40
0.910328
 40
1.411669
 40
1.577190
 40
1.743122
 40
1.908651
 40
1.908651
 40
1.908651
 40
1.908651
 10
106.894118
 20
197.282192
 30
0.0
 10
107.044445
 20
197.305007
 30
0.0
 10
107.349667
 20
197.351331
 30
0.0
 10
107.726393
 20
197.657172
 30
0.0
 10
107.985101
 20
197.926340
 30
0.0
 10
108.176948
 20
198.127320
 30
0.0
 10
108.292956
 20
198.245566
 30
0.0
 10
108.373288
 20
198.321443
 30
0.0
 10
108.413405
 20
198.359335
 30
0.0
 11
106.894118
 21
197.282192
 31
0.0
 11
107.329990
 21
197.387242
 31
0.0
 11
107.707539
 21
197.653472
 31
0.0
 11
108.062511
 21
198.007503
 31
0.0
 11
108.177106
 21
198.126940
 31
0.0
 11
108.293792
 21
198.244913
 31
0.0
 11
108.413405
 21
198.359335
 31
0.0
  0
SPLINE
  5
12b
100
AcDbEntity
  8
Calque_1
 62
7
100
AcDbSpline
 70
0
 71
3
 72
13
 73
9
 74
7
 40
0.000000
 40
0.000000
 40
0.000000
 40
0.000000
 40
0.165528
 40
0.331459
 40
0.496981
 40
0.998789
 40
1.460963
 40
1.909352
 40
1.909352
 40
1.909352
 40
1.909352
 10
105.373893
 20
198.359335
 30
0.0
 10
105.414010
 20
198.321443
 30
0.0
 10
105.494340
 20
198.245565
 30
0.0
 10
105.610353
 20
198.127324
 30
0.0
 10
105.802272
 20
197.926196
 30
0.0
 10
106.061583
 20
197.657311
 30
0.0
 10
106.438476
 20
197.351347
 30
0.0
 10
106.743778
 20
197.305010
 30
0.0
 10
106.894118
 20
197.282192
 30
0.0
 11
105.373893
 21
198.359335
 31
0.0
 11
105.493505
 21
198.244913
 31
0.0
 11
105.610190
 21
198.126940
 31
0.0
 11
105.724787
 21
198.007503
 31
0.0
 11
106.080418
 21
197.653472
 31
0.0
 11
106.458209
 21
197.387242
 31
0.0
 11
106.894118
 21
197.282192
 31
0.0
  0
LWPOLYLINE
  5
12c
100
AcDbEntity
  8
Calque_1
 62
7
100
AcDbPolyline
 90
2
 70
0
 10
108.413405
 20
198.359335
 30
0.0
 10
105.373893
 20
198.359335
 30
0.0
  0
SPLINE
  5
12d
100
AcDbEntity
  8
Calque_1
 62
7
100
AcDbSpline
 70
0
 71
3
 72
13
 73
9
 74
7
 40
0.000000
 40
0.000000
 40
0.000000
 40
0.000000
 40
0.448355
 40
0.910327
 40
1.411666
 40
1.577188
 40
1.743121
 40
1.908648
 40
1.908648
 40
1.908648
 40
1.908648
 10
106.894118
 20
200.811734
 30
0.0
 10
106.743791
 20
200.788919
 30
0.0
 10
106.438569
 20
200.742598
 30
0.0
 10
106.061842
 20
200.436758
 30
0.0
 10
105.803134
 20
200.167593
 30
0.0
 10
105.611289
 20
199.966611
 30
0.0
 10
105.495282
 20
199.848364
 30
0.0
 10
105.414949
 20
199.772488
 30
0.0
 10
105.374832
 20
199.734597
 30
0.0
 11
106.894118
 21
200.811734
 31
0.0
 11
106.458244
 21
200.706686
 31
0.0
 11
106.080697
 21
200.440459
 31
0.0
 11
105.725726
 21
200.086430
 31
0.0
 11
105.611131
 21
199.966992
 31
0.0
 11
105.494445
 21
199.849016
 31
0.0
 11
105.374832
 21
199.734597
 31
0.0
  0
SPLINE
  5
12e
100
AcDbEntity
  8
Calque_1
 62
7
100
AcDbSpline
 70
0
 71
3
 72
13
 73
9
 74
7
 40
0.000000
 40
0.000000
 40
0.000000
 40
0.000000
 40
0.165527
 40
0.331460
 40
0.496981
 40
0.998789
 40
1.460962
 40
1.909347
 40
1.909347
 40
1.909347
 40
1.909347
 10
108.414344
 20
199.734597
 30
0.0
 10
108.374227
 20
199.772489
 30
0.0
 10
108.293894
 20
199.848365
 30
0.0
 10
108.177881
 20
199.966606
 30
0.0
 10
107.985967
 20
200.167739
 30
0.0
 10
107.726652
 20
200.436620
 30
0.0
 10
107.349758
 20
200.742579
 30
0.0
 10
107.044457
 20
200.788916
 30
0.0
 10
106.894118
 20
200.811734
 30
0.0
 11
108.414344
 21
199.734597
 31
0.0
 11
108.294730
 21
199.849016
 31
0.0
 11
108.178044
 21
199.966992
 31
0.0
 11
108.063450
 21
200.086430
 31
0.0
 11
107.707817
 21
200.440459
 31
0.0
 11
107.330025
 21
200.706686
 31
0.0
 11
106.894118
 21
200.811734
 31
0.0
  0
LWPOLYLINE
  5
12f
100
AcDbEntity
  8
Calque_1
 62
7
100
AcDbPolyline
 90
2
 70
0
 10
105.374832
 20
199.734597
 30
0.0
 10
108.414344
 20
199.734597
 30
0.0
  0
SPLINE
  5
130
100
AcDbEntity
  8
Calque_1
 62
7
100
AcDbSpline
 70
0
 71
3
 72
19
 73
15
 74
13
 40
0.000000
 40
0.000000
 40
0.000000
 40
0.000000
 40
2.092050
 40
4.121323
 40
6.212455
 40
8.303990
 40
10.333116
 40
12.425112
 40
14.516299
 40
16.545721
 40
18.637365
 40
20.728607
 40
22.758176
 40
24.849417
 40
24.849417
 40
24.849417
 40
24.849417
 10
106.883479
 20
191.945575
 30
0.0
 10
106.178113
 20
191.835656
 30
0.0
 10
104.788548
 20
191.619119
 30
0.0
 10
103.259131
 20
190.026307
 30
0.0
 10
102.692860
 20
187.949130
 30
0.0
 10
103.258981
 20
185.850083
 30
0.0
 10
104.788591
 20
184.321449
 30
0.0
 10
106.883243
 20
183.754721
 30
0.0
 10
108.977775
 20
184.321755
 30
0.0
 10
110.507451
 20
185.849977
 30
0.0
 10
111.074356
 20
187.949130
 30
0.0
 10
110.507296
 20
190.026413
 30
0.0
 10
108.977837
 20
191.618804
 30
0.0
 10
107.588529
 20
191.835570
 30
0.0
 10
106.883479
 20
191.945575
 30
0.0
 11
106.883479
 21
191.945575
 31
0.0
 11
104.863998
 21
191.399341
 31
0.0
 11
103.429295
 21
189.964219
 31
0.0
 11
102.883480
 21
187.945576
 31
0.0
 11
103.429295
 21
185.926515
 31
0.0
 11
104.863998
 21
184.491602
 31
0.0
 11
106.883479
 21
183.945577
 31
0.0
 11
108.902122
 21
184.491602
 31
0.0
 11
110.337244
 21
185.926515
 31
0.0
 11
110.883478
 21
187.945576
 31
0.0
 11
110.337244
 21
189.964219
 31
0.0
 11
108.902122
 21
191.399341
 31
0.0
 11
106.883479
 21
191.945575
 31
0.0
  0
LWPOLYLINE
  5
131
100
AcDbEntity
  8
Calque_1
 62
7
100
AcDbPolyline
 90
1
 70
1
 10
106.883479
 20
191.945575
 30
0.0
  0
SPLINE
  5
132
100
AcDbEntity
  8
Calque_1
 62
7
100
AcDbSpline
 70
0
 71
3
 72
31
 73
27
 74
25
 40
0.000000
 40
0.000000
 40
0.000000
 40
0.000000
 40
0.015428
 40
0.031943
 40
0.051792
 40
0.075701
 40
0.103610
 40
0.135768
 40
0.212776
 40
0.304961
 40
0.410491
 40
0.598068
 40
0.744322
 40
0.816913
 40
0.845899
 40
0.873847
 40
0.901365
 40
0.929469
 40
0.958295
 40
0.987254
 40
1.015897
 40
1.044346
 40
1.072446
 40
1.089194
 40
1.106500
 40
1.124157
 40
1.124157
 40
1.124157
 40
1.124157
 10
107.730879
 20
190.644855
 30
0.0
 10
107.735189
 20
190.641965
 30
0.0
 10
107.744112
 20
190.635983
 30
0.0
 10
107.753914
 20
190.621417
 30
0.0
 10
107.763272
 20
190.603716
 30
0.0
 10
107.773735
 20
190.582204
 30
0.0
 10
107.784749
 20
190.556468
 30
0.0
 10
107.801166
 20
190.513815
 30
0.0
 10
107.822191
 20
190.450046
 30
0.0
 10
107.848147
 20
190.362221
 30
0.0
 10
107.881234
 20
190.238109
 30
0.0
 10
107.919006
 20
190.096671
 30
0.0
 10
107.952140
 20
189.965141
 30
0.0
 10
107.976582
 20
189.886411
 30
0.0
 10
107.984431
 20
189.843490
 30
0.0
 10
107.979187
 20
189.815291
 30
0.0
 10
107.967426
 20
189.789755
 30
0.0
 10
107.949237
 20
189.767926
 30
0.0
 10
107.927126
 20
189.749556
 30
0.0
 10
107.902229
 20
189.734841
 30
0.0
 10
107.875403
 20
189.724232
 30
0.0
 10
107.847420
 20
189.718889
 30
0.0
 10
107.822833
 20
189.717529
 30
0.0
 10
107.802282
 20
189.722424
 30
0.0
 10
107.788050
 20
189.732479
 30
0.0
 10
107.778496
 20
189.739108
 30
0.0
 10
107.773671
 20
189.742456
 30
0.0
 11
107.730879
 21
190.644855
 31
0.0
 11
107.743137
 21
190.635486
 31
0.0
 11
107.753028
 21
190.622261
 31
0.0
 11
107.762559
 21
190.604850
 31
0.0
 11
107.772988
 21
190.583335
 31
0.0
 11
107.784044
 21
190.557709
 31
0.0
 11
107.795649
 21
190.527718
 31
0.0
 11
107.820258
 21
190.454749
 31
0.0
 11
107.846516
 21
190.366382
 31
0.0
 11
107.874192
 21
190.264546
 31
0.0
 11
107.922090
 21
190.083188
 31
0.0
 11
107.959817
 21
189.941884
 31
0.0
 11
107.978910
 21
189.871848
 31
0.0
 11
107.982684
 21
189.843109
 31
0.0
 11
107.978053
 21
189.815547
 31
0.0
 11
107.966492
 21
189.790575
 31
0.0
 11
107.948809
 21
189.768732
 31
0.0
 11
107.926720
 21
189.750212
 31
0.0
 11
107.901793
 21
189.735471
 31
0.0
 11
107.875102
 21
189.725079
 31
0.0
 11
107.847206
 21
189.719499
 31
0.0
 11
107.819109
 21
189.719032
 31
0.0
 11
107.802923
 21
189.723333
 31
0.0
 11
107.788164
 21
189.732369
 31
0.0
 11
107.773671
 21
189.742456
 31
0.0
  0
LWPOLYLINE
  5
133
100
AcDbEntity
  8
Calque_1
 62
7
100
AcDbPolyline
 90
3
 70
0
 10
107.773671
 20
189.742456
 30
0.0
 10
107.773671
 20
189.723194
 30
0.0
 10
107.746084
 20
189.757626
 30
0.0
  0
SPLINE
  5
134
100
AcDbEntity
  8
Calque_1
 62
7
100
AcDbSpline
 70
0
 71
3
 72
31
 73
27
 74
25
 40
0.000000
 40
0.000000
 40
0.000000
 40
0.000000
 40
0.003376
 40
0.007304
 40
0.010927
 40
0.021815
 40
0.034091
 40
0.050426
 40
0.076904
 40
0.107652
 40
0.141979
 40
0.219698
 40
0.306493
 40
0.398076
 40
0.490041
 40
0.578330
 40
0.659091
 40
0.727977
 40
0.781545
 40
0.817378
 40
0.858555
 40
0.899653
 40
0.941789
 40
0.984457
 40
1.027532
 40
1.071570
 40
1.071570
 40
1.071570
 40
1.071570
 10
107.746084
 20
189.757626
 30
0.0
 10
107.745492
 20
189.758590
 30
0.0
 10
107.744213
 20
189.760676
 30
0.0
 10
107.743561
 20
189.764379
 30
0.0
 10
107.739453
 20
189.769118
 30
0.0
 10
107.735647
 20
189.777227
 30
0.0
 10
107.729822
 20
189.789034
 30
0.0
 10
107.723556
 20
189.806323
 30
0.0
 10
107.715141
 20
189.829343
 30
0.0
 10
107.705530
 20
189.858316
 30
0.0
 10
107.691320
 20
189.903743
 30
0.0
 10
107.672838
 20
189.967401
 30
0.0
 10
107.650012
 20
190.049658
 30
0.0
 10
107.626573
 20
190.136673
 30
0.0
 10
107.604004
 20
190.224430
 30
0.0
 10
107.583401
 20
190.308968
 30
0.0
 10
107.565528
 20
190.386225
 30
0.0
 10
107.550823
 20
190.452396
 30
0.0
 10
107.541365
 20
190.504219
 30
0.0
 10
107.534847
 20
190.547504
 30
0.0
 10
107.543510
 20
190.587294
 30
0.0
 10
107.569077
 20
190.621164
 30
0.0
 10
107.603948
 20
190.645607
 30
0.0
 10
107.644804
 20
190.659187
 30
0.0
 10
107.689196
 20
190.661109
 30
0.0
 10
107.716348
 20
190.649989
 30
0.0
 10
107.730075
 20
190.644368
 30
0.0
 11
107.746084
 21
189.757626
 31
0.0
 11
107.744490
 21
189.760602
 31
0.0
 11
107.743209
 21
189.764315
 31
0.0
 11
107.741145
 21
189.767292
 31
0.0
 11
107.735817
 21
189.776788
 31
0.0
 11
107.730598
 21
189.787899
 31
0.0
 11
107.724705
 21
189.803134
 31
0.0
 11
107.715745
 21
189.828049
 31
0.0
 11
107.705985
 21
189.857208
 31
0.0
 11
107.695707
 21
189.889960
 31
0.0
 11
107.673822
 21
189.964534
 31
0.0
 11
107.650541
 21
190.048148
 31
0.0
 11
107.626774
 21
190.136594
 31
0.0
 11
107.603891
 21
190.225666
 31
0.0
 11
107.582983
 21
190.311444
 31
0.0
 11
107.564756
 21
190.390121
 31
0.0
 11
107.550203
 21
190.457453
 31
0.0
 11
107.540621
 21
190.510156
 31
0.0
 11
107.537169
 21
190.545823
 31
0.0
 11
107.546239
 21
190.585988
 31
0.0
 11
107.570314
 21
190.619297
 31
0.0
 11
107.604690
 21
190.643662
 31
0.0
 11
107.645153
 21
190.657204
 31
0.0
 11
107.688220
 21
190.658061
 31
0.0
 11
107.730075
 21
190.644368
 31
0.0
  0
LWPOLYLINE
  5
135
100
AcDbEntity
  8
Calque_1
 62
7
100
AcDbPolyline
 90
2
 70
0
 10
107.730075
 20
190.644368
 30
0.0
 10
107.730879
 20
190.644855
 30
0.0
  0
SPLINE
  5
136
100
AcDbEntity
  8
Calque_1
 62
7
100
AcDbSpline
 70
0
 71
3
 72
28
 73
24
 74
22
 40
0.000000
 40
0.000000
 40
0.000000
 40
0.000000
 40
0.047408
 40
0.093651
 40
0.139060
 40
0.170792
 40
0.208481
 40
0.259214
 40
0.329106
 40
0.424516
 40
0.550836
 40
0.645672
 40
0.736139
 40
0.818379
 40
0.887877
 40
0.940937
 40
0.974952
 40
1.018051
 40
1.058076
 40
1.095673
 40
1.122677
 40
1.150584
 40
1.179745
 40
1.179745
 40
1.179745
 40
1.179745
 10
108.579712
 20
190.563582
 30
0.0
 10
108.595591
 20
190.561972
 30
0.0
 10
108.626959
 20
190.558793
 30
0.0
 10
108.668094
 20
190.534701
 30
0.0
 10
108.695417
 20
190.502702
 30
0.0
 10
108.707950
 20
190.465687
 30
0.0
 10
108.706109
 20
190.425011
 30
0.0
 10
108.692260
 20
190.373965
 30
0.0
 10
108.667198
 20
190.306399
 30
0.0
 10
108.628385
 20
190.217254
 30
0.0
 10
108.584715
 20
190.121196
 30
0.0
 10
108.541559
 20
190.026710
 30
0.0
 10
108.504175
 20
189.945741
 30
0.0
 10
108.469325
 20
189.872915
 30
0.0
 10
108.439183
 20
189.811654
 30
0.0
 10
108.415586
 20
189.765121
 30
0.0
 10
108.395126
 20
189.726795
 30
0.0
 10
108.369798
 20
189.696417
 30
0.0
 10
108.336456
 20
189.673241
 30
0.0
 10
108.303075
 20
189.660985
 30
0.0
 10
108.271543
 20
189.661690
 30
0.0
 10
108.245265
 20
189.672467
 30
0.0
 10
108.228991
 20
189.682290
 30
0.0
 10
108.220676
 20
189.687310
 30
0.0
 11
108.579712
 21
190.563582
 31
0.0
 11
108.626410
 21
190.555410
 31
0.0
 11
108.666606
 21
190.532548
 31
0.0
 11
108.695444
 21
190.497471
 31
0.0
 11
108.705494
 21
190.467373
 31
0.0
 11
108.705149
 21
190.429686
 31
0.0
 11
108.693327
 21
190.380349
 31
0.0
 11
108.669653
 21
190.314588
 31
0.0
 11
108.632299
 21
190.226795
 31
0.0
 11
108.580333
 21
190.111659
 31
0.0
 11
108.540894
 21
190.025413
 31
0.0
 11
108.502828
 21
189.943344
 31
0.0
 11
108.467345
 21
189.869153
 31
0.0
 11
108.436625
 21
189.806813
 31
0.0
 11
108.412507
 21
189.759551
 31
0.0
 11
108.395668
 21
189.729996
 31
0.0
 11
108.367793
 21
189.697125
 31
0.0
 11
108.334901
 21
189.674320
 31
0.0
 11
108.299218
 21
189.662474
 31
0.0
 11
108.272226
 21
189.663284
 31
0.0
 11
108.246031
 21
189.672906
 31
0.0
 11
108.220676
 21
189.687310
 31
0.0
  0
LWPOLYLINE
  5
137
100
AcDbEntity
  8
Calque_1
 62
7
100
AcDbPolyline
 90
3
 70
0
 10
108.220676
 20
189.687310
 30
0.0
 10
108.220676
 20
189.670870
 30
0.0
 10
108.194500
 20
189.697047
 30
0.0
  0
SPLINE
  5
138
100
AcDbEntity
  8
Calque_1
 62
7
100
AcDbSpline
 70
0
 71
3
 72
25
 73
21
 74
19
 40
0.000000
 40
0.000000
 40
0.000000
 40
0.000000
 40
0.022080
 40
0.044361
 40
0.067474
 40
0.092161
 40
0.120173
 40
0.153867
 40
0.243874
 40
0.371757
 40
0.546785
 40
0.697449
 40
0.806386
 40
0.881595
 40
0.909498
 40
0.932886
 40
0.953160
 40
0.971513
 40
0.988935
 40
1.006310
 40
1.006310
 40
1.006310
 40
1.006310
 10
108.194500
 20
189.697047
 30
0.0
 10
108.189608
 20
189.702580
 30
0.0
 10
108.179779
 20
189.713698
 30
0.0
 10
108.169695
 20
189.734093
 30
0.0
 10
108.163552
 20
189.756708
 30
0.0
 10
108.160579
 20
189.781939
 30
0.0
 10
108.163005
 20
189.810800
 30
0.0
 10
108.174443
 20
189.860152
 30
0.0
 10
108.203925
 20
189.938895
 30
0.0
 10
108.256755
 20
190.058698
 30
0.0
 10
108.321354
 20
190.195419
 30
0.0
 10
108.383609
 20
190.326255
 30
0.0
 10
108.433607
 20
190.425994
 30
0.0
 10
108.468199
 20
190.487800
 30
0.0
 10
108.493296
 20
190.521799
 30
0.0
 10
108.509991
 20
190.538937
 30
0.0
 10
108.526459
 20
190.551609
 30
0.0
 10
108.543508
 20
190.559654
 30
0.0
 10
108.560987
 20
190.563340
 30
0.0
 10
108.572596
 20
190.563628
 30
0.0
 10
108.578392
 20
190.563772
 30
0.0
 11
108.194500
 21
189.697047
 31
0.0
 11
108.180616
 21
189.714215
 31
0.0
 11
108.170495
 21
189.734065
 31
0.0
 11
108.164231
 21
189.756313
 31
0.0
 11
108.161487
 21
189.780847
 31
0.0
 11
108.163447
 21
189.808791
 31
0.0
 11
108.170581
 21
189.841721
 31
0.0
 11
108.200129
 21
189.926740
 31
0.0
 11
108.250846
 21
190.044136
 31
0.0
 11
108.324900
 21
190.202725
 31
0.0
 11
108.390119
 21
190.338542
 31
0.0
 11
108.439533
 21
190.435627
 31
0.0
 11
108.477851
 21
190.500343
 31
0.0
 11
108.494721
 21
190.522568
 31
0.0
 11
108.511122
 21
190.539242
 31
0.0
 11
108.527381
 21
190.551354
 31
0.0
 11
108.544024
 21
190.559089
 31
0.0
 11
108.561044
 21
190.562811
 31
0.0
 11
108.578392
 21
190.563772
 31
0.0
  0
LWPOLYLINE
  5
139
100
AcDbEntity
  8
Calque_1
 62
7
100
AcDbPolyline
 90
2
 70
0
 10
108.578392
 20
190.563772
 30
0.0
 10
108.579712
 20
190.563582
 30
0.0
  0
SPLINE
  5
13a
100
AcDbEntity
  8
Calque_1
 62
7
100
AcDbSpline
 70
0
 71
3
 72
28
 73
24
 74
22
 40
0.000000
 40
0.000000
 40
0.000000
 40
0.000000
 40
0.064960
 40
0.133936
 40
0.208661
 40
0.224927
 40
0.242006
 40
0.259900
 40
0.279643
 40
0.302451
 40
0.329644
 40
0.401298
 40
0.501621
 40
0.636710
 40
0.826255
 40
0.959562
 40
1.049128
 40
1.082062
 40
1.109478
 40
1.132988
 40
1.154652
 40
1.175826
 40
1.197492
 40
1.197492
 40
1.197492
 40
1.197492
 10
109.252113
 20
189.915945
 30
0.0
 10
109.273971
 20
189.911273
 30
0.0
 10
109.319038
 20
189.901639
 30
0.0
 10
109.362335
 20
189.841118
 30
0.0
 10
109.375366
 20
189.788034
 30
0.0
 10
109.372268
 20
189.751932
 30
0.0
 10
109.367049
 20
189.735551
 30
0.0
 10
109.358512
 20
189.719268
 30
0.0
 10
109.344822
 20
189.704268
 30
0.0
 10
109.327016
 20
189.689293
 30
0.0
 10
109.293739
 20
189.666038
 30
0.0
 10
109.235994
 20
189.633096
 30
0.0
 10
109.144434
 20
189.587337
 30
0.0
 10
109.016591
 20
189.526328
 30
0.0
 10
108.878664
 20
189.460889
 30
0.0
 10
108.753575
 20
189.403945
 30
0.0
 10
108.673862
 20
189.373128
 30
0.0
 10
108.625322
 20
189.360893
 30
0.0
 10
108.597521
 20
189.357358
 30
0.0
 10
108.573057
 20
189.359040
 30
0.0
 10
108.552357
 20
189.367631
 30
0.0
 10
108.534541
 20
189.379865
 30
0.0
 10
108.524252
 20
189.389794
 30
0.0
 10
108.519048
 20
189.394815
 30
0.0
 11
109.252113
 21
189.915945
 31
0.0
 11
109.313623
 21
189.895056
 31
0.0
 11
109.356969
 21
189.841401
 31
0.0
 11
109.373370
 21
189.768498
 31
0.0
 11
109.371711
 21
189.752317
 31
0.0
 11
109.366680
 21
189.735996
 31
0.0
 11
109.358201
 21
189.720238
 31
0.0
 11
109.345252
 21
189.705335
 31
0.0
 11
109.327945
 21
189.690479
 31
0.0
 11
109.305778
 21
189.674730
 31
0.0
 11
109.244060
 21
189.638326
 31
0.0
 11
109.154687
 21
189.592751
 31
0.0
 11
109.032954
 21
189.534183
 31
0.0
 11
108.861491
 21
189.453390
 31
0.0
 11
108.739646
 21
189.399309
 31
0.0
 11
108.655418
 21
189.368850
 31
0.0
 11
108.623397
 21
189.361152
 31
0.0
 11
108.596145
 21
189.358157
 31
0.0
 11
108.572741
 21
189.360384
 31
0.0
 11
108.552596
 21
189.368354
 31
0.0
 11
108.535054
 21
189.380212
 31
0.0
 11
108.519048
 21
189.394815
 31
0.0
  0
LWPOLYLINE
  5
13b
100
AcDbEntity
  8
Calque_1
 62
7
100
AcDbPolyline
 90
3
 70
0
 10
108.519048
 20
189.394815
 30
0.0
 10
108.492872
 20
189.420991
 30
0.0
 10
108.506630
 20
189.420991
 30
0.0
  0
SPLINE
  5
13c
100
AcDbEntity
  8
Calque_1
 62
7
100
AcDbSpline
 70
0
 71
3
 72
34
 73
30
 74
28
 40
0.000000
 40
0.000000
 40
0.000000
 40
0.000000
 40
0.028113
 40
0.054237
 40
0.077626
 40
0.109302
 40
0.143582
 40
0.182966
 40
0.198150
 40
0.217781
 40
0.241889
 40
0.269887
 40
0.301447
 40
0.336850
 40
0.417050
 40
0.504962
 40
0.596292
 40
0.686884
 40
0.772575
 40
0.849252
 40
0.882880
 40
0.912704
 40
0.938319
 40
0.949848
 40
0.960763
 40
0.970237
 40
0.977145
 40
0.982942
 40
0.988833
 40
0.988833
 40
0.988833
 40
0.988833
 10
108.506630
 20
189.420991
 30
0.0
 10
108.500890
 20
189.428385
 30
0.0
 10
108.489817
 20
189.442649
 30
0.0
 10
108.475187
 20
189.464217
 30
0.0
 10
108.468381
 20
189.491262
 30
0.0
 10
108.476290
 20
189.521126
 30
0.0
 10
108.495201
 20
189.550980
 30
0.0
 10
108.516512
 20
189.571943
 30
0.0
 10
108.536276
 20
189.586834
 30
0.0
 10
108.553009
 20
189.597160
 30
0.0
 10
108.573756
 20
189.609044
 30
0.0
 10
108.598252
 20
189.622384
 30
0.0
 10
108.626349
 20
189.636964
 30
0.0
 10
108.670070
 20
189.659207
 30
0.0
 10
108.730615
 20
189.689807
 30
0.0
 10
108.808085
 20
189.728247
 30
0.0
 10
108.889283
 20
189.766948
 30
0.0
 10
108.970526
 20
189.803795
 30
0.0
 10
109.047742
 20
189.837679
 30
0.0
 10
109.107854
 20
189.863262
 30
0.0
 10
109.150977
 20
189.881228
 30
0.0
 10
109.178539
 20
189.892233
 30
0.0
 10
109.199253
 20
189.900634
 30
0.0
 10
109.214626
 20
189.905159
 30
0.0
 10
109.224888
 20
189.907993
 30
0.0
 10
109.233367
 20
189.911338
 30
0.0
 10
109.240428
 20
189.913497
 30
0.0
 10
109.246178
 20
189.915954
 30
0.0
 10
109.250087
 20
189.916286
 30
0.0
 10
109.252057
 20
189.916453
 30
0.0
 11
108.506630
 21
189.420991
 31
0.0
 11
108.489640
 21
189.443388
 31
0.0
 11
108.476114
 21
189.465739
 31
0.0
 11
108.470788
 21
189.488513
 31
0.0
 11
108.477444
 21
189.519482
 31
0.0
 11
108.495247
 21
189.548776
 31
0.0
 11
108.523070
 21
189.576651
 31
0.0
 11
108.535208
 21
189.585773
 31
0.0
 11
108.551783
 21
189.596291
 31
0.0
 11
108.572670
 21
189.608330
 31
0.0
 11
108.597250
 21
189.621738
 31
0.0
 11
108.625230
 21
189.636338
 31
0.0
 11
108.656766
 21
189.652427
 31
0.0
 11
108.728363
 21
189.688563
 31
0.0
 11
108.807164
 21
189.727536
 31
0.0
 11
108.889627
 21
189.766791
 31
0.0
 11
108.972091
 21
189.804296
 31
0.0
 11
109.050559
 21
189.838731
 31
0.0
 11
109.121113
 21
189.868758
 31
0.0
 11
109.152178
 21
189.881633
 31
0.0
 11
109.179839
 21
189.892783
 31
0.0
 11
109.203797
 21
189.901848
 31
0.0
 11
109.214832
 21
189.905185
 31
0.0
 11
109.225288
 21
189.908318
 31
0.0
 11
109.234206
 21
189.911514
 31
0.0
 11
109.240747
 21
189.913736
 31
0.0
 11
109.246222
 21
189.915643
 31
0.0
 11
109.252057
 21
189.916453
 31
0.0
  0
LWPOLYLINE
  5
13d
100
AcDbEntity
  8
Calque_1
 62
7
100
AcDbPolyline
 90
2
 70
0
 10
109.252057
 20
189.916453
 30
0.0
 10
109.252113
 20
189.915945
 30
0.0
  0
SPLINE
  5
13e
100
AcDbEntity
  8
Calque_1
 62
7
100
AcDbSpline
 70
0
 71
3
 72
13
 73
9
 74
7
 40
0.000000
 40
0.000000
 40
0.000000
 40
0.000000
 40
0.044241
 40
0.090022
 40
0.138815
 40
0.207570
 40
0.280608
 40
0.345998
 40
0.345998
 40
0.345998
 40
0.345998
 10
107.097100
 20
189.333100
 30
0.0
 10
107.111838
 20
189.334128
 30
0.0
 10
107.141827
 20
189.336220
 30
0.0
 10
107.188000
 20
189.331405
 30
0.0
 10
107.241726
 20
189.322067
 30
0.0
 10
107.301859
 20
189.300675
 30
0.0
 10
107.363349
 20
189.268190
 30
0.0
 10
107.398694
 20
189.238359
 30
0.0
 10
107.415390
 20
189.224268
 30
0.0
 11
107.097100
 21
189.333100
 31
0.0
 11
107.141303
 21
189.334925
 31
0.0
 11
107.186916
 21
189.331011
 31
0.0
 11
107.234888
 21
189.322093
 31
0.0
 11
107.299883
 21
189.299671
 31
0.0
 11
107.364021
 21
189.264729
 31
0.0
 11
107.415390
 21
189.224268
 31
0.0
  0
LWPOLYLINE
  5
13f
100
AcDbEntity
  8
Calque_1
 62
7
100
AcDbPolyline
 90
3
 70
0
 10
107.415390
 20
189.224268
 30
0.0
 10
107.475997
 20
189.163661
 30
0.0
 10
107.566957
 20
189.211921
 30
0.0
  0
SPLINE
  5
140
100
AcDbEntity
  8
Calque_1
 62
7
100
AcDbSpline
 70
0
 71
3
 72
82
 73
78
 74
76
 40
0.000000
 40
0.000000
 40
0.000000
 40
0.000000
 40
0.068511
 40
0.135389
 40
0.189482
 40
0.253169
 40
0.326269
 40
0.403775
 40
0.479105
 40
0.546897
 40
0.604416
 40
0.630802
 40
0.650589
 40
0.664843
 40
0.676791
 40
0.690555
 40
0.708656
 40
0.832581
 40
0.944065
 40
1.047790
 40
1.149252
 40
1.253443
 40
1.364990
 40
1.460518
 40
1.539778
 40
1.624114
 40
1.667853
 40
1.698683
 40
1.718198
 40
1.725071
 40
1.730786
 40
1.736505
 40
1.743285
 40
1.751781
 40
1.762494
 40
1.816753
 40
1.878963
 40
1.946859
 40
2.016802
 40
2.085281
 40
2.149278
 40
2.219791
 40
2.293881
 40
2.370704
 40
2.418648
 40
2.449824
 40
2.467591
 40
2.474064
 40
2.481298
 40
2.490250
 40
2.501760
 40
2.516658
 40
2.534981
 40
2.726620
 40
2.916868
 40
3.115513
 40
3.126815
 40
3.140863
 40
3.158464
 40
3.179930
 40
3.205144
 40
3.233813
 40
3.300783
 40
3.380122
 40
3.470832
 40
3.681281
 40
3.921540
 40
4.181168
 40
4.637244
 40
4.969994
 40
5.213518
 40
5.403392
 40
5.576144
 40
5.766952
 40
6.018836
 40
6.263235
 40
6.510633
 40
6.510633
 40
6.510633
 40
6.510633
 10
107.566957
 20
189.211921
 30
0.0
 10
107.587723
 20
189.221498
 30
0.0
 10
107.628760
 20
189.240424
 30
0.0
 10
107.689326
 20
189.258658
 30
0.0
 10
107.750607
 20
189.269143
 30
0.0
 10
107.814231
 20
189.258131
 30
0.0
 10
107.881866
 20
189.235088
 30
0.0
 10
107.950004
 20
189.202509
 30
0.0
 10
108.012892
 20
189.164296
 30
0.0
 10
108.065921
 20
189.122814
 30
0.0
 10
108.097103
 20
189.082322
 30
0.0
 10
108.113356
 20
189.051752
 30
0.0
 10
108.125822
 20
189.035821
 30
0.0
 10
108.137666
 20
189.025724
 30
0.0
 10
108.150540
 20
189.021307
 30
0.0
 10
108.165382
 20
189.021484
 30
0.0
 10
108.215475
 20
189.035747
 30
0.0
 10
108.296804
 20
189.059468
 30
0.0
 10
108.410913
 20
189.064687
 30
0.0
 10
108.515693
 20
189.044627
 30
0.0
 10
108.608919
 20
188.997524
 30
0.0
 10
108.688176
 20
188.925547
 30
0.0
 10
108.744557
 20
188.837540
 30
0.0
 10
108.784716
 20
188.750622
 30
0.0
 10
108.803294
 20
188.665082
 30
0.0
 10
108.796886
 20
188.595690
 30
0.0
 10
108.789031
 20
188.543244
 30
0.0
 10
108.788025
 20
188.512007
 30
0.0
 10
108.788027
 20
188.492644
 30
0.0
 10
108.791668
 20
188.482472
 30
0.0
 10
108.795016
 20
188.477307
 30
0.0
 10
108.799482
 20
188.473111
 30
0.0
 10
108.805499
 20
188.469493
 30
0.0
 10
108.813252
 20
188.465583
 30
0.0
 10
108.836667
 20
188.458257
 30
0.0
 10
108.874779
 20
188.438479
 30
0.0
 10
108.921309
 20
188.397784
 30
0.0
 10
108.964910
 20
188.347116
 30
0.0
 10
109.002746
 20
188.289434
 30
0.0
 10
109.031948
 20
188.228379
 30
0.0
 10
109.051517
 20
188.163191
 30
0.0
 10
109.056739
 20
188.093361
 30
0.0
 10
109.049020
 20
188.019515
 30
0.0
 10
109.029388
 20
187.955910
 30
0.0
 10
109.009886
 20
187.907670
 30
0.0
 10
108.999659
 20
187.877144
 30
0.0
 10
108.996643
 20
187.858507
 30
0.0
 10
108.998980
 20
187.848140
 30
0.0
 10
109.002783
 20
187.841512
 30
0.0
 10
109.009103
 20
187.834674
 30
0.0
 10
109.018901
 20
187.828036
 30
0.0
 10
109.031406
 20
187.819943
 30
0.0
 10
109.094927
 20
187.780184
 30
0.0
 10
109.189767
 20
187.677550
 30
0.0
 10
109.241547
 20
187.484587
 30
0.0
 10
109.216762
 20
187.348063
 30
0.0
 10
109.185508
 20
187.280092
 30
0.0
 10
109.177159
 20
187.268390
 30
0.0
 10
109.166429
 20
187.254329
 30
0.0
 10
109.152961
 20
187.237652
 30
0.0
 10
109.136920
 20
187.218328
 30
0.0
 10
109.110572
 20
187.187851
 30
0.0
 10
109.071768
 20
187.144304
 30
0.0
 10
109.018529
 20
187.085927
 30
0.0
 10
108.931867
 20
186.993315
 30
0.0
 10
108.806875
 20
186.863125
 30
0.0
 10
108.641194
 20
186.693962
 30
0.0
 10
108.415403
 20
186.469102
 30
0.0
 10
108.165923
 20
186.224355
 30
0.0
 10
107.915365
 20
185.988385
 30
0.0
 10
107.719584
 20
185.824027
 30
0.0
 10
107.549405
 20
185.713408
 30
0.0
 10
107.378144
 20
185.642760
 30
0.0
 10
107.180450
 20
185.587273
 30
0.0
 10
106.954904
 20
185.544375
 30
0.0
 10
106.705279
 20
185.538814
 30
0.0
 10
106.543639
 20
185.567973
 30
0.0
 10
106.462326
 20
185.582642
 30
0.0
 11
107.566957
 21
189.211921
 31
0.0
 11
107.629828
 21
189.239142
 31
0.0
 11
107.693864
 21
189.258430
 31
0.0
 11
107.747460
 21
189.265755
 31
0.0
 11
107.810569
 21
189.257196
 31
0.0
 11
107.879978
 21
189.234261
 31
0.0
 11
107.950011
 21
189.201055
 31
0.0
 11
108.014218
 21
189.161660
 31
0.0
 11
108.066482
 21
189.118483
 31
0.0
 11
108.101578
 21
189.072912
 31
0.0
 11
108.115138
 21
189.050277
 31
0.0
 11
108.127553
 21
189.034870
 31
0.0
 11
108.138761
 21
189.026063
 31
0.0
 11
108.150047
 21
189.022144
 31
0.0
 11
108.163811
 21
189.021987
 31
0.0
 11
108.181447
 21
189.026063
 31
0.0
 11
108.301817
 21
189.055532
 31
0.0
 11
108.413200
 21
189.060259
 31
0.0
 11
108.514892
 21
189.039822
 31
0.0
 11
108.605520
 21
188.994202
 31
0.0
 11
108.682879
 21
188.924407
 31
0.0
 11
108.745002
 21
188.831760
 31
0.0
 11
108.783418
 21
188.744298
 31
0.0
 11
108.798990
 21
188.666582
 31
0.0
 11
108.794603
 21
188.582361
 31
0.0
 11
108.789387
 21
188.538933
 31
0.0
 11
108.788107
 21
188.508130
 31
0.0
 11
108.789664
 21
188.488677
 31
0.0
 11
108.792060
 21
188.482235
 31
0.0
 11
108.795193
 21
188.477456
 31
0.0
 11
108.799330
 21
188.473507
 31
0.0
 11
108.805042
 21
188.469854
 31
0.0
 11
108.812668
 21
188.466107
 31
0.0
 11
108.822755
 21
188.462501
 31
0.0
 11
108.871201
 21
188.438066
 31
0.0
 11
108.918850
 21
188.398071
 31
0.0
 11
108.963308
 21
188.346754
 31
0.0
 11
109.001632
 21
188.288246
 31
0.0
 11
109.030900
 21
188.226336
 31
0.0
 11
109.048716
 21
188.164869
 31
0.0
 11
109.054590
 21
188.094601
 31
0.0
 11
109.046792
 21
188.020923
 31
0.0
 11
109.025291
 21
187.947170
 31
0.0
 11
109.008355
 21
187.902317
 31
0.0
 11
108.999259
 21
187.872497
 31
0.0
 11
108.997704
 21
187.854799
 31
0.0
 11
108.999209
 21
187.848504
 31
0.0
 11
109.002690
 21
187.842161
 31
0.0
 11
109.008711
 21
187.835537
 31
0.0
 11
109.017974
 21
187.828706
 31
0.0
 11
109.030468
 21
187.820590
 31
0.0
 11
109.045894
 21
187.810702
 31
0.0
 11
109.175885
 21
187.669890
 31
0.0
 11
109.226733
 21
187.486564
 31
0.0
 11
109.190575
 21
187.291236
 31
0.0
 11
109.185615
 21
187.281081
 31
0.0
 11
109.177802
 21
187.269406
 31
0.0
 11
109.167150
 21
187.255394
 31
0.0
 11
109.153713
 21
187.238654
 31
0.0
 11
109.137595
 21
187.219264
 31
0.0
 11
109.118890
 21
187.197538
 31
0.0
 11
109.074424
 21
187.147462
 31
0.0
 11
109.020966
 21
187.088835
 31
0.0
 11
108.959054
 21
187.022540
 31
0.0
 11
108.813523
 21
186.870521
 31
0.0
 11
108.645372
 21
186.698913
 31
0.0
 11
108.461637
 21
186.515478
 31
0.0
 11
108.135324
 21
186.196848
 31
0.0
 11
107.891244
 21
185.970689
 31
0.0
 11
107.702424
 21
185.816900
 31
0.0
 11
107.541745
 21
185.715736
 31
0.0
 11
107.382766
 21
185.648143
 31
0.0
 11
107.199490
 21
185.595060
 31
0.0
 11
106.951501
 21
185.550934
 31
0.0
 11
106.707135
 21
185.546946
 31
0.0
 11
106.462326
 21
185.582642
 31
0.0
  0
LWPOLYLINE
  5
141
100
AcDbEntity
  8
Calque_1
 62
7
100
AcDbPolyline
 90
2
 70
0
 10
106.462326
 20
185.582642
 30
0.0
 10
106.462326
 20
185.580525
 30
0.0
  0
SPLINE
  5
142
100
AcDbEntity
  8
Calque_1
 62
7
100
AcDbSpline
 70
0
 71
3
 72
40
 73
36
 74
34
 40
0.000000
 40
0.000000
 40
0.000000
 40
0.000000
 40
0.109531
 40
0.232223
 40
0.340502
 40
0.992263
 40
1.634029
 40
2.235921
 40
2.424992
 40
2.629503
 40
2.882508
 40
3.088940
 40
3.346820
 40
3.749990
 40
4.035956
 40
4.244371
 40
4.391740
 40
4.495934
 40
4.576054
 40
4.652050
 40
4.722836
 40
4.802650
 40
4.889254
 40
4.979268
 40
5.069647
 40
5.157149
 40
5.211803
 40
5.251328
 40
5.281185
 40
5.309632
 40
5.345518
 40
5.394913
 40
5.619351
 40
5.851637
 40
6.092920
 40
6.092920
 40
6.092920
 40
6.092920
 10
106.462326
 20
185.580525
 30
0.0
 10
106.426474
 20
185.587421
 30
0.0
 10
106.350462
 20
185.602042
 30
0.0
 10
106.237697
 20
185.616593
 30
0.0
 10
105.943861
 20
185.628198
 30
0.0
 10
105.474372
 20
185.727373
 30
0.0
 10
104.950968
 20
186.111033
 30
0.0
 10
104.700904
 20
186.543044
 30
0.0
 10
104.654857
 20
186.873657
 30
0.0
 10
104.665912
 20
187.090089
 30
0.0
 10
104.711449
 20
187.306851
 30
0.0
 10
104.756215
 20
187.542048
 30
0.0
 10
104.768998
 20
187.831614
 30
0.0
 10
104.770247
 20
188.147097
 30
0.0
 10
104.771035
 20
188.446288
 30
0.0
 10
104.777101
 20
188.660245
 30
0.0
 10
104.791429
 20
188.812919
 30
0.0
 10
104.815974
 20
188.921663
 30
0.0
 10
104.859670
 20
188.998295
 30
0.0
 10
104.917125
 20
189.049387
 30
0.0
 10
104.986276
 20
189.081961
 30
0.0
 10
105.064761
 20
189.095910
 30
0.0
 10
105.150438
 20
189.097521
 30
0.0
 10
105.239126
 20
189.087362
 30
0.0
 10
105.325877
 20
189.064416
 30
0.0
 10
105.396383
 20
189.031455
 30
0.0
 10
105.448633
 20
189.000794
 30
0.0
 10
105.486085
 20
188.983198
 30
0.0
 10
105.517837
 20
188.974168
 30
0.0
 10
105.549608
 20
188.975978
 30
0.0
 10
105.586366
 20
188.985623
 30
0.0
 10
105.683070
 20
189.021831
 30
0.0
 10
105.858298
 20
189.032183
 30
0.0
 10
106.081934
 20
188.934331
 30
0.0
 10
106.176027
 20
188.804739
 30
0.0
 10
106.223968
 20
188.738712
 30
0.0
 11
106.462326
 21
185.580525
 31
0.0
 11
106.354571
 21
185.600168
 31
0.0
 11
106.232813
 21
185.615280
 31
0.0
 11
106.124738
 21
185.621941
 31
0.0
 11
105.490326
 21
185.771319
 31
0.0
 11
104.973606
 21
186.151928
 31
0.0
 11
104.687606
 21
186.681530
 31
0.0
 11
104.661326
 21
186.868766
 31
0.0
 11
104.669790
 21
187.073102
 31
0.0
 11
104.713782
 21
187.322252
 31
0.0
 11
104.748629
 21
187.525722
 31
0.0
 11
104.765508
 21
187.783049
 31
0.0
 11
104.770297
 21
188.186191
 31
0.0
 11
104.772521
 21
188.472148
 31
0.0
 11
104.780327
 21
188.680417
 31
0.0
 11
104.796474
 21
188.826899
 31
0.0
 11
104.823284
 21
188.927584
 31
0.0
 11
104.863871
 21
188.996663
 31
0.0
 11
104.920489
 21
189.047357
 31
0.0
 11
104.984376
 21
189.077837
 31
0.0
 11
105.062638
 21
189.093500
 31
0.0
 11
105.149216
 21
189.095617
 31
0.0
 11
105.238630
 21
189.085237
 31
0.0
 11
105.325862
 21
189.061593
 31
0.0
 11
105.405502
 21
189.025344
 31
0.0
 11
105.453439
 21
188.999094
 31
0.0
 11
105.489513
 21
188.982942
 31
0.0
 11
105.518490
 21
188.975743
 31
0.0
 11
105.546922
 21
188.976660
 31
0.0
 11
105.581834
 21
188.984962
 31
0.0
 11
105.628719
 21
189.000508
 31
0.0
 11
105.852733
 21
189.014305
 31
0.0
 11
106.065185
 21
188.920386
 31
0.0
 11
106.223968
 21
188.738712
 31
0.0
  0
LWPOLYLINE
  5
143
100
AcDbEntity
  8
Calque_1
 62
7
100
AcDbPolyline
 90
3
 70
0
 10
106.223968
 20
188.738712
 30
0.0
 10
106.269476
 20
188.656028
 30
0.0
 10
106.579504
 20
188.961914
 30
0.0
  0
SPLINE
  5
144
100
AcDbEntity
  8
Calque_1
 62
7
100
AcDbSpline
 70
0
 71
3
 72
13
 73
9
 74
7
 40
0.000000
 40
0.000000
 40
0.000000
 40
0.000000
 40
0.217169
 40
0.381193
 40
0.504475
 40
0.555338
 40
0.601786
 40
0.646116
 40
0.646116
 40
0.646116
 40
0.646116
 10
106.579504
 20
188.961914
 30
0.0
 10
106.631261
 20
189.012550
 30
0.0
 10
106.722108
 20
189.101429
 30
0.0
 10
106.848277
 20
189.212629
 30
0.0
 10
106.940417
 20
189.278576
 30
0.0
 10
107.006590
 20
189.310951
 30
0.0
 10
107.051551
 20
189.326155
 30
0.0
 10
107.081553
 20
189.330475
 30
0.0
 10
107.096204
 20
189.332585
 30
0.0
 11
106.579504
 21
188.961914
 31
0.0
 11
106.736231
 21
189.112245
 31
0.0
 11
106.860561
 21
189.219230
 31
0.0
 11
106.962550
 21
189.288488
 31
0.0
 11
107.008379
 21
189.310551
 31
0.0
 11
107.052534
 21
189.324962
 31
0.0
 11
107.096204
 21
189.332585
 31
0.0
  0
LWPOLYLINE
  5
145
100
AcDbEntity
  8
Calque_1
 62
7
100
AcDbPolyline
 90
2
 70
0
 10
107.096204
 20
189.332585
 30
0.0
 10
107.097100
 20
189.333100
 30
0.0
  0
SPLINE
  5
146
100
AcDbEntity
  8
Calque_1
 62
7
100
AcDbSpline
 70
0
 71
3
 72
16
 73
12
 74
10
 40
0.000000
 40
0.000000
 40
0.000000
 40
0.000000
 40
0.014738
 40
0.030805
 40
0.049653
 40
0.072791
 40
0.102303
 40
0.140057
 40
0.244701
 40
0.395515
 40
0.602154
 40
0.602154
 40
0.602154
 40
0.602154
 10
107.142608
 20
189.061652
 30
0.0
 10
107.137696
 20
189.062089
 30
0.0
 10
107.127430
 20
189.063004
 30
0.0
 10
107.110971
 20
189.059957
 30
0.0
 10
107.092836
 20
189.053043
 30
0.0
 10
107.071955
 20
189.041406
 30
0.0
 10
107.047331
 20
189.023988
 30
0.0
 10
107.002281
 20
188.988551
 30
0.0
 10
106.929468
 20
188.923237
 30
0.0
 10
106.818622
 20
188.816293
 30
0.0
 10
106.734019
 20
188.732388
 30
0.0
 10
106.685112
 20
188.683883
 30
0.0
 11
107.142608
 21
189.061652
 31
0.0
 11
107.127885
 21
189.062323
 31
0.0
 11
107.112034
 21
189.059701
 31
0.0
 11
107.094348
 21
189.053185
 31
0.0
 11
107.074016
 21
189.042139
 31
0.0
 11
107.049710
 21
189.025402
 31
0.0
 11
107.019947
 21
189.002173
 31
0.0
 11
106.941296
 21
188.933150
 31
0.0
 11
106.832216
 21
188.829003
 31
0.0
 11
106.685112
 21
188.683883
 31
0.0
  0
LWPOLYLINE
  5
147
100
AcDbEntity
  8
Calque_1
 62
7
100
AcDbPolyline
 90
5
 70
0
 10
106.685112
 20
188.683883
 30
0.0
 10
106.297931
 20
188.300823
 30
0.0
 10
106.314371
 20
188.129980
 30
0.0
 10
106.330810
 20
187.982533
 30
0.0
 10
106.795157
 20
188.462042
 30
0.0
  0
SPLINE
  5
148
100
AcDbEntity
  8
Calque_1
 62
7
100
AcDbSpline
 70
0
 71
3
 72
19
 73
15
 74
13
 40
0.000000
 40
0.000000
 40
0.000000
 40
0.000000
 40
0.274602
 40
0.467076
 40
0.591803
 40
0.633479
 40
0.663658
 40
0.683866
 40
0.696615
 40
0.706414
 40
0.717719
 40
0.753272
 40
0.796055
 40
0.836853
 40
0.836853
 40
0.836853
 40
0.836853
 10
106.795157
 20
188.462042
 30
0.0
 10
106.858910
 20
188.527734
 30
0.0
 10
106.967349
 20
188.639469
 30
0.0
 10
107.103172
 20
188.782455
 30
0.0
 10
107.183540
 20
188.871249
 30
0.0
 10
107.223611
 20
188.923089
 30
0.0
 10
107.240484
 20
188.948870
 30
0.0
 10
107.249550
 20
188.967794
 30
0.0
 10
107.253062
 20
188.982089
 30
0.0
 10
107.249605
 20
188.993198
 30
0.0
 10
107.239221
 20
189.009033
 30
0.0
 10
107.217686
 20
189.030212
 30
0.0
 10
107.183351
 20
189.051343
 30
0.0
 10
107.156186
 20
189.058104
 30
0.0
 10
107.142926
 20
189.061405
 30
0.0
 11
106.795157
 21
188.462042
 31
0.0
 11
106.985987
 21
188.659502
 31
0.0
 11
107.118071
 21
188.799502
 31
0.0
 11
107.200259
 21
188.893320
 31
0.0
 11
107.225458
 21
188.926516
 31
0.0
 11
107.241594
 21
188.952018
 31
0.0
 11
107.249860
 21
188.970458
 31
0.0
 11
107.251976
 21
188.983030
 31
0.0
 11
107.249389
 21
188.992482
 31
0.0
 11
107.243510
 21
189.002138
 31
0.0
 11
107.218649
 21
189.027554
 31
0.0
 11
107.181973
 21
189.049583
 31
0.0
 11
107.142926
 21
189.061405
 31
0.0
  0
LWPOLYLINE
  5
149
100
AcDbEntity
  8
Calque_1
 62
7
100
AcDbPolyline
 90
2
 70
0
 10
107.142926
 20
189.061405
 30
0.0
 10
107.142608
 20
189.061652
 30
0.0
  0
SPLINE
  5
14a
100
AcDbEntity
  8
Calque_1
 62
7
100
AcDbSpline
 70
0
 71
3
 72
85
 73
81
 74
79
 40
0.000000
 40
0.000000
 40
0.000000
 40
0.000000
 40
0.026507
 40
0.063712
 40
0.118192
 40
0.293563
 40
0.576135
 40
0.988377
 40
1.387876
 40
1.663275
 40
1.840794
 40
1.901556
 40
1.949298
 40
1.989596
 40
2.027124
 40
2.064994
 40
2.105880
 40
2.158410
 40
2.213149
 40
2.279834
 40
2.367996
 40
2.486165
 40
2.641590
 40
2.733007
 40
2.819334
 40
2.896661
 40
2.931153
 40
2.962345
 40
2.988890
 40
3.010410
 40
3.026122
 40
3.034357
 40
3.074626
 40
3.124241
 40
3.178791
 40
3.233387
 40
3.282990
 40
3.322731
 40
3.329601
 40
3.335253
 40
3.340093
 40
3.344003
 40
3.348017
 40
3.353074
 40
3.367159
 40
3.390986
 40
3.426993
 40
3.543032
 40
3.732584
 40
4.014536
 40
4.425123
 40
4.704656
 40
4.883177
 40
5.163793
 40
5.410155
 40
5.634563
 40
6.222347
 40
6.836677
 40
7.476323
 40
7.586105
 40
7.709019
 40
7.817709
 40
7.896767
 40
8.031997
 40
8.210261
 40
8.419690
 40
8.649156
 40
8.886496
 40
9.119912
 40
9.338298
 40
9.530575
 40
9.613233
 40
9.684875
 40
9.744231
 40
9.769201
 40
9.790724
 40
9.807963
 40
9.815065
 40
9.821209
 40
9.825980
 40
9.825980
 40
9.825980
 40
9.825980
 10
107.800165
 20
188.984421
 30
0.0
 10
107.791263
 20
188.985215
 30
0.0
 10
107.769868
 20
188.987122
 30
0.0
 10
107.732368
 20
188.971674
 30
0.0
 10
107.656630
 20
188.925587
 30
0.0
 10
107.527035
 20
188.812459
 30
0.0
 10
107.317608
 20
188.612626
 30
0.0
 10
107.059070
 20
188.354941
 30
0.0
 10
106.802473
 20
188.099055
 30
0.0
 10
106.597986
 20
187.901965
 30
0.0
 10
106.469051
 20
187.788631
 30
0.0
 10
106.389268
 20
187.736026
 30
0.0
 10
106.343704
 20
187.715645
 30
0.0
 10
106.302005
 20
187.707982
 30
0.0
 10
106.263230
 20
187.712328
 30
0.0
 10
106.226351
 20
187.724820
 30
0.0
 10
106.186987
 20
187.743956
 30
0.0
 10
106.145224
 20
187.771365
 30
0.0
 10
106.109510
 20
187.818436
 30
0.0
 10
106.084733
 20
187.884378
 30
0.0
 10
106.067293
 20
187.973864
 30
0.0
 10
106.053199
 20
188.093671
 30
0.0
 10
106.043664
 20
188.214971
 30
0.0
 10
106.034934
 20
188.325693
 30
0.0
 10
106.025188
 20
188.410171
 30
0.0
 10
106.016514
 20
188.475649
 30
0.0
 10
106.009605
 20
188.522818
 30
0.0
 10
106.004505
 20
188.553137
 30
0.0
 10
105.999724
 20
188.579119
 30
0.0
 10
105.995035
 20
188.599874
 30
0.0
 10
105.991327
 20
188.614536
 30
0.0
 10
105.985578
 20
188.635289
 30
0.0
 10
105.960969
 20
188.659364
 30
0.0
 10
105.924389
 20
188.689714
 30
0.0
 10
105.878427
 20
188.716825
 30
0.0
 10
105.829853
 20
188.737943
 30
0.0
 10
105.783520
 20
188.751196
 30
0.0
 10
105.751046
 20
188.753104
 30
0.0
 10
105.733795
 20
188.750862
 30
0.0
 10
105.728105
 20
188.749444
 30
0.0
 10
105.724048
 20
188.746810
 30
0.0
 10
105.720347
 20
188.744720
 30
0.0
 10
105.716919
 20
188.742030
 30
0.0
 10
105.712101
 20
188.735908
 30
0.0
 10
105.706991
 20
188.722308
 30
0.0
 10
105.701649
 20
188.698284
 30
0.0
 10
105.693938
 20
188.640077
 30
0.0
 10
105.687440
 20
188.526356
 30
0.0
 10
105.680489
 20
188.330644
 30
0.0
 10
105.673622
 20
188.036645
 30
0.0
 10
105.662755
 20
187.713004
 30
0.0
 10
105.648179
 20
187.423271
 30
0.0
 10
105.605994
 20
187.180570
 30
0.0
 10
105.555338
 20
186.950101
 30
0.0
 10
105.565127
 20
186.696553
 30
0.0
 10
105.671578
 20
186.356172
 30
0.0
 10
106.018854
 20
185.991007
 30
0.0
 10
106.611362
 20
185.778434
 30
0.0
 10
107.084073
 20
185.814926
 30
0.0
 10
107.354523
 20
185.922509
 30
0.0
 10
107.456661
 20
185.972494
 30
0.0
 10
107.548713
 20
186.021014
 30
0.0
 10
107.631751
 20
186.090055
 30
0.0
 10
107.729035
 20
186.177404
 30
0.0
 10
107.856366
 20
186.296525
 30
0.0
 10
108.004677
 20
186.439070
 30
0.0
 10
108.165836
 20
186.596683
 30
0.0
 10
108.331378
 20
186.761227
 30
0.0
 10
108.493423
 20
186.924049
 30
0.0
 10
108.643913
 20
187.077171
 30
0.0
 10
108.757921
 20
187.195683
 30
0.0
 10
108.836660
 20
187.280226
 30
0.0
 10
108.884310
 20
187.333156
 30
0.0
 10
108.918695
 20
187.372159
 30
0.0
 10
108.941400
 20
187.399163
 30
0.0
 10
108.954760
 20
187.415695
 30
0.0
 10
108.963901
 20
187.427932
 30
0.0
 10
108.970253
 20
187.435898
 30
0.0
 10
108.973108
 20
187.441199
 30
0.0
 10
108.974910
 20
187.444358
 30
0.0
 10
108.975698
 20
187.445739
 30
0.0
 11
107.800165
 21
188.984421
 31
0.0
 11
107.773665
 21
188.985030
 31
0.0
 11
107.738357
 21
188.973300
 31
0.0
 11
107.691312
 21
188.945828
 31
0.0
 11
107.554969
 21
188.835530
 31
0.0
 11
107.349323
 21
188.641734
 31
0.0
 11
107.056107
 21
188.351961
 31
0.0
 11
106.772268
 21
188.070829
 31
0.0
 11
106.572645
 21
187.881106
 31
0.0
 11
106.436051
 21
187.767726
 31
0.0
 11
106.384709
 21
187.735229
 31
0.0
 11
106.340755
 21
187.716592
 31
0.0
 11
106.301021
 21
187.709871
 31
0.0
 11
106.263681
 21
187.713620
 31
0.0
 11
106.227623
 21
187.725194
 31
0.0
 11
106.190800
 21
187.742961
 31
0.0
 11
106.147816
 21
187.773159
 31
0.0
 11
106.114111
 21
187.816290
 31
0.0
 11
106.088833
 21
187.877997
 31
0.0
 11
106.070148
 21
187.964158
 31
0.0
 11
106.055306
 21
188.081390
 31
0.0
 11
106.041984
 21
188.236243
 31
0.0
 11
106.034236
 21
188.327332
 31
0.0
 11
106.024590
 21
188.413118
 31
0.0
 11
106.014397
 21
188.489771
 31
0.0
 11
106.009319
 21
188.523886
 31
0.0
 11
106.004163
 21
188.554649
 31
0.0
 11
105.999227
 21
188.580731
 31
0.0
 11
105.994508
 21
188.601728
 31
0.0
 11
105.990635
 21
188.616954
 31
0.0
 11
105.988220
 21
188.624828
 31
0.0
 11
105.963269
 21
188.656435
 31
0.0
 11
105.924782
 21
188.687747
 31
0.0
 11
105.877991
 21
188.715788
 31
0.0
 11
105.827871
 21
188.737436
 31
0.0
 11
105.779915
 21
188.750115
 31
0.0
 11
105.740204
 21
188.751630
 31
0.0
 11
105.733401
 21
188.750664
 31
0.0
 11
105.727979
 21
188.749070
 31
0.0
 11
105.723764
 21
188.746692
 31
0.0
 11
105.720427
 21
188.744653
 31
0.0
 11
105.717294
 21
188.742145
 31
0.0
 11
105.714098
 21
188.738225
 31
0.0
 11
105.708393
 21
188.725347
 31
0.0
 11
105.702799
 21
188.702186
 31
0.0
 11
105.697659
 21
188.666547
 31
0.0
 11
105.689155
 21
188.550821
 31
0.0
 11
105.681891
 21
188.361408
 31
0.0
 11
105.674234
 21
188.079561
 31
0.0
 11
105.659922
 21
187.669223
 31
0.0
 11
105.639604
 21
187.390429
 31
0.0
 11
105.610805
 21
187.214246
 31
0.0
 11
105.565554
 21
186.937302
 31
0.0
 11
105.576699
 21
186.691193
 31
0.0
 11
105.643895
 21
186.477082
 31
0.0
 11
106.034885
 21
186.038201
 31
0.0
 11
106.610716
 21
185.824146
 31
0.0
 11
107.247757
 21
185.881826
 31
0.0
 11
107.349891
 21
185.922086
 31
0.0
 11
107.460729
 21
185.975214
 31
0.0
 11
107.555026
 21
186.029266
 31
0.0
 11
107.617038
 21
186.078303
 31
0.0
 11
107.718117
 21
186.168137
 31
0.0
 11
107.848516
 21
186.289686
 31
0.0
 11
107.999663
 21
186.434653
 31
0.0
 11
108.163744
 21
186.595064
 31
0.0
 11
108.332154
 21
186.762302
 31
0.0
 11
108.496778
 21
186.927777
 31
0.0
 11
108.649718
 21
187.083668
 31
0.0
 11
108.782728
 21
187.222515
 31
0.0
 11
108.838978
 21
187.283082
 31
0.0
 11
108.886950
 21
187.336291
 31
0.0
 11
108.926027
 21
187.380969
 31
0.0
 11
108.942074
 21
187.400100
 31
0.0
 11
108.955535
 21
187.416895
 31
0.0
 11
108.966032
 21
187.430569
 31
0.0
 11
108.970262
 21
187.436274
 31
0.0
 11
108.973349
 21
187.441586
 31
0.0
 11
108.975698
 21
187.445739
 31
0.0
  0
LWPOLYLINE
  5
14b
100
AcDbEntity
  8
Calque_1
 62
7
100
AcDbPolyline
 90
2
 70
0
 10
108.975698
 20
187.445739
 30
0.0
 10
108.977814
 20
187.446444
 30
0.0
  0
SPLINE
  5
14c
100
AcDbEntity
  8
Calque_1
 62
7
100
AcDbSpline
 70
0
 71
3
 72
190
 73
186
 74
184
 40
0.000000
 40
0.000000
 40
0.000000
 40
0.000000
 40
0.035101
 40
0.073414
 40
0.113750
 40
0.154468
 40
0.192690
 40
0.227059
 40
0.256049
 40
0.305579
 40
0.382629
 40
0.493324
 40
0.643251
 40
0.837911
 40
1.075911
 40
1.247879
 40
1.366180
 40
1.409702
 40
1.445439
 40
1.475735
 40
1.503225
 40
1.530218
 40
1.558444
 40
1.589247
 40
1.618082
 40
1.647734
 40
1.681289
 40
1.721839
 40
1.772756
 40
1.917298
 40
2.133985
 40
2.438785
 40
2.706668
 40
2.900836
 40
3.034195
 40
3.082046
 40
3.119591
 40
3.148752
 40
3.171313
 40
3.189611
 40
3.206500
 40
3.286790
 40
3.368082
 40
3.443847
 40
3.446801
 40
3.450454
 40
3.455472
 40
3.468695
 40
3.485292
 40
3.504623
 40
3.550798
 40
3.607034
 40
3.672494
 40
3.826905
 40
4.006355
 40
4.203634
 40
4.401524
 40
4.581808
 40
4.736712
 40
4.802323
 40
4.858875
 40
4.905503
 40
4.924698
 40
4.941030
 40
4.954646
 40
4.960443
 40
4.965688
 40
4.970406
 40
4.972534
 40
4.974596
 40
4.976724
 40
4.978282
 40
4.980580
 40
4.982449
 40
4.984070
 40
4.986709
 40
4.988094
 40
5.021869
 40
5.060043
 40
5.100942
 40
5.121039
 40
5.140200
 40
5.158647
 40
5.176498
 40
5.193407
 40
5.209518
 40
5.211046
 40
5.213747
 40
5.215550
 40
5.216282
 40
5.217411
 40
5.218386
 40
5.220970
 40
5.223717
 40
5.225673
 40
5.230051
 40
5.234915
 40
5.241410
 40
5.256751
 40
5.275551
 40
5.297153
 40
5.348079
 40
5.409786
 40
5.482380
 40
5.655886
 40
5.858514
 40
6.081624
 40
6.399560
 40
6.629296
 40
6.786217
 40
6.842477
 40
6.886544
 40
6.920049
 40
6.945176
 40
6.964862
 40
6.982255
 40
7.026545
 40
7.063334
 40
7.096496
 40
7.130691
 40
7.169192
 40
7.214195
 40
7.226478
 40
7.245902
 40
7.274028
 40
7.311233
 40
7.358832
 40
7.418297
 40
7.577129
 40
7.796004
 40
8.083913
 40
8.331566
 40
8.539989
 40
8.707591
 40
8.775540
 40
8.832844
 40
8.879646
 40
8.899352
 40
8.916662
 40
8.931279
 40
8.943038
 40
8.953331
 40
8.964010
 40
9.036303
 40
9.104393
 40
9.171517
 40
9.172249
 40
9.173373
 40
9.174340
 40
9.175706
 40
9.178100
 40
9.180062
 40
9.182040
 40
9.183820
 40
9.185763
 40
9.190544
 40
9.196171
 40
9.201932
 40
9.214381
 40
9.229023
 40
9.246065
 40
9.287171
 40
9.336553
 40
9.393599
 40
9.527882
 40
9.683421
 40
9.853567
 40
10.025045
 40
10.184995
 40
10.326232
 40
10.387539
 40
10.441503
 40
10.487359
 40
10.524489
 40
10.551047
 40
10.564358
 40
10.594317
 40
10.617723
 40
10.637158
 40
10.656731
 40
10.680189
 40
10.709932
 40
10.749916
 40
10.781066
 40
10.806155
 40
10.806155
 40
10.806155
 40
10.806155
 10
108.977814
 20
187.446444
 30
0.0
 10
108.976289
 20
187.458125
 30
0.0
 10
108.973099
 20
187.482554
 30
0.0
 10
108.955175
 20
187.516709
 30
0.0
 10
108.930511
 20
187.548062
 30
0.0
 10
108.899714
 20
187.573886
 30
0.0
 10
108.866057
 20
187.591143
 30
0.0
 10
108.832006
 20
187.599524
 30
0.0
 10
108.795035
 20
187.588237
 30
0.0
 10
108.751064
 20
187.560532
 30
0.0
 10
108.688776
 20
187.511628
 30
0.0
 10
108.605123
 20
187.436268
 30
0.0
 10
108.495239
 20
187.331580
 30
0.0
 10
108.357130
 20
187.195067
 30
0.0
 10
108.213592
 20
187.053529
 30
0.0
 10
108.084256
 20
186.934082
 30
0.0
 10
107.997677
 20
186.863714
 30
0.0
 10
107.941360
 20
186.829320
 30
0.0
 10
107.907582
 20
186.814966
 30
0.0
 10
107.876450
 20
186.809510
 30
0.0
 10
107.848012
 20
186.814029
 30
0.0
 10
107.823152
 20
186.826787
 30
0.0
 10
107.801405
 20
186.845693
 30
0.0
 10
107.781985
 20
186.867766
 30
0.0
 10
107.767745
 20
186.894432
 30
0.0
 10
107.763603
 20
186.925493
 30
0.0
 10
107.770305
 20
186.959889
 30
0.0
 10
107.787922
 20
186.997947
 30
0.0
 10
107.831859
 20
187.063407
 30
0.0
 10
107.923340
 20
187.166374
 30
0.0
 10
108.078844
 20
187.324696
 30
0.0
 10
108.267636
 20
187.508051
 30
0.0
 10
108.451167
 20
187.685973
 30
0.0
 10
108.591938
 20
187.825855
 30
0.0
 10
108.678597
 20
187.916219
 30
0.0
 10
108.725559
 20
187.972046
 30
0.0
 10
108.748136
 20
188.002893
 30
0.0
 10
108.763623
 20
188.028341
 30
0.0
 10
108.773654
 20
188.049498
 30
0.0
 10
108.778687
 20
188.068220
 30
0.0
 10
108.781214
 20
188.106726
 30
0.0
 10
108.761653
 20
188.167616
 30
0.0
 10
108.707481
 20
188.221418
 30
0.0
 10
108.652032
 20
188.254510
 30
0.0
 10
108.626253
 20
188.244295
 30
0.0
 10
108.623207
 20
188.241853
 30
0.0
 10
108.617435
 20
188.237411
 30
0.0
 10
108.607867
 20
188.230799
 30
0.0
 10
108.595147
 20
188.220465
 30
0.0
 10
108.574074
 20
188.203006
 30
0.0
 10
108.543356
 20
188.176480
 30
0.0
 10
108.501618
 20
188.139208
 30
0.0
 10
108.433649
 20
188.077152
 30
0.0
 10
108.336556
 20
187.986092
 30
0.0
 10
108.208833
 20
187.863479
 30
0.0
 10
108.072420
 20
187.729018
 30
0.0
 10
107.935731
 20
187.594442
 30
0.0
 10
107.807471
 20
187.471454
 30
0.0
 10
107.710065
 20
187.380013
 30
0.0
 10
107.642113
 20
187.317463
 30
0.0
 10
107.600374
 20
187.279736
 30
0.0
 10
107.569833
 20
187.252686
 30
0.0
 10
107.548695
 20
187.235268
 30
0.0
 10
107.535755
 20
187.225224
 30
0.0
 10
107.526267
 20
187.218013
 30
0.0
 10
107.519582
 20
187.213233
 30
0.0
 10
107.515127
 20
187.210427
 30
0.0
 10
107.512638
 20
187.206996
 30
0.0
 10
107.509748
 20
187.206068
 30
0.0
 10
107.508045
 20
187.204798
 30
0.0
 10
107.506188
 20
187.204208
 30
0.0
 10
107.504601
 20
187.202974
 30
0.0
 10
107.503061
 20
187.201860
 30
0.0
 10
107.501236
 20
187.201084
 30
0.0
 10
107.499169
 20
187.201176
 30
0.0
 10
107.497296
 20
187.201164
 30
0.0
 10
107.484690
 20
187.201388
 30
0.0
 10
107.460352
 20
187.207617
 30
0.0
 10
107.428253
 20
187.227700
 30
0.0
 10
107.402762
 20
187.248790
 30
0.0
 10
107.382872
 20
187.266620
 30
0.0
 10
107.369119
 20
187.280127
 30
0.0
 10
107.357519
 20
187.294496
 30
0.0
 10
107.347863
 20
187.309689
 30
0.0
 10
107.342276
 20
187.325183
 30
0.0
 10
107.337755
 20
187.337225
 30
0.0
 10
107.340368
 20
187.343539
 30
0.0
 10
107.341081
 20
187.345389
 30
0.0
 10
107.341840
 20
187.347026
 30
0.0
 10
107.341755
 20
187.348259
 30
0.0
 10
107.341595
 20
187.349192
 30
0.0
 10
107.341818
 20
187.350768
 30
0.0
 10
107.343005
 20
187.352568
 30
0.0
 10
107.344568
 20
187.354447
 30
0.0
 10
107.345449
 20
187.357409
 30
0.0
 10
107.348264
 20
187.360042
 30
0.0
 10
107.351273
 20
187.364311
 30
0.0
 10
107.356793
 20
187.371310
 30
0.0
 10
107.365387
 20
187.381769
 30
0.0
 10
107.377193
 20
187.396123
 30
0.0
 10
107.397190
 20
187.419080
 30
0.0
 10
107.427548
 20
187.451959
 30
0.0
 10
107.470027
 20
187.496765
 30
0.0
 10
107.540746
 20
187.571103
 30
0.0
 10
107.644293
 20
187.679044
 30
0.0
 10
107.783854
 20
187.821956
 30
0.0
 10
107.958685
 20
187.997695
 30
0.0
 10
108.140431
 20
188.179307
 30
0.0
 10
108.304624
 20
188.347233
 30
0.0
 10
108.405390
 20
188.455212
 30
0.0
 10
108.460997
 20
188.520503
 30
0.0
 10
108.488558
 20
188.555611
 30
0.0
 10
108.507446
 20
188.584234
 30
0.0
 10
108.518863
 20
188.607839
 30
0.0
 10
108.524109
 20
188.628077
 30
0.0
 10
108.525268
 20
188.655251
 30
0.0
 10
108.522877
 20
188.688157
 30
0.0
 10
108.511760
 20
188.725082
 30
0.0
 10
108.491403
 20
188.753986
 30
0.0
 10
108.462022
 20
188.774800
 30
0.0
 10
108.424420
 20
188.786557
 30
0.0
 10
108.392223
 20
188.791825
 30
0.0
 10
108.366860
 20
188.787227
 30
0.0
 10
108.348812
 20
188.778301
 30
0.0
 10
108.324906
 20
188.763316
 30
0.0
 10
108.294161
 20
188.741524
 30
0.0
 10
108.256462
 20
188.711649
 30
0.0
 10
108.189396
 20
188.653672
 30
0.0
 10
108.083058
 20
188.553986
 30
0.0
 10
107.924057
 20
188.399243
 30
0.0
 10
107.745997
 20
188.221652
 30
0.0
 10
107.570267
 20
188.046662
 30
0.0
 10
107.421234
 20
187.901714
 30
0.0
 10
107.313543
 20
187.800180
 30
0.0
 10
107.240756
 20
187.735117
 30
0.0
 10
107.197033
 20
187.697998
 30
0.0
 10
107.165056
 20
187.671895
 30
0.0
 10
107.142642
 20
187.655195
 30
0.0
 10
107.128297
 20
187.645682
 30
0.0
 10
107.115937
 20
187.637958
 30
0.0
 10
107.105300
 20
187.631985
 30
0.0
 10
107.095267
 20
187.627402
 30
0.0
 10
107.064018
 20
187.624409
 30
0.0
 10
107.013199
 20
187.638513
 30
0.0
 10
106.958196
 20
187.684889
 30
0.0
 10
106.944845
 20
187.731157
 30
0.0
 10
106.944085
 20
187.754190
 30
0.0
 10
106.944090
 20
187.755117
 30
0.0
 10
106.943989
 20
187.756326
 30
0.0
 10
106.945184
 20
187.757522
 30
0.0
 10
106.946233
 20
187.759084
 30
0.0
 10
106.946981
 20
187.761080
 30
0.0
 10
106.947407
 20
187.762950
 30
0.0
 10
106.947452
 20
187.764845
 30
0.0
 10
106.947554
 20
187.767736
 30
0.0
 10
106.950378
 20
187.771055
 30
0.0
 10
106.952668
 20
187.775889
 30
0.0
 10
106.957474
 20
187.782275
 30
0.0
 10
106.963794
 20
187.791196
 30
0.0
 10
106.973365
 20
187.802394
 30
0.0
 10
106.988801
 20
187.821104
 30
0.0
 10
107.011568
 20
187.848795
 30
0.0
 10
107.043663
 20
187.886060
 30
0.0
 10
107.097234
 20
187.945801
 30
0.0
 10
107.176482
 20
188.030008
 30
0.0
 10
107.283136
 20
188.140162
 30
0.0
 10
107.400156
 20
188.257510
 30
0.0
 10
107.518029
 20
188.376084
 30
0.0
 10
107.627354
 20
188.489545
 30
0.0
 10
107.709986
 20
188.577715
 30
0.0
 10
107.767278
 20
188.641189
 30
0.0
 10
107.802575
 20
188.681674
 30
0.0
 10
107.832160
 20
188.716438
 30
0.0
 10
107.854972
 20
188.744976
 30
0.0
 10
107.870103
 20
188.765691
 30
0.0
 10
107.882689
 20
188.785368
 30
0.0
 10
107.889302
 20
188.806824
 30
0.0
 10
107.895847
 20
188.830203
 30
0.0
 10
107.896722
 20
188.851267
 30
0.0
 10
107.891632
 20
188.871662
 30
0.0
 10
107.881585
 20
188.893818
 30
0.0
 10
107.865191
 20
188.920311
 30
0.0
 10
107.845892
 20
188.947598
 30
0.0
 10
107.824437
 20
188.972454
 30
0.0
 10
107.807040
 20
188.979978
 30
0.0
 10
107.799279
 20
188.983335
 30
0.0
 11
108.977814
 21
187.446444
 31
0.0
 11
108.971323
 21
187.480940
 31
0.0
 11
108.954578
 21
187.515400
 31
0.0
 11
108.929554
 21
187.547035
 31
0.0
 11
108.898254
 21
187.573078
 31
0.0
 11
108.864145
 21
187.590325
 31
0.0
 11
108.830346
 21
187.596565
 31
0.0
 11
108.802242
 21
187.589454
 31
0.0
 11
108.759233
 21
187.564890
 31
0.0
 11
108.698076
 21
187.518023
 31
0.0
 11
108.615142
 21
187.444706
 31
0.0
 11
108.506316
 21
187.341581
 31
0.0
 11
108.367375
 21
187.205243
 31
0.0
 11
108.196890
 21
187.039174
 31
0.0
 11
108.069635
 21
186.923505
 31
0.0
 11
107.976060
 21
186.851125
 31
0.0
 11
107.938585
 21
186.828994
 31
0.0
 11
107.905429
 21
186.815659
 31
0.0
 11
107.875476
 21
186.811120
 31
0.0
 11
107.848329
 21
186.815456
 31
0.0
 11
107.824153
 21
186.827462
 31
0.0
 11
107.802486
 21
186.845551
 31
0.0
 11
107.782529
 21
186.869015
 31
0.0
 11
107.769503
 21
186.894740
 31
0.0
 11
107.765303
 21
186.924093
 31
0.0
 11
107.771013
 21
186.957159
 31
0.0
 11
107.787275
 21
186.994305
 31
0.0
 11
107.814904
 21
187.037074
 31
0.0
 11
107.907993
 21
187.147649
 31
0.0
 11
108.058783
 21
187.303261
 31
0.0
 11
108.276492
 21
187.516584
 31
0.0
 11
108.468358
 21
187.703529
 31
0.0
 11
108.605674
 21
187.840808
 31
0.0
 11
108.696749
 21
187.938224
 31
0.0
 11
108.727300
 21
187.975053
 31
0.0
 11
108.749290
 21
188.005485
 31
0.0
 11
108.764271
 21
188.030503
 31
0.0
 11
108.773566
 21
188.051061
 31
0.0
 11
108.778189
 21
188.068765
 31
0.0
 11
108.779440
 21
188.085607
 31
0.0
 11
108.757029
 21
188.162707
 31
0.0
 11
108.701242
 21
188.221835
 31
0.0
 11
108.629249
 21
188.245444
 31
0.0
 11
108.626539
 21
188.244268
 31
0.0
 11
108.623563
 21
188.242151
 31
0.0
 11
108.619583
 21
188.239094
 31
0.0
 11
108.608887
 21
188.231320
 31
0.0
 11
108.595871
 21
188.221021
 31
0.0
 11
108.580989
 21
188.208684
 31
0.0
 11
108.545972
 21
188.178586
 31
0.0
 11
108.503976
 21
188.141185
 31
0.0
 11
108.455605
 21
188.097079
 31
0.0
 11
108.342836
 21
187.991601
 31
0.0
 11
108.213383
 21
187.867325
 31
0.0
 11
108.072551
 21
187.729175
 31
0.0
 11
107.931231
 21
187.590651
 31
0.0
 11
107.801129
 21
187.465847
 31
0.0
 11
107.688122
 21
187.359901
 31
0.0
 11
107.639820
 21
187.315497
 31
0.0
 11
107.597849
 21
187.277594
 31
0.0
 11
107.562731
 21
187.246920
 31
0.0
 11
107.547896
 21
187.234740
 31
0.0
 11
107.535021
 21
187.224693
 31
0.0
 11
107.524137
 21
187.216511
 31
0.0
 11
107.519397
 21
187.213174
 31
0.0
 11
107.515190
 21
187.210041
 31
0.0
 11
107.511719
 21
187.206845
 31
0.0
 11
107.509786
 21
187.205956
 31
0.0
 11
107.508009
 21
187.204911
 31
0.0
 11
107.506075
 21
187.204023
 31
0.0
 11
107.504795
 21
187.203134
 31
0.0
 11
107.502887
 21
187.201854
 31
0.0
 11
107.501136
 21
187.201200
 31
0.0
 11
107.499516
 21
187.201150
 31
0.0
 11
107.496877
 21
187.201175
 31
0.0
 11
107.495492
 21
187.201200
 31
0.0
 11
107.462564
 21
187.208718
 31
0.0
 11
107.429533
 21
187.227855
 31
0.0
 11
107.397659
 21
187.253482
 31
0.0
 11
107.382741
 21
187.266948
 31
0.0
 11
107.369233
 21
187.280539
 31
0.0
 11
107.357654
 21
187.294898
 31
0.0
 11
107.348349
 21
187.310133
 31
0.0
 11
107.342007
 21
187.325807
 31
0.0
 11
107.339663
 21
187.341747
 31
0.0
 11
107.340211
 21
187.343173
 31
0.0
 11
107.341231
 21
187.345674
 31
0.0
 11
107.341779
 21
187.347391
 31
0.0
 11
107.341754
 21
187.348123
 31
0.0
 11
107.341649
 21
187.349247
 31
0.0
 11
107.341779
 21
187.350214
 31
0.0
 11
107.343008
 21
187.352487
 31
0.0
 11
107.344549
 21
187.354761
 31
0.0
 11
107.345307
 21
187.356564
 31
0.0
 11
107.348017
 21
187.360003
 31
0.0
 11
107.350993
 21
187.363849
 31
0.0
 11
107.354973
 21
187.368981
 31
0.0
 11
107.364658
 21
187.380879
 31
0.0
 11
107.376663
 21
187.395348
 31
0.0
 11
107.390815
 21
187.411668
 31
0.0
 11
107.425183
 21
187.449249
 31
0.0
 11
107.467542
 21
187.494120
 31
0.0
 11
107.517583
 21
187.546711
 31
0.0
 11
107.637744
 21
187.671874
 31
0.0
 11
107.779296
 21
187.816861
 31
0.0
 11
107.936457
 21
187.975223
 31
0.0
 11
108.160719
 21
188.200589
 31
0.0
 11
108.320838
 21
188.365332
 31
0.0
 11
108.426980
 21
188.480909
 31
0.0
 11
108.463310
 21
188.523866
 31
0.0
 11
108.490182
 21
188.558792
 31
0.0
 11
108.508257
 21
188.587003
 31
0.0
 11
108.518790
 21
188.609816
 31
0.0
 11
108.523570
 21
188.628913
 31
0.0
 11
108.524696
 21
188.646270
 31
0.0
 11
108.520928
 21
188.690399
 31
0.0
 11
108.509508
 21
188.725370
 31
0.0
 11
108.490265
 21
188.752378
 31
0.0
 11
108.462543
 21
188.772398
 31
0.0
 11
108.426202
 21
188.785111
 31
0.0
 11
108.381419
 21
188.789561
 31
0.0
 11
108.369359
 21
188.787230
 31
0.0
 11
108.351592
 21
188.779380
 31
0.0
 11
108.327585
 21
188.764726
 31
0.0
 11
108.297169
 21
188.743300
 31
0.0
 11
108.259755
 21
188.713874
 31
0.0
 11
108.214604
 21
188.675176
 31
0.0
 11
108.097954
 21
188.567380
 31
0.0
 11
107.940818
 21
188.415017
 31
0.0
 11
107.736467
 21
188.212205
 31
0.0
 11
107.560630
 21
188.037811
 31
0.0
 11
107.411064
 21
187.892656
 31
0.0
 11
107.288658
 21
187.778168
 31
0.0
 11
107.237905
 21
187.732989
 31
0.0
 11
107.194234
 21
187.695887
 31
0.0
 11
107.157756
 21
187.666564
 31
0.0
 11
107.141892
 21
187.654875
 31
0.0
 11
107.127501
 21
187.645256
 31
0.0
 11
107.115070
 21
187.637565
 31
0.0
 11
107.104772
 21
187.631889
 31
0.0
 11
107.095241
 21
187.628001
 31
0.0
 11
107.084661
 21
187.626559
 31
0.0
 11
107.014441
 21
187.643750
 31
0.0
 11
106.963661
 21
187.689112
 31
0.0
 11
106.944114
 21
187.753326
 31
0.0
 11
106.944093
 21
187.754057
 31
0.0
 11
106.944072
 21
187.755181
 31
0.0
 11
106.944114
 21
187.756148
 31
0.0
 11
106.944890
 21
187.757272
 31
0.0
 11
106.946227
 21
187.759258
 31
0.0
 11
106.946936
 21
187.761087
 31
0.0
 11
106.947352
 21
187.763021
 31
0.0
 11
106.947454
 21
187.764798
 31
0.0
 11
106.947642
 21
187.766731
 31
0.0
 11
106.949994
 21
187.770894
 31
0.0
 11
106.952816
 21
187.775762
 31
0.0
 11
106.956109
 21
187.780490
 31
0.0
 11
106.963512
 21
187.790498
 31
0.0
 11
106.972812
 21
187.801808
 31
0.0
 11
106.983696
 21
187.814921
 31
0.0
 11
107.009924
 21
187.846571
 31
0.0
 11
107.042111
 21
187.884023
 31
0.0
 11
107.080145
 21
187.926540
 31
0.0
 11
107.171838
 21
188.024644
 31
0.0
 11
107.280009
 21
188.136408
 31
0.0
 11
107.399811
 21
188.257226
 31
0.0
 11
107.520409
 21
188.379132
 31
0.0
 11
107.631399
 21
188.494308
 31
0.0
 11
107.727753
 21
188.597572
 31
0.0
 11
107.768778
 21
188.643130
 31
0.0
 11
107.804263
 21
188.683787
 31
0.0
 11
107.833848
 21
188.718822
 31
0.0
 11
107.856920
 21
188.747914
 31
0.0
 11
107.872418
 21
188.769481
 31
0.0
 11
107.879356
 21
188.780840
 31
0.0
 11
107.889796
 21
188.808922
 31
0.0
 11
107.895234
 21
188.831687
 31
0.0
 11
107.895796
 21
188.851114
 31
0.0
 11
107.891445
 21
188.870198
 31
0.0
 11
107.882061
 21
188.891696
 31
0.0
 11
107.866797
 21
188.917224
 31
0.0
 11
107.843491
 21
188.949714
 31
0.0
 11
107.821596
 21
188.971871
 31
0.0
 11
107.799279
 21
188.983335
 31
0.0
  0
LWPOLYLINE
  5
14d
100
AcDbEntity
  8
Calque_1
 62
7
100
AcDbPolyline
 90
2
 70
0
 10
107.799279
 20
188.983335
 30
0.0
 10
107.800165
 20
188.984421
 30
0.0
  0
SPLINE
  5
14e
100
AcDbEntity
  8
Calque_1
 62
7
100
AcDbSpline
 70
0
 71
3
 72
58
 73
54
 74
52
 40
0.000000
 40
0.000000
 40
0.000000
 40
0.000000
 40
0.000632
 40
0.001386
 40
0.002924
 40
0.009651
 40
0.018346
 40
0.029715
 40
0.060437
 40
0.100876
 40
0.150443
 40
0.278767
 40
0.450309
 40
0.668879
 40
1.106496
 40
1.391108
 40
1.617065
 40
1.799582
 40
1.922937
 40
2.033587
 40
2.243823
 40
2.435804
 40
2.632723
 40
2.729008
 40
2.844347
 40
2.964929
 40
3.022714
 40
3.076387
 40
3.124292
 40
3.148307
 40
3.166039
 40
3.181977
 40
3.212800
 40
3.250875
 40
3.294612
 40
3.686935
 40
4.067699
 40
4.469938
 40
4.792413
 40
5.146987
 40
5.553352
 40
5.721315
 40
5.841215
 40
5.923615
 40
5.979308
 40
6.021020
 40
6.062613
 40
6.110606
 40
6.160054
 40
6.208418
 40
6.252693
 40
6.292358
 40
6.326348
 40
6.326348
 40
6.326348
 40
6.326348
 10
105.087148
 20
188.821763
 30
0.0
 10
105.087053
 20
188.821574
 30
0.0
 10
105.086845
 20
188.821160
 30
0.0
 10
105.086646
 20
188.820199
 30
0.0
 10
105.086215
 20
188.817226
 30
0.0
 10
105.084217
 20
188.811879
 30
0.0
 10
105.083040
 20
188.802999
 30
0.0
 10
105.079302
 20
188.786487
 30
0.0
 10
105.075160
 20
188.759264
 30
0.0
 10
105.070383
 20
188.719304
 30
0.0
 10
105.064990
 20
188.646709
 30
0.0
 10
105.059003
 20
188.530382
 30
0.0
 10
105.053409
 20
188.357653
 30
0.0
 10
105.047693
 20
188.081786
 30
0.0
 10
105.040987
 20
187.768371
 30
0.0
 10
105.022303
 20
187.452377
 30
0.0
 10
104.980575
 20
187.224734
 30
0.0
 10
104.941067
 20
187.052090
 30
0.0
 10
104.926068
 20
186.913054
 30
0.0
 10
104.945979
 20
186.765593
 30
0.0
 10
104.990385
 20
186.599571
 30
0.0
 10
105.082282
 20
186.420429
 30
0.0
 10
105.187808
 20
186.295834
 30
0.0
 10
105.291663
 20
186.207536
 30
0.0
 10
105.381157
 20
186.142226
 30
0.0
 10
105.462613
 20
186.087798
 30
0.0
 10
105.528275
 20
186.047056
 30
0.0
 10
105.574395
 20
186.020248
 30
0.0
 10
105.610660
 20
186.000553
 30
0.0
 10
105.638585
 20
185.987038
 30
0.0
 10
105.654809
 20
185.982202
 30
0.0
 10
105.683472
 20
185.970165
 30
0.0
 10
105.646059
 20
186.007188
 30
0.0
 10
105.630351
 20
186.030689
 30
0.0
 10
105.516181
 20
186.153050
 30
0.0
 10
105.366180
 20
186.374312
 30
0.0
 10
105.263491
 20
186.766196
 30
0.0
 10
105.314446
 20
187.135121
 30
0.0
 10
105.389759
 20
187.486635
 30
0.0
 10
105.410574
 20
187.848526
 30
0.0
 10
105.405907
 20
188.158060
 30
0.0
 10
105.395765
 20
188.389252
 30
0.0
 10
105.388567
 20
188.512506
 30
0.0
 10
105.379562
 20
188.598017
 30
0.0
 10
105.367756
 20
188.657079
 30
0.0
 10
105.348327
 20
188.699644
 30
0.0
 10
105.321299
 20
188.734343
 30
0.0
 10
105.288339
 20
188.767171
 30
0.0
 10
105.248102
 20
188.794820
 30
0.0
 10
105.205320
 20
188.815763
 30
0.0
 10
105.162514
 20
188.827016
 30
0.0
 10
105.122721
 20
188.830104
 30
0.0
 10
105.098806
 20
188.823972
 30
0.0
 10
105.087769
 20
188.821142
 30
0.0
 11
105.087148
 21
188.821763
 31
0.0
 11
105.086887
 21
188.821188
 31
0.0
 11
105.086704
 21
188.820456
 31
0.0
 11
105.086443
 21
188.818940
 31
0.0
 11
105.084666
 21
188.812452
 31
0.0
 11
105.083046
 21
188.803909
 31
0.0
 11
105.080798
 21
188.792764
 31
0.0
 11
105.075789
 21
188.762454
 31
0.0
 11
105.071015
 21
188.722298
 31
0.0
 11
105.067040
 21
188.672890
 31
0.0
 11
105.060092
 21
188.544755
 31
0.0
 11
105.054209
 21
188.373314
 31
0.0
 11
105.049189
 21
188.154801
 31
0.0
 11
105.036561
 21
187.717366
 31
0.0
 11
105.014722
 21
187.433594
 31
0.0
 11
104.976200
 21
187.210944
 31
0.0
 11
104.940841
 21
187.031885
 31
0.0
 11
104.930867
 21
186.908934
 31
0.0
 11
104.943109
 21
186.798963
 31
0.0
 11
104.999306
 21
186.596377
 31
0.0
 11
105.087601
 21
186.425905
 31
0.0
 11
105.214551
 21
186.275370
 31
0.0
 11
105.287485
 21
186.212510
 31
0.0
 11
105.380193
 21
186.143892
 31
0.0
 11
105.480489
 21
186.076954
 31
0.0
 11
105.529631
 21
186.046555
 31
0.0
 11
105.576046
 21
186.019601
 31
0.0
 11
105.618284
 21
185.997000
 31
0.0
 11
105.640124
 21
185.987016
 31
0.0
 11
105.656838
 21
185.981091
 31
0.0
 11
105.672047
 21
185.976328
 31
0.0
 11
105.653415
 21
186.000882
 31
0.0
 11
105.629345
 21
186.030384
 31
0.0
 11
105.600369
 21
186.063146
 31
0.0
 11
105.383224
 21
186.389895
 31
0.0
 11
105.290079
 21
186.759091
 31
0.0
 11
105.323411
 21
187.159946
 31
0.0
 11
105.379752
 21
187.477462
 31
0.0
 11
105.405574
 21
187.831093
 31
0.0
 11
105.401953
 21
188.237443
 31
0.0
 11
105.394589
 21
188.405244
 31
0.0
 11
105.386739
 21
188.524887
 31
0.0
 11
105.377118
 21
188.606723
 31
0.0
 11
105.364478
 21
188.660963
 31
0.0
 11
105.346930
 21
188.698804
 31
0.0
 11
105.322014
 21
188.732108
 31
0.0
 11
105.287764
 21
188.765728
 31
0.0
 11
105.247175
 21
188.793970
 31
0.0
 11
105.203523
 21
188.814792
 31
0.0
 11
105.160698
 21
188.826034
 31
0.0
 11
105.121078
 21
188.827915
 31
0.0
 11
105.087769
 21
188.821142
 31
0.0
  0
LWPOLYLINE
  5
14f
100
AcDbEntity
  8
Calque_1
 62
7
100
AcDbPolyline
 90
2
 70
0
 10
105.087769
 20
188.821142
 30
0.0
 10
105.087148
 20
188.821763
 30
0.0
  0
SPLINE
  5
150
100
AcDbEntity
  8
Calque_1
 62
7
100
AcDbSpline
 70
0
 71
3
 72
13
 73
9
 74
7
 40
0.000000
 40
0.000000
 40
0.000000
 40
0.000000
 40
0.448357
 40
0.910332
 40
1.411671
 40
1.577191
 40
1.743123
 40
1.908652
 40
1.908652
 40
1.908652
 40
1.908652
 10
96.872224
 20
200.841007
 30
0.0
 10
96.721896
 20
200.818192
 30
0.0
 10
96.416672
 20
200.771869
 30
0.0
 10
96.039945
 20
200.466028
 30
0.0
 10
95.781241
 20
200.196858
 30
0.0
 10
95.589395
 20
199.995879
 30
0.0
 10
95.473387
 20
199.877634
 30
0.0
 10
95.393055
 20
199.801756
 30
0.0
 10
95.352937
 20
199.763864
 30
0.0
 11
96.872224
 21
200.841007
 31
0.0
 11
96.436348
 21
200.735957
 31
0.0
 11
96.058799
 21
200.469727
 31
0.0
 11
95.703831
 21
200.115696
 31
0.0
 11
95.589237
 21
199.996260
 31
0.0
 11
95.472551
 21
199.878286
 31
0.0
 11
95.352937
 21
199.763864
 31
0.0
  0
SPLINE
  5
151
100
AcDbEntity
  8
Calque_1
 62
7
100
AcDbSpline
 70
0
 71
3
 72
13
 73
9
 74
7
 40
0.000000
 40
0.000000
 40
0.000000
 40
0.000000
 40
0.165529
 40
0.331461
 40
0.496981
 40
0.998791
 40
1.460965
 40
1.909351
 40
1.909351
 40
1.909351
 40
1.909351
 10
98.392449
 20
199.763864
 30
0.0
 10
98.352333
 20
199.801757
 30
0.0
 10
98.272001
 20
199.877635
 30
0.0
 10
98.155987
 20
199.995874
 30
0.0
 10
97.964072
 20
200.197006
 30
0.0
 10
97.704757
 20
200.465888
 30
0.0
 10
97.327865
 20
200.771851
 30
0.0
 10
97.022563
 20
200.818189
 30
0.0
 10
96.872224
 20
200.841007
 30
0.0
 11
98.392449
 21
199.763864
 31
0.0
 11
98.272836
 21
199.878286
 31
0.0
 11
98.156150
 21
199.996260
 31
0.0
 11
98.041555
 21
200.115696
 31
0.0
 11
97.685923
 21
200.469727
 31
0.0
 11
97.308130
 21
200.735957
 31
0.0
 11
96.872224
 21
200.841007
 31
0.0
  0
LWPOLYLINE
  5
152
100
AcDbEntity
  8
Calque_1
 62
7
100
AcDbPolyline
 90
2
 70
0
 10
95.352937
 20
199.763864
 30
0.0
 10
98.392449
 20
199.763864
 30
0.0
  0
SPLINE
  5
153
100
AcDbEntity
  8
Calque_1
 62
7
100
AcDbSpline
 70
0
 71
3
 72
13
 73
9
 74
7
 40
0.000000
 40
0.000000
 40
0.000000
 40
0.000000
 40
0.448351
 40
0.910324
 40
1.411660
 40
1.577184
 40
1.743116
 40
1.908642
 40
1.908642
 40
1.908642
 40
1.908642
 10
96.872224
 20
197.311465
 30
0.0
 10
97.022551
 20
197.334280
 30
0.0
 10
97.327771
 20
197.380602
 30
0.0
 10
97.704498
 20
197.686439
 30
0.0
 10
97.963200
 20
197.955610
 30
0.0
 10
98.155050
 20
198.156587
 30
0.0
 10
98.271054
 20
198.274835
 30
0.0
 10
98.351387
 20
198.350711
 30
0.0
 10
98.391504
 20
198.388602
 30
0.0
 11
96.872224
 21
197.311465
 31
0.0
 11
97.308095
 21
197.416514
 31
0.0
 11
97.685642
 21
197.682740
 31
0.0
 11
98.040610
 21
198.036770
 31
0.0
 11
98.155208
 21
198.156208
 31
0.0
 11
98.271892
 21
198.274183
 31
0.0
 11
98.391504
 21
198.388602
 31
0.0
  0
SPLINE
  5
154
100
AcDbEntity
  8
Calque_1
 62
7
100
AcDbSpline
 70
0
 71
3
 72
13
 73
9
 74
7
 40
0.000000
 40
0.000000
 40
0.000000
 40
0.000000
 40
0.165523
 40
0.331455
 40
0.496976
 40
0.998785
 40
1.460959
 40
1.909349
 40
1.909349
 40
1.909349
 40
1.909349
 10
95.351999
 20
198.388602
 30
0.0
 10
95.392114
 20
198.350710
 30
0.0
 10
95.472444
 20
198.274833
 30
0.0
 10
95.588455
 20
198.156593
 30
0.0
 10
95.780368
 20
197.955460
 30
0.0
 10
96.039684
 20
197.686579
 30
0.0
 10
96.416580
 20
197.380619
 30
0.0
 10
96.721883
 20
197.334283
 30
0.0
 10
96.872224
 20
197.311465
 30
0.0
 11
95.351999
 21
198.388602
 31
0.0
 11
95.471607
 21
198.274183
 31
0.0
 11
95.588292
 21
198.156208
 31
0.0
 11
95.702886
 21
198.036770
 31
0.0
 11
96.058519
 21
197.682740
 31
0.0
 11
96.436313
 21
197.416514
 31
0.0
 11
96.872224
 21
197.311465
 31
0.0
  0
SPLINE
  5
155
100
AcDbEntity
  8
Calque_1
 62
7
100
AcDbSpline
 70
0
 71
3
 72
10
 73
6
 74
4
 40
0.000000
 40
0.000000
 40
0.000000
 40
0.000000
 40
0.389336
 40
0.807907
 40
1.283355
 40
1.283355
 40
1.283355
 40
1.283355
 10
99.434781
 20
198.388037
 30
0.0
 10
99.304417
 20
198.366913
 30
0.0
 10
99.033899
 20
198.323077
 30
0.0
 10
98.696119
 20
198.039416
 30
0.0
 10
98.491120
 20
197.825443
 30
0.0
 10
98.382099
 20
197.711650
 30
0.0
 11
99.434781
 21
198.388037
 31
0.0
 11
99.057129
 21
198.293373
 31
0.0
 11
98.717732
 21
198.048400
 31
0.0
 11
98.382099
 21
197.711650
 31
0.0
  0
LWPOLYLINE
  5
156
100
AcDbEntity
  8
Calque_1
 62
7
100
AcDbPolyline
 90
2
 70
0
 10
98.391504
 20
198.388602
 30
0.0
 10
95.351999
 20
198.388602
 30
0.0
  0
LWPOLYLINE
  5
157
100
AcDbEntity
  8
Calque_1
 62
7
100
AcDbPolyline
 90
5
 70
0
 10
94.307784
 20
198.388037
 30
0.0
 10
94.205238
 20
198.388037
 30
0.0
 10
94.205238
 20
198.858410
 30
0.0
 10
99.434781
 20
198.858410
 30
0.0
 10
99.434781
 20
198.388037
 30
0.0
  0
SPLINE
  5
158
100
AcDbEntity
  8
Calque_1
 62
7
100
AcDbSpline
 70
0
 71
3
 72
16
 73
12
 74
10
 40
0.000000
 40
0.000000
 40
0.000000
 40
0.000000
 40
0.580321
 40
1.169627
 40
1.791050
 40
2.411989
 40
3.001152
 40
3.581446
 40
4.057852
 40
4.477015
 40
4.867059
 40
4.867059
 40
4.867059
 40
4.867059
 10
98.382099
 20
197.711650
 30
0.0
 10
98.248248
 20
197.572037
 30
0.0
 10
97.978474
 20
197.290649
 30
0.0
 10
97.487772
 20
196.935656
 30
0.0
 10
96.872382
 20
196.793145
 30
0.0
 10
96.257071
 20
196.935638
 30
0.0
 10
95.766357
 20
197.289793
 30
0.0
 10
95.386963
 20
197.687694
 30
0.0
 10
95.047987
 20
198.039123
 30
0.0
 10
94.709346
 20
198.323165
 30
0.0
 10
94.438388
 20
198.366938
 30
0.0
 10
94.307784
 20
198.388037
 30
0.0
 11
98.382099
 21
197.711650
 31
0.0
 11
97.968072
 21
197.305012
 31
0.0
 11
97.478788
 21
196.976557
 31
0.0
 11
96.872224
 21
196.841474
 31
0.0
 11
96.266111
 21
196.976347
 31
0.0
 11
95.776858
 21
197.304592
 31
0.0
 11
95.363281
 21
197.711650
 31
0.0
 11
95.026292
 21
198.048400
 31
0.0
 11
94.686165
 21
198.293373
 31
0.0
 11
94.307784
 21
198.388037
 31
0.0
  0
LWPOLYLINE
  5
159
100
AcDbEntity
  8
Calque_1
 62
7
100
AcDbPolyline
 90
4
 70
0
 10
99.539203
 20
199.293964
 30
0.0
 10
94.207122
 20
199.293964
 30
0.0
 10
94.207122
 20
199.764336
 30
0.0
 10
94.309661
 20
199.764336
 30
0.0
  0
SPLINE
  5
15a
100
AcDbEntity
  8
Calque_1
 62
7
100
AcDbSpline
 70
0
 71
3
 72
19
 73
15
 74
13
 40
0.000000
 40
0.000000
 40
0.000000
 40
0.000000
 40
0.389372
 40
0.808140
 40
1.284053
 40
1.864076
 40
2.453435
 40
3.074879
 40
3.695899
 40
4.285515
 40
4.866450
 40
5.342389
 40
5.761356
 40
6.151371
 40
6.151371
 40
6.151371
 40
6.151371
 10
94.309661
 20
199.764336
 30
0.0
 10
94.440030
 20
199.785456
 30
0.0
 10
94.710610
 20
199.829291
 30
0.0
 10
95.048698
 20
200.113204
 30
0.0
 10
95.386854
 20
200.464895
 30
0.0
 10
95.766426
 20
200.862318
 30
0.0
 10
96.256611
 20
201.217365
 30
0.0
 10
96.872093
 20
201.360302
 30
0.0
 10
97.487595
 20
201.217411
 30
0.0
 10
97.978259
 20
200.862627
 30
0.0
 10
98.358371
 20
200.465153
 30
0.0
 10
98.696721
 20
200.113119
 30
0.0
 10
99.035187
 20
199.829188
 30
0.0
 10
99.306070
 20
199.785432
 30
0.0
 10
99.436665
 20
199.764336
 30
0.0
 11
94.309661
 21
199.764336
 31
0.0
 11
94.687350
 21
199.859001
 31
0.0
 11
95.026988
 21
200.103974
 31
0.0
 11
95.363281
 21
200.440724
 31
0.0
 11
95.776649
 21
200.847608
 31
0.0
 11
96.265694
 21
201.176514
 31
0.0
 11
96.872224
 21
201.311838
 31
0.0
 11
97.478367
 21
201.176722
 31
0.0
 11
97.967862
 21
200.848025
 31
0.0
 11
98.382099
 21
200.440724
 31
0.0
 11
98.718428
 21
200.103974
 31
0.0
 11
99.058313
 21
199.859001
 31
0.0
 11
99.436665
 21
199.764336
 31
0.0
  0
LWPOLYLINE
  5
15b
100
AcDbEntity
  8
Calque_1
 62
7
100
AcDbPolyline
 90
3
 70
0
 10
99.436665
 20
199.764336
 30
0.0
 10
99.539203
 20
199.764336
 30
0.0
 10
99.539203
 20
199.293964
 30
0.0
  0
SPLINE
  5
15c
100
AcDbEntity
  8
Calque_1
 62
7
100
AcDbSpline
 70
0
 71
3
 72
58
 73
54
 74
52
 40
0.000000
 40
0.000000
 40
0.000000
 40
0.000000
 40
0.000632
 40
0.001386
 40
0.002924
 40
0.009651
 40
0.018346
 40
0.029715
 40
0.060437
 40
0.100876
 40
0.150443
 40
0.278767
 40
0.450309
 40
0.668879
 40
1.106496
 40
1.391108
 40
1.617065
 40
1.799582
 40
1.922937
 40
2.033587
 40
2.243823
 40
2.435804
 40
2.632723
 40
2.729008
 40
2.844347
 40
2.964929
 40
3.022714
 40
3.076387
 40
3.124292
 40
3.148307
 40
3.166039
 40
3.181977
 40
3.212800
 40
3.250876
 40
3.294617
 40
3.686939
 40
4.067704
 40
4.469943
 40
4.792418
 40
5.146991
 40
5.553357
 40
5.721320
 40
5.841219
 40
5.923620
 40
5.979313
 40
6.021024
 40
6.062617
 40
6.110611
 40
6.160059
 40
6.208422
 40
6.252698
 40
6.292362
 40
6.326353
 40
6.326353
 40
6.326353
 40
6.326353
 10
95.324369
 20
188.620545
 30
0.0
 10
95.324274
 20
188.620356
 30
0.0
 10
95.324066
 20
188.619942
 30
0.0
 10
95.323867
 20
188.618981
 30
0.0
 10
95.323436
 20
188.616009
 30
0.0
 10
95.321438
 20
188.610662
 30
0.0
 10
95.320261
 20
188.601782
 30
0.0
 10
95.316523
 20
188.585269
 30
0.0
 10
95.312381
 20
188.558046
 30
0.0
 10
95.307604
 20
188.518087
 30
0.0
 10
95.302211
 20
188.445492
 30
0.0
 10
95.296224
 20
188.329165
 30
0.0
 10
95.290630
 20
188.156436
 30
0.0
 10
95.284914
 20
187.880569
 30
0.0
 10
95.278208
 20
187.567153
 30
0.0
 10
95.259524
 20
187.251160
 30
0.0
 10
95.217796
 20
187.023516
 30
0.0
 10
95.178288
 20
186.850873
 30
0.0
 10
95.163289
 20
186.711836
 30
0.0
 10
95.183200
 20
186.564376
 30
0.0
 10
95.227606
 20
186.398353
 30
0.0
 10
95.319503
 20
186.219212
 30
0.0
 10
95.425029
 20
186.094617
 30
0.0
 10
95.528884
 20
186.006319
 30
0.0
 10
95.618378
 20
185.941008
 30
0.0
 10
95.699834
 20
185.886580
 30
0.0
 10
95.765496
 20
185.845839
 30
0.0
 10
95.811615
 20
185.819031
 30
0.0
 10
95.847881
 20
185.799336
 30
0.0
 10
95.875806
 20
185.785821
 30
0.0
 10
95.892030
 20
185.780985
 30
0.0
 10
95.920693
 20
185.768948
 30
0.0
 10
95.883279
 20
185.805971
 30
0.0
 10
95.867570
 20
185.829473
 30
0.0
 10
95.753386
 20
185.951824
 30
0.0
 10
95.603398
 20
186.173098
 30
0.0
 10
95.500703
 20
186.564978
 30
0.0
 10
95.551660
 20
186.933904
 30
0.0
 10
95.626973
 20
187.285418
 30
0.0
 10
95.647788
 20
187.647309
 30
0.0
 10
95.643121
 20
187.956843
 30
0.0
 10
95.632979
 20
188.188034
 30
0.0
 10
95.625781
 20
188.311288
 30
0.0
 10
95.616776
 20
188.396800
 30
0.0
 10
95.604970
 20
188.455862
 30
0.0
 10
95.585541
 20
188.498427
 30
0.0
 10
95.558513
 20
188.533126
 30
0.0
 10
95.525553
 20
188.565953
 30
0.0
 10
95.485316
 20
188.593603
 30
0.0
 10
95.442534
 20
188.614546
 30
0.0
 10
95.399728
 20
188.625799
 30
0.0
 10
95.359934
 20
188.628887
 30
0.0
 10
95.336020
 20
188.622754
 30
0.0
 10
95.324983
 20
188.619924
 30
0.0
 11
95.324369
 21
188.620545
 31
0.0
 11
95.324108
 21
188.619970
 31
0.0
 11
95.323925
 21
188.619239
 31
0.0
 11
95.323664
 21
188.617723
 31
0.0
 11
95.321887
 21
188.611235
 31
0.0
 11
95.320267
 21
188.602692
 31
0.0
 11
95.318019
 21
188.591547
 31
0.0
 11
95.313010
 21
188.561237
 31
0.0
 11
95.308236
 21
188.521080
 31
0.0
 11
95.304261
 21
188.471673
 31
0.0
 11
95.297313
 21
188.343537
 31
0.0
 11
95.291430
 21
188.172096
 31
0.0
 11
95.286410
 21
187.953584
 31
0.0
 11
95.273782
 21
187.516149
 31
0.0
 11
95.251943
 21
187.232376
 31
0.0
 11
95.213421
 21
187.009727
 31
0.0
 11
95.178062
 21
186.830668
 31
0.0
 11
95.168087
 21
186.707716
 31
0.0
 11
95.180330
 21
186.597746
 31
0.0
 11
95.236527
 21
186.395160
 31
0.0
 11
95.324822
 21
186.224688
 31
0.0
 11
95.451771
 21
186.074153
 31
0.0
 11
95.524706
 21
186.011293
 31
0.0
 11
95.617414
 21
185.942675
 31
0.0
 11
95.717709
 21
185.875737
 31
0.0
 11
95.766852
 21
185.845337
 31
0.0
 11
95.813267
 21
185.818384
 31
0.0
 11
95.855504
 21
185.795783
 31
0.0
 11
95.877345
 21
185.785798
 31
0.0
 11
95.894059
 21
185.779874
 31
0.0
 11
95.909268
 21
185.775110
 31
0.0
 11
95.890636
 21
185.799665
 31
0.0
 11
95.866563
 21
185.829166
 31
0.0
 11
95.837583
 21
185.861929
 31
0.0
 11
95.620438
 21
186.188677
 31
0.0
 11
95.527293
 21
186.557874
 31
0.0
 11
95.560625
 21
186.958729
 31
0.0
 11
95.616966
 21
187.276244
 31
0.0
 11
95.642788
 21
187.629876
 31
0.0
 11
95.639167
 21
188.036225
 31
0.0
 11
95.631803
 21
188.204027
 31
0.0
 11
95.623953
 21
188.323669
 31
0.0
 11
95.614331
 21
188.405506
 31
0.0
 11
95.601692
 21
188.459746
 31
0.0
 11
95.584144
 21
188.497587
 31
0.0
 11
95.559228
 21
188.530890
 31
0.0
 11
95.524978
 21
188.564511
 31
0.0
 11
95.484389
 21
188.592752
 31
0.0
 11
95.440737
 21
188.613574
 31
0.0
 11
95.397912
 21
188.624816
 31
0.0
 11
95.358292
 21
188.626698
 31
0.0
 11
95.324983
 21
188.619924
 31
0.0
  0
LWPOLYLINE
  5
15d
100
AcDbEntity
  8
Calque_1
 62
7
100
AcDbPolyline
 90
2
 70
0
 10
95.324983
 20
188.619924
 30
0.0
 10
95.324369
 20
188.620545
 30
0.0
  0
SPLINE
  5
15e
100
AcDbEntity
  8
Calque_1
 62
7
100
AcDbSpline
 70
0
 71
3
 72
85
 73
81
 74
79
 40
0.000000
 40
0.000000
 40
0.000000
 40
0.000000
 40
0.026507
 40
0.063712
 40
0.118192
 40
0.293563
 40
0.576135
 40
0.988377
 40
1.387876
 40
1.663275
 40
1.840794
 40
1.901556
 40
1.949298
 40
1.989596
 40
2.027124
 40
2.064994
 40
2.105880
 40
2.158410
 40
2.213149
 40
2.279834
 40
2.367996
 40
2.486165
 40
2.641590
 40
2.733007
 40
2.819334
 40
2.896661
 40
2.931153
 40
2.962345
 40
2.988890
 40
3.010410
 40
3.026122
 40
3.034357
 40
3.074626
 40
3.124241
 40
3.178791
 40
3.233387
 40
3.282990
 40
3.322731
 40
3.329601
 40
3.335253
 40
3.340093
 40
3.344003
 40
3.348017
 40
3.353074
 40
3.367159
 40
3.390986
 40
3.426993
 40
3.543032
 40
3.732584
 40
4.014536
 40
4.425123
 40
4.704656
 40
4.883177
 40
5.163793
 40
5.410155
 40
5.634563
 40
6.222347
 40
6.836677
 40
7.476323
 40
7.586105
 40
7.709019
 40
7.817709
 40
7.896767
 40
8.031997
 40
8.210261
 40
8.419690
 40
8.649156
 40
8.886496
 40
9.119912
 40
9.338298
 40
9.530575
 40
9.613233
 40
9.684875
 40
9.744231
 40
9.769201
 40
9.790724
 40
9.807963
 40
9.815065
 40
9.821209
 40
9.825980
 40
9.825980
 40
9.825980
 40
9.825980
 10
98.037386
 20
188.783204
 30
0.0
 10
98.028484
 20
188.783997
 30
0.0
 10
98.007089
 20
188.785905
 30
0.0
 10
97.969589
 20
188.770457
 30
0.0
 10
97.893851
 20
188.724369
 30
0.0
 10
97.764256
 20
188.611241
 30
0.0
 10
97.554829
 20
188.411409
 30
0.0
 10
97.296291
 20
188.153723
 30
0.0
 10
97.039693
 20
187.897838
 30
0.0
 10
96.835207
 20
187.700747
 30
0.0
 10
96.706272
 20
187.587414
 30
0.0
 10
96.626489
 20
187.534808
 30
0.0
 10
96.580925
 20
187.514428
 30
0.0
 10
96.539226
 20
187.506765
 30
0.0
 10
96.500451
 20
187.511111
 30
0.0
 10
96.463572
 20
187.523603
 30
0.0
 10
96.424208
 20
187.542739
 30
0.0
 10
96.382445
 20
187.570148
 30
0.0
 10
96.346731
 20
187.617218
 30
0.0
 10
96.321954
 20
187.683160
 30
0.0
 10
96.304514
 20
187.772647
 30
0.0
 10
96.290420
 20
187.892453
 30
0.0
 10
96.280885
 20
188.013754
 30
0.0
 10
96.272155
 20
188.124476
 30
0.0
 10
96.262409
 20
188.208954
 30
0.0
 10
96.253735
 20
188.274431
 30
0.0
 10
96.246826
 20
188.321600
 30
0.0
 10
96.241726
 20
188.351920
 30
0.0
 10
96.236944
 20
188.377901
 30
0.0
 10
96.232256
 20
188.398656
 30
0.0
 10
96.228548
 20
188.413319
 30
0.0
 10
96.222799
 20
188.434071
 30
0.0
 10
96.198190
 20
188.458146
 30
0.0
 10
96.161609
 20
188.488497
 30
0.0
 10
96.115648
 20
188.515607
 30
0.0
 10
96.067074
 20
188.536726
 30
0.0
 10
96.020741
 20
188.549979
 30
0.0
 10
95.988267
 20
188.551887
 30
0.0
 10
95.971016
 20
188.549645
 30
0.0
 10
95.965326
 20
188.548227
 30
0.0
 10
95.961269
 20
188.545593
 30
0.0
 10
95.957568
 20
188.543503
 30
0.0
 10
95.954140
 20
188.540812
 30
0.0
 10
95.949321
 20
188.534691
 30
0.0
 10
95.944212
 20
188.521091
 30
0.0
 10
95.938870
 20
188.497067
 30
0.0
 10
95.931159
 20
188.438860
 30
0.0
 10
95.924661
 20
188.325139
 30
0.0
 10
95.917710
 20
188.129427
 30
0.0
 10
95.910843
 20
187.835428
 30
0.0
 10
95.899976
 20
187.511787
 30
0.0
 10
95.885400
 20
187.222054
 30
0.0
 10
95.843215
 20
186.979353
 30
0.0
 10
95.792559
 20
186.748884
 30
0.0
 10
95.802348
 20
186.495335
 30
0.0
 10
95.908799
 20
186.154954
 30
0.0
 10
96.256075
 20
185.789790
 30
0.0
 10
96.848583
 20
185.577216
 30
0.0
 10
97.321294
 20
185.613709
 30
0.0
 10
97.591744
 20
185.721292
 30
0.0
 10
97.693882
 20
185.771277
 30
0.0
 10
97.785934
 20
185.819797
 30
0.0
 10
97.868972
 20
185.888837
 30
0.0
 10
97.966256
 20
185.976187
 30
0.0
 10
98.093587
 20
186.095308
 30
0.0
 10
98.241898
 20
186.237853
 30
0.0
 10
98.403057
 20
186.395466
 30
0.0
 10
98.568599
 20
186.560010
 30
0.0
 10
98.730644
 20
186.722832
 30
0.0
 10
98.881134
 20
186.875954
 30
0.0
 10
98.995142
 20
186.994465
 30
0.0
 10
99.073881
 20
187.079009
 30
0.0
 10
99.121531
 20
187.131939
 30
0.0
 10
99.155916
 20
187.170942
 30
0.0
 10
99.178621
 20
187.197946
 30
0.0
 10
99.191981
 20
187.214477
 30
0.0
 10
99.201122
 20
187.226714
 30
0.0
 10
99.207474
 20
187.234681
 30
0.0
 10
99.210329
 20
187.239982
 30
0.0
 10
99.212131
 20
187.243141
 30
0.0
 10
99.212919
 20
187.244521
 30
0.0
 11
98.037386
 21
188.783204
 31
0.0
 11
98.010886
 21
188.783813
 31
0.0
 11
97.975578
 21
188.772082
 31
0.0
 11
97.928532
 21
188.744610
 31
0.0
 11
97.792190
 21
188.634312
 31
0.0
 11
97.586544
 21
188.440516
 31
0.0
 11
97.293328
 21
188.150744
 31
0.0
 11
97.009489
 21
187.869612
 31
0.0
 11
96.809866
 21
187.679888
 31
0.0
 11
96.673272
 21
187.566509
 31
0.0
 11
96.621930
 21
187.534011
 31
0.0
 11
96.577976
 21
187.515374
 31
0.0
 11
96.538242
 21
187.508653
 31
0.0
 11
96.500902
 21
187.512403
 31
0.0
 11
96.464844
 21
187.523977
 31
0.0
 11
96.428020
 21
187.541744
 31
0.0
 11
96.385037
 21
187.571941
 31
0.0
 11
96.351332
 21
187.615072
 31
0.0
 11
96.326054
 21
187.676780
 31
0.0
 11
96.307369
 21
187.762940
 31
0.0
 11
96.292527
 21
187.880173
 31
0.0
 11
96.279205
 21
188.035026
 31
0.0
 11
96.271457
 21
188.126114
 31
0.0
 11
96.261811
 21
188.211900
 31
0.0
 11
96.251617
 21
188.288553
 31
0.0
 11
96.246540
 21
188.322669
 31
0.0
 11
96.241384
 21
188.353432
 31
0.0
 11
96.236448
 21
188.379513
 31
0.0
 11
96.231729
 21
188.400510
 31
0.0
 11
96.227856
 21
188.415737
 31
0.0
 11
96.225441
 21
188.423611
 31
0.0
 11
96.200490
 21
188.455217
 31
0.0
 11
96.162003
 21
188.486529
 31
0.0
 11
96.115212
 21
188.514571
 31
0.0
 11
96.065092
 21
188.536218
 31
0.0
 11
96.017136
 21
188.548897
 31
0.0
 11
95.977424
 21
188.550413
 31
0.0
 11
95.970622
 21
188.549446
 31
0.0
 11
95.965200
 21
188.547852
 31
0.0
 11
95.960985
 21
188.545474
 31
0.0
 11
95.957648
 21
188.543436
 31
0.0
 11
95.954515
 21
188.540927
 31
0.0
 11
95.951319
 21
188.537007
 31
0.0
 11
95.945614
 21
188.524130
 31
0.0
 11
95.940020
 21
188.500969
 31
0.0
 11
95.934879
 21
188.465330
 31
0.0
 11
95.926376
 21
188.349604
 31
0.0
 11
95.919112
 21
188.160190
 31
0.0
 11
95.911455
 21
187.878343
 31
0.0
 11
95.897143
 21
187.468005
 31
0.0
 11
95.876825
 21
187.189211
 31
0.0
 11
95.848026
 21
187.013029
 31
0.0
 11
95.802775
 21
186.736085
 31
0.0
 11
95.813920
 21
186.489976
 31
0.0
 11
95.881116
 21
186.275864
 31
0.0
 11
96.272106
 21
185.836983
 31
0.0
 11
96.847937
 21
185.622929
 31
0.0
 11
97.484978
 21
185.680608
 31
0.0
 11
97.587112
 21
185.720869
 31
0.0
 11
97.697950
 21
185.773997
 31
0.0
 11
97.792247
 21
185.828048
 31
0.0
 11
97.854259
 21
185.877085
 31
0.0
 11
97.955338
 21
185.966919
 31
0.0
 11
98.085737
 21
186.088469
 31
0.0
 11
98.236884
 21
186.233436
 31
0.0
 11
98.400965
 21
186.393846
 31
0.0
 11
98.569374
 21
186.561085
 31
0.0
 11
98.733999
 21
186.726560
 31
0.0
 11
98.886939
 21
186.882450
 31
0.0
 11
99.019949
 21
187.021298
 31
0.0
 11
99.076199
 21
187.081864
 31
0.0
 11
99.124171
 21
187.135074
 31
0.0
 11
99.163248
 21
187.179751
 31
0.0
 11
99.179295
 21
187.198882
 31
0.0
 11
99.192756
 21
187.215677
 31
0.0
 11
99.203253
 21
187.229352
 31
0.0
 11
99.207483
 21
187.235057
 31
0.0
 11
99.210569
 21
187.240369
 31
0.0
 11
99.212919
 21
187.244521
 31
0.0
  0
LWPOLYLINE
  5
15f
100
AcDbEntity
  8
Calque_1
 62
7
100
AcDbPolyline
 90
2
 70
0
 10
99.212919
 20
187.244521
 30
0.0
 10
99.215035
 20
187.245227
 30
0.0
  0
SPLINE
  5
160
100
AcDbEntity
  8
Calque_1
 62
7
100
AcDbSpline
 70
0
 71
3
 72
190
 73
186
 74
184
 40
0.000000
 40
0.000000
 40
0.000000
 40
0.000000
 40
0.035072
 40
0.073419
 40
0.113804
 40
0.154523
 40
0.192744
 40
0.227114
 40
0.256103
 40
0.305634
 40
0.382683
 40
0.493379
 40
0.643305
 40
0.837965
 40
1.075965
 40
1.247933
 40
1.366235
 40
1.409756
 40
1.445494
 40
1.475789
 40
1.503280
 40
1.530273
 40
1.558498
 40
1.589301
 40
1.618137
 40
1.647789
 40
1.681343
 40
1.721893
 40
1.772810
 40
1.917352
 40
2.134039
 40
2.438840
 40
2.706723
 40
2.900891
 40
3.034249
 40
3.082100
 40
3.119645
 40
3.148806
 40
3.171368
 40
3.189666
 40
3.206554
 40
3.286845
 40
3.368136
 40
3.443902
 40
3.446856
 40
3.450508
 40
3.455527
 40
3.468749
 40
3.485347
 40
3.504677
 40
3.550852
 40
3.607088
 40
3.672549
 40
3.826959
 40
4.006410
 40
4.203689
 40
4.401579
 40
4.581864
 40
4.736766
 40
4.802378
 40
4.858930
 40
4.905558
 40
4.924752
 40
4.941084
 40
4.954700
 40
4.960497
 40
4.965743
 40
4.970461
 40
4.972589
 40
4.974650
 40
4.976778
 40
4.978337
 40
4.980634
 40
4.982503
 40
4.984124
 40
4.986763
 40
4.988149
 40
5.021923
 40
5.060097
 40
5.100996
 40
5.121093
 40
5.140255
 40
5.158701
 40
5.176553
 40
5.193461
 40
5.209573
 40
5.211101
 40
5.213801
 40
5.215604
 40
5.216337
 40
5.217465
 40
5.218441
 40
5.221025
 40
5.223772
 40
5.225727
 40
5.230106
 40
5.234969
 40
5.241464
 40
5.256805
 40
5.275606
 40
5.297207
 40
5.348133
 40
5.409841
 40
5.482434
 40
5.655937
 40
5.858564
 40
6.081674
 40
6.399610
 40
6.629345
 40
6.786266
 40
6.842525
 40
6.886592
 40
6.920096
 40
6.945224
 40
6.964910
 40
6.982303
 40
7.026593
 40
7.063381
 40
7.096543
 40
7.130739
 40
7.169239
 40
7.214242
 40
7.226525
 40
7.245949
 40
7.274076
 40
7.311280
 40
7.358878
 40
7.418345
 40
7.577176
 40
7.796049
 40
8.083958
 40
8.331612
 40
8.540034
 40
8.707636
 40
8.775585
 40
8.832889
 40
8.879691
 40
8.899397
 40
8.916706
 40
8.931324
 40
8.943083
 40
8.953376
 40
8.964054
 40
9.036348
 40
9.104438
 40
9.171561
 40
9.172293
 40
9.173417
 40
9.174385
 40
9.175751
 40
9.178145
 40
9.180107
 40
9.182084
 40
9.183864
 40
9.185807
 40
9.190588
 40
9.196216
 40
9.201977
 40
9.214425
 40
9.229068
 40
9.246109
 40
9.287215
 40
9.336598
 40
9.393644
 40
9.527927
 40
9.683466
 40
9.853612
 40
10.025090
 40
10.185040
 40
10.326277
 40
10.387583
 40
10.441548
 40
10.487404
 40
10.524534
 40
10.551092
 40
10.564403
 40
10.594362
 40
10.617768
 40
10.637202
 40
10.656776
 40
10.680233
 40
10.709977
 40
10.749961
 40
10.781112
 40
10.806203
 40
10.806203
 40
10.806203
 40
10.806203
 10
99.215035
 20
187.245227
 30
0.0
 10
99.213579
 20
187.256912
 30
0.0
 10
99.210531
 20
187.281372
 30
0.0
 10
99.192451
 20
187.315495
 30
0.0
 10
99.167736
 20
187.346824
 30
0.0
 10
99.136937
 20
187.372672
 30
0.0
 10
99.103278
 20
187.389925
 30
0.0
 10
99.069227
 20
187.398307
 30
0.0
 10
99.032256
 20
187.387019
 30
0.0
 10
98.988285
 20
187.359315
 30
0.0
 10
98.925997
 20
187.310411
 30
0.0
 10
98.842344
 20
187.235051
 30
0.0
 10
98.732460
 20
187.130363
 30
0.0
 10
98.594351
 20
186.993850
 30
0.0
 10
98.450813
 20
186.852312
 30
0.0
 10
98.321477
 20
186.732864
 30
0.0
 10
98.234898
 20
186.662497
 30
0.0
 10
98.178581
 20
186.628102
 30
0.0
 10
98.144803
 20
186.613749
 30
0.0
 10
98.113670
 20
186.608293
 30
0.0
 10
98.085233
 20
186.612811
 30
0.0
 10
98.060373
 20
186.625570
 30
0.0
 10
98.038626
 20
186.644476
 30
0.0
 10
98.019206
 20
186.666549
 30
0.0
 10
98.004966
 20
186.693215
 30
0.0
 10
98.000824
 20
186.724276
 30
0.0
 10
98.007526
 20
186.758672
 30
0.0
 10
98.025143
 20
186.796730
 30
0.0
 10
98.069079
 20
186.862190
 30
0.0
 10
98.160561
 20
186.965156
 30
0.0
 10
98.316065
 20
187.123478
 30
0.0
 10
98.504857
 20
187.306834
 30
0.0
 10
98.688388
 20
187.484755
 30
0.0
 10
98.829159
 20
187.624638
 30
0.0
 10
98.915818
 20
187.715002
 30
0.0
 10
98.962780
 20
187.770828
 30
0.0
 10
98.985357
 20
187.801676
 30
0.0
 10
99.000844
 20
187.827124
 30
0.0
 10
99.010875
 20
187.848281
 30
0.0
 10
99.015908
 20
187.867003
 30
0.0
 10
99.018435
 20
187.905508
 30
0.0
 10
98.998874
 20
187.966399
 30
0.0
 10
98.944702
 20
188.020201
 30
0.0
 10
98.889253
 20
188.053292
 30
0.0
 10
98.863474
 20
188.043077
 30
0.0
 10
98.860428
 20
188.040636
 30
0.0
 10
98.854656
 20
188.036194
 30
0.0
 10
98.845088
 20
188.029582
 30
0.0
 10
98.832368
 20
188.019247
 30
0.0
 10
98.811295
 20
188.001788
 30
0.0
 10
98.780577
 20
187.975263
 30
0.0
 10
98.738839
 20
187.937990
 30
0.0
 10
98.670869
 20
187.875934
 30
0.0
 10
98.573777
 20
187.784874
 30
0.0
 10
98.446054
 20
187.662261
 30
0.0
 10
98.309641
 20
187.527801
 30
0.0
 10
98.172951
 20
187.393224
 30
0.0
 10
98.044690
 20
187.270238
 30
0.0
 10
97.947286
 20
187.178795
 30
0.0
 10
97.879334
 20
187.116245
 30
0.0
 10
97.837595
 20
187.078519
 30
0.0
 10
97.807054
 20
187.051469
 30
0.0
 10
97.785916
 20
187.034051
 30
0.0
 10
97.772976
 20
187.024007
 30
0.0
 10
97.763488
 20
187.016796
 30
0.0
 10
97.756802
 20
187.012015
 30
0.0
 10
97.752348
 20
187.009209
 30
0.0
 10
97.749859
 20
187.005778
 30
0.0
 10
97.746969
 20
187.004851
 30
0.0
 10
97.745266
 20
187.003580
 30
0.0
 10
97.743409
 20
187.002991
 30
0.0
 10
97.741822
 20
187.001757
 30
0.0
 10
97.740282
 20
187.000643
 30
0.0
 10
97.738457
 20
186.999867
 30
0.0
 10
97.736390
 20
186.999958
 30
0.0
 10
97.734517
 20
186.999947
 30
0.0
 10
97.721911
 20
187.000170
 30
0.0
 10
97.697573
 20
187.006400
 30
0.0
 10
97.665474
 20
187.026482
 30
0.0
 10
97.639983
 20
187.047573
 30
0.0
 10
97.620093
 20
187.065402
 30
0.0
 10
97.606340
 20
187.078910
 30
0.0
 10
97.594740
 20
187.093279
 30
0.0
 10
97.585084
 20
187.108472
 30
0.0
 10
97.579497
 20
187.123966
 30
0.0
 10
97.574976
 20
187.136007
 30
0.0
 10
97.577589
 20
187.142322
 30
0.0
 10
97.578302
 20
187.144171
 30
0.0
 10
97.579061
 20
187.145809
 30
0.0
 10
97.578975
 20
187.147041
 30
0.0
 10
97.578816
 20
187.147975
 30
0.0
 10
97.579039
 20
187.149550
 30
0.0
 10
97.580226
 20
187.151351
 30
0.0
 10
97.581789
 20
187.153230
 30
0.0
 10
97.582670
 20
187.156191
 30
0.0
 10
97.585485
 20
187.158824
 30
0.0
 10
97.588494
 20
187.163093
 30
0.0
 10
97.594014
 20
187.170092
 30
0.0
 10
97.602608
 20
187.180551
 30
0.0
 10
97.614414
 20
187.194906
 30
0.0
 10
97.634411
 20
187.217863
 30
0.0
 10
97.664769
 20
187.250742
 30
0.0
 10
97.707248
 20
187.295547
 30
0.0
 10
97.777966
 20
187.369885
 30
0.0
 10
97.881509
 20
187.477828
 30
0.0
 10
98.021068
 20
187.620738
 30
0.0
 10
98.195898
 20
187.796478
 30
0.0
 10
98.377646
 20
187.978089
 30
0.0
 10
98.541837
 20
188.146016
 30
0.0
 10
98.642605
 20
188.253993
 30
0.0
 10
98.698208
 20
188.319286
 30
0.0
 10
98.725771
 20
188.354393
 30
0.0
 10
98.744656
 20
188.383017
 30
0.0
 10
98.756073
 20
188.406621
 30
0.0
 10
98.761319
 20
188.426860
 30
0.0
 10
98.762479
 20
188.454034
 30
0.0
 10
98.760087
 20
188.486940
 30
0.0
 10
98.748971
 20
188.523865
 30
0.0
 10
98.728614
 20
188.552768
 30
0.0
 10
98.699232
 20
188.573583
 30
0.0
 10
98.661630
 20
188.585340
 30
0.0
 10
98.629433
 20
188.590608
 30
0.0
 10
98.604071
 20
188.586009
 30
0.0
 10
98.586022
 20
188.577084
 30
0.0
 10
98.562116
 20
188.562099
 30
0.0
 10
98.531372
 20
188.540307
 30
0.0
 10
98.493674
 20
188.510431
 30
0.0
 10
98.426606
 20
188.452456
 30
0.0
 10
98.320269
 20
188.352768
 30
0.0
 10
98.161270
 20
188.198025
 30
0.0
 10
97.983211
 20
188.020434
 30
0.0
 10
97.807479
 20
187.845445
 30
0.0
 10
97.658447
 20
187.700497
 30
0.0
 10
97.550757
 20
187.598963
 30
0.0
 10
97.477970
 20
187.533900
 30
0.0
 10
97.434247
 20
187.496780
 30
0.0
 10
97.402270
 20
187.470677
 30
0.0
 10
97.379856
 20
187.453978
 30
0.0
 10
97.365511
 20
187.444465
 30
0.0
 10
97.353151
 20
187.436740
 30
0.0
 10
97.342514
 20
187.430768
 30
0.0
 10
97.332481
 20
187.426184
 30
0.0
 10
97.301231
 20
187.423192
 30
0.0
 10
97.250416
 20
187.437296
 30
0.0
 10
97.195400
 20
187.483671
 30
0.0
 10
97.182081
 20
187.529941
 30
0.0
 10
97.181298
 20
187.552973
 30
0.0
 10
97.181302
 20
187.553900
 30
0.0
 10
97.181204
 20
187.555108
 30
0.0
 10
97.182397
 20
187.556305
 30
0.0
 10
97.183447
 20
187.557867
 30
0.0
 10
97.184195
 20
187.559863
 30
0.0
 10
97.184620
 20
187.561733
 30
0.0
 10
97.184664
 20
187.563628
 30
0.0
 10
97.184770
 20
187.566519
 30
0.0
 10
97.187591
 20
187.569838
 30
0.0
 10
97.189882
 20
187.574671
 30
0.0
 10
97.194687
 20
187.581057
 30
0.0
 10
97.201007
 20
187.589978
 30
0.0
 10
97.210579
 20
187.601177
 30
0.0
 10
97.226014
 20
187.619886
 30
0.0
 10
97.248782
 20
187.647578
 30
0.0
 10
97.280877
 20
187.684843
 30
0.0
 10
97.334448
 20
187.744583
 30
0.0
 10
97.413696
 20
187.828791
 30
0.0
 10
97.520350
 20
187.938945
 30
0.0
 10
97.637370
 20
188.056292
 30
0.0
 10
97.755243
 20
188.174866
 30
0.0
 10
97.864568
 20
188.288328
 30
0.0
 10
97.947200
 20
188.376498
 30
0.0
 10
98.004492
 20
188.439971
 30
0.0
 10
98.039789
 20
188.480457
 30
0.0
 10
98.069374
 20
188.515221
 30
0.0
 10
98.092186
 20
188.543758
 30
0.0
 10
98.107317
 20
188.564474
 30
0.0
 10
98.119903
 20
188.584150
 30
0.0
 10
98.126516
 20
188.605607
 30
0.0
 10
98.133061
 20
188.628985
 30
0.0
 10
98.133936
 20
188.650050
 30
0.0
 10
98.128846
 20
188.670445
 30
0.0
 10
98.118799
 20
188.692601
 30
0.0
 10
98.102404
 20
188.719094
 30
0.0
 10
98.083106
 20
188.746381
 30
0.0
 10
98.061650
 20
188.771237
 30
0.0
 10
98.044252
 20
188.778761
 30
0.0
 10
98.036490
 20
188.782117
 30
0.0
 11
99.215035
 21
187.245227
 31
0.0
 11
99.208701
 21
187.279723
 31
0.0
 11
99.191877
 21
187.314182
 31
0.0
 11
99.166775
 21
187.345818
 31
0.0
 11
99.135475
 21
187.371861
 31
0.0
 11
99.101366
 21
187.389108
 31
0.0
 11
99.067567
 21
187.395348
 31
0.0
 11
99.039463
 21
187.388237
 31
0.0
 11
98.996454
 21
187.363672
 31
0.0
 11
98.935297
 21
187.316806
 31
0.0
 11
98.852363
 21
187.243488
 31
0.0
 11
98.743537
 21
187.140363
 31
0.0
 11
98.604596
 21
187.004026
 31
0.0
 11
98.434111
 21
186.837957
 31
0.0
 11
98.306856
 21
186.722288
 31
0.0
 11
98.213281
 21
186.649907
 31
0.0
 11
98.175806
 21
186.627777
 31
0.0
 11
98.142650
 21
186.614442
 31
0.0
 11
98.112697
 21
186.609902
 31
0.0
 11
98.085550
 21
186.614238
 31
0.0
 11
98.061374
 21
186.626244
 31
0.0
 11
98.039707
 21
186.644334
 31
0.0
 11
98.019750
 21
186.667798
 31
0.0
 11
98.006723
 21
186.693523
 31
0.0
 11
98.002524
 21
186.722876
 31
0.0
 11
98.008234
 21
186.755941
 31
0.0
 11
98.024496
 21
186.793088
 31
0.0
 11
98.052125
 21
186.835857
 31
0.0
 11
98.145214
 21
186.946431
 31
0.0
 11
98.296004
 21
187.102044
 31
0.0
 11
98.513713
 21
187.315366
 31
0.0
 11
98.705579
 21
187.502312
 31
0.0
 11
98.842895
 21
187.639591
 31
0.0
 11
98.933970
 21
187.737006
 31
0.0
 11
98.964521
 21
187.773836
 31
0.0
 11
98.986511
 21
187.804267
 31
0.0
 11
99.001492
 21
187.829286
 31
0.0
 11
99.010787
 21
187.849844
 31
0.0
 11
99.015410
 21
187.867548
 31
0.0
 11
99.016661
 21
187.884390
 31
0.0
 11
98.994250
 21
187.961489
 31
0.0
 11
98.938463
 21
188.020617
 31
0.0
 11
98.866470
 21
188.044226
 31
0.0
 11
98.863760
 21
188.043050
 31
0.0
 11
98.860784
 21
188.040934
 31
0.0
 11
98.856804
 21
188.037876
 31
0.0
 11
98.846108
 21
188.030102
 31
0.0
 11
98.833092
 21
188.019804
 31
0.0
 11
98.818210
 21
188.007467
 31
0.0
 11
98.783193
 21
187.977369
 31
0.0
 11
98.741197
 21
187.939968
 31
0.0
 11
98.692826
 21
187.895862
 31
0.0
 11
98.580057
 21
187.790384
 31
0.0
 11
98.450604
 21
187.666108
 31
0.0
 11
98.309772
 21
187.527957
 31
0.0
 11
98.168451
 21
187.389433
 31
0.0
 11
98.038348
 21
187.264630
 31
0.0
 11
97.925343
 21
187.158684
 31
0.0
 11
97.877041
 21
187.114279
 31
0.0
 11
97.835070
 21
187.076377
 31
0.0
 11
97.799952
 21
187.045703
 31
0.0
 11
97.785117
 21
187.033523
 31
0.0
 11
97.772242
 21
187.023475
 31
0.0
 11
97.761358
 21
187.015294
 31
0.0
 11
97.756618
 21
187.011956
 31
0.0
 11
97.752411
 21
187.008823
 31
0.0
 11
97.748940
 21
187.005627
 31
0.0
 11
97.747007
 21
187.004739
 31
0.0
 11
97.745230
 21
187.003694
 31
0.0
 11
97.743296
 21
187.002805
 31
0.0
 11
97.742015
 21
187.001917
 31
0.0
 11
97.740108
 21
187.000636
 31
0.0
 11
97.738357
 21
186.999983
 31
0.0
 11
97.736737
 21
186.999933
 31
0.0
 11
97.734098
 21
186.999958
 31
0.0
 11
97.732713
 21
186.999983
 31
0.0
 11
97.699785
 21
187.007501
 31
0.0
 11
97.666754
 21
187.026637
 31
0.0
 11
97.634880
 21
187.052265
 31
0.0
 11
97.619962
 21
187.065730
 31
0.0
 11
97.606454
 21
187.079321
 31
0.0
 11
97.594875
 21
187.093681
 31
0.0
 11
97.585570
 21
187.108915
 31
0.0
 11
97.579228
 21
187.124589
 31
0.0
 11
97.576884
 21
187.140530
 31
0.0
 11
97.577432
 21
187.141955
 31
0.0
 11
97.578452
 21
187.144457
 31
0.0
 11
97.579000
 21
187.146174
 31
0.0
 11
97.578975
 21
187.146906
 31
0.0
 11
97.578870
 21
187.148029
 31
0.0
 11
97.579000
 21
187.148996
 31
0.0
 11
97.580228
 21
187.151270
 31
0.0
 11
97.581770
 21
187.153543
 31
0.0
 11
97.582528
 21
187.155346
 31
0.0
 11
97.585238
 21
187.158785
 31
0.0
 11
97.588214
 21
187.162632
 31
0.0
 11
97.592194
 21
187.167764
 31
0.0
 11
97.601879
 21
187.179662
 31
0.0
 11
97.613883
 21
187.194131
 31
0.0
 11
97.628036
 21
187.210450
 31
0.0
 11
97.662404
 21
187.248031
 31
0.0
 11
97.704763
 21
187.292903
 31
0.0
 11
97.754804
 21
187.345493
 31
0.0
 11
97.874960
 21
187.470656
 31
0.0
 11
98.016510
 21
187.615644
 31
0.0
 11
98.173671
 21
187.774006
 31
0.0
 11
98.397933
 21
187.999372
 31
0.0
 11
98.558052
 21
188.164115
 31
0.0
 11
98.664194
 21
188.279691
 31
0.0
 11
98.700522
 21
188.322649
 31
0.0
 11
98.727394
 21
188.357574
 31
0.0
 11
98.745467
 21
188.385786
 31
0.0
 11
98.756001
 21
188.408599
 31
0.0
 11
98.760780
 21
188.427696
 31
0.0
 11
98.761906
 21
188.445052
 31
0.0
 11
98.758138
 21
188.489182
 31
0.0
 11
98.746719
 21
188.524153
 31
0.0
 11
98.727475
 21
188.551161
 31
0.0
 11
98.699753
 21
188.571180
 31
0.0
 11
98.663412
 21
188.583893
 31
0.0
 11
98.618629
 21
188.588344
 31
0.0
 11
98.606570
 21
188.586013
 31
0.0
 11
98.588803
 21
188.578163
 31
0.0
 11
98.564795
 21
188.563508
 31
0.0
 11
98.534380
 21
188.542082
 31
0.0
 11
98.496967
 21
188.512657
 31
0.0
 11
98.451815
 21
188.473959
 31
0.0
 11
98.335165
 21
188.366162
 31
0.0
 11
98.178031
 21
188.213799
 31
0.0
 11
97.973681
 21
188.010988
 31
0.0
 11
97.797842
 21
187.836593
 31
0.0
 11
97.648277
 21
187.691439
 31
0.0
 11
97.525872
 21
187.576951
 31
0.0
 11
97.475119
 21
187.531771
 31
0.0
 11
97.431448
 21
187.494670
 31
0.0
 11
97.394970
 21
187.465346
 31
0.0
 11
97.379106
 21
187.453658
 31
0.0
 11
97.364715
 21
187.444038
 31
0.0
 11
97.352284
 21
187.436348
 31
0.0
 11
97.341986
 21
187.430672
 31
0.0
 11
97.332455
 21
187.426784
 31
0.0
 11
97.321875
 21
187.425341
 31
0.0
 11
97.251655
 21
187.442532
 31
0.0
 11
97.200875
 21
187.487894
 31
0.0
 11
97.181328
 21
187.552108
 31
0.0
 11
97.181306
 21
187.552840
 31
0.0
 11
97.181284
 21
187.553964
 31
0.0
 11
97.181328
 21
187.554931
 31
0.0
 11
97.182104
 21
187.556054
 31
0.0
 11
97.183440
 21
187.558040
 31
0.0
 11
97.184150
 21
187.559869
 31
0.0
 11
97.184565
 21
187.561803
 31
0.0
 11
97.184667
 21
187.563580
 31
0.0
 11
97.184856
 21
187.565514
 31
0.0
 11
97.187208
 21
187.569677
 31
0.0
 11
97.190030
 21
187.574545
 31
0.0
 11
97.193322
 21
187.579272
 31
0.0
 11
97.200726
 21
187.589281
 31
0.0
 11
97.210026
 21
187.600590
 31
0.0
 11
97.220910
 21
187.613703
 31
0.0
 11
97.247138
 21
187.645354
 31
0.0
 11
97.279324
 21
187.682806
 31
0.0
 11
97.317359
 21
187.725322
 31
0.0
 11
97.409052
 21
187.823427
 31
0.0
 11
97.517223
 21
187.935191
 31
0.0
 11
97.637025
 21
188.056009
 31
0.0
 11
97.757623
 21
188.177914
 31
0.0
 11
97.868613
 21
188.293090
 31
0.0
 11
97.964967
 21
188.396355
 31
0.0
 11
98.005992
 21
188.441912
 31
0.0
 11
98.041477
 21
188.482570
 31
0.0
 11
98.071062
 21
188.517605
 31
0.0
 11
98.094133
 21
188.546697
 31
0.0
 11
98.109632
 21
188.568264
 31
0.0
 11
98.116570
 21
188.579623
 31
0.0
 11
98.127010
 21
188.607704
 31
0.0
 11
98.132448
 21
188.630470
 31
0.0
 11
98.133010
 21
188.649896
 31
0.0
 11
98.128659
 21
188.668980
 31
0.0
 11
98.119275
 21
188.690479
 31
0.0
 11
98.104011
 21
188.716007
 31
0.0
 11
98.080704
 21
188.748496
 31
0.0
 11
98.058809
 21
188.770653
 31
0.0
 11
98.036490
 21
188.782117
 31
0.0
  0
LWPOLYLINE
  5
161
100
AcDbEntity
  8
Calque_1
 62
7
100
AcDbPolyline
 90
2
 70
0
 10
98.036490
 20
188.782117
 30
0.0
 10
98.037386
 20
188.783204
 30
0.0
  0
SPLINE
  5
162
100
AcDbEntity
  8
Calque_1
 62
7
100
AcDbSpline
 70
0
 71
3
 72
16
 73
12
 74
10
 40
0.000000
 40
0.000000
 40
0.000000
 40
0.000000
 40
0.014738
 40
0.030805
 40
0.049653
 40
0.072791
 40
0.102303
 40
0.140057
 40
0.244701
 40
0.395515
 40
0.602154
 40
0.602154
 40
0.602154
 40
0.602154
 10
97.379829
 20
188.860434
 30
0.0
 10
97.374917
 20
188.860872
 30
0.0
 10
97.364651
 20
188.861787
 30
0.0
 10
97.348192
 20
188.858740
 30
0.0
 10
97.330057
 20
188.851826
 30
0.0
 10
97.309176
 20
188.840188
 30
0.0
 10
97.284552
 20
188.822771
 30
0.0
 10
97.239502
 20
188.787334
 30
0.0
 10
97.166689
 20
188.722020
 30
0.0
 10
97.055843
 20
188.615076
 30
0.0
 10
96.971240
 20
188.531170
 30
0.0
 10
96.922333
 20
188.482666
 30
0.0
 11
97.379829
 21
188.860434
 31
0.0
 11
97.365106
 21
188.861105
 31
0.0
 11
97.349255
 21
188.858484
 31
0.0
 11
97.331569
 21
188.851967
 31
0.0
 11
97.311237
 21
188.840922
 31
0.0
 11
97.286931
 21
188.824184
 31
0.0
 11
97.257168
 21
188.800956
 31
0.0
 11
97.178517
 21
188.731933
 31
0.0
 11
97.069437
 21
188.627785
 31
0.0
 11
96.922333
 21
188.482666
 31
0.0
  0
LWPOLYLINE
  5
163
100
AcDbEntity
  8
Calque_1
 62
7
100
AcDbPolyline
 90
5
 70
0
 10
96.922333
 20
188.482666
 30
0.0
 10
96.535152
 20
188.099605
 30
0.0
 10
96.551591
 20
187.928762
 30
0.0
 10
96.568031
 20
187.781315
 30
0.0
 10
97.032378
 20
188.260825
 30
0.0
  0
SPLINE
  5
164
100
AcDbEntity
  8
Calque_1
 62
7
100
AcDbSpline
 70
0
 71
3
 72
19
 73
15
 74
13
 40
0.000000
 40
0.000000
 40
0.000000
 40
0.000000
 40
0.274602
 40
0.467076
 40
0.591803
 40
0.633479
 40
0.663658
 40
0.683866
 40
0.696615
 40
0.706414
 40
0.717719
 40
0.753272
 40
0.796055
 40
0.836853
 40
0.836853
 40
0.836853
 40
0.836853
 10
97.032378
 20
188.260825
 30
0.0
 10
97.096131
 20
188.326516
 30
0.0
 10
97.204570
 20
188.438252
 30
0.0
 10
97.340393
 20
188.581237
 30
0.0
 10
97.420761
 20
188.670032
 30
0.0
 10
97.460832
 20
188.721872
 30
0.0
 10
97.477705
 20
188.747652
 30
0.0
 10
97.486771
 20
188.766577
 30
0.0
 10
97.490283
 20
188.780872
 30
0.0
 10
97.486826
 20
188.791980
 30
0.0
 10
97.476442
 20
188.807816
 30
0.0
 10
97.454907
 20
188.828995
 30
0.0
 10
97.420572
 20
188.850126
 30
0.0
 10
97.393407
 20
188.856887
 30
0.0
 10
97.380146
 20
188.860187
 30
0.0
 11
97.032378
 21
188.260825
 31
0.0
 11
97.223208
 21
188.458284
 31
0.0
 11
97.355292
 21
188.598285
 31
0.0
 11
97.437480
 21
188.692103
 31
0.0
 11
97.462679
 21
188.725299
 31
0.0
 11
97.478815
 21
188.750801
 31
0.0
 11
97.487080
 21
188.769241
 31
0.0
 11
97.489197
 21
188.781813
 31
0.0
 11
97.486610
 21
188.791265
 31
0.0
 11
97.480730
 21
188.800921
 31
0.0
 11
97.455870
 21
188.826336
 31
0.0
 11
97.419194
 21
188.848365
 31
0.0
 11
97.380146
 21
188.860187
 31
0.0
  0
LWPOLYLINE
  5
165
100
AcDbEntity
  8
Calque_1
 62
7
100
AcDbPolyline
 90
2
 70
0
 10
97.380146
 20
188.860187
 30
0.0
 10
97.379829
 20
188.860434
 30
0.0
  0
SPLINE
  5
166
100
AcDbEntity
  8
Calque_1
 62
7
100
AcDbSpline
 70
0
 71
3
 72
13
 73
9
 74
7
 40
0.000000
 40
0.000000
 40
0.000000
 40
0.000000
 40
0.044241
 40
0.090022
 40
0.138815
 40
0.207570
 40
0.280608
 40
0.345998
 40
0.345998
 40
0.345998
 40
0.345998
 10
97.334321
 20
189.131883
 30
0.0
 10
97.349059
 20
189.132911
 30
0.0
 10
97.379048
 20
189.135003
 30
0.0
 10
97.425221
 20
189.130188
 30
0.0
 10
97.478947
 20
189.120850
 30
0.0
 10
97.539080
 20
189.099458
 30
0.0
 10
97.600570
 20
189.066973
 30
0.0
 10
97.635915
 20
189.037142
 30
0.0
 10
97.652611
 20
189.023051
 30
0.0
 11
97.334321
 21
189.131883
 31
0.0
 11
97.378524
 21
189.133708
 31
0.0
 11
97.424137
 21
189.129794
 31
0.0
 11
97.472109
 21
189.120876
 31
0.0
 11
97.537104
 21
189.098454
 31
0.0
 11
97.601242
 21
189.063512
 31
0.0
 11
97.652611
 21
189.023051
 31
0.0
  0
LWPOLYLINE
  5
167
100
AcDbEntity
  8
Calque_1
 62
7
100
AcDbPolyline
 90
3
 70
0
 10
97.652611
 20
189.023051
 30
0.0
 10
97.713218
 20
188.962443
 30
0.0
 10
97.804178
 20
189.010703
 30
0.0
  0
SPLINE
  5
168
100
AcDbEntity
  8
Calque_1
 62
7
100
AcDbSpline
 70
0
 71
3
 72
82
 73
78
 74
76
 40
0.000000
 40
0.000000
 40
0.000000
 40
0.000000
 40
0.068511
 40
0.135389
 40
0.189482
 40
0.253169
 40
0.326269
 40
0.403775
 40
0.479105
 40
0.546897
 40
0.604416
 40
0.630802
 40
0.650589
 40
0.664843
 40
0.676791
 40
0.690555
 40
0.708656
 40
0.832581
 40
0.944065
 40
1.047790
 40
1.149252
 40
1.253443
 40
1.364990
 40
1.460518
 40
1.539778
 40
1.624114
 40
1.667853
 40
1.698683
 40
1.718198
 40
1.725071
 40
1.730786
 40
1.736505
 40
1.743285
 40
1.751781
 40
1.762494
 40
1.816753
 40
1.878963
 40
1.946859
 40
2.016802
 40
2.085281
 40
2.149278
 40
2.219791
 40
2.293881
 40
2.370704
 40
2.418648
 40
2.449824
 40
2.467591
 40
2.474064
 40
2.481298
 40
2.490250
 40
2.501760
 40
2.516658
 40
2.534981
 40
2.726620
 40
2.916868
 40
3.115513
 40
3.126815
 40
3.140863
 40
3.158464
 40
3.179930
 40
3.205144
 40
3.233813
 40
3.300783
 40
3.380122
 40
3.470832
 40
3.681281
 40
3.921540
 40
4.181168
 40
4.637244
 40
4.969994
 40
5.213518
 40
5.403392
 40
5.576144
 40
5.766952
 40
6.018836
 40
6.263235
 40
6.510633
 40
6.510633
 40
6.510633
 40
6.510633
 10
97.804178
 20
189.010703
 30
0.0
 10
97.824944
 20
189.020280
 30
0.0
 10
97.865981
 20
189.039206
 30
0.0
 10
97.926547
 20
189.057441
 30
0.0
 10
97.987828
 20
189.067926
 30
0.0
 10
98.051452
 20
189.056914
 30
0.0
 10
98.119087
 20
189.033870
 30
0.0
 10
98.187225
 20
189.001292
 30
0.0
 10
98.250113
 20
188.963078
 30
0.0
 10
98.303142
 20
188.921597
 30
0.0
 10
98.334324
 20
188.881105
 30
0.0
 10
98.350577
 20
188.850535
 30
0.0
 10
98.363043
 20
188.834604
 30
0.0
 10
98.374887
 20
188.824507
 30
0.0
 10
98.387761
 20
188.820089
 30
0.0
 10
98.402603
 20
188.820267
 30
0.0
 10
98.452696
 20
188.834530
 30
0.0
 10
98.534025
 20
188.858251
 30
0.0
 10
98.648134
 20
188.863470
 30
0.0
 10
98.752913
 20
188.843409
 30
0.0
 10
98.846140
 20
188.796307
 30
0.0
 10
98.925397
 20
188.724330
 30
0.0
 10
98.981778
 20
188.636323
 30
0.0
 10
99.021937
 20
188.549405
 30
0.0
 10
99.040515
 20
188.463865
 30
0.0
 10
99.034107
 20
188.394472
 30
0.0
 10
99.026252
 20
188.342027
 30
0.0
 10
99.025246
 20
188.310790
 30
0.0
 10
99.025248
 20
188.291427
 30
0.0
 10
99.028889
 20
188.281255
 30
0.0
 10
99.032237
 20
188.276090
 30
0.0
 10
99.036703
 20
188.271894
 30
0.0
 10
99.042719
 20
188.268275
 30
0.0
 10
99.050473
 20
188.264366
 30
0.0
 10
99.073888
 20
188.257039
 30
0.0
 10
99.112000
 20
188.237261
 30
0.0
 10
99.158530
 20
188.196566
 30
0.0
 10
99.202131
 20
188.145898
 30
0.0
 10
99.239967
 20
188.088217
 30
0.0
 10
99.269169
 20
188.027162
 30
0.0
 10
99.288738
 20
187.961974
 30
0.0
 10
99.293960
 20
187.892143
 30
0.0
 10
99.286241
 20
187.818298
 30
0.0
 10
99.266609
 20
187.754693
 30
0.0
 10
99.247106
 20
187.706453
 30
0.0
 10
99.236880
 20
187.675927
 30
0.0
 10
99.233864
 20
187.657289
 30
0.0
 10
99.236201
 20
187.646923
 30
0.0
 10
99.240004
 20
187.640294
 30
0.0
 10
99.246324
 20
187.633456
 30
0.0
 10
99.256122
 20
187.626819
 30
0.0
 10
99.268626
 20
187.618725
 30
0.0
 10
99.332148
 20
187.578966
 30
0.0
 10
99.426988
 20
187.476333
 30
0.0
 10
99.478768
 20
187.283369
 30
0.0
 10
99.453983
 20
187.146846
 30
0.0
 10
99.422729
 20
187.078874
 30
0.0
 10
99.414379
 20
187.067173
 30
0.0
 10
99.403650
 20
187.053111
 30
0.0
 10
99.390182
 20
187.036435
 30
0.0
 10
99.374141
 20
187.017110
 30
0.0
 10
99.347793
 20
186.986634
 30
0.0
 10
99.308989
 20
186.943087
 30
0.0
 10
99.255750
 20
186.884710
 30
0.0
 10
99.169088
 20
186.792098
 30
0.0
 10
99.044096
 20
186.661908
 30
0.0
 10
98.878415
 20
186.492745
 30
0.0
 10
98.652624
 20
186.267884
 30
0.0
 10
98.403144
 20
186.023138
 30
0.0
 10
98.152586
 20
185.787167
 30
0.0
 10
97.956805
 20
185.622809
 30
0.0
 10
97.786626
 20
185.512191
 30
0.0
 10
97.615365
 20
185.441543
 30
0.0
 10
97.417671
 20
185.386056
 30
0.0
 10
97.192125
 20
185.343158
 30
0.0
 10
96.942500
 20
185.337597
 30
0.0
 10
96.780860
 20
185.366756
 30
0.0
 10
96.699546
 20
185.381424
 30
0.0
 11
97.804178
 21
189.010703
 31
0.0
 11
97.867049
 21
189.037925
 31
0.0
 11
97.931085
 21
189.057213
 31
0.0
 11
97.984681
 21
189.064537
 31
0.0
 11
98.047790
 21
189.055979
 31
0.0
 11
98.117199
 21
189.033043
 31
0.0
 11
98.187231
 21
188.999838
 31
0.0
 11
98.251439
 21
188.960443
 31
0.0
 11
98.303702
 21
188.917266
 31
0.0
 11
98.338799
 21
188.871695
 31
0.0
 11
98.352359
 21
188.849060
 31
0.0
 11
98.364774
 21
188.833652
 31
0.0
 11
98.375982
 21
188.824846
 31
0.0
 11
98.387268
 21
188.820926
 31
0.0
 11
98.401032
 21
188.820769
 31
0.0
 11
98.418668
 21
188.824846
 31
0.0
 11
98.539038
 21
188.854315
 31
0.0
 11
98.650421
 21
188.859042
 31
0.0
 11
98.752113
 21
188.838604
 31
0.0
 11
98.842741
 21
188.792985
 31
0.0
 11
98.920100
 21
188.723190
 31
0.0
 11
98.982223
 21
188.630543
 31
0.0
 11
99.020639
 21
188.543080
 31
0.0
 11
99.036211
 21
188.465365
 31
0.0
 11
99.031824
 21
188.381143
 31
0.0
 11
99.026608
 21
188.337715
 31
0.0
 11
99.025327
 21
188.306912
 31
0.0
 11
99.026885
 21
188.287460
 31
0.0
 11
99.029281
 21
188.281018
 31
0.0
 11
99.032414
 21
188.276239
 31
0.0
 11
99.036551
 21
188.272290
 31
0.0
 11
99.042263
 21
188.268637
 31
0.0
 11
99.049889
 21
188.264890
 31
0.0
 11
99.059975
 21
188.261283
 31
0.0
 11
99.108422
 21
188.236849
 31
0.0
 11
99.156071
 21
188.196853
 31
0.0
 11
99.200529
 21
188.145537
 31
0.0
 11
99.238853
 21
188.087028
 31
0.0
 11
99.268121
 21
188.025119
 31
0.0
 11
99.285937
 21
187.963652
 31
0.0
 11
99.291811
 21
187.893384
 31
0.0
 11
99.284013
 21
187.819706
 31
0.0
 11
99.262512
 21
187.745953
 31
0.0
 11
99.245576
 21
187.701100
 31
0.0
 11
99.236480
 21
187.671280
 31
0.0
 11
99.234925
 21
187.653581
 31
0.0
 11
99.236430
 21
187.647286
 31
0.0
 11
99.239911
 21
187.640944
 31
0.0
 11
99.245932
 21
187.634320
 31
0.0
 11
99.255195
 21
187.627489
 31
0.0
 11
99.267689
 21
187.619372
 31
0.0
 11
99.283114
 21
187.609484
 31
0.0
 11
99.413105
 21
187.468673
 31
0.0
 11
99.463954
 21
187.285346
 31
0.0
 11
99.427796
 21
187.090019
 31
0.0
 11
99.422836
 21
187.079864
 31
0.0
 11
99.415023
 21
187.068188
 31
0.0
 11
99.404371
 21
187.054177
 31
0.0
 11
99.390934
 21
187.037437
 31
0.0
 11
99.374816
 21
187.018047
 31
0.0
 11
99.356111
 21
186.996321
 31
0.0
 11
99.311645
 21
186.946244
 31
0.0
 11
99.258187
 21
186.887617
 31
0.0
 11
99.196275
 21
186.821322
 31
0.0
 11
99.050744
 21
186.669303
 31
0.0
 11
98.882593
 21
186.497695
 31
0.0
 11
98.698858
 21
186.314261
 31
0.0
 11
98.372545
 21
185.995630
 31
0.0
 11
98.128464
 21
185.769472
 31
0.0
 11
97.939645
 21
185.615683
 31
0.0
 11
97.778966
 21
185.514518
 31
0.0
 11
97.619987
 21
185.446926
 31
0.0
 11
97.436711
 21
185.393842
 31
0.0
 11
97.188722
 21
185.349716
 31
0.0
 11
96.944356
 21
185.345729
 31
0.0
 11
96.699546
 21
185.381424
 31
0.0
  0
LWPOLYLINE
  5
169
100
AcDbEntity
  8
Calque_1
 62
7
100
AcDbPolyline
 90
2
 70
0
 10
96.699546
 20
185.381424
 30
0.0
 10
96.699546
 20
185.379308
 30
0.0
  0
SPLINE
  5
16a
100
AcDbEntity
  8
Calque_1
 62
7
100
AcDbSpline
 70
0
 71
3
 72
40
 73
36
 74
34
 40
0.000000
 40
0.000000
 40
0.000000
 40
0.000000
 40
0.109531
 40
0.232223
 40
0.340502
 40
0.992263
 40
1.634029
 40
2.235921
 40
2.424992
 40
2.629503
 40
2.882508
 40
3.088940
 40
3.346820
 40
3.749990
 40
4.035956
 40
4.244371
 40
4.391740
 40
4.495934
 40
4.576054
 40
4.652050
 40
4.722836
 40
4.802650
 40
4.889254
 40
4.979268
 40
5.069647
 40
5.157149
 40
5.211803
 40
5.251328
 40
5.281185
 40
5.309632
 40
5.345518
 40
5.394913
 40
5.619351
 40
5.851637
 40
6.092920
 40
6.092920
 40
6.092920
 40
6.092920
 10
96.699546
 20
185.379308
 30
0.0
 10
96.663694
 20
185.386204
 30
0.0
 10
96.587682
 20
185.400825
 30
0.0
 10
96.474918
 20
185.415375
 30
0.0
 10
96.181082
 20
185.426980
 30
0.0
 10
95.711593
 20
185.526156
 30
0.0
 10
95.188189
 20
185.909816
 30
0.0
 10
94.938125
 20
186.341826
 30
0.0
 10
94.892078
 20
186.672439
 30
0.0
 10
94.903133
 20
186.888872
 30
0.0
 10
94.948670
 20
187.105634
 30
0.0
 10
94.993436
 20
187.340831
 30
0.0
 10
95.006219
 20
187.630397
 30
0.0
 10
95.007468
 20
187.945880
 30
0.0
 10
95.008256
 20
188.245071
 30
0.0
 10
95.014322
 20
188.459028
 30
0.0
 10
95.028650
 20
188.611701
 30
0.0
 10
95.053195
 20
188.720446
 30
0.0
 10
95.096891
 20
188.797077
 30
0.0
 10
95.154346
 20
188.848170
 30
0.0
 10
95.223497
 20
188.880744
 30
0.0
 10
95.301982
 20
188.894693
 30
0.0
 10
95.387659
 20
188.896304
 30
0.0
 10
95.476347
 20
188.886144
 30
0.0
 10
95.563098
 20
188.863199
 30
0.0
 10
95.633604
 20
188.830237
 30
0.0
 10
95.685854
 20
188.799577
 30
0.0
 10
95.723306
 20
188.781980
 30
0.0
 10
95.755058
 20
188.772951
 30
0.0
 10
95.786829
 20
188.774761
 30
0.0
 10
95.823587
 20
188.784406
 30
0.0
 10
95.920291
 20
188.820613
 30
0.0
 10
96.095519
 20
188.830966
 30
0.0
 10
96.319155
 20
188.733114
 30
0.0
 10
96.413248
 20
188.603521
 30
0.0
 10
96.461189
 20
188.537494
 30
0.0
 11
96.699546
 21
185.379308
 31
0.0
 11
96.591792
 21
185.398951
 31
0.0
 11
96.470034
 21
185.414063
 31
0.0
 11
96.361959
 21
185.420724
 31
0.0
 11
95.727547
 21
185.570102
 31
0.0
 11
95.210827
 21
185.950711
 31
0.0
 11
94.924827
 21
186.480313
 31
0.0
 11
94.898547
 21
186.667549
 31
0.0
 11
94.907011
 21
186.871884
 31
0.0
 11
94.951003
 21
187.121035
 31
0.0
 11
94.985850
 21
187.324505
 31
0.0
 11
95.002728
 21
187.581832
 31
0.0
 11
95.007518
 21
187.984974
 31
0.0
 11
95.009742
 21
188.270930
 31
0.0
 11
95.017548
 21
188.479199
 31
0.0
 11
95.033695
 21
188.625682
 31
0.0
 11
95.060505
 21
188.726367
 31
0.0
 11
95.101092
 21
188.795445
 31
0.0
 11
95.157710
 21
188.846140
 31
0.0
 11
95.221597
 21
188.876620
 31
0.0
 11
95.299859
 21
188.892283
 31
0.0
 11
95.386437
 21
188.894400
 31
0.0
 11
95.475851
 21
188.884020
 31
0.0
 11
95.563083
 21
188.860376
 31
0.0
 11
95.642723
 21
188.824126
 31
0.0
 11
95.690660
 21
188.797877
 31
0.0
 11
95.726734
 21
188.781725
 31
0.0
 11
95.755711
 21
188.774526
 31
0.0
 11
95.784143
 21
188.775443
 31
0.0
 11
95.819055
 21
188.783745
 31
0.0
 11
95.865940
 21
188.799291
 31
0.0
 11
96.089954
 21
188.813088
 31
0.0
 11
96.302406
 21
188.719169
 31
0.0
 11
96.461189
 21
188.537494
 31
0.0
  0
LWPOLYLINE
  5
16b
100
AcDbEntity
  8
Calque_1
 62
7
100
AcDbPolyline
 90
3
 70
0
 10
96.461189
 20
188.537494
 30
0.0
 10
96.506697
 20
188.454810
 30
0.0
 10
96.816725
 20
188.760697
 30
0.0
  0
SPLINE
  5
16c
100
AcDbEntity
  8
Calque_1
 62
7
100
AcDbSpline
 70
0
 71
3
 72
13
 73
9
 74
7
 40
0.000000
 40
0.000000
 40
0.000000
 40
0.000000
 40
0.217169
 40
0.381193
 40
0.504475
 40
0.555338
 40
0.601786
 40
0.646116
 40
0.646116
 40
0.646116
 40
0.646116
 10
96.816725
 20
188.760697
 30
0.0
 10
96.868482
 20
188.811332
 30
0.0
 10
96.959329
 20
188.900212
 30
0.0
 10
97.085498
 20
189.011412
 30
0.0
 10
97.177638
 20
189.077359
 30
0.0
 10
97.243811
 20
189.109733
 30
0.0
 10
97.288772
 20
189.124938
 30
0.0
 10
97.318774
 20
189.129258
 30
0.0
 10
97.333425
 20
189.131367
 30
0.0
 11
96.816725
 21
188.760697
 31
0.0
 11
96.973451
 21
188.911028
 31
0.0
 11
97.097782
 21
189.018012
 31
0.0
 11
97.199771
 21
189.087270
 31
0.0
 11
97.245600
 21
189.109333
 31
0.0
 11
97.289755
 21
189.123745
 31
0.0
 11
97.333425
 21
189.131367
 31
0.0
  0
LWPOLYLINE
  5
16d
100
AcDbEntity
  8
Calque_1
 62
7
100
AcDbPolyline
 90
2
 70
0
 10
97.333425
 20
189.131367
 30
0.0
 10
97.334321
 20
189.131883
 30
0.0
  0
SPLINE
  5
16e
100
AcDbEntity
  8
Calque_1
 62
7
100
AcDbSpline
 70
0
 71
3
 72
28
 73
24
 74
22
 40
0.000000
 40
0.000000
 40
0.000000
 40
0.000000
 40
0.064960
 40
0.133936
 40
0.208661
 40
0.224927
 40
0.242006
 40
0.259900
 40
0.279643
 40
0.302451
 40
0.329644
 40
0.401298
 40
0.501621
 40
0.636710
 40
0.826255
 40
0.959562
 40
1.049128
 40
1.082062
 40
1.109478
 40
1.132988
 40
1.154652
 40
1.175826
 40
1.197492
 40
1.197492
 40
1.197492
 40
1.197492
 10
99.489334
 20
189.714728
 30
0.0
 10
99.511192
 20
189.710055
 30
0.0
 10
99.556259
 20
189.700422
 30
0.0
 10
99.599556
 20
189.639900
 30
0.0
 10
99.612587
 20
189.586816
 30
0.0
 10
99.609489
 20
189.550714
 30
0.0
 10
99.604270
 20
189.534334
 30
0.0
 10
99.595732
 20
189.518050
 30
0.0
 10
99.582043
 20
189.503051
 30
0.0
 10
99.564236
 20
189.488075
 30
0.0
 10
99.530960
 20
189.464821
 30
0.0
 10
99.473215
 20
189.431878
 30
0.0
 10
99.381655
 20
189.386119
 30
0.0
 10
99.253812
 20
189.325110
 30
0.0
 10
99.115885
 20
189.259672
 30
0.0
 10
98.990796
 20
189.202728
 30
0.0
 10
98.911083
 20
189.171911
 30
0.0
 10
98.862543
 20
189.159676
 30
0.0
 10
98.834742
 20
189.156140
 30
0.0
 10
98.810277
 20
189.157823
 30
0.0
 10
98.789578
 20
189.166414
 30
0.0
 10
98.771762
 20
189.178648
 30
0.0
 10
98.761473
 20
189.188576
 30
0.0
 10
98.756269
 20
189.193597
 30
0.0
 11
99.489334
 21
189.714728
 31
0.0
 11
99.550844
 21
189.693839
 31
0.0
 11
99.594190
 21
189.640184
 31
0.0
 11
99.610591
 21
189.567281
 31
0.0
 11
99.608932
 21
189.551100
 31
0.0
 11
99.603901
 21
189.534778
 31
0.0
 11
99.595422
 21
189.519021
 31
0.0
 11
99.582473
 21
189.504118
 31
0.0
 11
99.565166
 21
189.489262
 31
0.0
 11
99.542999
 21
189.473513
 31
0.0
 11
99.481280
 21
189.437109
 31
0.0
 11
99.391907
 21
189.391533
 31
0.0
 11
99.270175
 21
189.332966
 31
0.0
 11
99.098712
 21
189.252173
 31
0.0
 11
98.976867
 21
189.198092
 31
0.0
 11
98.892639
 21
189.167633
 31
0.0
 11
98.860618
 21
189.159935
 31
0.0
 11
98.833366
 21
189.156940
 31
0.0
 11
98.809962
 21
189.159166
 31
0.0
 11
98.789817
 21
189.167137
 31
0.0
 11
98.772275
 21
189.178995
 31
0.0
 11
98.756269
 21
189.193597
 31
0.0
  0
LWPOLYLINE
  5
16f
100
AcDbEntity
  8
Calque_1
 62
7
100
AcDbPolyline
 90
3
 70
0
 10
98.756269
 20
189.193597
 30
0.0
 10
98.730093
 20
189.219774
 30
0.0
 10
98.743851
 20
189.219774
 30
0.0
  0
SPLINE
  5
170
100
AcDbEntity
  8
Calque_1
 62
7
100
AcDbSpline
 70
0
 71
3
 72
34
 73
30
 74
28
 40
0.000000
 40
0.000000
 40
0.000000
 40
0.000000
 40
0.028113
 40
0.054237
 40
0.077626
 40
0.109302
 40
0.143582
 40
0.182966
 40
0.198150
 40
0.217781
 40
0.241889
 40
0.269887
 40
0.301447
 40
0.336850
 40
0.417050
 40
0.504962
 40
0.596292
 40
0.686884
 40
0.772575
 40
0.849252
 40
0.882880
 40
0.912704
 40
0.938319
 40
0.949848
 40
0.960763
 40
0.970237
 40
0.977145
 40
0.982942
 40
0.988833
 40
0.988833
 40
0.988833
 40
0.988833
 10
98.743851
 20
189.219774
 30
0.0
 10
98.738111
 20
189.227167
 30
0.0
 10
98.727037
 20
189.241432
 30
0.0
 10
98.712408
 20
189.262999
 30
0.0
 10
98.705602
 20
189.290045
 30
0.0
 10
98.713511
 20
189.319908
 30
0.0
 10
98.732422
 20
189.349763
 30
0.0
 10
98.753733
 20
189.370725
 30
0.0
 10
98.773497
 20
189.385617
 30
0.0
 10
98.790230
 20
189.395943
 30
0.0
 10
98.810977
 20
189.407826
 30
0.0
 10
98.835472
 20
189.421167
 30
0.0
 10
98.863569
 20
189.435746
 30
0.0
 10
98.907291
 20
189.457989
 30
0.0
 10
98.967836
 20
189.488590
 30
0.0
 10
99.045306
 20
189.527029
 30
0.0
 10
99.126504
 20
189.565731
 30
0.0
 10
99.207746
 20
189.602578
 30
0.0
 10
99.284962
 20
189.636461
 30
0.0
 10
99.345075
 20
189.662045
 30
0.0
 10
99.388198
 20
189.680011
 30
0.0
 10
99.415760
 20
189.691015
 30
0.0
 10
99.436474
 20
189.699416
 30
0.0
 10
99.451847
 20
189.703942
 30
0.0
 10
99.462109
 20
189.706776
 30
0.0
 10
99.470587
 20
189.710120
 30
0.0
 10
99.477649
 20
189.712279
 30
0.0
 10
99.483399
 20
189.714736
 30
0.0
 10
99.487308
 20
189.715068
 30
0.0
 10
99.489278
 20
189.715236
 30
0.0
 11
98.743851
 21
189.219774
 31
0.0
 11
98.726860
 21
189.242171
 31
0.0
 11
98.713335
 21
189.264521
 31
0.0
 11
98.708009
 21
189.287295
 31
0.0
 11
98.714665
 21
189.318264
 31
0.0
 11
98.732468
 21
189.347559
 31
0.0
 11
98.760291
 21
189.375433
 31
0.0
 11
98.772429
 21
189.384556
 31
0.0
 11
98.789004
 21
189.395074
 31
0.0
 11
98.809891
 21
189.407113
 31
0.0
 11
98.834470
 21
189.420521
 31
0.0
 11
98.862450
 21
189.435121
 31
0.0
 11
98.893986
 21
189.451210
 31
0.0
 11
98.965584
 21
189.487346
 31
0.0
 11
99.044385
 21
189.526319
 31
0.0
 11
99.126848
 21
189.565573
 31
0.0
 11
99.209312
 21
189.603079
 31
0.0
 11
99.287779
 21
189.637514
 31
0.0
 11
99.358334
 21
189.667540
 31
0.0
 11
99.389399
 21
189.680415
 31
0.0
 11
99.417060
 21
189.691566
 31
0.0
 11
99.441018
 21
189.700631
 31
0.0
 11
99.452053
 21
189.703968
 31
0.0
 11
99.462508
 21
189.707101
 31
0.0
 11
99.471427
 21
189.710297
 31
0.0
 11
99.477968
 21
189.712518
 31
0.0
 11
99.483443
 21
189.714426
 31
0.0
 11
99.489278
 21
189.715236
 31
0.0
  0
LWPOLYLINE
  5
171
100
AcDbEntity
  8
Calque_1
 62
7
100
AcDbPolyline
 90
2
 70
0
 10
99.489278
 20
189.715236
 30
0.0
 10
99.489334
 20
189.714728
 30
0.0
  0
SPLINE
  5
172
100
AcDbEntity
  8
Calque_1
 62
7
100
AcDbSpline
 70
0
 71
3
 72
28
 73
24
 74
22
 40
0.000000
 40
0.000000
 40
0.000000
 40
0.000000
 40
0.047408
 40
0.093651
 40
0.139060
 40
0.170792
 40
0.208481
 40
0.259214
 40
0.329106
 40
0.424516
 40
0.550836
 40
0.645672
 40
0.736139
 40
0.818379
 40
0.887877
 40
0.940937
 40
0.974952
 40
1.018051
 40
1.058076
 40
1.095673
 40
1.122677
 40
1.150584
 40
1.179745
 40
1.179745
 40
1.179745
 40
1.179745
 10
98.816933
 20
190.362364
 30
0.0
 10
98.832812
 20
190.360755
 30
0.0
 10
98.864180
 20
190.357575
 30
0.0
 10
98.905315
 20
190.333483
 30
0.0
 10
98.932638
 20
190.301485
 30
0.0
 10
98.945171
 20
190.264470
 30
0.0
 10
98.943329
 20
190.223793
 30
0.0
 10
98.929481
 20
190.172747
 30
0.0
 10
98.904419
 20
190.105181
 30
0.0
 10
98.865606
 20
190.016036
 30
0.0
 10
98.821936
 20
189.919979
 30
0.0
 10
98.778780
 20
189.825493
 30
0.0
 10
98.741396
 20
189.744523
 30
0.0
 10
98.706546
 20
189.671697
 30
0.0
 10
98.676404
 20
189.610436
 30
0.0
 10
98.652807
 20
189.563904
 30
0.0
 10
98.632347
 20
189.525578
 30
0.0
 10
98.607019
 20
189.495200
 30
0.0
 10
98.573677
 20
189.472024
 30
0.0
 10
98.540296
 20
189.459768
 30
0.0
 10
98.508764
 20
189.460473
 30
0.0
 10
98.482486
 20
189.471250
 30
0.0
 10
98.466212
 20
189.481073
 30
0.0
 10
98.457897
 20
189.486093
 30
0.0
 11
98.816933
 21
190.362364
 31
0.0
 11
98.863631
 21
190.354193
 31
0.0
 11
98.903827
 21
190.331330
 31
0.0
 11
98.932665
 21
190.296254
 31
0.0
 11
98.942715
 21
190.266155
 31
0.0
 11
98.942370
 21
190.228468
 31
0.0
 11
98.930548
 21
190.179132
 31
0.0
 11
98.906874
 21
190.113371
 31
0.0
 11
98.869520
 21
190.025578
 31
0.0
 11
98.817554
 21
189.910442
 31
0.0
 11
98.778115
 21
189.824196
 31
0.0
 11
98.740049
 21
189.742126
 31
0.0
 11
98.704566
 21
189.667935
 31
0.0
 11
98.673846
 21
189.605595
 31
0.0
 11
98.649728
 21
189.558334
 31
0.0
 11
98.632889
 21
189.528779
 31
0.0
 11
98.605014
 21
189.495908
 31
0.0
 11
98.572122
 21
189.473102
 31
0.0
 11
98.536439
 21
189.461257
 31
0.0
 11
98.509447
 21
189.462067
 31
0.0
 11
98.483252
 21
189.471689
 31
0.0
 11
98.457897
 21
189.486093
 31
0.0
  0
LWPOLYLINE
  5
173
100
AcDbEntity
  8
Calque_1
 62
7
100
AcDbPolyline
 90
3
 70
0
 10
98.457897
 20
189.486093
 30
0.0
 10
98.457897
 20
189.469653
 30
0.0
 10
98.431721
 20
189.495829
 30
0.0
  0
SPLINE
  5
174
100
AcDbEntity
  8
Calque_1
 62
7
100
AcDbSpline
 70
0
 71
3
 72
25
 73
21
 74
19
 40
0.000000
 40
0.000000
 40
0.000000
 40
0.000000
 40
0.022080
 40
0.044361
 40
0.067474
 40
0.092161
 40
0.120173
 40
0.153867
 40
0.243874
 40
0.371757
 40
0.546785
 40
0.697449
 40
0.806386
 40
0.881595
 40
0.909498
 40
0.932886
 40
0.953160
 40
0.971513
 40
0.988935
 40
1.006310
 40
1.006310
 40
1.006310
 40
1.006310
 10
98.431721
 20
189.495829
 30
0.0
 10
98.426828
 20
189.501363
 30
0.0
 10
98.417000
 20
189.512481
 30
0.0
 10
98.406916
 20
189.532876
 30
0.0
 10
98.400773
 20
189.555490
 30
0.0
 10
98.397800
 20
189.580722
 30
0.0
 10
98.400226
 20
189.609583
 30
0.0
 10
98.411664
 20
189.658935
 30
0.0
 10
98.441146
 20
189.737677
 30
0.0
 10
98.493976
 20
189.857481
 30
0.0
 10
98.558575
 20
189.994202
 30
0.0
 10
98.620830
 20
190.125037
 30
0.0
 10
98.670827
 20
190.224776
 30
0.0
 10
98.705420
 20
190.286582
 30
0.0
 10
98.730517
 20
190.320582
 30
0.0
 10
98.747212
 20
190.337720
 30
0.0
 10
98.763680
 20
190.350391
 30
0.0
 10
98.780729
 20
190.358437
 30
0.0
 10
98.798208
 20
190.362123
 30
0.0
 10
98.809817
 20
190.362411
 30
0.0
 10
98.815613
 20
190.362555
 30
0.0
 11
98.431721
 21
189.495829
 31
0.0
 11
98.417837
 21
189.512998
 31
0.0
 11
98.407716
 21
189.532847
 31
0.0
 11
98.401452
 21
189.555096
 31
0.0
 11
98.398708
 21
189.579630
 31
0.0
 11
98.400668
 21
189.607574
 31
0.0
 11
98.407802
 21
189.640503
 31
0.0
 11
98.437350
 21
189.725522
 31
0.0
 11
98.488067
 21
189.842918
 31
0.0
 11
98.562121
 21
190.001508
 31
0.0
 11
98.627340
 21
190.137325
 31
0.0
 11
98.676754
 21
190.234410
 31
0.0
 11
98.715072
 21
190.299125
 31
0.0
 11
98.731942
 21
190.321350
 31
0.0
 11
98.748343
 21
190.338025
 31
0.0
 11
98.764602
 21
190.350137
 31
0.0
 11
98.781245
 21
190.357872
 31
0.0
 11
98.798265
 21
190.361593
 31
0.0
 11
98.815613
 21
190.362555
 31
0.0
  0
LWPOLYLINE
  5
175
100
AcDbEntity
  8
Calque_1
 62
7
100
AcDbPolyline
 90
2
 70
0
 10
98.815613
 20
190.362555
 30
0.0
 10
98.816933
 20
190.362364
 30
0.0
  0
SPLINE
  5
176
100
AcDbEntity
  8
Calque_1
 62
7
100
AcDbSpline
 70
0
 71
3
 72
31
 73
27
 74
25
 40
0.000000
 40
0.000000
 40
0.000000
 40
0.000000
 40
0.015428
 40
0.031943
 40
0.051792
 40
0.075701
 40
0.103610
 40
0.135768
 40
0.212776
 40
0.304961
 40
0.410491
 40
0.598068
 40
0.744322
 40
0.816913
 40
0.845899
 40
0.873847
 40
0.901365
 40
0.929469
 40
0.958295
 40
0.987254
 40
1.015897
 40
1.044346
 40
1.072446
 40
1.089194
 40
1.106500
 40
1.124157
 40
1.124157
 40
1.124157
 40
1.124157
 10
97.968100
 20
190.443637
 30
0.0
 10
97.972410
 20
190.440748
 30
0.0
 10
97.981333
 20
190.434766
 30
0.0
 10
97.991135
 20
190.420199
 30
0.0
 10
98.000493
 20
190.402498
 30
0.0
 10
98.010956
 20
190.380986
 30
0.0
 10
98.021970
 20
190.355251
 30
0.0
 10
98.038387
 20
190.312598
 30
0.0
 10
98.059412
 20
190.248829
 30
0.0
 10
98.085368
 20
190.161004
 30
0.0
 10
98.118455
 20
190.036892
 30
0.0
 10
98.156227
 20
189.895453
 30
0.0
 10
98.189361
 20
189.763924
 30
0.0
 10
98.213803
 20
189.685193
 30
0.0
 10
98.221652
 20
189.642272
 30
0.0
 10
98.216408
 20
189.614074
 30
0.0
 10
98.204647
 20
189.588538
 30
0.0
 10
98.186458
 20
189.566709
 30
0.0
 10
98.164347
 20
189.548339
 30
0.0
 10
98.139450
 20
189.533624
 30
0.0
 10
98.112624
 20
189.523015
 30
0.0
 10
98.084641
 20
189.517672
 30
0.0
 10
98.060054
 20
189.516312
 30
0.0
 10
98.039503
 20
189.521207
 30
0.0
 10
98.025271
 20
189.531262
 30
0.0
 10
98.015717
 20
189.537891
 30
0.0
 10
98.010892
 20
189.541239
 30
0.0
 11
97.968100
 21
190.443637
 31
0.0
 11
97.980358
 21
190.434269
 31
0.0
 11
97.990249
 21
190.421044
 31
0.0
 11
97.999779
 21
190.403632
 31
0.0
 11
98.010209
 21
190.382118
 31
0.0
 11
98.021265
 21
190.356492
 31
0.0
 11
98.032870
 21
190.326501
 31
0.0
 11
98.057479
 21
190.253531
 31
0.0
 11
98.083737
 21
190.165165
 31
0.0
 11
98.111412
 21
190.063329
 31
0.0
 11
98.159311
 21
189.881971
 31
0.0
 11
98.197038
 21
189.740666
 31
0.0
 11
98.216131
 21
189.670631
 31
0.0
 11
98.219904
 21
189.641891
 31
0.0
 11
98.215274
 21
189.614329
 31
0.0
 11
98.203713
 21
189.589358
 31
0.0
 11
98.186030
 21
189.567514
 31
0.0
 11
98.163941
 21
189.548995
 31
0.0
 11
98.139014
 21
189.534254
 31
0.0
 11
98.112323
 21
189.523861
 31
0.0
 11
98.084427
 21
189.518282
 31
0.0
 11
98.056330
 21
189.517814
 31
0.0
 11
98.040144
 21
189.522116
 31
0.0
 11
98.025385
 21
189.531152
 31
0.0
 11
98.010892
 21
189.541239
 31
0.0
  0
LWPOLYLINE
  5
177
100
AcDbEntity
  8
Calque_1
 62
7
100
AcDbPolyline
 90
3
 70
0
 10
98.010892
 20
189.541239
 30
0.0
 10
98.010892
 20
189.521977
 30
0.0
 10
97.983305
 20
189.556408
 30
0.0
  0
SPLINE
  5
178
100
AcDbEntity
  8
Calque_1
 62
7
100
AcDbSpline
 70
0
 71
3
 72
31
 73
27
 74
25
 40
0.000000
 40
0.000000
 40
0.000000
 40
0.000000
 40
0.003376
 40
0.007304
 40
0.010927
 40
0.021815
 40
0.034091
 40
0.050426
 40
0.076904
 40
0.107652
 40
0.141979
 40
0.219698
 40
0.306493
 40
0.398076
 40
0.490041
 40
0.578330
 40
0.659091
 40
0.727977
 40
0.781545
 40
0.817378
 40
0.858555
 40
0.899653
 40
0.941789
 40
0.984457
 40
1.027532
 40
1.071570
 40
1.071570
 40
1.071570
 40
1.071570
 10
97.983305
 20
189.556408
 30
0.0
 10
97.982713
 20
189.557373
 30
0.0
 10
97.981434
 20
189.559459
 30
0.0
 10
97.980782
 20
189.563162
 30
0.0
 10
97.976674
 20
189.567901
 30
0.0
 10
97.972868
 20
189.576010
 30
0.0
 10
97.967043
 20
189.587816
 30
0.0
 10
97.960777
 20
189.605106
 30
0.0
 10
97.952362
 20
189.628125
 30
0.0
 10
97.942750
 20
189.657099
 30
0.0
 10
97.928541
 20
189.702525
 30
0.0
 10
97.910059
 20
189.766184
 30
0.0
 10
97.887233
 20
189.848440
 30
0.0
 10
97.863794
 20
189.935455
 30
0.0
 10
97.841225
 20
190.023213
 30
0.0
 10
97.820622
 20
190.107750
 30
0.0
 10
97.802749
 20
190.185008
 30
0.0
 10
97.788044
 20
190.251178
 30
0.0
 10
97.778586
 20
190.303001
 30
0.0
 10
97.772068
 20
190.346287
 30
0.0
 10
97.780731
 20
190.386077
 30
0.0
 10
97.806298
 20
190.419947
 30
0.0
 10
97.841169
 20
190.444389
 30
0.0
 10
97.882025
 20
190.457970
 30
0.0
 10
97.926417
 20
190.459892
 30
0.0
 10
97.953569
 20
190.448772
 30
0.0
 10
97.967296
 20
190.443150
 30
0.0
 11
97.983305
 21
189.556408
 31
0.0
 11
97.981711
 21
189.559385
 31
0.0
 11
97.980430
 21
189.563098
 31
0.0
 11
97.978366
 21
189.566074
 31
0.0
 11
97.973038
 21
189.575571
 31
0.0
 11
97.967819
 21
189.586682
 31
0.0
 11
97.961926
 21
189.601917
 31
0.0
 11
97.952966
 21
189.626832
 31
0.0
 11
97.943206
 21
189.655990
 31
0.0
 11
97.932928
 21
189.688742
 31
0.0
 11
97.911043
 21
189.763316
 31
0.0
 11
97.887762
 21
189.846931
 31
0.0
 11
97.863995
 21
189.935376
 31
0.0
 11
97.841112
 21
190.024448
 31
0.0
 11
97.820204
 21
190.110226
 31
0.0
 11
97.801977
 21
190.188903
 31
0.0
 11
97.787424
 21
190.256235
 31
0.0
 11
97.777842
 21
190.308939
 31
0.0
 11
97.774390
 21
190.344605
 31
0.0
 11
97.783460
 21
190.384771
 31
0.0
 11
97.807535
 21
190.418079
 31
0.0
 11
97.841911
 21
190.442445
 31
0.0
 11
97.882374
 21
190.455986
 31
0.0
 11
97.925441
 21
190.456843
 31
0.0
 11
97.967296
 21
190.443150
 31
0.0
  0
SPLINE
  5
179
100
AcDbEntity
  8
Calque_1
 62
7
100
AcDbSpline
 70
0
 71
3
 72
13
 73
9
 74
7
 40
0.000000
 40
0.000000
 40
0.000000
 40
0.000000
 40
0.246654
 40
0.804226
 40
1.664946
 40
2.526559
 40
3.085428
 40
3.336650
 40
3.336650
 40
3.336650
 40
3.336650
 10
94.885888
 20
209.655738
 30
0.0
 10
94.952619
 20
209.606785
 30
0.0
 10
95.170197
 20
209.447173
 30
0.0
 10
95.728567
 20
209.333320
 30
0.0
 10
96.484129
 20
209.258463
 30
0.0
 10
97.238271
 20
209.334343
 30
0.0
 10
97.801841
 20
209.448048
 30
0.0
 10
98.014987
 20
209.617347
 30
0.0
 10
98.081088
 20
209.669849
 30
0.0
 11
94.885888
 21
209.655738
 31
0.0
 11
95.090984
 21
209.518721
 31
0.0
 11
95.626031
 21
209.361842
 31
0.0
 11
96.483484
 21
209.286923
 31
0.0
 11
97.341770
 21
209.362577
 31
0.0
 11
97.877021
 21
209.523325
 31
0.0
 11
98.081088
 21
209.669849
 31
0.0
  0
LWPOLYLINE
  5
17a
100
AcDbEntity
  8
Calque_1
 62
7
100
AcDbPolyline
 90
2
 70
0
 10
97.967296
 20
190.443150
 30
0.0
 10
97.968100
 20
190.443637
 30
0.0
  0
SPLINE
  5
17b
100
AcDbEntity
  8
Calque_1
 62
7
100
AcDbSpline
 70
0
 71
3
 72
13
 73
9
 74
7
 40
0.000000
 40
0.000000
 40
0.000000
 40
0.000000
 40
0.244079
 40
0.798072
 40
1.665383
 40
2.531457
 40
3.086281
 40
3.336572
 40
3.336572
 40
3.336572
 40
3.336572
 10
98.081088
 20
209.669849
 30
0.0
 10
98.015518
 20
209.718978
 30
0.0
 10
97.801123
 20
209.879615
 30
0.0
 10
97.241211
 20
209.991383
 30
0.0
 10
96.483625
 20
210.064638
 30
0.0
 10
95.727180
 20
209.990898
 30
0.0
 10
95.163042
 20
209.879004
 30
0.0
 10
94.951615
 20
209.710123
 30
0.0
 10
94.885888
 20
209.657622
 30
0.0
 11
98.081088
 21
209.669849
 31
0.0
 11
97.879335
 21
209.807219
 31
0.0
 11
97.347631
 21
209.962779
 31
0.0
 11
96.483484
 21
210.036795
 31
0.0
 11
95.620600
 21
209.962534
 31
0.0
 11
95.088903
 21
209.804014
 31
0.0
 11
94.885888
 21
209.657622
 31
0.0
  0
LWPOLYLINE
  5
17c
100
AcDbEntity
  8
Calque_1
 62
7
100
AcDbPolyline
 90
2
 70
0
 10
94.885888
 20
209.657622
 30
0.0
 10
94.885888
 20
209.655738
 30
0.0
  0
SPLINE
  5
17d
100
AcDbEntity
  8
Calque_1
 62
7
100
AcDbSpline
 70
0
 71
3
 72
10
 73
6
 74
4
 40
0.000000
 40
0.000000
 40
0.000000
 40
0.000000
 40
0.585876
 40
1.143462
 40
1.633977
 40
1.633977
 40
1.633977
 40
1.633977
 10
96.483428
 20
208.816854
 30
0.0
 10
96.288280
 20
208.823375
 30
0.0
 10
95.907408
 20
208.836101
 30
0.0
 10
95.365501
 20
208.920992
 30
0.0
 10
95.038751
 20
209.046825
 30
0.0
 10
94.885831
 20
209.105715
 30
0.0
 11
96.483428
 21
208.816854
 31
0.0
 11
95.898416
 21
208.848670
 31
0.0
 11
95.349158
 21
208.944679
 31
0.0
 11
94.885831
 21
209.105715
 31
0.0
  0
LWPOLYLINE
  5
17e
100
AcDbEntity
  8
Calque_1
 62
7
100
AcDbPolyline
 90
2
 70
0
 10
94.885831
 20
209.105715
 30
0.0
 10
94.885831
 20
207.891990
 30
0.0
  0
SPLINE
  5
17f
100
AcDbEntity
  8
Calque_1
 62
7
100
AcDbSpline
 70
0
 71
3
 72
13
 73
9
 74
7
 40
0.000000
 40
0.000000
 40
0.000000
 40
0.000000
 40
0.247523
 40
0.805904
 40
1.668743
 40
2.537534
 40
3.091986
 40
3.340178
 40
3.340178
 40
3.340178
 40
3.340178
 10
94.885831
 20
207.891990
 30
0.0
 10
94.951642
 20
207.841207
 30
0.0
 10
95.165913
 20
207.675861
 30
0.0
 10
95.727584
 20
207.562797
 30
0.0
 10
96.485643
 20
207.487145
 30
0.0
 10
97.241097
 20
207.562056
 30
0.0
 10
97.806118
 20
207.673630
 30
0.0
 10
98.015389
 20
207.844001
 30
0.0
 10
98.080100
 20
207.896682
 30
0.0
 11
94.885831
 21
207.891990
 31
0.0
 11
95.088639
 21
207.750085
 31
0.0
 11
95.623889
 21
207.591042
 31
0.0
 11
96.483428
 21
207.515633
 31
0.0
 11
97.348996
 21
207.590380
 31
0.0
 11
97.880035
 21
207.749804
 31
0.0
 11
98.080100
 21
207.896682
 31
0.0
  0
SPLINE
  5
180
100
AcDbEntity
  8
Calque_1
 62
7
100
AcDbSpline
 70
0
 71
3
 72
10
 73
6
 74
4
 40
0.000000
 40
0.000000
 40
0.000000
 40
0.000000
 40
0.490252
 40
1.047153
 40
1.632127
 40
1.632127
 40
1.632127
 40
1.632127
 10
98.079394
 20
209.105715
 30
0.0
 10
97.926568
 20
209.046829
 30
0.0
 10
97.600137
 20
208.921050
 30
0.0
 10
97.058868
 20
208.836100
 30
0.0
 10
96.678522
 20
208.823373
 30
0.0
 10
96.483675
 20
208.816854
 30
0.0
 11
98.079394
 21
209.105715
 31
0.0
 11
97.616346
 21
208.944679
 31
0.0
 11
97.067782
 21
208.848670
 31
0.0
 11
96.483675
 21
208.816854
 31
0.0
  0
SPLINE
  5
181
100
AcDbEntity
  8
Calque_1
 62
7
100
AcDbSpline
 70
0
 71
3
 72
19
 73
15
 74
13
 40
0.000000
 40
0.000000
 40
0.000000
 40
0.000000
 40
0.160353
 40
0.315977
 40
0.476335
 40
0.636690
 40
0.792315
 40
0.952669
 40
1.113031
 40
1.268662
 40
1.429018
 40
1.589377
 40
1.745007
 40
1.905368
 40
1.905368
 40
1.905368
 40
1.905368
 10
95.095184
 20
210.906258
 30
0.0
 10
95.149246
 20
210.914693
 30
0.0
 10
95.255777
 20
210.931313
 30
0.0
 10
95.373051
 20
211.053418
 30
0.0
 10
95.416534
 20
211.212694
 30
0.0
 10
95.373050
 20
211.373644
 30
0.0
 10
95.255777
 20
211.490828
 30
0.0
 10
95.095181
 20
211.534346
 30
0.0
 10
94.934583
 20
211.490827
 30
0.0
 10
94.817300
 20
211.373647
 30
0.0
 10
94.773810
 20
211.212694
 30
0.0
 10
94.817299
 20
211.053415
 30
0.0
 10
94.934584
 20
210.931313
 30
0.0
 10
95.041119
 20
210.914692
 30
0.0
 10
95.095184
 20
210.906258
 30
0.0
 11
95.095184
 21
210.906258
 31
0.0
 11
95.249970
 21
210.948142
 31
0.0
 11
95.360012
 21
211.058185
 31
0.0
 11
95.401896
 21
211.212977
 31
0.0
 11
95.360012
 21
211.367765
 31
0.0
 11
95.249970
 21
211.477811
 31
0.0
 11
95.095184
 21
211.519696
 31
0.0
 11
94.940388
 21
211.477811
 31
0.0
 11
94.830338
 21
211.367765
 31
0.0
 11
94.788450
 21
211.212977
 31
0.0
 11
94.830338
 21
211.058185
 31
0.0
 11
94.940388
 21
210.948142
 31
0.0
 11
95.095184
 21
210.906258
 31
0.0
  0
LWPOLYLINE
  5
182
100
AcDbEntity
  8
Calque_1
 62
7
100
AcDbPolyline
 90
2
 70
0
 10
98.080100
 20
207.896682
 30
0.0
 10
98.079394
 20
209.105715
 30
0.0
  0
SPLINE
  5
183
100
AcDbEntity
  8
Calque_1
 62
7
100
AcDbSpline
 70
0
 71
3
 72
13
 73
9
 74
7
 40
0.000000
 40
0.000000
 40
0.000000
 40
0.000000
 40
0.982138
 40
1.804910
 40
2.376207
 40
2.447520
 40
2.517665
 40
2.587877
 40
2.587877
 40
2.587877
 40
2.587877
 10
96.483117
 20
210.507746
 30
0.0
 10
96.810629
 20
210.488146
 30
0.0
 10
97.412508
 20
210.452126
 30
0.0
 10
98.184663
 20
210.264905
 30
0.0
 10
98.567621
 20
209.830853
 30
0.0
 10
98.546449
 20
209.591858
 30
0.0
 10
98.530029
 20
209.522930
 30
0.0
 10
98.510589
 20
209.480256
 30
0.0
 10
98.500865
 20
209.458909
 30
0.0
 11
96.483117
 21
210.507746
 31
0.0
 11
97.461100
 21
210.417504
 31
0.0
 11
98.235488
 21
210.139516
 31
0.0
 11
98.550466
 21
209.662893
 31
0.0
 11
98.544693
 21
209.591814
 31
0.0
 11
98.527898
 21
209.523708
 31
0.0
 11
98.500865
 21
209.458909
 31
0.0
  0
LWPOLYLINE
  5
184
100
AcDbEntity
  8
Calque_1
 62
7
100
AcDbPolyline
 90
3
 70
0
 10
98.500865
 20
209.458909
 30
0.0
 10
98.550466
 20
209.458909
 30
0.0
 10
98.550466
 20
207.891871
 30
0.0
  0
SPLINE
  5
185
100
AcDbEntity
  8
Calque_1
 62
7
100
AcDbSpline
 70
0
 71
3
 72
13
 73
9
 74
7
 40
0.000000
 40
0.000000
 40
0.000000
 40
0.000000
 40
0.572299
 40
1.395156
 40
2.377288
 40
3.360606
 40
4.183693
 40
4.755959
 40
4.755959
 40
4.755959
 40
4.755959
 10
98.550466
 20
207.891871
 30
0.0
 10
98.461340
 20
207.713762
 30
0.0
 10
98.244068
 20
207.279568
 30
0.0
 10
97.391828
 20
207.111876
 30
0.0
 10
96.482726
 20
207.009582
 30
0.0
 10
95.573577
 20
207.111840
 30
0.0
 10
94.720763
 20
207.279475
 30
0.0
 10
94.503498
 20
207.713760
 30
0.0
 10
94.414393
 20
207.891871
 30
0.0
 11
98.550466
 21
207.891871
 31
0.0
 11
98.235488
 21
207.414046
 31
0.0
 11
97.461100
 21
207.135810
 31
0.0
 11
96.483117
 21
207.045627
 31
0.0
 11
95.503943
 21
207.135810
 31
0.0
 11
94.729310
 21
207.414046
 31
0.0
 11
94.414393
 21
207.891871
 31
0.0
  0
LWPOLYLINE
  5
186
100
AcDbEntity
  8
Calque_1
 62
7
100
AcDbPolyline
 90
2
 70
0
 10
94.414393
 20
207.891871
 30
0.0
 10
94.414393
 20
209.662893
 30
0.0
  0
SPLINE
  5
187
100
AcDbEntity
  8
Calque_1
 62
7
100
AcDbSpline
 70
0
 71
3
 72
10
 73
6
 74
4
 40
0.000000
 40
0.000000
 40
0.000000
 40
0.000000
 40
0.571264
 40
1.394267
 40
2.377591
 40
2.377591
 40
2.377591
 40
2.377591
 10
94.414393
 20
209.662893
 30
0.0
 10
94.503576
 20
209.840190
 30
0.0
 10
94.721242
 20
210.272916
 30
0.0
 10
95.573586
 20
210.449392
 30
0.0
 10
96.162517
 20
210.487177
 30
0.0
 10
96.483117
 20
210.507746
 30
0.0
 11
94.414393
 21
209.662893
 31
0.0
 11
94.729310
 21
210.139516
 31
0.0
 11
95.503943
 21
210.417504
 31
0.0
 11
96.483117
 21
210.507746
 31
0.0
  0
LWPOLYLINE
  5
188
100
AcDbEntity
  8
Calque_1
 62
7
100
AcDbPolyline
 90
1
 70
1
 10
96.483117
 20
210.507746
 30
0.0
  0
SPLINE
  5
189
100
AcDbEntity
  8
Calque_1
 62
7
100
AcDbSpline
 70
0
 71
3
 72
10
 73
6
 74
4
 40
0.000000
 40
0.000000
 40
0.000000
 40
0.000000
 40
0.327754
 40
0.645189
 40
0.965999
 40
0.965999
 40
0.965999
 40
0.965999
 10
95.095247
 20
211.990718
 30
0.0
 10
95.204957
 20
211.976359
 30
0.0
 10
95.420922
 20
211.948094
 30
0.0
 10
95.690395
 20
211.740406
 30
0.0
 10
95.780441
 20
211.545608
 30
0.0
 10
95.825702
 20
211.447694
 30
0.0
 11
95.095247
 21
211.990718
 31
0.0
 11
95.415089
 21
211.919139
 31
0.0
 11
95.667686
 21
211.726889
 31
0.0
 11
95.825702
 21
211.447694
 31
0.0
  0
LWPOLYLINE
  5
18a
100
AcDbEntity
  8
Calque_1
 62
7
100
AcDbPolyline
 90
4
 70
0
 10
95.825702
 20
211.447694
 30
0.0
 10
98.463633
 20
211.447694
 30
0.0
 10
98.463633
 20
210.977716
 30
0.0
 10
95.825702
 20
210.977716
 30
0.0
  0
LWPOLYLINE
  5
18b
100
AcDbEntity
  8
Calque_1
 62
7
100
AcDbPolyline
 90
1
 70
1
 10
95.095247
 20
211.990718
 30
0.0
  0
SPLINE
  5
18c
100
AcDbEntity
  8
Calque_1
 62
7
100
AcDbSpline
 70
0
 71
3
 72
16
 73
12
 74
10
 40
0.000000
 40
0.000000
 40
0.000000
 40
0.000000
 40
0.320499
 40
0.637534
 40
0.965210
 40
1.371195
 40
1.765957
 40
2.171942
 40
2.577924
 40
2.972680
 40
3.378665
 40
3.378665
 40
3.378665
 40
3.378665
 10
95.825702
 20
210.977716
 30
0.0
 10
95.780468
 20
210.879366
 30
0.0
 10
95.690490
 20
210.683728
 30
0.0
 10
95.420584
 20
210.484664
 30
0.0
 10
95.069685
 20
210.405667
 30
0.0
 10
94.688272
 20
210.509837
 30
0.0
 10
94.391625
 20
210.806454
 30
0.0
 10
94.280559
 20
211.214122
 30
0.0
 10
94.391565
 20
211.617489
 30
0.0
 10
94.688508
 20
211.926765
 30
0.0
 10
94.958406
 20
211.969202
 30
0.0
 10
95.095247
 20
211.990718
 30
0.0
 11
95.825702
 21
210.977716
 31
0.0
 11
95.667686
 21
210.698878
 31
0.0
 11
95.415089
 21
210.507290
 31
0.0
 11
95.095247
 21
210.436069
 31
0.0
 11
94.703452
 21
210.542467
 31
0.0
 11
94.424314
 21
210.821605
 31
0.0
 11
94.317916
 21
211.213400
 31
0.0
 11
94.424314
 21
211.605192
 31
0.0
 11
94.703452
 21
211.884323
 31
0.0
 11
95.095247
 21
211.990718
 31
0.0
  0
LWPOLYLINE
  5
18d
100
AcDbEntity
  8
Calque_1
 62
7
100
AcDbPolyline
 90
4
 70
0
 10
98.759945
 20
219.570318
 30
0.0
 10
98.759945
 20
218.024692
 30
0.0
 10
98.289579
 20
218.024692
 30
0.0
 10
98.289579
 20
219.123468
 30
0.0
  0
SPLINE
  5
18e
100
AcDbEntity
  8
Calque_1
 62
7
100
AcDbSpline
 70
0
 71
3
 72
10
 73
6
 74
4
 40
0.000000
 40
0.000000
 40
0.000000
 40
0.000000
 40
0.468154
 40
0.940982
 40
1.426193
 40
1.426193
 40
1.426193
 40
1.426193
 10
98.289579
 20
219.123468
 30
0.0
 10
98.161917
 20
219.033189
 30
0.0
 10
97.905318
 20
218.851729
 30
0.0
 10
97.459450
 20
218.670642
 30
0.0
 10
97.143111
 20
218.622154
 30
0.0
 10
96.982898
 20
218.597596
 30
0.0
 11
98.289579
 21
219.123468
 31
0.0
 11
97.897291
 21
218.867972
 31
0.0
 11
97.459222
 21
218.690034
 31
0.0
 11
96.982898
 21
218.597596
 31
0.0
  0
LWPOLYLINE
  5
18f
100
AcDbEntity
  8
Calque_1
 62
7
100
AcDbPolyline
 90
4
 70
0
 10
96.982898
 20
218.597596
 30
0.0
 10
96.982898
 20
218.024692
 30
0.0
 10
96.512532
 20
218.024692
 30
0.0
 10
96.512532
 20
218.597596
 30
0.0
  0
SPLINE
  5
190
100
AcDbEntity
  8
Calque_1
 62
7
100
AcDbSpline
 70
0
 71
3
 72
10
 73
6
 74
4
 40
0.000000
 40
0.000000
 40
0.000000
 40
0.000000
 40
0.444663
 40
0.879320
 40
1.308548
 40
1.308548
 40
1.308548
 40
1.308548
 10
96.512532
 20
218.597596
 30
0.0
 10
96.365665
 20
218.619237
 30
0.0
 10
96.075236
 20
218.662033
 30
0.0
 10
95.661831
 20
218.814599
 30
0.0
 10
95.418798
 20
218.970037
 30
0.0
 10
95.298045
 20
219.047268
 30
0.0
 11
96.512532
 21
218.597596
 31
0.0
 11
96.075160
 21
218.677793
 31
0.0
 11
95.667683
 21
218.829083
 31
0.0
 11
95.298045
 21
219.047268
 31
0.0
  0
LWPOLYLINE
  5
191
100
AcDbEntity
  8
Calque_1
 62
7
100
AcDbPolyline
 90
4
 70
0
 10
95.298045
 20
219.047268
 30
0.0
 10
95.298045
 20
218.024692
 30
0.0
 10
94.827679
 20
218.024692
 30
0.0
 10
94.827679
 20
219.497878
 30
0.0
  0
SPLINE
  5
192
100
AcDbEntity
  8
Calque_1
 62
7
100
AcDbSpline
 70
0
 71
3
 72
19
 73
15
 74
13
 40
0.000000
 40
0.000000
 40
0.000000
 40
0.000000
 40
0.554589
 40
1.115980
 40
1.695343
 40
2.995782
 40
4.259046
 40
5.559655
 40
6.860501
 40
8.124086
 40
9.424590
 40
9.972600
 40
10.503628
 40
11.027240
 40
11.027240
 40
11.027240
 40
11.027240
 10
94.827679
 20
219.497878
 30
0.0
 10
94.719080
 20
219.648349
 30
0.0
 10
94.500549
 20
219.951138
 30
0.0
 10
94.305681
 20
220.489568
 30
0.0
 10
94.205061
 20
221.302241
 30
0.0
 10
94.493627
 20
222.367294
 30
0.0
 10
95.444952
 20
223.316371
 30
0.0
 10
96.747808
 20
223.670802
 30
0.0
 10
98.050694
 20
223.316302
 30
0.0
 10
99.002486
 20
222.367478
 30
0.0
 10
99.288415
 20
221.312764
 30
0.0
 10
99.195701
 20
220.520677
 30
0.0
 10
99.021783
 20
220.008858
 30
0.0
 10
98.825442
 20
219.715811
 30
0.0
 10
98.727962
 20
219.570318
 30
0.0
 11
94.827679
 21
219.497878
 31
0.0
 11
94.524171
 21
219.962045
 31
0.0
 11
94.328115
 21
220.488089
 31
0.0
 11
94.258536
 21
221.063259
 31
0.0
 11
94.598872
 21
222.318374
 31
0.0
 11
95.492358
 21
223.211412
 31
0.0
 11
96.747715
 21
223.551506
 31
0.0
 11
98.003316
 21
223.211412
 31
0.0
 11
98.897258
 21
222.318374
 31
0.0
 11
99.237839
 21
221.063259
 31
0.0
 11
99.175681
 21
220.518786
 31
0.0
 11
99.000216
 21
220.017584
 31
0.0
 11
98.727962
 21
219.570318
 31
0.0
  0
SPLINE
  5
193
100
AcDbEntity
  8
Calque_1
 62
7
100
AcDbSpline
 70
0
 71
3
 72
19
 73
15
 74
13
 40
0.000000
 40
0.000000
 40
0.000000
 40
0.000000
 40
0.145110
 40
0.285541
 40
0.429390
 40
0.574754
 40
0.715853
 40
0.861045
 40
1.004961
 40
1.145714
 40
1.291060
 40
1.434890
 40
1.574974
 40
1.718808
 40
1.718808
 40
1.718808
 40
1.718808
 10
96.747997
 20
220.766460
 30
0.0
 10
96.699084
 20
220.758847
 30
0.0
 10
96.602835
 20
220.743867
 30
0.0
 10
96.496761
 20
220.634200
 30
0.0
 10
96.457196
 20
220.490578
 30
0.0
 10
96.496629
 20
220.345188
 30
0.0
 10
96.602509
 20
220.238767
 30
0.0
 10
96.747582
 20
220.198949
 30
0.0
 10
96.892447
 20
220.238958
 30
0.0
 10
96.997529
 20
220.345367
 30
0.0
 10
97.036905
 20
220.490576
 30
0.0
 10
96.997397
 20
220.634027
 30
0.0
 10
96.892131
 20
220.743642
 30
0.0
 10
96.796463
 20
220.758787
 30
0.0
 10
96.747997
 20
220.766460
 30
0.0
 11
96.747997
 21
220.766460
 31
0.0
 11
96.607898
 21
220.728656
 31
0.0
 11
96.508354
 21
220.629601
 31
0.0
 11
96.470481
 21
220.490828
 31
0.0
 11
96.508354
 21
220.350484
 31
0.0
 11
96.607898
 21
220.250485
 31
0.0
 11
96.747997
 21
220.212366
 31
0.0
 11
96.886773
 21
220.250485
 31
0.0
 11
96.985827
 21
220.350484
 31
0.0
 11
97.023629
 21
220.490828
 31
0.0
 11
96.985827
 21
220.629601
 31
0.0
 11
96.886773
 21
220.728656
 31
0.0
 11
96.747997
 21
220.766460
 31
0.0
  0
LWPOLYLINE
  5
194
100
AcDbEntity
  8
Calque_1
 62
7
100
AcDbPolyline
 90
2
 70
0
 10
98.727962
 20
219.570318
 30
0.0
 10
98.759945
 20
219.570318
 30
0.0
  0
SPLINE
  5
195
100
AcDbEntity
  8
Calque_1
 62
7
100
AcDbSpline
 70
0
 71
3
 72
13
 73
9
 74
7
 40
0.000000
 40
0.000000
 40
0.000000
 40
0.000000
 40
1.055192
 40
2.079942
 40
3.134673
 40
4.114353
 40
5.064250
 40
6.033231
 40
6.033231
 40
6.033231
 40
6.033231
 10
96.747997
 20
223.081606
 30
0.0
 10
96.392274
 20
223.025858
 30
0.0
 10
95.691091
 20
222.915969
 30
0.0
 10
94.919723
 20
222.113006
 30
0.0
 10
94.639214
 20
221.087798
 30
0.0
 10
94.894141
 20
220.088479
 30
0.0
 10
95.564170
 20
219.318673
 30
0.0
 10
96.194510
 20
219.151775
 30
0.0
 10
96.512814
 20
219.067496
 30
0.0
 11
96.747997
 21
223.081606
 31
0.0
 11
95.729564
 21
222.805519
 31
0.0
 11
95.005062
 21
222.080806
 31
0.0
 11
94.729184
 21
221.062793
 31
0.0
 11
94.969175
 21
220.112963
 31
0.0
 11
95.605528
 21
219.407726
 31
0.0
 11
96.512814
 21
219.067496
 31
0.0
  0
LWPOLYLINE
  5
196
100
AcDbEntity
  8
Calque_1
 62
7
100
AcDbPolyline
 90
2
 70
0
 10
96.512814
 20
219.067496
 30
0.0
 10
96.512814
 20
219.789978
 30
0.0
  0
SPLINE
  5
197
100
AcDbEntity
  8
Calque_1
 62
7
100
AcDbSpline
 70
0
 71
3
 72
19
 73
15
 74
13
 40
0.000000
 40
0.000000
 40
0.000000
 40
0.000000
 40
0.305234
 40
0.607656
 40
0.920849
 40
1.311041
 40
1.690154
 40
2.080693
 40
2.470357
 40
2.848979
 40
3.239099
 40
3.552232
 40
3.854238
 40
4.158691
 40
4.158691
 40
4.158691
 40
4.158691
 10
96.512814
 20
219.789978
 30
0.0
 10
96.419570
 20
219.833932
 30
0.0
 10
96.233942
 20
219.921436
 30
0.0
 10
96.045885
 20
220.180094
 30
0.0
 10
95.971213
 20
220.515951
 30
0.0
 10
96.070823
 20
220.881982
 30
0.0
 10
96.356899
 20
221.166531
 30
0.0
 10
96.747699
 20
221.272496
 30
0.0
 10
97.138351
 20
221.166493
 30
0.0
 10
97.423607
 20
220.881752
 30
0.0
 10
97.522772
 20
220.515945
 30
0.0
 10
97.448495
 20
220.180288
 30
0.0
 10
97.261281
 20
219.921548
 30
0.0
 10
97.076129
 20
219.833952
 30
0.0
 10
96.983180
 20
219.789978
 30
0.0
 11
96.512814
 21
219.789978
 31
0.0
 11
96.248609
 21
219.942829
 31
0.0
 11
96.067395
 21
220.184947
 31
0.0
 11
96.000115
 21
220.490828
 31
0.0
 11
96.102445
 21
220.867362
 31
0.0
 11
96.370971
 21
221.134983
 31
0.0
 11
96.747997
 21
221.236826
 31
0.0
 11
97.124116
 21
221.134983
 31
0.0
 11
97.391949
 21
220.867362
 31
0.0
 11
97.494002
 21
220.490828
 31
0.0
 11
97.427000
 21
220.184947
 31
0.0
 11
97.246482
 21
219.942829
 31
0.0
 11
96.983180
 21
219.789978
 31
0.0
  0
SPLINE
  5
198
100
AcDbEntity
  8
Calque_1
 62
7
100
AcDbSpline
 70
0
 71
3
 72
13
 73
9
 74
7
 40
0.000000
 40
0.000000
 40
0.000000
 40
0.000000
 40
0.968981
 40
1.918879
 40
2.898558
 40
3.953290
 40
4.978040
 40
6.033231
 40
6.033231
 40
6.033231
 40
6.033231
 10
96.983180
 20
219.067496
 30
0.0
 10
97.301484
 20
219.151775
 30
0.0
 10
97.931824
 20
219.318673
 30
0.0
 10
98.601853
 20
220.088479
 30
0.0
 10
98.856779
 20
221.087798
 30
0.0
 10
98.576271
 20
222.113006
 30
0.0
 10
97.804903
 20
222.915969
 30
0.0
 10
97.103720
 20
223.025858
 30
0.0
 10
96.747997
 20
223.081606
 30
0.0
 11
96.983180
 21
219.067496
 31
0.0
 11
97.890466
 21
219.407726
 31
0.0
 11
98.526819
 21
220.112963
 31
0.0
 11
98.766810
 21
221.062793
 31
0.0
 11
98.490932
 21
222.080806
 31
0.0
 11
97.766430
 21
222.805519
 31
0.0
 11
96.747997
 21
223.081606
 31
0.0
  0
LWPOLYLINE
  5
199
100
AcDbEntity
  8
Calque_1
 62
7
100
AcDbPolyline
 90
2
 70
0
 10
96.983180
 20
219.789978
 30
0.0
 10
96.983180
 20
219.067496
 30
0.0
  0
ENDSEC
  0
SECTION
  2
OBJECTS
  0
DICTIONARY
  5
C
330
0
100
AcDbDictionary
  3
ACAD_GROUP
350
D
  3
ACAD_MLINESTYLE
350
17
  0
DICTIONARY
  5
D
330
C
100
AcDbDictionary
  0
DICTIONARY
  5
1A
330
C
100
AcDbDictionary
  0
DICTIONARY
  5
17
330
C
100
AcDbDictionary
  3
STANDARD
350
18
  0
DICTIONARY
  5
19
330
C
100
AcDbDictionary
  0
ENDSEC
  0
EOF
