  0
SECTION
  2
HEADER
  9
$ACADVER
  1
AC1014
  9
$HANDSEED
  5
FFFF
  9
$MEASUREMENT
 70
     1
  0
ENDSEC
  0
SECTION
  2
TABLES
  0
TABLE
  2
VPORT
  5
8
330
0
100
AcDbSymbolTable
 70
     4
  0
VPORT
  5
2E
330
8
100
AcDbSymbolTableRecord
100
AcDbViewportTableRecord
  2
*ACTIVE
 70
     0
 10
0.0
 20
0.0
 11
1.0
 21
1.0
 12
210.0
 22
148.5
 13
0.0
 23
0.0
 14
10.0
 24
10.0
 15
10.0
 25
10.0
 16
0.0
 26
0.0
 36
1.0
 17
0.0
 27
0.0
 37
0.0
 40
341.0
 41
1.24
 42
50.0
 43
0.0
 44
0.0
 50
0.0
 51
0.0
 71
     0
 72
   100
 73
     1
 74
     3
 75
     0
 76
     0
 77
     0
 78
     0
  0
ENDTAB
  0
TABLE
  2
LTYPE
  5
5
330
0
100
AcDbSymbolTable
 70
     1
  0
LTYPE
  5
14
330
5
100
AcDbSymbolTableRecord
100
AcDbLinetypeTableRecord
  2
BYBLOCK
 70
     0
  3

 72
    65
 73
     0
 40
0.0
  0
LTYPE
  5
15
330
5
100
AcDbSymbolTableRecord
100
AcDbLinetypeTableRecord
  2
BYLAYER
 70
     0
  3

 72
    65
 73
     0
 40
0.0
  0
LTYPE
  5
16
330
5
100
AcDbSymbolTableRecord
100
AcDbLinetypeTableRecord
  2
CONTINUOUS
 70
     0
  3
Solid line
 72
    65
 73
     0
 40
0.0
  0
ENDTAB
  0
TABLE
  2
LAYER
  5
2
100
AcDbSymbolTable
 70
2
  0
LAYER
  5
50
100
AcDbSymbolTableRecord
100
AcDbLayerTableRecord
  2
0
 70
0
  6
CONTINUOUS
  0
LAYER
  5
51
100
AcDbSymbolTableRecord
100
AcDbLayerTableRecord
  2
Calque_1
 70
0
  6
CONTINUOUS
  0
ENDTAB
  0
TABLE
  2
STYLE
  5
3
330
0
100
AcDbSymbolTable
 70
     1
  0
STYLE
  5
11
330
3
100
AcDbSymbolTableRecord
100
AcDbTextStyleTableRecord
  2
STANDARD
 70
     0
 40
0.0
 41
1.0
 50
0.0
 71
     0
 42
2.5
  3
txt
  4

  0
ENDTAB
  0
TABLE
  2
VIEW
  5
6
330
0
100
AcDbSymbolTable
 70
     0
  0
ENDTAB
  0
TABLE
  2
UCS
  5
7
330
0
100
AcDbSymbolTable
 70
     0
  0
ENDTAB
  0
TABLE
  2
APPID
  5
9
330
0
100
AcDbSymbolTable
 70
     2
  0
APPID
  5
12
330
9
100
AcDbSymbolTableRecord
100
AcDbRegAppTableRecord
  2
ACAD
 70
     0
  0
ENDTAB
  0
TABLE
  2
DIMSTYLE
  5
A
330
0
100
AcDbSymbolTable
 70
     1
  0
DIMSTYLE
105
27
330
A
100
AcDbSymbolTableRecord
100
AcDbDimStyleTableRecord
  2
ISO-25
 70
     0
  3

  4

  5

  6

  7

 40
1.0
 41
2.5
 42
0.625
 43
3.75
 44
1.25
 45
0.0
 46
0.0
 47
0.0
 48
0.0
140
2.5
141
2.5
142
0.0
143
0.03937007874016
144
1.0
145
0.0
146
1.0
147
0.625
 71
     0
 72
     0
 73
     0
 74
     0
 75
     0
 76
     0
 77
     1
 78
     8
170
     0
171
     3
172
     1
173
     0
174
     0
175
     0
176
     0
177
     0
178
     0
270
     2
271
     2
272
     2
273
     2
274
     3
340
11
275
     0
280
     0
281
     0
282
     0
283
     0
284
     8
285
     0
286
     0
287
     3
288
     0
  0
ENDTAB
  0
TABLE
  2
BLOCK_RECORD
  5
1
330
0
100
AcDbSymbolTable
 70
     1
  0
BLOCK_RECORD
  5
1F
330
1
100
AcDbSymbolTableRecord
100
AcDbBlockTableRecord
  2
*MODEL_SPACE
  0
BLOCK_RECORD
  5
1B
330
1
100
AcDbSymbolTableRecord
100
AcDbBlockTableRecord
  2
*PAPER_SPACE
  0
ENDTAB
  0
ENDSEC
  0
SECTION
  2
BLOCKS
  0
BLOCK
  5
20
330
1F
100
AcDbEntity
  8
0
100
AcDbBlockBegin
  2
*MODEL_SPACE
 70
     0
 10
0.0
 20
0.0
 30
0.0
  3
*MODEL_SPACE
  1

  0
ENDBLK
  5
21
330
1F
100
AcDbEntity
  8
0
100
AcDbBlockEnd
  0
BLOCK
  5
1C
330
1B
100
AcDbEntity
 67
     1
  8
0
100
AcDbBlockBegin
  2
*PAPER_SPACE
  1

  0
ENDBLK
  5
1D
330
1B
100
AcDbEntity
 67
     1
  8
0
100
AcDbBlockEnd
  0
ENDSEC
  0
SECTION
  2
ENTITIES
  0
SPLINE
  5
100
100
AcDbEntity
  8
Calque_1
 62
7
100
AcDbSpline
 70
0
 71
3
 72
133
 73
129
 74
127
 40
0.000000
 40
0.000000
 40
0.000000
 40
0.000000
 40
0.102848
 40
0.200566
 40
0.296978
 40
0.742917
 40
1.291278
 40
1.862715
 40
2.132208
 40
2.377617
 40
2.589063
 40
2.678960
 40
2.756718
 40
2.821227
 40
2.848191
 40
2.871523
 40
2.891182
 40
2.899626
 40
2.907224
 40
2.914103
 40
2.920422
 40
2.926577
 40
2.933306
 40
2.989050
 40
3.036539
 40
3.077924
 40
3.116280
 40
3.155363
 40
3.198704
 40
3.308494
 40
3.460590
 40
3.661133
 40
3.827736
 40
3.946962
 40
4.025842
 40
4.052698
 40
4.073255
 40
4.090161
 40
4.106877
 40
4.126334
 40
4.150008
 40
4.170032
 40
4.187810
 40
4.205569
 40
4.226102
 40
4.252001
 40
4.285374
 40
4.381457
 40
4.527108
 40
4.734488
 40
4.845554
 40
4.949861
 40
5.042915
 40
5.083824
 40
5.120271
 40
5.151736
 40
5.177477
 40
5.197690
 40
5.213452
 40
5.283402
 40
5.353744
 40
5.425567
 40
5.496544
 40
5.564450
 40
5.631638
 40
5.637516
 40
5.644147
 40
5.652193
 40
5.661959
 40
5.673332
 40
5.686305
 40
5.716811
 40
5.752907
 40
5.794056
 40
5.889263
 40
5.997803
 40
6.115033
 40
6.338282
 40
6.485090
 40
6.577192
 40
6.611616
 40
6.644783
 40
6.681690
 40
6.726103
 40
6.780389
 40
6.846572
 40
7.098338
 40
7.285585
 40
7.417730
 40
7.467491
 40
7.509534
 40
7.547155
 40
7.583981
 40
7.623342
 40
7.667731
 40
7.701941
 40
7.733580
 40
7.763930
 40
7.794645
 40
7.827689
 40
7.865098
 40
7.960298
 40
8.093500
 40
8.275186
 40
8.438601
 40
8.555169
 40
8.635000
 40
8.689751
 40
8.734907
 40
8.786568
 40
8.808161
 40
8.824527
 40
8.838691
 40
8.856755
 40
8.884561
 40
8.925435
 40
9.055792
 40
9.265432
 40
9.571843
 40
9.906234
 40
10.136133
 40
10.283046
 40
10.333243
 40
10.372846
 40
10.406241
 40
10.437717
 40
10.470608
 40
10.507158
 40
10.507158
 40
10.507158
 40
10.507158
 10
84.855416
 20
220.167805
 30
0.0
 10
84.820765
 20
220.170377
 30
0.0
 10
84.753191
 20
220.175392
 30
0.0
 10
84.659554
 20
220.124237
 30
0.0
 10
84.564855
 20
219.926869
 30
0.0
 10
84.526547
 20
219.562748
 30
0.0
 10
84.417548
 20
219.052760
 30
0.0
 10
84.348380
 20
218.594526
 30
0.0
 10
84.295932
 20
218.236267
 30
0.0
 10
84.264243
 20
217.996219
 30
0.0
 10
84.243123
 20
217.815184
 30
0.0
 10
84.230965
 20
217.689398
 30
0.0
 10
84.224872
 20
217.612246
 30
0.0
 10
84.221830
 20
217.555906
 30
0.0
 10
84.220957
 20
217.517645
 30
0.0
 10
84.221006
 20
217.494322
 30
0.0
 10
84.221838
 20
217.477188
 30
0.0
 10
84.222954
 20
217.465338
 30
0.0
 10
84.224017
 20
217.457768
 30
0.0
 10
84.225446
 20
217.450978
 30
0.0
 10
84.227113
 20
217.444751
 30
0.0
 10
84.229618
 20
217.438778
 30
0.0
 10
84.244669
 20
217.421329
 30
0.0
 10
84.272928
 20
217.397793
 30
0.0
 10
84.313373
 20
217.371152
 30
0.0
 10
84.354224
 20
217.357409
 30
0.0
 10
84.394760
 20
217.358513
 30
0.0
 10
84.432458
 20
217.374997
 30
0.0
 10
84.480596
 20
217.418451
 30
0.0
 10
84.529634
 20
217.509841
 30
0.0
 10
84.576511
 20
217.656675
 30
0.0
 10
84.611065
 20
217.826547
 30
0.0
 10
84.640477
 20
217.986001
 30
0.0
 10
84.668107
 20
218.104296
 30
0.0
 10
84.691327
 20
218.176102
 30
0.0
 10
84.712210
 20
218.212849
 30
0.0
 10
84.726476
 20
218.229151
 30
0.0
 10
84.742128
 20
218.238799
 30
0.0
 10
84.759700
 20
218.242562
 30
0.0
 10
84.779765
 20
218.241614
 30
0.0
 10
84.800401
 20
218.237264
 30
0.0
 10
84.820160
 20
218.231770
 30
0.0
 10
84.837283
 20
218.224460
 30
0.0
 10
84.852675
 20
218.213601
 30
0.0
 10
84.867268
 20
218.197776
 30
0.0
 10
84.881874
 20
218.175444
 30
0.0
 10
84.905173
 20
218.129120
 30
0.0
 10
84.936893
 20
218.042892
 30
0.0
 10
84.982478
 20
217.900345
 30
0.0
 10
85.026423
 20
217.751993
 30
0.0
 10
85.067572
 20
217.617215
 30
0.0
 10
85.099722
 20
217.519554
 30
0.0
 10
85.126002
 20
217.444597
 30
0.0
 10
85.145946
 20
217.391407
 30
0.0
 10
85.159243
 20
217.357657
 30
0.0
 10
85.171359
 20
217.328878
 30
0.0
 10
85.181950
 20
217.305358
 30
0.0
 10
85.191125
 20
217.286892
 30
0.0
 10
85.211803
 20
217.258095
 30
0.0
 10
85.258407
 20
217.229250
 30
0.0
 10
85.329551
 20
217.218774
 30
0.0
 10
85.400594
 20
217.231419
 30
0.0
 10
85.464357
 20
217.263326
 30
0.0
 10
85.513250
 20
217.313894
 30
0.0
 10
85.527635
 20
217.361635
 30
0.0
 10
85.526265
 20
217.388192
 30
0.0
 10
85.525121
 20
217.394958
 30
0.0
 10
85.523498
 20
217.402940
 30
0.0
 10
85.521420
 20
217.412445
 30
0.0
 10
85.518809
 20
217.423512
 30
0.0
 10
85.514389
 20
217.441254
 30
0.0
 10
85.507626
 20
217.466903
 30
0.0
 10
85.498094
 20
217.501533
 30
0.0
 10
85.482383
 20
217.556829
 30
0.0
 10
85.459300
 20
217.635130
 30
0.0
 10
85.428115
 20
217.737484
 30
0.0
 10
85.383243
 20
217.880242
 30
0.0
 10
85.333063
 20
218.034928
 30
0.0
 10
85.288515
 20
218.181906
 30
0.0
 10
85.271609
 20
218.272773
 30
0.0
 10
85.278687
 20
218.326042
 30
0.0
 10
85.291867
 20
218.358627
 30
0.0
 10
85.312985
 20
218.390585
 30
0.0
 10
85.341836
 20
218.425422
 30
0.0
 10
85.378866
 20
218.466042
 30
0.0
 10
85.462729
 20
218.557476
 30
0.0
 10
85.574536
 20
218.683563
 30
0.0
 10
85.693367
 20
218.832182
 30
0.0
 10
85.759940
 20
218.936773
 30
0.0
 10
85.785681
 20
219.007229
 30
0.0
 10
85.791387
 20
219.050499
 30
0.0
 10
85.784230
 20
219.089467
 30
0.0
 10
85.764157
 20
219.122542
 30
0.0
 10
85.733598
 20
219.149319
 30
0.0
 10
85.699168
 20
219.168618
 30
0.0
 10
85.665522
 20
219.183484
 30
0.0
 10
85.634702
 20
219.192783
 30
0.0
 10
85.603748
 20
219.196132
 30
0.0
 10
85.572333
 20
219.192259
 30
0.0
 10
85.540378
 20
219.180783
 30
0.0
 10
85.492399
 20
219.153027
 30
0.0
 10
85.425436
 20
219.094143
 30
0.0
 10
85.332660
 20
218.993811
 30
0.0
 10
85.229803
 20
218.871902
 30
0.0
 10
85.130848
 20
218.754105
 30
0.0
 10
85.050969
 20
218.664483
 30
0.0
 10
84.990560
 20
218.606522
 30
0.0
 10
84.939944
 20
218.572753
 30
0.0
 10
84.889478
 20
218.562131
 30
0.0
 10
84.849925
 20
218.565635
 30
0.0
 10
84.820292
 20
218.569032
 30
0.0
 10
84.803357
 20
218.573945
 30
0.0
 10
84.790457
 20
218.584664
 30
0.0
 10
84.782762
 20
218.603715
 30
0.0
 10
84.778654
 20
218.632387
 30
0.0
 10
84.778656
 20
218.698916
 30
0.0
 10
84.794691
 20
218.825076
 30
0.0
 10
84.829048
 20
219.037710
 30
0.0
 10
84.878732
 20
219.316824
 30
0.0
 10
84.929693
 20
219.602630
 30
0.0
 10
84.966745
 20
219.836594
 30
0.0
 10
84.981626
 20
219.978686
 30
0.0
 10
84.977054
 20
220.057670
 30
0.0
 10
84.967006
 20
220.097916
 30
0.0
 10
84.948187
 20
220.128105
 30
0.0
 10
84.921550
 20
220.147940
 30
0.0
 10
84.889896
 20
220.159979
 30
0.0
 10
84.867317
 20
220.165106
 30
0.0
 10
84.855433
 20
220.167805
 30
0.0
 11
84.855416
 21
220.167805
 31
0.0
 11
84.752603
 21
220.165117
 31
0.0
 11
84.667374
 21
220.117317
 31
0.0
 11
84.618502
 21
220.034211
 31
0.0
 11
84.523245
 21
219.598564
 31
0.0
 11
84.424479
 21
219.059171
 31
0.0
 11
84.333932
 21
218.494953
 31
0.0
 11
84.295425
 21
218.228225
 31
0.0
 11
84.263421
 21
217.984913
 31
0.0
 11
84.239401
 21
217.774835
 31
0.0
 11
84.230857
 21
217.685345
 31
0.0
 11
84.224876
 21
217.607818
 31
0.0
 11
84.221627
 21
217.543390
 31
0.0
 11
84.221049
 21
217.516432
 31
0.0
 11
84.221205
 21
217.493101
 31
0.0
 11
84.222227
 21
217.473468
 31
0.0
 11
84.223048
 21
217.465064
 31
0.0
 11
84.224140
 21
217.457546
 31
0.0
 11
84.225547
 21
217.450812
 31
0.0
 11
84.227269
 21
217.444733
 31
0.0
 11
84.229805
 21
217.439124
 31
0.0
 11
84.233947
 21
217.433820
 31
0.0
 11
84.275732
 21
217.396924
 31
0.0
 11
84.316131
 21
217.371961
 31
0.0
 11
84.355627
 21
217.359601
 31
0.0
 11
84.393961
 21
217.360923
 31
0.0
 11
84.429986
 21
217.376077
 31
0.0
 11
84.462853
 21
217.404328
 31
0.0
 11
84.520108
 21
217.498008
 31
0.0
 11
84.569315
 21
217.641923
 31
0.0
 11
84.612658
 21
217.837727
 31
0.0
 11
84.644826
 21
218.001194
 31
0.0
 11
84.673133
 21
218.117011
 31
0.0
 11
84.700353
 21
218.191047
 31
0.0
 11
84.714110
 21
218.214112
 31
0.0
 11
84.728042
 21
218.229226
 31
0.0
 11
84.742541
 21
218.237922
 31
0.0
 11
84.758825
 21
218.241698
 31
0.0
 11
84.778276
 21
218.241215
 31
0.0
 11
84.801525
 21
218.236750
 31
0.0
 11
84.820742
 21
218.231121
 31
0.0
 11
84.836989
 21
218.223905
 31
0.0
 11
84.851525
 21
218.213703
 31
0.0
 11
84.865646
 21
218.198796
 31
0.0
 11
84.880132
 21
218.177328
 31
0.0
 11
84.895470
 21
218.147687
 31
0.0
 11
84.930651
 21
218.058277
 31
0.0
 11
84.975803
 21
217.919802
 31
0.0
 11
85.035900
 21
217.721320
 31
0.0
 11
85.068625
 21
217.615184
 31
0.0
 11
85.101229
 21
217.516104
 31
0.0
 11
85.132189
 21
217.428351
 31
0.0
 11
85.146580
 21
217.390057
 31
0.0
 11
85.159992
 21
217.356168
 31
0.0
 11
85.172228
 21
217.327179
 31
0.0
 11
85.182878
 21
217.303745
 31
0.0
 11
85.192315
 21
217.285871
 31
0.0
 11
85.201525
 21
217.273078
 31
0.0
 11
85.259572
 21
217.234047
 31
0.0
 11
85.328982
 21
217.222631
 31
0.0
 11
85.399767
 21
217.234796
 31
0.0
 11
85.462916
 21
217.267199
 31
0.0
 11
85.508805
 21
217.317253
 31
0.0
 11
85.526525
 21
217.382062
 31
0.0
 11
85.526172
 21
217.387930
 31
0.0
 11
85.525168
 21
217.394484
 31
0.0
 11
85.523595
 21
217.402375
 31
0.0
 11
85.521510
 21
217.411916
 31
0.0
 11
85.518910
 21
217.422988
 31
0.0
 11
85.515785
 21
217.435578
 31
0.0
 11
85.508053
 21
217.465088
 31
0.0
 11
85.498497
 21
217.499896
 31
0.0
 11
85.487269
 21
217.539484
 31
0.0
 11
85.460428
 21
217.630829
 31
0.0
 11
85.428815
 21
217.734664
 31
0.0
 11
85.393715
 21
217.846515
 31
0.0
 11
85.326078
 21
218.059272
 31
0.0
 11
85.286358
 21
218.200605
 31
0.0
 11
85.275160
 21
218.292023
 31
0.0
 11
85.280177
 21
218.326080
 31
0.0
 11
85.292311
 21
218.356948
 31
0.0
 11
85.312074
 21
218.388117
 31
0.0
 11
85.339971
 21
218.422675
 31
0.0
 11
85.376212
 21
218.463094
 31
0.0
 11
85.420863
 21
218.511945
 31
0.0
 11
85.586900
 21
218.701200
 31
0.0
 11
85.701789
 21
218.849058
 31
0.0
 11
85.768519
 21
218.963117
 31
0.0
 11
85.784657
 21
219.010189
 31
0.0
 11
85.789241
 21
219.051981
 31
0.0
 11
85.781996
 21
219.088898
 31
0.0
 11
85.763232
 21
219.120585
 31
0.0
 11
85.734161
 21
219.147121
 31
0.0
 11
85.695863
 21
219.169562
 31
0.0
 11
85.664467
 21
219.183152
 31
0.0
 11
85.634071
 21
219.191930
 31
0.0
 11
85.603871
 21
219.194953
 31
0.0
 11
85.573376
 21
219.191285
 31
0.0
 11
85.542163
 21
219.180439
 31
0.0
 11
85.509535
 21
219.162140
 31
0.0
 11
85.436028
 21
219.101643
 31
0.0
 11
85.344260
 21
219.005098
 31
0.0
 11
85.225941
 21
218.867219
 31
0.0
 11
85.120076
 21
218.742731
 31
0.0
 11
85.041532
 21
218.656599
 31
0.0
 11
84.982582
 21
218.602765
 31
0.0
 11
84.935701
 21
218.574485
 31
0.0
 11
84.891621
 21
218.564686
 31
0.0
 11
84.840004
 21
218.566828
 31
0.0
 11
84.818635
 21
218.569922
 31
0.0
 11
84.803163
 21
218.575261
 31
0.0
 11
84.792347
 21
218.584406
 31
0.0
 11
84.784586
 21
218.600717
 31
0.0
 11
84.779806
 21
218.628109
 31
0.0
 11
84.779066
 21
218.668976
 31
0.0
 11
84.791906
 21
218.798700
 31
0.0
 11
84.824353
 21
219.005814
 31
0.0
 11
84.877113
 21
219.307648
 31
0.0
 11
84.934534
 21
219.637072
 31
0.0
 11
84.968649
 21
219.864426
 31
0.0
 11
84.979066
 21
220.010969
 31
0.0
 11
84.975103
 21
220.061009
 31
0.0
 11
84.964382
 21
220.099133
 31
0.0
 11
84.946254
 21
220.127180
 31
0.0
 11
84.921301
 21
220.146366
 31
0.0
 11
84.890865
 21
220.158834
 31
0.0
 11
84.855433
 21
220.167805
 31
0.0
  0
LWPOLYLINE
  5
101
100
AcDbEntity
  8
Calque_1
 62
7
100
AcDbPolyline
 90
1
 70
1
 10
84.855433
 20
220.167805
 30
0.0
  0
SPLINE
  5
102
100
AcDbEntity
  8
Calque_1
 62
7
100
AcDbSpline
 70
0
 71
3
 72
25
 73
21
 74
19
 40
0.000000
 40
0.000000
 40
0.000000
 40
0.000000
 40
0.035258
 40
0.070537
 40
0.105839
 40
0.445442
 40
0.789432
 40
1.143899
 40
2.121115
 40
3.046522
 40
4.020878
 40
4.620495
 40
5.167795
 40
5.690952
 40
6.206813
 40
6.735239
 40
7.313205
 40
7.845394
 40
8.365807
 40
8.889645
 40
8.889645
 40
8.889645
 40
8.889645
 10
82.527149
 20
219.532366
 30
0.0
 10
82.515397
 20
219.532200
 30
0.0
 10
82.491886
 20
219.531869
 30
0.0
 10
82.456633
 20
219.530361
 30
0.0
 10
82.320194
 20
219.521632
 30
0.0
 10
82.082386
 20
219.477325
 30
0.0
 10
81.762706
 20
219.336370
 30
0.0
 10
81.317045
 20
218.992731
 30
0.0
 10
80.966318
 20
218.247050
 30
0.0
 10
81.243901
 20
217.244468
 30
0.0
 10
82.005163
 20
216.749635
 30
0.0
 10
82.726018
 20
216.712194
 30
0.0
 10
83.268759
 20
216.884098
 30
0.0
 10
83.688708
 20
217.225041
 30
0.0
 10
83.954547
 20
217.689577
 30
0.0
 10
84.023170
 20
218.240248
 30
0.0
 10
83.868761
 20
218.780928
 30
0.0
 10
83.524319
 20
219.216726
 30
0.0
 10
83.052419
 20
219.485329
 30
0.0
 10
82.702621
 20
219.516653
 30
0.0
 10
82.527149
 20
219.532366
 30
0.0
 11
82.527149
 21
219.532366
 31
0.0
 11
82.491897
 21
219.531701
 31
0.0
 11
82.456649
 21
219.530237
 31
0.0
 11
82.421419
 21
219.527974
 31
0.0
 11
82.087690
 21
219.465085
 31
0.0
 11
81.773048
 21
219.326054
 31
0.0
 11
81.493103
 21
219.108619
 31
0.0
 11
81.084686
 21
218.220843
 31
0.0
 11
81.332984
 21
217.329369
 31
0.0
 11
82.140557
 21
216.784214
 31
0.0
 11
82.739145
 21
216.749071
 31
0.0
 11
83.259746
 21
216.917922
 31
0.0
 11
83.665581
 21
217.248061
 31
0.0
 11
83.919977
 21
217.696832
 31
0.0
 11
83.986615
 21
218.221039
 31
0.0
 11
83.829240
 21
218.777167
 31
0.0
 11
83.498125
 21
219.193805
 31
0.0
 11
83.044204
 21
219.448335
 31
0.0
 11
82.527149
 21
219.532366
 31
0.0
  0
LWPOLYLINE
  5
103
100
AcDbEntity
  8
Calque_1
 62
7
100
AcDbPolyline
 90
1
 70
1
 10
82.527149
 20
219.532366
 30
0.0
  0
SPLINE
  5
104
100
AcDbEntity
  8
Calque_1
 62
7
100
AcDbSpline
 70
0
 71
3
 72
22
 73
18
 74
16
 40
0.000000
 40
0.000000
 40
0.000000
 40
0.000000
 40
0.173370
 40
0.351976
 40
0.537707
 40
0.949302
 40
1.327226
 40
1.694770
 40
2.064896
 40
2.449477
 40
2.868794
 40
3.647249
 40
4.397400
 40
5.136204
 40
5.658313
 40
6.152231
 40
6.651008
 40
6.651008
 40
6.651008
 40
6.651008
 10
82.531180
 20
219.179313
 30
0.0
 10
82.589017
 20
219.176633
 30
0.0
 10
82.706439
 20
219.171192
 30
0.0
 10
82.881584
 20
219.128157
 30
0.0
 10
83.122125
 20
219.032051
 30
0.0
 10
83.391690
 20
218.834755
 30
0.0
 10
83.594900
 20
218.495541
 30
0.0
 10
83.655676
 20
218.120158
 30
0.0
 10
83.578546
 20
217.745410
 30
0.0
 10
83.360905
 20
217.409841
 30
0.0
 10
82.925350
 20
217.090305
 30
0.0
 10
82.220043
 20
217.042801
 30
0.0
 10
81.543911
 20
217.498961
 30
0.0
 10
81.367900
 20
218.222102
 30
0.0
 10
81.624664
 20
218.772313
 30
0.0
 10
82.028954
 20
219.114713
 30
0.0
 10
82.363226
 20
219.157709
 30
0.0
 10
82.531180
 20
219.179313
 30
0.0
 11
82.531180
 21
219.179313
 31
0.0
 11
82.704019
 21
219.165758
 31
0.0
 11
82.877887
 21
219.124890
 31
0.0
 11
83.050166
 21
219.055496
 31
0.0
 11
83.379372
 21
218.808446
 31
0.0
 11
83.573512
 21
218.484199
 31
0.0
 11
83.632973
 21
218.121496
 31
0.0
 11
83.558365
 21
217.758968
 31
0.0
 11
83.350808
 21
217.435204
 31
0.0
 11
83.011460
 21
217.188892
 31
0.0
 11
82.235121
 21
217.131534
 31
0.0
 11
81.620148
 21
217.561109
 31
0.0
 11
81.450160
 21
218.280091
 31
0.0
 11
81.661139
 21
218.757674
 31
0.0
 11
82.044820
 21
219.068710
 31
0.0
 11
82.531180
 21
219.179313
 31
0.0
  0
LWPOLYLINE
  5
105
100
AcDbEntity
  8
Calque_1
 62
7
100
AcDbPolyline
 90
1
 70
1
 10
82.531180
 20
219.179313
 30
0.0
  0
SPLINE
  5
106
100
AcDbEntity
  8
Calque_1
 62
7
100
AcDbSpline
 70
0
 71
3
 72
115
 73
111
 74
109
 40
0.000000
 40
0.000000
 40
0.000000
 40
0.000000
 40
0.035506
 40
0.073052
 40
0.111086
 40
0.147648
 40
0.180867
 40
0.211007
 40
0.211302
 40
0.212748
 40
0.215126
 40
0.218020
 40
0.221560
 40
0.225782
 40
0.236162
 40
0.248936
 40
0.263996
 40
0.300575
 40
0.345144
 40
0.396953
 40
0.519320
 40
0.661745
 40
0.818282
 40
1.691502
 40
2.273078
 40
2.621882
 40
2.727840
 40
2.799448
 40
2.847250
 40
2.866403
 40
2.884172
 40
2.901378
 40
2.918548
 40
2.936296
 40
2.954922
 40
2.967209
 40
2.979750
 40
2.993748
 40
3.009363
 40
3.025977
 40
3.043066
 40
3.059826
 40
3.075898
 40
3.090777
 40
3.097665
 40
3.104142
 40
3.110123
 40
3.115598
 40
3.120973
 40
3.126958
 40
3.127512
 40
3.131127
 40
3.136625
 40
3.143411
 40
3.151653
 40
3.161322
 40
3.184674
 40
3.212873
 40
3.245379
 40
3.321308
 40
3.408605
 40
3.503416
 40
3.699949
 40
3.879426
 40
4.010367
 40
4.050491
 40
4.083072
 40
4.108050
 40
4.117701
 40
4.125465
 40
4.131426
 40
4.135871
 40
4.139670
 40
4.143888
 40
4.156854
 40
4.177835
 40
4.207607
 40
4.246563
 40
4.294945
 40
4.353124
 40
4.830586
 40
5.304251
 40
5.805013
 40
6.328174
 40
6.789704
 40
7.246856
 40
7.707539
 40
8.177384
 40
8.706607
 40
8.766984
 40
8.816731
 40
8.856514
 40
8.887085
 40
8.908842
 40
8.922001
 40
8.925375
 40
8.927110
 40
8.928178
 40
8.929749
 40
8.932683
 40
8.937286
 40
8.951450
 40
8.971517
 40
8.996951
 40
9.056180
 40
9.103630
 40
9.142062
 40
9.175160
 40
9.207439
 40
9.242741
 40
9.242741
 40
9.242741
 40
9.242741
 10
77.799737
 20
219.520171
 30
0.0
 10
77.787893
 20
219.519057
 30
0.0
 10
77.763526
 20
219.516764
 30
0.0
 10
77.729032
 20
219.501757
 30
0.0
 10
77.697076
 20
219.483493
 30
0.0
 10
77.669436
 20
219.455991
 30
0.0
 10
77.647842
 20
219.444328
 30
0.0
 10
77.642542
 20
219.390085
 30
0.0
 10
77.641875
 20
219.402795
 30
0.0
 10
77.641787
 20
219.399917
 30
0.0
 10
77.641551
 20
219.398541
 30
0.0
 10
77.641125
 20
219.395307
 30
0.0
 10
77.640609
 20
219.391909
 30
0.0
 10
77.639696
 20
219.385878
 30
0.0
 10
77.638282
 20
219.376896
 30
0.0
 10
77.636242
 20
219.364309
 30
0.0
 10
77.632742
 20
219.343131
 30
0.0
 10
77.627414
 20
219.311504
 30
0.0
 10
77.619935
 20
219.267822
 30
0.0
 10
77.607471
 20
219.195979
 30
0.0
 10
77.589178
 20
219.092044
 30
0.0
 10
77.564575
 20
218.953772
 30
0.0
 10
77.495279
 20
218.569239
 30
0.0
 10
77.399105
 20
218.040803
 30
0.0
 10
77.295148
 20
217.448665
 30
0.0
 10
77.241219
 20
217.107397
 30
0.0
 10
77.225471
 20
216.932387
 30
0.0
 10
77.225503
 20
216.857335
 30
0.0
 10
77.235981
 20
216.811054
 30
0.0
 10
77.252832
 20
216.787857
 30
0.0
 10
77.267664
 20
216.777094
 30
0.0
 10
77.284175
 20
216.771118
 30
0.0
 10
77.301463
 20
216.768737
 30
0.0
 10
77.319319
 20
216.768419
 30
0.0
 10
77.335512
 20
216.767895
 30
0.0
 10
77.350066
 20
216.769648
 30
0.0
 10
77.361824
 20
216.775406
 30
0.0
 10
77.373713
 20
216.782850
 30
0.0
 10
77.386350
 20
216.791704
 30
0.0
 10
77.399046
 20
216.802168
 30
0.0
 10
77.411330
 20
216.813675
 30
0.0
 10
77.422756
 20
216.825785
 30
0.0
 10
77.433059
 20
216.837910
 30
0.0
 10
77.440664
 20
216.847982
 30
0.0
 10
77.445967
 20
216.855764
 30
0.0
 10
77.449406
 20
216.861219
 30
0.0
 10
77.452295
 20
216.866464
 30
0.0
 10
77.454679
 20
216.871524
 30
0.0
 10
77.456747
 20
216.876829
 30
0.0
 10
77.456418
 20
216.880927
 30
0.0
 10
77.457432
 20
216.884164
 30
0.0
 10
77.457560
 20
216.887419
 30
0.0
 10
77.458453
 20
216.892635
 30
0.0
 10
77.459443
 20
216.899408
 30
0.0
 10
77.460744
 20
216.907536
 30
0.0
 10
77.462970
 20
216.921110
 30
0.0
 10
77.466378
 20
216.941230
 30
0.0
 10
77.471113
 20
216.968846
 30
0.0
 10
77.478990
 20
217.013704
 30
0.0
 10
77.490526
 20
217.077921
 30
0.0
 10
77.505916
 20
217.162545
 30
0.0
 10
77.528696
 20
217.286686
 30
0.0
 10
77.557305
 20
217.440996
 30
0.0
 10
77.588785
 20
217.607025
 30
0.0
 10
77.610844
 20
217.721765
 30
0.0
 10
77.624780
 20
217.788216
 30
0.0
 10
77.632672
 20
217.819802
 30
0.0
 10
77.639597
 20
217.841181
 30
0.0
 10
77.645704
 20
217.853946
 30
0.0
 10
77.649820
 20
217.860592
 30
0.0
 10
77.653781
 20
217.865204
 30
0.0
 10
77.657523
 20
217.868190
 30
0.0
 10
77.661478
 20
217.869670
 30
0.0
 10
77.668540
 20
217.870077
 30
0.0
 10
77.680946
 20
217.866144
 30
0.0
 10
77.699505
 20
217.855827
 30
0.0
 10
77.723732
 20
217.838152
 30
0.0
 10
77.753366
 20
217.812744
 30
0.0
 10
77.789320
 20
217.780153
 30
0.0
 10
77.928727
 20
217.644491
 30
0.0
 10
78.232328
 20
217.467070
 30
0.0
 10
78.735076
 20
217.456106
 30
0.0
 10
79.202103
 20
217.669586
 30
0.0
 10
79.538309
 20
218.066510
 30
0.0
 10
79.600264
 20
218.567057
 30
0.0
 10
79.432090
 20
219.010901
 30
0.0
 10
79.096515
 20
219.349383
 30
0.0
 10
78.614282
 20
219.511587
 30
0.0
 10
78.253033
 20
219.421349
 30
0.0
 10
78.063320
 20
219.324889
 30
0.0
 10
78.018415
 20
219.302921
 30
0.0
 10
77.982316
 20
219.285644
 30
0.0
 10
77.954086
 20
219.273454
 30
0.0
 10
77.933541
 20
219.266212
 30
0.0
 10
77.920981
 20
219.263190
 30
0.0
 10
77.914886
 20
219.263264
 30
0.0
 10
77.912835
 20
219.263795
 30
0.0
 10
77.911719
 20
219.264772
 30
0.0
 10
77.910629
 20
219.266289
 30
0.0
 10
77.909446
 20
219.269111
 30
0.0
 10
77.907658
 20
219.276135
 30
0.0
 10
77.906809
 20
219.289123
 30
0.0
 10
77.906519
 20
219.308984
 30
0.0
 10
77.906743
 20
219.343902
 30
0.0
 10
77.905824
 20
219.387977
 30
0.0
 10
77.899530
 20
219.436044
 30
0.0
 10
77.887107
 20
219.474220
 30
0.0
 10
77.865102
 20
219.502089
 30
0.0
 10
77.834215
 20
219.517895
 30
0.0
 10
77.811566
 20
219.519389
 30
0.0
 10
77.799735
 20
219.520170
 30
0.0
 11
77.799737
 21
219.520171
 31
0.0
 11
77.764604
 21
219.515038
 31
0.0
 11
77.729660
 21
219.501305
 31
0.0
 11
77.697211
 21
219.481465
 31
0.0
 11
77.669350
 21
219.457789
 31
0.0
 11
77.649490
 21
219.431160
 31
0.0
 11
77.641917
 21
219.401987
 31
0.0
 11
77.641899
 21
219.402281
 31
0.0
 11
77.641799
 21
219.400838
 31
0.0
 11
77.641555
 21
219.398473
 31
0.0
 11
77.641157
 21
219.395607
 31
0.0
 11
77.640639
 21
219.392104
 31
0.0
 11
77.640005
 21
219.387931
 31
0.0
 11
77.638398
 21
219.377675
 31
0.0
 11
77.636358
 21
219.365066
 31
0.0
 11
77.633907
 21
219.350207
 31
0.0
 11
77.627842
 21
219.314133
 31
0.0
 11
77.620327
 21
219.270202
 31
0.0
 11
77.611479
 21
219.219155
 31
0.0
 11
77.590302
 21
219.098634
 31
0.0
 11
77.565350
 21
218.958412
 31
0.0
 11
77.537634
 21
218.804349
 31
0.0
 11
77.382771
 21
217.944970
 31
0.0
 11
77.283768
 21
217.371883
 31
0.0
 11
77.234500
 21
217.026576
 31
0.0
 11
77.226344
 21
216.920932
 31
0.0
 11
77.228748
 21
216.849365
 31
0.0
 11
77.242355
 21
216.803540
 31
0.0
 11
77.253853
 21
216.788223
 31
0.0
 11
77.268203
 21
216.777743
 31
0.0
 11
77.284316
 21
216.771708
 31
0.0
 11
77.301286
 21
216.769099
 31
0.0
 11
77.319020
 21
216.768382
 31
0.0
 11
77.337646
 21
216.768401
 31
0.0
 11
77.349786
 21
216.770294
 31
0.0
 11
77.361259
 21
216.775357
 31
0.0
 11
77.373199
 21
216.782663
 31
0.0
 11
77.385956
 21
216.791669
 31
0.0
 11
77.398809
 21
216.802197
 31
0.0
 11
77.411285
 21
216.813876
 31
0.0
 11
77.422803
 21
216.826050
 31
0.0
 11
77.433192
 21
216.838314
 31
0.0
 11
77.442136
 21
216.850204
 31
0.0
 11
77.446008
 21
216.855900
 31
0.0
 11
77.449438
 21
216.861395
 31
0.0
 11
77.452316
 21
216.866637
 31
0.0
 11
77.454641
 21
216.871594
 31
0.0
 11
77.456290
 21
216.876710
 31
0.0
 11
77.456967
 21
216.882657
 31
0.0
 11
77.457120
 21
216.883189
 31
0.0
 11
77.457596
 21
216.886772
 31
0.0
 11
77.458361
 21
216.892217
 31
0.0
 11
77.459386
 21
216.898925
 31
0.0
 11
77.460673
 21
216.907066
 31
0.0
 11
77.462237
 21
216.916608
 31
0.0
 11
77.466115
 21
216.939636
 31
0.0
 11
77.470888
 21
216.967428
 31
0.0
 11
77.476499
 21
216.999446
 31
0.0
 11
77.489881
 21
217.074186
 31
0.0
 11
77.505489
 21
217.160077
 31
0.0
 11
77.522595
 21
217.253332
 31
0.0
 11
77.558478
 21
217.446561
 31
0.0
 11
77.591885
 21
217.622902
 31
0.0
 11
77.617111
 21
217.751390
 31
0.0
 11
77.625570
 21
217.790612
 31
0.0
 11
77.633697
 21
217.822164
 31
0.0
 11
77.641916
 21
217.845751
 31
0.0
 11
77.646147
 21
217.854424
 31
0.0
 11
77.650322
 21
217.860971
 31
0.0
 11
77.654266
 21
217.865439
 31
0.0
 11
77.657823
 21
217.868107
 31
0.0
 11
77.661379
 21
217.869441
 31
0.0
 11
77.665583
 21
217.869780
 31
0.0
 11
77.678173
 21
217.866678
 31
0.0
 11
77.696760
 21
217.856946
 31
0.0
 11
77.721032
 21
217.839705
 31
0.0
 11
77.750877
 21
217.814667
 31
0.0
 11
77.786715
 21
217.782164
 31
0.0
 11
77.829036
 21
217.742243
 31
0.0
 11
78.244368
 21
217.506726
 31
0.0
 11
78.717768
 21
217.490871
 31
0.0
 11
79.174173
 21
217.696923
 31
0.0
 11
79.501292
 21
218.105200
 31
0.0
 11
79.562220
 21
218.562691
 31
0.0
 11
79.405219
 21
218.992037
 31
0.0
 11
79.078540
 21
219.316860
 31
0.0
 11
78.631550
 21
219.461616
 31
0.0
 11
78.114187
 21
219.350207
 31
0.0
 11
78.060073
 21
219.323428
 31
0.0
 11
78.015402
 21
219.301535
 31
0.0
 11
77.979414
 21
219.284578
 31
0.0
 11
77.951255
 21
219.272676
 31
0.0
 11
77.930650
 21
219.265691
 31
0.0
 11
77.917713
 21
219.263287
 31
0.0
 11
77.914342
 21
219.263453
 31
0.0
 11
77.912696
 21
219.264000
 31
0.0
 11
77.911873
 21
219.264681
 31
0.0
 11
77.910932
 21
219.265938
 31
0.0
 11
77.909717
 21
219.268610
 31
0.0
 11
77.908514
 21
219.273053
 31
0.0
 11
77.907038
 21
219.287139
 31
0.0
 11
77.906607
 21
219.307202
 31
0.0
 11
77.906601
 21
219.332636
 31
0.0
 11
77.904545
 21
219.391829
 31
0.0
 11
77.897539
 21
219.438759
 31
0.0
 11
77.884329
 21
219.474849
 31
0.0
 11
77.863340
 21
219.500441
 31
0.0
 11
77.834705
 21
219.515341
 31
0.0
 11
77.799735
 21
219.520170
 31
0.0
  0
LWPOLYLINE
  5
107
100
AcDbEntity
  8
Calque_1
 62
7
100
AcDbPolyline
 90
1
 70
1
 10
77.799735
 20
219.520170
 30
0.0
  0
SPLINE
  5
108
100
AcDbEntity
  8
Calque_1
 62
7
100
AcDbSpline
 70
0
 71
3
 72
25
 73
21
 74
19
 40
0.000000
 40
0.000000
 40
0.000000
 40
0.000000
 40
0.333702
 40
0.632725
 40
0.924952
 40
1.217802
 40
1.518435
 40
1.853677
 40
1.927741
 40
2.022448
 40
2.127174
 40
2.231323
 40
2.324225
 40
2.395181
 40
2.752048
 40
3.069082
 40
3.380489
 40
3.692049
 40
4.009448
 40
4.366611
 40
4.366611
 40
4.366611
 40
4.366611
 10
78.540002
 20
219.159624
 30
0.0
 10
78.652755
 20
219.146185
 30
0.0
 10
78.866544
 20
219.120705
 30
0.0
 10
79.111840
 20
218.908117
 30
0.0
 10
79.238781
 20
218.634995
 30
0.0
 10
79.249468
 20
218.330476
 30
0.0
 10
79.122959
 20
218.038259
 30
0.0
 10
78.935270
 20
217.874421
 30
0.0
 10
78.777480
 20
217.815358
 30
0.0
 10
78.687912
 20
217.797038
 30
0.0
 10
78.587557
 20
217.783524
 30
0.0
 10
78.487039
 20
217.778602
 30
0.0
 10
78.397423
 20
217.780227
 30
0.0
 10
78.226337
 20
217.812453
 30
0.0
 10
78.004507
 20
217.955864
 30
0.0
 10
77.838237
 20
218.251563
 30
0.0
 10
77.824401
 20
218.575440
 30
0.0
 10
77.938766
 20
218.874991
 30
0.0
 10
78.190421
 20
219.115871
 30
0.0
 10
78.418984
 20
219.144477
 30
0.0
 10
78.540002
 20
219.159624
 30
0.0
 11
78.540002
 21
219.159624
 31
0.0
 11
78.865468
 21
219.085946
 31
0.0
 11
79.095250
 21
218.894595
 31
0.0
 11
79.219496
 21
218.630096
 31
0.0
 11
79.227946
 21
218.337367
 31
0.0
 11
79.109458
 21
218.061069
 31
0.0
 11
78.852851
 21
217.845337
 31
0.0
 11
78.783474
 21
217.819409
 31
0.0
 11
78.691054
 21
217.798720
 31
0.0
 11
78.587234
 21
217.784979
 31
0.0
 11
78.483221
 21
217.779650
 31
0.0
 11
78.390391
 21
217.783301
 31
0.0
 11
78.320636
 21
217.796296
 31
0.0
 11
78.017035
 21
217.983862
 31
0.0
 11
77.861923
 21
218.260360
 31
0.0
 11
77.845626
 21
218.571340
 31
0.0
 11
77.958671
 21
218.861667
 31
0.0
 11
78.192764
 21
219.076011
 31
0.0
 11
78.540002
 21
219.159624
 31
0.0
  0
LWPOLYLINE
  5
109
100
AcDbEntity
  8
Calque_1
 62
7
100
AcDbPolyline
 90
1
 70
1
 10
78.540002
 20
219.159624
 30
0.0
  0
SPLINE
  5
10a
100
AcDbEntity
  8
Calque_1
 62
7
100
AcDbSpline
 70
0
 71
3
 72
25
 73
21
 74
19
 40
0.000000
 40
0.000000
 40
0.000000
 40
0.000000
 40
0.073927
 40
0.147494
 40
0.225846
 40
0.603065
 40
0.996696
 40
1.371392
 40
1.540548
 40
1.691727
 40
1.820672
 40
1.875532
 40
1.923362
 40
1.963711
 40
1.980963
 40
1.996302
 40
2.009831
 40
2.021696
 40
2.032337
 40
2.042666
 40
2.042666
 40
2.042666
 40
2.042666
 10
80.178462
 20
219.183429
 30
0.0
 10
80.153820
 20
219.180246
 30
0.0
 10
80.104655
 20
219.173895
 30
0.0
 10
80.039357
 20
219.128051
 30
0.0
 10
79.970796
 20
218.961374
 30
0.0
 10
79.934368
 20
218.680504
 30
0.0
 10
79.858100
 20
218.306155
 30
0.0
 10
79.813461
 20
217.996755
 30
0.0
 10
79.784528
 20
217.766890
 30
0.0
 10
79.769094
 20
217.617914
 30
0.0
 10
79.760578
 20
217.506552
 30
0.0
 10
79.757295
 20
217.429401
 30
0.0
 10
79.756680
 20
217.381719
 30
0.0
 10
79.757651
 20
217.346569
 30
0.0
 10
79.759564
 20
217.322325
 30
0.0
 10
79.761445
 20
217.307063
 30
0.0
 10
79.763946
 20
217.293698
 30
0.0
 10
79.766937
 20
217.282084
 30
0.0
 10
79.770914
 20
217.271734
 30
0.0
 10
79.775448
 20
217.266353
 30
0.0
 10
79.777681
 20
217.263702
 30
0.0
 11
80.178462
 21
219.183429
 31
0.0
 11
80.106173
 21
219.167953
 31
0.0
 11
80.046425
 21
219.125032
 31
0.0
 11
80.010689
 21
219.055304
 31
0.0
 11
79.930701
 21
218.686663
 31
0.0
 11
79.860663
 21
218.299312
 31
0.0
 11
79.805220
 21
217.928741
 31
0.0
 11
79.784429
 21
217.760868
 31
0.0
 11
79.769059
 21
217.610472
 31
0.0
 11
79.759712
 21
217.481866
 31
0.0
 11
79.757485
 21
217.427052
 31
0.0
 11
79.756998
 21
217.379224
 31
0.0
 11
79.758345
 21
217.338897
 31
0.0
 11
79.759747
 21
217.321702
 31
0.0
 11
79.761687
 21
217.306487
 31
0.0
 11
79.764204
 21
217.293194
 31
0.0
 11
79.767277
 21
217.281734
 31
0.0
 11
79.771465
 21
217.271952
 31
0.0
 11
79.777681
 21
217.263702
 31
0.0
  0
LWPOLYLINE
  5
10b
100
AcDbEntity
  8
Calque_1
 62
7
100
AcDbPolyline
 90
3
 70
0
 10
79.777681
 20
217.263702
 30
0.0
 10
79.800142
 20
217.241045
 30
0.0
 10
79.800142
 20
217.256475
 30
0.0
  0
SPLINE
  5
10c
100
AcDbEntity
  8
Calque_1
 62
7
100
AcDbSpline
 70
0
 71
3
 72
49
 73
45
 74
43
 40
0.000000
 40
0.000000
 40
0.000000
 40
0.000000
 40
0.038608
 40
0.079057
 40
0.121535
 40
0.173045
 40
0.220306
 40
0.262220
 40
0.270014
 40
0.277982
 40
0.287526
 40
0.299277
 40
0.313040
 40
0.328802
 40
0.366098
 40
0.410519
 40
0.461401
 40
0.579788
 40
0.715579
 40
0.863047
 40
1.210027
 40
1.465830
 40
1.651998
 40
1.728951
 40
1.802257
 40
1.877885
 40
1.960921
 40
2.054934
 40
2.162407
 40
2.239861
 40
2.304447
 40
2.359201
 40
2.408567
 40
2.458075
 40
2.512790
 40
2.561231
 40
2.608731
 40
2.658080
 40
2.710871
 40
2.768061
 40
2.829763
 40
2.964819
 40
3.111162
 40
3.263526
 40
3.263526
 40
3.263526
 40
3.263526
 10
79.800142
 20
217.256475
 30
0.0
 10
79.811207
 20
217.249857
 30
0.0
 10
79.833866
 20
217.236303
 30
0.0
 10
79.872618
 20
217.223247
 30
0.0
 10
79.917369
 20
217.218047
 30
0.0
 10
79.964655
 20
217.221155
 30
0.0
 10
80.010317
 20
217.232670
 30
0.0
 10
80.038715
 20
217.251026
 30
0.0
 10
80.049659
 20
217.266991
 30
0.0
 10
80.052713
 20
217.274897
 30
0.0
 10
80.055847
 20
217.284121
 30
0.0
 10
80.059600
 20
217.295194
 30
0.0
 10
80.063598
 20
217.308359
 30
0.0
 10
80.069729
 20
217.329773
 30
0.0
 10
80.077975
 20
217.361206
 30
0.0
 10
80.088526
 20
217.404129
 30
0.0
 10
80.104749
 20
217.473488
 30
0.0
 10
80.126543
 20
217.572814
 30
0.0
 10
80.153657
 20
217.703931
 30
0.0
 10
80.192950
 20
217.910282
 30
0.0
 10
80.241416
 20
218.155832
 30
0.0
 10
80.312846
 20
218.409044
 30
0.0
 10
80.390068
 20
218.566775
 30
0.0
 10
80.466753
 20
218.649730
 30
0.0
 10
80.529188
 20
218.692889
 30
0.0
 10
80.601068
 20
218.722682
 30
0.0
 10
80.683486
 20
218.741304
 30
0.0
 10
80.777997
 20
218.751260
 30
0.0
 10
80.870969
 20
218.752078
 30
0.0
 10
80.954240
 20
218.754422
 30
0.0
 10
81.018993
 20
218.767067
 30
0.0
 10
81.071125
 20
218.790012
 30
0.0
 10
81.109262
 20
218.826062
 30
0.0
 10
81.130593
 20
218.873756
 30
0.0
 10
81.136909
 20
218.924873
 30
0.0
 10
81.129373
 20
218.975371
 30
0.0
 10
81.105563
 20
219.018590
 30
0.0
 10
81.069779
 20
219.054081
 30
0.0
 10
81.024164
 20
219.082002
 30
0.0
 10
80.970644
 20
219.102899
 30
0.0
 10
80.887974
 20
219.122222
 30
0.0
 10
80.772933
 20
219.127401
 30
0.0
 10
80.628261
 20
219.107153
 30
0.0
 10
80.536434
 20
219.067644
 30
0.0
 10
80.489595
 20
219.047491
 30
0.0
 11
79.800142
 21
217.256475
 31
0.0
 11
79.833946
 21
217.237826
 31
0.0
 11
79.872248
 21
217.224821
 31
0.0
 11
79.914399
 21
217.219561
 31
0.0
 11
79.965803
 21
217.222856
 31
0.0
 11
80.011258
 21
217.235799
 31
0.0
 11
80.045063
 21
217.260577
 31
0.0
 11
80.049360
 21
217.267080
 31
0.0
 11
80.052474
 21
217.274414
 31
0.0
 11
80.055610
 21
217.283428
 31
0.0
 11
80.059329
 21
217.294575
 31
0.0
 11
80.063372
 21
217.307731
 31
0.0
 11
80.067720
 21
217.322881
 31
0.0
 11
80.077287
 21
217.358930
 31
0.0
 11
80.087936
 21
217.402056
 31
0.0
 11
80.099556
 21
217.451592
 31
0.0
 11
80.125083
 21
217.567195
 31
0.0
 11
80.152533
 21
217.700182
 31
0.0
 11
80.180610
 21
217.844952
 31
0.0
 11
80.252487
 21
218.184407
 31
0.0
 11
80.327779
 21
218.428878
 31
0.0
 11
80.416743
 21
218.592413
 31
0.0
 11
80.469494
 21
218.648442
 31
0.0
 11
80.529753
 21
218.690185
 31
0.0
 11
80.599360
 21
218.719757
 31
0.0
 11
80.680139
 21
218.738988
 31
0.0
 11
80.773575
 21
218.749383
 31
0.0
 11
80.881001
 21
218.752570
 31
0.0
 11
80.958336
 21
218.756860
 31
0.0
 11
81.021528
 21
218.770207
 31
0.0
 11
81.071040
 21
218.793585
 31
0.0
 11
81.106531
 21
218.827899
 31
0.0
 11
81.127577
 21
218.872711
 31
0.0
 11
81.134517
 21
218.926984
 31
0.0
 11
81.126541
 21
218.974764
 31
0.0
 11
81.104113
 21
219.016635
 31
0.0
 11
81.069478
 21
219.051788
 31
0.0
 11
81.024779
 21
219.079875
 31
0.0
 11
80.971671
 21
219.101094
 31
0.0
 11
80.911665
 21
219.115460
 31
0.0
 11
80.776832
 21
219.123226
 31
0.0
 11
80.632141
 21
219.101297
 31
0.0
 11
80.489595
 21
219.047491
 31
0.0
  0
LWPOLYLINE
  5
10d
100
AcDbEntity
  8
Calque_1
 62
7
100
AcDbPolyline
 90
3
 70
0
 10
80.489595
 20
219.047491
 30
0.0
 10
80.392915
 20
218.997882
 30
0.0
 10
80.365376
 20
219.064093
 30
0.0
  0
SPLINE
  5
10e
100
AcDbEntity
  8
Calque_1
 62
7
100
AcDbSpline
 70
0
 71
3
 72
10
 73
6
 74
4
 40
0.000000
 40
0.000000
 40
0.000000
 40
0.000000
 40
0.082018
 40
0.158998
 40
0.234200
 40
0.234200
 40
0.234200
 40
0.234200
 10
80.365376
 20
219.064093
 30
0.0
 10
80.351676
 20
219.088162
 30
0.0
 10
80.325117
 20
219.134822
 30
0.0
 10
80.254472
 20
219.176708
 30
0.0
 10
80.203600
 20
219.181206
 30
0.0
 10
80.178462
 20
219.183429
 30
0.0
 11
80.365376
 21
219.064093
 31
0.0
 11
80.318581
 21
219.131451
 31
0.0
 11
80.252665
 21
219.171213
 31
0.0
 11
80.178462
 21
219.183429
 31
0.0
  0
LWPOLYLINE
  5
10f
100
AcDbEntity
  8
Calque_1
 62
7
100
AcDbPolyline
 90
1
 70
1
 10
80.178462
 20
219.183429
 30
0.0
  0
ENDSEC
  0
SECTION
  2
OBJECTS
  0
DICTIONARY
  5
C
330
0
100
AcDbDictionary
  3
ACAD_GROUP
350
D
  3
ACAD_MLINESTYLE
350
17
  0
DICTIONARY
  5
D
330
C
100
AcDbDictionary
  0
DICTIONARY
  5
1A
330
C
100
AcDbDictionary
  0
DICTIONARY
  5
17
330
C
100
AcDbDictionary
  3
STANDARD
350
18
  0
DICTIONARY
  5
19
330
C
100
AcDbDictionary
  0
ENDSEC
  0
EOF
