  0
SECTION
  2
HEADER
  9
$ACADVER
  1
AC1014
  9
$HANDSEED
  5
FFFF
  9
$MEASUREMENT
 70
     1
  0
ENDSEC
  0
SECTION
  2
TABLES
  0
TABLE
  2
VPORT
  5
8
330
0
100
AcDbSymbolTable
 70
     4
  0
VPORT
  5
2E
330
8
100
AcDbSymbolTableRecord
100
AcDbViewportTableRecord
  2
*ACTIVE
 70
     0
 10
0.0
 20
0.0
 11
1.0
 21
1.0
 12
210.0
 22
148.5
 13
0.0
 23
0.0
 14
10.0
 24
10.0
 15
10.0
 25
10.0
 16
0.0
 26
0.0
 36
1.0
 17
0.0
 27
0.0
 37
0.0
 40
341.0
 41
1.24
 42
50.0
 43
0.0
 44
0.0
 50
0.0
 51
0.0
 71
     0
 72
   100
 73
     1
 74
     3
 75
     0
 76
     0
 77
     0
 78
     0
  0
ENDTAB
  0
TABLE
  2
LTYPE
  5
5
330
0
100
AcDbSymbolTable
 70
     1
  0
LTYPE
  5
14
330
5
100
AcDbSymbolTableRecord
100
AcDbLinetypeTableRecord
  2
BYBLOCK
 70
     0
  3

 72
    65
 73
     0
 40
0.0
  0
LTYPE
  5
15
330
5
100
AcDbSymbolTableRecord
100
AcDbLinetypeTableRecord
  2
BYLAYER
 70
     0
  3

 72
    65
 73
     0
 40
0.0
  0
LTYPE
  5
16
330
5
100
AcDbSymbolTableRecord
100
AcDbLinetypeTableRecord
  2
CONTINUOUS
 70
     0
  3
Solid line
 72
    65
 73
     0
 40
0.0
  0
ENDTAB
  0
TABLE
  2
LAYER
  5
2
100
AcDbSymbolTable
 70
2
  0
LAYER
  5
50
100
AcDbSymbolTableRecord
100
AcDbLayerTableRecord
  2
0
 70
0
  6
CONTINUOUS
  0
LAYER
  5
51
100
AcDbSymbolTableRecord
100
AcDbLayerTableRecord
  2
Calque_1
 70
0
  6
CONTINUOUS
  0
ENDTAB
  0
TABLE
  2
STYLE
  5
3
330
0
100
AcDbSymbolTable
 70
     1
  0
STYLE
  5
11
330
3
100
AcDbSymbolTableRecord
100
AcDbTextStyleTableRecord
  2
STANDARD
 70
     0
 40
0.0
 41
1.0
 50
0.0
 71
     0
 42
2.5
  3
txt
  4

  0
ENDTAB
  0
TABLE
  2
VIEW
  5
6
330
0
100
AcDbSymbolTable
 70
     0
  0
ENDTAB
  0
TABLE
  2
UCS
  5
7
330
0
100
AcDbSymbolTable
 70
     0
  0
ENDTAB
  0
TABLE
  2
APPID
  5
9
330
0
100
AcDbSymbolTable
 70
     2
  0
APPID
  5
12
330
9
100
AcDbSymbolTableRecord
100
AcDbRegAppTableRecord
  2
ACAD
 70
     0
  0
ENDTAB
  0
TABLE
  2
DIMSTYLE
  5
A
330
0
100
AcDbSymbolTable
 70
     1
  0
DIMSTYLE
105
27
330
A
100
AcDbSymbolTableRecord
100
AcDbDimStyleTableRecord
  2
ISO-25
 70
     0
  3

  4

  5

  6

  7

 40
1.0
 41
2.5
 42
0.625
 43
3.75
 44
1.25
 45
0.0
 46
0.0
 47
0.0
 48
0.0
140
2.5
141
2.5
142
0.0
143
0.03937007874016
144
1.0
145
0.0
146
1.0
147
0.625
 71
     0
 72
     0
 73
     0
 74
     0
 75
     0
 76
     0
 77
     1
 78
     8
170
     0
171
     3
172
     1
173
     0
174
     0
175
     0
176
     0
177
     0
178
     0
270
     2
271
     2
272
     2
273
     2
274
     3
340
11
275
     0
280
     0
281
     0
282
     0
283
     0
284
     8
285
     0
286
     0
287
     3
288
     0
  0
ENDTAB
  0
TABLE
  2
BLOCK_RECORD
  5
1
330
0
100
AcDbSymbolTable
 70
     1
  0
BLOCK_RECORD
  5
1F
330
1
100
AcDbSymbolTableRecord
100
AcDbBlockTableRecord
  2
*MODEL_SPACE
  0
BLOCK_RECORD
  5
1B
330
1
100
AcDbSymbolTableRecord
100
AcDbBlockTableRecord
  2
*PAPER_SPACE
  0
ENDTAB
  0
ENDSEC
  0
SECTION
  2
BLOCKS
  0
BLOCK
  5
20
330
1F
100
AcDbEntity
  8
0
100
AcDbBlockBegin
  2
*MODEL_SPACE
 70
     0
 10
0.0
 20
0.0
 30
0.0
  3
*MODEL_SPACE
  1

  0
ENDBLK
  5
21
330
1F
100
AcDbEntity
  8
0
100
AcDbBlockEnd
  0
BLOCK
  5
1C
330
1B
100
AcDbEntity
 67
     1
  8
0
100
AcDbBlockBegin
  2
*PAPER_SPACE
  1

  0
ENDBLK
  5
1D
330
1B
100
AcDbEntity
 67
     1
  8
0
100
AcDbBlockEnd
  0
ENDSEC
  0
SECTION
  2
ENTITIES
  0
SPLINE
  5
100
100
AcDbEntity
  8
Calque_1
 62
7
100
AcDbSpline
 70
0
 71
3
 72
13
 73
9
 74
7
 40
0.000000
 40
0.000000
 40
0.000000
 40
0.000000
 40
0.101003
 40
0.197216
 40
0.295837
 40
0.394453
 40
0.490665
 40
0.591670
 40
0.591670
 40
0.591670
 40
0.591670
 10
36.711552
 20
188.667610
 30
0.0
 10
36.677758
 20
188.669745
 30
0.0
 10
36.611774
 20
188.673915
 30
0.0
 10
36.519093
 20
188.712568
 30
0.0
 10
36.441288
 20
188.773396
 30
0.0
 10
36.380461
 20
188.851201
 30
0.0
 10
36.341809
 20
188.943881
 30
0.0
 10
36.337640
 20
189.009866
 30
0.0
 10
36.335505
 20
189.043660
 30
0.0
 11
36.711552
 21
188.667610
 31
0.0
 11
36.611272
 21
188.679681
 31
0.0
 11
36.522135
 21
188.715894
 31
0.0
 11
36.444140
 21
188.776250
 31
0.0
 11
36.383787
 21
188.854242
 31
0.0
 11
36.347576
 21
188.943379
 31
0.0
 11
36.335505
 21
189.043660
 31
0.0
  0
LWPOLYLINE
  5
101
100
AcDbEntity
  8
Calque_1
 62
7
100
AcDbPolyline
 90
2
 70
0
 10
36.335505
 20
189.043660
 30
0.0
 10
36.335505
 20
194.116120
 30
0.0
  0
SPLINE
  5
102
100
AcDbEntity
  8
Calque_1
 62
7
100
AcDbSpline
 70
0
 71
3
 72
13
 73
9
 74
7
 40
0.000000
 40
0.000000
 40
0.000000
 40
0.000000
 40
0.101001
 40
0.197212
 40
0.295832
 40
0.397358
 40
0.494652
 40
0.595771
 40
0.595771
 40
0.595771
 40
0.595771
 10
36.335505
 20
194.116120
 30
0.0
 10
36.337658
 20
194.149894
 30
0.0
 10
36.341861
 20
194.215839
 30
0.0
 10
36.380265
 20
194.308792
 30
0.0
 10
36.442658
 20
194.386304
 30
0.0
 10
36.518096
 20
194.451773
 30
0.0
 10
36.611327
 20
194.493608
 30
0.0
 10
36.677717
 20
194.498187
 30
0.0
 10
36.711552
 20
194.500520
 30
0.0
 11
36.335505
 21
194.116120
 31
0.0
 11
36.347576
 21
194.216397
 31
0.0
 11
36.383787
 21
194.305533
 31
0.0
 11
36.444140
 21
194.383530
 31
0.0
 11
36.522135
 21
194.448524
 31
0.0
 11
36.611272
 21
194.487521
 31
0.0
 11
36.711552
 21
194.500520
 31
0.0
  0
SPLINE
  5
103
100
AcDbEntity
  8
Calque_1
 62
7
100
AcDbSpline
 70
0
 71
3
 72
10
 73
6
 74
4
 40
0.000000
 40
0.000000
 40
0.000000
 40
0.000000
 40
0.552484
 40
1.031935
 40
1.465097
 40
1.465097
 40
1.465097
 40
1.465097
 10
38.683711
 20
194.500520
 30
0.0
 10
38.867756
 20
194.492661
 30
0.0
 10
39.211519
 20
194.477981
 30
0.0
 10
39.692003
 20
194.348574
 30
0.0
 10
39.943283
 20
194.173939
 30
0.0
 10
40.062551
 20
194.091050
 30
0.0
 11
38.683711
 21
194.500520
 31
0.0
 11
39.234318
 21
194.455023
 31
0.0
 11
39.693931
 21
194.318533
 31
0.0
 11
40.062551
 21
194.091050
 31
0.0
  0
SPLINE
  5
104
100
AcDbEntity
  8
Calque_1
 62
7
100
AcDbSpline
 70
0
 71
3
 72
16
 73
12
 74
10
 40
0.000000
 40
0.000000
 40
0.000000
 40
0.000000
 40
0.409610
 40
0.812358
 40
1.246652
 40
1.553241
 40
1.834473
 40
2.102956
 40
2.357856
 40
2.609310
 40
2.865707
 40
2.865707
 40
2.865707
 40
2.865707
 10
40.062551
 20
194.091050
 30
0.0
 10
40.161243
 20
193.995036
 30
0.0
 10
40.356974
 20
193.804616
 30
0.0
 10
40.523550
 20
193.412728
 30
0.0
 10
40.567021
 20
193.030567
 30
0.0
 10
40.540488
 20
192.689366
 30
0.0
 10
40.463435
 20
192.412055
 30
0.0
 10
40.331245
 20
192.175918
 30
0.0
 10
40.162268
 20
191.979170
 30
0.0
 10
39.965099
 20
191.815374
 30
0.0
 10
39.813288
 20
191.739411
 30
0.0
 10
39.736643
 20
191.701060
 30
0.0
 11
40.062551
 21
194.091050
 31
0.0
 11
40.336462
 21
193.786496
 31
0.0
 11
40.500808
 21
193.418806
 31
0.0
 11
40.555590
 21
192.987980
 31
0.0
 11
40.529592
 21
192.682496
 31
0.0
 11
40.451597
 21
192.412296
 31
0.0
 11
40.321605
 21
192.177380
 31
0.0
 11
40.156330
 21
191.983322
 31
0.0
 11
39.961343
 21
191.824549
 31
0.0
 11
39.736643
 21
191.701060
 31
0.0
  0
SPLINE
  5
105
100
AcDbEntity
  8
Calque_1
 62
7
100
AcDbSpline
 70
0
 71
3
 72
10
 73
6
 74
4
 40
0.000000
 40
0.000000
 40
0.000000
 40
0.000000
 40
0.338637
 40
0.660182
 40
0.974973
 40
0.974973
 40
0.974973
 40
0.974973
 10
39.736643
 20
191.701060
 30
0.0
 10
39.842785
 20
191.662225
 30
0.0
 10
40.049713
 20
191.586515
 30
0.0
 10
40.329541
 20
191.414632
 30
0.0
 10
40.480776
 20
191.265222
 30
0.0
 10
40.555590
 20
191.191310
 30
0.0
 11
39.736643
 21
191.701060
 31
0.0
 11
40.050480
 21
191.573852
 31
0.0
 11
40.323462
 21
191.403936
 31
0.0
 11
40.555590
 21
191.191310
 31
0.0
  0
LWPOLYLINE
  5
106
100
AcDbEntity
  8
Calque_1
 62
7
100
AcDbPolyline
 90
2
 70
0
 10
36.711552
 20
194.500520
 30
0.0
 10
38.683711
 20
194.500520
 30
0.0
  0
SPLINE
  5
107
100
AcDbEntity
  8
Calque_1
 62
7
100
AcDbSpline
 70
0
 71
3
 72
16
 73
12
 74
10
 40
0.000000
 40
0.000000
 40
0.000000
 40
0.000000
 40
0.312265
 40
0.626886
 40
0.964956
 40
1.443824
 40
1.880540
 40
2.316057
 40
2.792997
 40
3.355157
 40
4.031910
 40
4.031910
 40
4.031910
 40
4.031910
 10
40.555590
 20
191.191310
 30
0.0
 10
40.621019
 20
191.109555
 30
0.0
 10
40.752369
 20
190.945428
 30
0.0
 10
40.860099
 20
190.636031
 30
0.0
 10
40.895436
 20
190.258861
 30
0.0
 10
40.849086
 20
189.838388
 30
0.0
 10
40.671837
 20
189.416818
 30
0.0
 10
40.368643
 20
189.073257
 30
0.0
 10
39.933944
 20
188.827888
 30
0.0
 10
39.373202
 20
188.688720
 30
0.0
 10
38.959716
 20
188.675068
 30
0.0
 10
38.733850
 20
188.667610
 30
0.0
 11
40.555590
 21
191.191310
 31
0.0
 11
40.736650
 21
190.936896
 31
0.0
 11
40.845286
 21
190.641626
 31
0.0
 11
40.881498
 21
190.305500
 31
0.0
 11
40.823930
 21
189.830106
 31
0.0
 11
40.651227
 21
189.428989
 31
0.0
 11
40.363388
 21
189.102150
 31
0.0
 11
39.952058
 21
188.860739
 31
0.0
 11
39.408878
 21
188.715892
 31
0.0
 11
38.733850
 21
188.667610
 31
0.0
  0
LWPOLYLINE
  5
108
100
AcDbEntity
  8
Calque_1
 62
7
100
AcDbPolyline
 90
2
 70
0
 10
38.733850
 20
188.667610
 30
0.0
 10
36.711552
 20
188.667610
 30
0.0
  0
SPLINE
  5
109
100
AcDbEntity
  8
Calque_1
 62
7
100
AcDbSpline
 70
0
 71
3
 72
19
 73
15
 74
13
 40
0.000000
 40
0.000000
 40
0.000000
 40
0.000000
 40
0.447482
 40
0.805561
 40
1.091536
 40
1.344147
 40
1.598716
 40
1.879270
 40
2.126139
 40
2.361609
 40
2.612467
 40
2.884206
 40
3.186908
 40
3.534218
 40
3.534218
 40
3.534218
 40
3.534218
 10
38.483152
 20
191.976830
 30
0.0
 10
38.632439
 20
191.981033
 30
0.0
 10
38.901187
 20
191.988600
 30
0.0
 10
39.259866
 20
192.065796
 30
0.0
 10
39.529284
 20
192.207365
 30
0.0
 10
39.707109
 20
192.410355
 30
0.0
 10
39.809781
 20
192.656312
 30
0.0
 10
39.839033
 20
192.918075
 30
0.0
 10
39.807623
 20
193.174105
 30
0.0
 10
39.691556
 20
193.395496
 30
0.0
 10
39.503239
 20
193.569485
 30
0.0
 10
39.258687
 20
193.700836
 30
0.0
 10
38.958076
 20
193.778031
 30
0.0
 10
38.741131
 20
193.785969
 30
0.0
 10
38.625214
 20
193.790210
 30
0.0
 11
38.483152
 21
191.976830
 31
0.0
 11
38.929766
 21
192.004684
 31
0.0
 11
39.277958
 21
192.088248
 31
0.0
 11
39.527728
 21
192.227520
 31
0.0
 11
39.694860
 21
192.416938
 31
0.0
 11
39.795140
 21
192.650924
 31
0.0
 11
39.828566
 21
192.929480
 31
0.0
 11
39.792354
 21
193.173678
 31
0.0
 11
39.683718
 21
193.382591
 31
0.0
 11
39.502658
 21
193.556220
 31
0.0
 11
39.264030
 21
193.686214
 31
0.0
 11
38.971549
 21
193.764211
 31
0.0
 11
38.625214
 21
193.790210
 31
0.0
  0
LWPOLYLINE
  5
10a
100
AcDbEntity
  8
Calque_1
 62
7
100
AcDbPolyline
 90
4
 70
0
 10
38.625214
 20
193.790210
 30
0.0
 10
37.095956
 20
193.790210
 30
0.0
 10
37.095956
 20
191.976830
 30
0.0
 10
38.483152
 20
191.976830
 30
0.0
  0
SPLINE
  5
10b
100
AcDbEntity
  8
Calque_1
 62
7
100
AcDbSpline
 70
0
 71
3
 72
16
 73
12
 74
10
 40
0.000000
 40
0.000000
 40
0.000000
 40
0.000000
 40
0.488264
 40
0.878925
 40
1.187869
 40
1.457058
 40
1.719933
 40
2.005674
 40
2.559854
 40
3.146307
 40
3.974829
 40
3.974829
 40
3.974829
 40
3.974829
 10
38.658641
 20
189.377920
 30
0.0
 10
38.821486
 20
189.382167
 30
0.0
 10
39.114624
 20
189.389811
 30
0.0
 10
39.506128
 20
189.466340
 30
0.0
 10
39.801746
 20
189.607527
 30
0.0
 10
40.005490
 20
189.808026
 30
0.0
 10
40.124480
 20
190.059645
 30
0.0
 10
40.170204
 20
190.426320
 30
0.0
 10
40.039229
 20
190.927943
 30
0.0
 10
39.416520
 20
191.266379
 30
0.0
 10
38.943796
 20
191.282273
 30
0.0
 10
38.666997
 20
191.291580
 30
0.0
 11
38.658641
 21
189.377920
 31
0.0
 11
39.146110
 21
189.405776
 31
0.0
 11
39.527728
 21
189.489342
 31
0.0
 11
39.803496
 21
189.628620
 31
0.0
 11
39.993841
 21
189.818966
 31
0.0
 11
40.108048
 21
190.055736
 31
0.0
 11
40.146117
 21
190.338930
 31
0.0
 11
39.981770
 21
190.868180
 31
0.0
 11
39.488730
 21
191.185730
 31
0.0
 11
38.666997
 21
191.291580
 31
0.0
  0
LWPOLYLINE
  5
10c
100
AcDbEntity
  8
Calque_1
 62
7
100
AcDbPolyline
 90
4
 70
0
 10
38.666997
 20
191.291580
 30
0.0
 10
37.095956
 20
191.291580
 30
0.0
 10
37.095956
 20
189.377920
 30
0.0
 10
38.658641
 20
189.377920
 30
0.0
  0
SPLINE
  5
10d
100
AcDbEntity
  8
Calque_1
 62
7
100
AcDbSpline
 70
0
 71
3
 72
13
 73
9
 74
7
 40
0.000000
 40
0.000000
 40
0.000000
 40
0.000000
 40
0.101003
 40
0.197216
 40
0.295837
 40
0.394454
 40
0.490665
 40
0.591670
 40
0.591670
 40
0.591670
 40
0.591670
 10
42.505683
 20
188.667610
 30
0.0
 10
42.471889
 20
188.669745
 30
0.0
 10
42.405905
 20
188.673915
 30
0.0
 10
42.313224
 20
188.712568
 30
0.0
 10
42.235419
 20
188.773396
 30
0.0
 10
42.174591
 20
188.851201
 30
0.0
 10
42.135939
 20
188.943881
 30
0.0
 10
42.131770
 20
189.009866
 30
0.0
 10
42.129635
 20
189.043660
 30
0.0
 11
42.505683
 21
188.667610
 31
0.0
 11
42.405403
 21
188.679681
 31
0.0
 11
42.316266
 21
188.715894
 31
0.0
 11
42.238271
 21
188.776250
 31
0.0
 11
42.177918
 21
188.854242
 31
0.0
 11
42.141706
 21
188.943379
 31
0.0
 11
42.129635
 21
189.043660
 31
0.0
  0
LWPOLYLINE
  5
10e
100
AcDbEntity
  8
Calque_1
 62
7
100
AcDbPolyline
 90
2
 70
0
 10
42.129635
 20
189.043660
 30
0.0
 10
42.129635
 20
194.116120
 30
0.0
  0
SPLINE
  5
10f
100
AcDbEntity
  8
Calque_1
 62
7
100
AcDbSpline
 70
0
 71
3
 72
13
 73
9
 74
7
 40
0.000000
 40
0.000000
 40
0.000000
 40
0.000000
 40
0.101001
 40
0.197212
 40
0.295833
 40
0.397358
 40
0.494653
 40
0.595771
 40
0.595771
 40
0.595771
 40
0.595771
 10
42.129635
 20
194.116120
 30
0.0
 10
42.131788
 20
194.149894
 30
0.0
 10
42.135991
 20
194.215839
 30
0.0
 10
42.174396
 20
194.308792
 30
0.0
 10
42.236789
 20
194.386303
 30
0.0
 10
42.312227
 20
194.451773
 30
0.0
 10
42.405458
 20
194.493608
 30
0.0
 10
42.471848
 20
194.498187
 30
0.0
 10
42.505683
 20
194.500520
 30
0.0
 11
42.129635
 21
194.116120
 31
0.0
 11
42.141706
 21
194.216397
 31
0.0
 11
42.177918
 21
194.305533
 31
0.0
 11
42.238271
 21
194.383530
 31
0.0
 11
42.316266
 21
194.448524
 31
0.0
 11
42.405403
 21
194.487521
 31
0.0
 11
42.505683
 21
194.500520
 31
0.0
  0
SPLINE
  5
110
100
AcDbEntity
  8
Calque_1
 62
7
100
AcDbSpline
 70
0
 71
3
 72
10
 73
6
 74
4
 40
0.000000
 40
0.000000
 40
0.000000
 40
0.000000
 40
0.604462
 40
1.160524
 40
1.689129
 40
1.689129
 40
1.689129
 40
1.689129
 10
44.185360
 20
194.500520
 30
0.0
 10
44.386869
 20
194.491881
 30
0.0
 10
44.773752
 20
194.475294
 30
0.0
 10
45.326538
 20
194.336143
 30
0.0
 10
45.643645
 20
194.160116
 30
0.0
 10
45.798185
 20
194.074330
 30
0.0
 11
44.185360
 21
194.500520
 31
0.0
 11
44.787964
 21
194.453166
 31
0.0
 11
45.325572
 21
194.311102
 31
0.0
 11
45.798185
 21
194.074330
 31
0.0
  0
LWPOLYLINE
  5
111
100
AcDbEntity
  8
Calque_1
 62
7
100
AcDbPolyline
 90
2
 70
0
 10
42.505683
 20
194.500520
 30
0.0
 10
44.185360
 20
194.500520
 30
0.0
  0
SPLINE
  5
112
100
AcDbEntity
  8
Calque_1
 62
7
100
AcDbSpline
 70
0
 71
3
 72
22
 73
18
 74
16
 40
0.000000
 40
0.000000
 40
0.000000
 40
0.000000
 40
0.510681
 40
1.003490
 40
1.495598
 40
1.985289
 40
2.466341
 40
2.950593
 40
3.434849
 40
3.915901
 40
4.405588
 40
4.898489
 40
5.393352
 40
5.906834
 40
6.433376
 40
6.988732
 40
7.593122
 40
7.593122
 40
7.593122
 40
7.593122
 10
45.798185
 20
194.074330
 30
0.0
 10
45.938540
 20
193.977241
 30
0.0
 10
46.214339
 20
193.786462
 30
0.0
 10
46.553337
 20
193.414987
 30
0.0
 10
46.812817
 20
192.994862
 30
0.0
 10
46.997496
 20
192.541353
 30
0.0
 10
47.111054
 20
192.067846
 30
0.0
 10
47.147380
 20
191.584063
 30
0.0
 10
47.111039
 20
191.100312
 30
0.0
 10
46.997556
 20
190.626709
 30
0.0
 10
46.812488
 20
190.173316
 30
0.0
 10
46.553533
 20
189.751053
 30
0.0
 10
46.211781
 20
189.381722
 30
0.0
 10
45.803666
 20
189.068521
 30
0.0
 10
45.323124
 20
188.832678
 30
0.0
 10
44.774200
 20
188.691149
 30
0.0
 10
44.387095
 20
188.675674
 30
0.0
 10
44.185360
 20
188.667610
 30
0.0
 11
45.798185
 21
194.074330
 31
0.0
 11
46.206730
 21
193.767922
 31
0.0
 11
46.540995
 21
193.405806
 31
0.0
 11
46.800978
 21
192.987980
 31
0.0
 11
46.986680
 21
192.534866
 31
0.0
 11
47.098102
 21
192.066896
 31
0.0
 11
47.135242
 21
191.584070
 31
0.0
 11
47.098102
 21
191.101240
 31
0.0
 11
46.986680
 21
190.633270
 31
0.0
 11
46.800978
 21
190.180160
 31
0.0
 11
46.540995
 21
189.761400
 31
0.0
 11
46.206730
 21
189.396493
 31
0.0
 11
45.798185
 21
189.085440
 31
0.0
 11
45.325572
 21
188.853312
 31
0.0
 11
44.787964
 21
188.714036
 31
0.0
 11
44.185360
 21
188.667610
 31
0.0
  0
SPLINE
  5
113
100
AcDbEntity
  8
Calque_1
 62
7
100
AcDbSpline
 70
0
 71
3
 72
10
 73
6
 74
4
 40
0.000000
 40
0.000000
 40
0.000000
 40
0.000000
 40
0.439327
 40
0.850842
 40
1.245749
 40
1.245749
 40
1.245749
 40
1.245749
 10
44.093438
 20
189.377920
 30
0.0
 10
44.239898
 20
189.383635
 30
0.0
 10
44.523547
 20
189.394704
 30
0.0
 10
44.932676
 20
189.485021
 30
0.0
 10
45.177096
 20
189.598244
 30
0.0
 10
45.296789
 20
189.653690
 30
0.0
 11
44.093438
 21
189.377920
 31
0.0
 11
44.531695
 21
189.408561
 31
0.0
 11
44.932812
 21
189.500484
 31
0.0
 11
45.296789
 21
189.653690
 31
0.0
  0
SPLINE
  5
114
100
AcDbEntity
  8
Calque_1
 62
7
100
AcDbSpline
 70
0
 71
3
 72
10
 73
6
 74
4
 40
0.000000
 40
0.000000
 40
0.000000
 40
0.000000
 40
0.383707
 40
0.756021
 40
1.129815
 40
1.129815
 40
1.129815
 40
1.129815
 10
45.296789
 20
189.653690
 30
0.0
 10
45.405982
 20
189.720715
 30
0.0
 10
45.621126
 20
189.852774
 30
0.0
 10
45.895234
 20
190.117148
 30
0.0
 10
46.031003
 20
190.326145
 30
0.0
 10
46.099023
 20
190.430850
 30
0.0
 11
45.296789
 21
189.653690
 31
0.0
 11
45.616197
 21
189.866317
 31
0.0
 11
45.883608
 21
190.125370
 31
0.0
 11
46.099023
 21
190.430850
 31
0.0
  0
SPLINE
  5
115
100
AcDbEntity
  8
Calque_1
 62
7
100
AcDbSpline
 70
0
 71
3
 72
13
 73
9
 74
7
 40
0.000000
 40
0.000000
 40
0.000000
 40
0.000000
 40
0.384841
 40
0.780743
 40
1.199767
 40
1.617860
 40
2.011053
 40
2.391662
 40
2.391662
 40
2.391662
 40
2.391662
 10
46.099023
 20
190.430850
 30
0.0
 10
46.156257
 20
190.546072
 30
0.0
 10
46.272371
 20
190.779826
 30
0.0
 10
46.363168
 20
191.172654
 30
0.0
 10
46.393401
 20
191.583762
 30
0.0
 10
46.363292
 20
191.993951
 30
0.0
 10
46.272699
 20
192.384231
 30
0.0
 10
46.156284
 20
192.615276
 30
0.0
 10
46.099023
 20
192.728920
 30
0.0
 11
46.099023
 21
190.430850
 31
0.0
 11
46.256870
 21
190.781830
 31
0.0
 11
46.351579
 21
191.166237
 31
0.0
 11
46.383148
 21
191.584070
 31
0.0
 11
46.351579
 21
192.000969
 31
0.0
 11
46.256870
 21
192.382586
 31
0.0
 11
46.099023
 21
192.728920
 31
0.0
  0
SPLINE
  5
116
100
AcDbEntity
  8
Calque_1
 62
7
100
AcDbSpline
 70
0
 71
3
 72
10
 73
6
 74
4
 40
0.000000
 40
0.000000
 40
0.000000
 40
0.000000
 40
0.376836
 40
0.749150
 40
1.130811
 40
1.130811
 40
1.130811
 40
1.130811
 10
46.099023
 20
192.728920
 30
0.0
 10
46.031166
 20
192.834949
 30
0.0
 10
45.896267
 20
193.045735
 30
0.0
 10
45.621981
 20
193.310861
 30
0.0
 10
45.406079
 20
193.440471
 30
0.0
 10
45.296789
 20
193.506080
 30
0.0
 11
46.099023
 21
192.728920
 31
0.0
 11
45.883608
 21
193.038116
 31
0.0
 11
45.616197
 21
193.297169
 31
0.0
 11
45.296789
 21
193.506080
 31
0.0
  0
LWPOLYLINE
  5
117
100
AcDbEntity
  8
Calque_1
 62
7
100
AcDbPolyline
 90
2
 70
0
 10
44.185360
 20
188.667610
 30
0.0
 10
42.505683
 20
188.667610
 30
0.0
  0
SPLINE
  5
118
100
AcDbEntity
  8
Calque_1
 62
7
100
AcDbSpline
 70
0
 71
3
 72
10
 73
6
 74
4
 40
0.000000
 40
0.000000
 40
0.000000
 40
0.000000
 40
0.396731
 40
0.808878
 40
1.248271
 40
1.248271
 40
1.248271
 40
1.248271
 10
45.296789
 20
193.506080
 30
0.0
 10
45.177190
 20
193.563185
 30
0.0
 10
44.933344
 20
193.679613
 30
0.0
 10
44.523815
 20
193.772914
 30
0.0
 10
44.239925
 20
193.784323
 30
0.0
 10
44.093438
 20
193.790210
 30
0.0
 11
45.296789
 21
193.506080
 31
0.0
 11
44.932812
 21
193.663930
 31
0.0
 11
44.531695
 21
193.758640
 31
0.0
 11
44.093438
 21
193.790210
 31
0.0
  0
SPLINE
  5
119
100
AcDbEntity
  8
Calque_1
 62
7
100
AcDbSpline
 70
0
 71
3
 72
37
 73
33
 74
31
 40
0.000000
 40
0.000000
 40
0.000000
 40
0.000000
 40
0.694102
 40
1.370408
 40
2.041719
 40
2.113164
 40
2.184510
 40
2.258227
 40
2.335516
 40
2.408631
 40
2.480508
 40
2.571150
 40
2.657546
 40
2.745406
 40
2.839682
 40
2.930757
 40
3.026232
 40
3.081141
 40
3.135225
 40
3.189557
 40
3.747631
 40
4.308140
 40
4.882295
 40
5.701730
 40
6.285032
 40
6.843106
 40
7.002392
 40
7.155697
 40
7.316854
 40
7.484938
 40
7.660803
 40
7.847881
 40
7.847881
 40
7.847881
 40
7.847881
 10
56.764141
 20
188.584040
 30
0.0
 10
56.532484
 20
188.592054
 30
0.0
 10
56.075110
 20
188.607877
 30
0.0
 10
55.407047
 20
188.750659
 30
0.0
 10
54.955688
 20
188.897172
 30
0.0
 10
54.710675
 20
189.016183
 30
0.0
 10
54.654509
 20
189.062349
 30
0.0
 10
54.605032
 20
189.118132
 30
0.0
 10
54.569548
 20
189.184534
 30
0.0
 10
54.546170
 20
189.255317
 30
0.0
 10
54.538482
 20
189.334035
 30
0.0
 10
54.547530
 20
189.417297
 30
0.0
 10
54.578942
 20
189.500923
 30
0.0
 10
54.631923
 20
189.574186
 30
0.0
 10
54.702265
 20
189.633798
 30
0.0
 10
54.789454
 20
189.671524
 30
0.0
 10
54.870442
 20
189.680915
 30
0.0
 10
54.938541
 20
189.676276
 30
0.0
 10
54.992187
 20
189.665437
 30
0.0
 10
55.198964
 20
189.583214
 30
0.0
 10
55.562915
 20
189.438758
 30
0.0
 10
56.119356
 20
189.327296
 30
0.0
 10
56.769971
 20
189.287649
 30
0.0
 10
57.433411
 20
189.332067
 30
0.0
 10
58.045263
 20
189.671651
 30
0.0
 10
58.170626
 20
190.131803
 30
0.0
 10
58.138782
 20
190.421506
 30
0.0
 10
58.071369
 20
190.568062
 30
0.0
 10
57.960277
 20
190.686614
 30
0.0
 10
57.826473
 20
190.789372
 30
0.0
 10
57.671737
 20
190.877076
 30
0.0
 10
57.558097
 20
190.919020
 30
0.0
 10
57.499522
 20
190.940640
 30
0.0
 11
56.764141
 21
188.584040
 31
0.0
 11
56.071471
 21
188.628609
 31
0.0
 11
55.408514
 21
188.762316
 31
0.0
 11
54.775269
 21
188.985160
 31
0.0
 11
54.712130
 21
189.018594
 31
0.0
 11
54.656420
 21
189.063164
 31
0.0
 11
54.608137
 21
189.118870
 31
0.0
 11
54.570998
 21
189.186651
 31
0.0
 11
54.548715
 21
189.256288
 31
0.0
 11
54.541287
 21
189.327780
 31
0.0
 11
54.551500
 21
189.417844
 31
0.0
 11
54.582140
 21
189.498624
 31
0.0
 11
54.633207
 21
189.570120
 31
0.0
 11
54.705631
 21
189.630476
 31
0.0
 11
54.789197
 21
189.666689
 31
0.0
 11
54.883905
 21
189.678760
 31
0.0
 11
54.938689
 21
189.675049
 31
0.0
 11
54.991614
 21
189.663916
 31
0.0
 11
55.042680
 21
189.645360
 31
0.0
 11
55.567289
 21
189.455016
 31
0.0
 11
56.116040
 21
189.340809
 31
0.0
 11
56.688932
 21
189.302740
 31
0.0
 11
57.501380
 21
189.409519
 31
0.0
 11
57.988848
 21
189.729856
 31
0.0
 11
58.151338
 21
190.263750
 31
0.0
 11
58.129982
 21
190.421598
 31
0.0
 11
58.065915
 21
190.560874
 31
0.0
 11
57.959136
 21
190.681580
 31
0.0
 11
57.826358
 21
190.784644
 31
0.0
 11
57.673154
 21
190.870998
 31
0.0
 11
57.499522
 21
190.940640
 31
0.0
  0
SPLINE
  5
11a
100
AcDbEntity
  8
Calque_1
 62
7
100
AcDbSpline
 70
0
 71
3
 72
13
 73
9
 74
7
 40
0.000000
 40
0.000000
 40
0.000000
 40
0.000000
 40
0.221391
 40
0.494600
 40
0.819855
 40
1.257735
 40
1.639273
 40
1.964938
 40
1.964938
 40
1.964938
 40
1.964938
 10
57.499522
 20
190.940640
 30
0.0
 10
57.429734
 20
190.964658
 30
0.0
 10
57.273824
 20
191.018315
 30
0.0
 10
57.011415
 20
191.094957
 30
0.0
 10
56.677764
 20
191.184428
 30
0.0
 10
56.309043
 20
191.282554
 30
0.0
 10
55.943294
 20
191.392327
 30
0.0
 10
55.721446
 20
191.472137
 30
0.0
 10
55.619286
 20
191.508890
 30
0.0
 11
57.499522
 21
190.940640
 31
0.0
 11
57.289678
 21
191.011207
 31
0.0
 11
57.027838
 21
191.089200
 31
0.0
 11
56.714001
 21
191.174620
 31
0.0
 11
56.291528
 21
191.289757
 31
0.0
 11
55.926623
 21
191.401180
 31
0.0
 11
55.619286
 21
191.508890
 31
0.0
  0
SPLINE
  5
11b
100
AcDbEntity
  8
Calque_1
 62
7
100
AcDbSpline
 70
0
 71
3
 72
25
 73
21
 74
19
 40
0.000000
 40
0.000000
 40
0.000000
 40
0.000000
 40
0.295256
 40
0.585767
 40
0.878102
 40
1.171720
 40
1.478278
 40
1.817905
 40
2.126504
 40
2.425336
 40
2.726019
 40
3.036630
 40
3.356907
 40
3.698726
 40
4.072133
 40
4.472563
 40
4.908810
 40
5.502920
 40
6.064812
 40
6.602427
 40
6.602427
 40
6.602427
 40
6.602427
 10
55.619286
 20
191.508890
 30
0.0
 10
55.529239
 20
191.549117
 30
0.0
 10
55.350592
 20
191.628925
 30
0.0
 10
55.109851
 20
191.798012
 30
0.0
 10
54.892711
 20
191.994856
 30
0.0
 10
54.718036
 20
192.240356
 30
0.0
 10
54.618619
 20
192.541668
 30
0.0
 10
54.590421
 20
192.860693
 30
0.0
 10
54.617139
 20
193.176868
 30
0.0
 10
54.701959
 20
193.469735
 30
0.0
 10
54.844495
 20
193.739550
 30
0.0
 10
55.037869
 20
193.985071
 30
0.0
 10
55.289050
 20
194.193641
 30
0.0
 10
55.591530
 20
194.362997
 30
0.0
 10
55.941718
 20
194.492869
 30
0.0
 10
56.339497
 20
194.569267
 30
0.0
 10
56.816889
 20
194.593266
 30
0.0
 10
57.347497
 20
194.563956
 30
0.0
 10
57.907595
 20
194.477956
 30
0.0
 10
58.256503
 20
194.364047
 30
0.0
 10
58.427105
 20
194.308350
 30
0.0
 11
55.619286
 21
191.508890
 31
0.0
 11
55.353732
 21
191.637952
 31
0.0
 11
55.114176
 21
191.802299
 31
0.0
 11
54.900618
 21
192.001930
 31
0.0
 11
54.733486
 21
192.243339
 31
0.0
 11
54.633206
 21
192.533032
 31
0.0
 11
54.599780
 21
192.871010
 31
0.0
 11
54.627635
 21
193.178349
 31
0.0
 11
54.711201
 21
193.465259
 31
0.0
 11
54.850478
 21
193.731740
 31
0.0
 11
55.043608
 21
193.975010
 31
0.0
 11
55.288736
 21
194.181140
 31
0.0
 11
55.585860
 21
194.350130
 31
0.0
 11
55.935909
 21
194.480124
 31
0.0
 11
56.328669
 21
194.558121
 31
0.0
 11
56.764141
 21
194.584120
 31
0.0
 11
57.357460
 21
194.553479
 31
0.0
 11
57.911781
 21
194.461556
 31
0.0
 11
58.427105
 21
194.308350
 31
0.0
  0
SPLINE
  5
11c
100
AcDbEntity
  8
Calque_1
 62
7
100
AcDbSpline
 70
0
 71
3
 72
19
 73
15
 74
13
 40
0.000000
 40
0.000000
 40
0.000000
 40
0.000000
 40
0.149726
 40
0.285735
 40
0.436542
 40
0.523493
 40
0.609889
 40
0.700798
 40
0.791552
 40
0.880077
 40
0.974632
 40
1.011957
 40
1.057895
 40
1.113103
 40
1.113103
 40
1.113103
 40
1.113103
 10
58.427105
 20
194.308350
 30
0.0
 10
58.473378
 20
194.287508
 30
0.0
 10
58.561686
 20
194.247734
 30
0.0
 10
58.647477
 20
194.121472
 30
0.0
 10
58.666009
 20
193.995271
 30
0.0
 10
58.654683
 20
193.887075
 30
0.0
 10
58.622506
 20
193.803970
 30
0.0
 10
58.571918
 20
193.729611
 30
0.0
 10
58.504781
 20
193.667561
 30
0.0
 10
58.419827
 20
193.630548
 30
0.0
 10
58.345845
 20
193.620412
 30
0.0
 10
58.286664
 20
193.626215
 30
0.0
 10
58.241879
 20
193.638076
 30
0.0
 10
58.210339
 20
193.650001
 30
0.0
 10
58.193123
 20
193.656510
 30
0.0
 11
58.427105
 21
194.308350
 31
0.0
 11
58.557097
 21
194.234053
 31
0.0
 11
58.635092
 21
194.122630
 31
0.0
 11
58.661090
 21
193.974080
 31
0.0
 11
58.650877
 21
193.887731
 31
0.0
 11
58.620237
 21
193.806951
 31
0.0
 11
58.569170
 21
193.731740
 31
0.0
 11
58.501390
 21
193.671390
 31
0.0
 11
58.420609
 21
193.635180
 31
0.0
 11
58.326828
 21
193.623110
 31
0.0
 11
58.289687
 21
193.626821
 31
0.0
 11
58.245119
 21
193.637954
 31
0.0
 11
58.193123
 21
193.656510
 31
0.0
  0
SPLINE
  5
11d
100
AcDbEntity
  8
Calque_1
 62
7
100
AcDbSpline
 70
0
 71
3
 72
19
 73
15
 74
13
 40
0.000000
 40
0.000000
 40
0.000000
 40
0.000000
 40
0.456725
 40
0.911459
 40
1.369901
 40
1.784027
 40
2.152950
 40
2.488682
 40
2.784700
 40
3.055584
 40
3.337830
 40
3.527525
 40
3.703918
 40
3.880153
 40
3.880153
 40
3.880153
 40
3.880153
 10
58.193123
 20
193.656510
 30
0.0
 10
58.047608
 20
193.701810
 30
0.0
 10
57.757214
 20
193.792213
 30
0.0
 10
57.304937
 20
193.864935
 30
0.0
 10
56.862644
 20
193.890449
 30
0.0
 10
56.448083
 20
193.867096
 30
0.0
 10
56.082325
 20
193.784951
 30
0.0
 10
55.774415
 20
193.650363
 30
0.0
 10
55.534678
 20
193.460251
 30
0.0
 10
55.387260
 20
193.210374
 30
0.0
 10
55.350678
 20
192.960020
 30
0.0
 10
55.372956
 20
192.744056
 30
0.0
 10
55.436699
 20
192.570995
 30
0.0
 10
55.513868
 20
192.481285
 30
0.0
 10
55.552435
 20
192.436450
 30
0.0
 11
58.193123
 21
193.656510
 31
0.0
 11
57.753937
 21
193.781860
 31
0.0
 11
57.305465
 21
193.857070
 31
0.0
 11
56.847709
 21
193.882140
 31
0.0
 11
56.434521
 21
193.854284
 31
0.0
 11
56.075187
 21
193.770718
 31
0.0
 11
55.769707
 21
193.631440
 31
0.0
 11
55.542221
 21
193.442028
 31
0.0
 11
55.405730
 21
193.208044
 31
0.0
 11
55.360233
 21
192.929490
 31
0.0
 11
55.381589
 21
192.741001
 31
0.0
 11
55.445656
 21
192.576654
 31
0.0
 11
55.552435
 21
192.436450
 31
0.0
  0
SPLINE
  5
11e
100
AcDbEntity
  8
Calque_1
 62
7
100
AcDbSpline
 70
0
 71
3
 72
10
 73
6
 74
4
 40
0.000000
 40
0.000000
 40
0.000000
 40
0.000000
 40
0.183729
 40
0.374818
 40
0.576477
 40
0.576477
 40
0.576477
 40
0.576477
 10
55.552435
 20
192.436450
 30
0.0
 10
55.599399
 20
192.397024
 30
0.0
 10
55.695208
 20
192.316594
 30
0.0
 10
55.861942
 20
192.218931
 30
0.0
 10
55.983209
 20
192.169401
 30
0.0
 10
56.045475
 20
192.143970
 30
0.0
 11
55.552435
 21
192.436450
 31
0.0
 11
55.696355
 21
192.322241
 31
0.0
 11
55.860701
 21
192.224748
 31
0.0
 11
56.045475
 21
192.143970
 31
0.0
  0
SPLINE
  5
11f
100
AcDbEntity
  8
Calque_1
 62
7
100
AcDbSpline
 70
0
 71
3
 72
10
 73
6
 74
4
 40
0.000000
 40
0.000000
 40
0.000000
 40
0.000000
 40
0.234083
 40
0.513818
 40
0.839466
 40
0.839466
 40
0.839466
 40
0.839466
 10
56.045475
 20
192.143970
 30
0.0
 10
56.119905
 20
192.120520
 30
0.0
 10
56.283280
 20
192.069046
 30
0.0
 10
56.553997
 20
191.997862
 30
0.0
 10
56.750411
 20
191.951591
 30
0.0
 10
56.856066
 20
191.926700
 30
0.0
 11
56.045475
 21
192.143970
 31
0.0
 11
56.269246
 21
192.075260
 31
0.0
 11
56.539443
 21
192.002837
 31
0.0
 11
56.856066
 21
191.926700
 31
0.0
  0
SPLINE
  5
120
100
AcDbEntity
  8
Calque_1
 62
7
100
AcDbSpline
 70
0
 71
3
 72
13
 73
9
 74
7
 40
0.000000
 40
0.000000
 40
0.000000
 40
0.000000
 40
0.424732
 40
0.793991
 40
1.108532
 40
1.396320
 40
1.679980
 40
1.967551
 40
1.967551
 40
1.967551
 40
1.967551
 10
56.856066
 20
191.926700
 30
0.0
 10
56.993492
 20
191.892577
 30
0.0
 10
57.250395
 20
191.828787
 30
0.0
 10
57.604449
 20
191.722735
 30
0.0
 10
57.911029
 20
191.617591
 30
0.0
 10
58.179187
 20
191.491796
 30
0.0
 10
58.415315
 20
191.325905
 30
0.0
 10
58.545443
 20
191.186360
 30
0.0
 10
58.610953
 20
191.116110
 30
0.0
 11
56.856066
 21
191.926700
 31
0.0
 11
57.267396
 21
191.820848
 31
0.0
 11
57.621159
 21
191.714998
 31
0.0
 11
57.917355
 21
191.609150
 31
0.0
 11
58.176409
 21
191.483799
 31
0.0
 11
58.407609
 21
191.319452
 31
0.0
 11
58.610953
 21
191.116110
 31
0.0
  0
LWPOLYLINE
  5
121
100
AcDbEntity
  8
Calque_1
 62
7
100
AcDbPolyline
 90
4
 70
0
 10
44.093438
 20
193.790210
 30
0.0
 10
42.890086
 20
193.790210
 30
0.0
 10
42.890086
 20
189.377920
 30
0.0
 10
44.093438
 20
189.377920
 30
0.0
  0
SPLINE
  5
122
100
AcDbEntity
  8
Calque_1
 62
7
100
AcDbSpline
 70
0
 71
3
 72
19
 73
15
 74
13
 40
0.000000
 40
0.000000
 40
0.000000
 40
0.000000
 40
0.297198
 40
0.613441
 40
0.967770
 40
1.270994
 40
1.566114
 40
1.866353
 40
2.170859
 40
2.486758
 40
2.824415
 40
3.183524
 40
3.563227
 40
3.970577
 40
3.970577
 40
3.970577
 40
3.970577
 10
58.610953
 20
191.116110
 30
0.0
 10
58.670096
 20
191.035810
 30
0.0
 10
58.792172
 20
190.870066
 30
0.0
 10
58.884348
 20
190.555178
 30
0.0
 10
58.913211
 20
190.230857
 30
0.0
 10
58.885106
 20
189.912341
 30
0.0
 10
58.793425
 20
189.624736
 30
0.0
 10
58.644023
 20
189.362022
 30
0.0
 10
58.437385
 20
189.132230
 30
0.0
 10
58.181742
 20
188.938078
 30
0.0
 10
57.880763
 20
188.781934
 30
0.0
 10
57.539698
 20
188.666796
 30
0.0
 10
57.162564
 20
188.596111
 30
0.0
 10
56.900024
 20
188.588163
 30
0.0
 10
56.764143
 20
188.584050
 30
0.0
 11
58.610953
 21
191.116110
 31
0.0
 11
58.773442
 21
190.867266
 31
0.0
 11
58.870936
 21
190.566426
 31
0.0
 11
58.903434
 21
190.213590
 31
0.0
 11
58.873722
 21
189.911824
 31
0.0
 11
58.784585
 21
189.630488
 31
0.0
 11
58.636023
 21
189.369580
 31
0.0
 11
58.433607
 21
189.142090
 31
0.0
 11
58.182909
 21
188.949887
 31
0.0
 11
57.883928
 21
188.792970
 31
0.0
 11
57.544093
 21
188.676903
 31
0.0
 11
57.170831
 21
188.607263
 31
0.0
 11
56.764143
 21
188.584050
 31
0.0
  0
LWPOLYLINE
  5
123
100
AcDbEntity
  8
Calque_1
 62
7
100
AcDbPolyline
 90
1
 70
1
 10
56.764143
 20
188.584050
 30
0.0
  0
SPLINE
  5
124
100
AcDbEntity
  8
Calque_1
 62
7
100
AcDbSpline
 70
0
 71
3
 72
13
 73
9
 74
7
 40
0.000000
 40
0.000000
 40
0.000000
 40
0.000000
 40
0.101003
 40
0.197215
 40
0.295832
 40
0.394452
 40
0.490664
 40
0.591665
 40
0.591665
 40
0.591665
 40
0.591665
 10
60.443007
 20
188.625830
 30
0.0
 10
60.409213
 20
188.627965
 30
0.0
 10
60.343229
 20
188.632134
 30
0.0
 10
60.250550
 20
188.670784
 30
0.0
 10
60.172740
 20
188.731606
 30
0.0
 10
60.111917
 20
188.809415
 30
0.0
 10
60.073263
 20
188.902094
 30
0.0
 10
60.069094
 20
188.968077
 30
0.0
 10
60.066959
 20
189.001870
 30
0.0
 11
60.443007
 21
188.625830
 31
0.0
 11
60.342727
 21
188.637900
 31
0.0
 11
60.253590
 21
188.674110
 31
0.0
 11
60.175595
 21
188.734460
 31
0.0
 11
60.115242
 21
188.812457
 31
0.0
 11
60.079030
 21
188.901593
 31
0.0
 11
60.066959
 21
189.001870
 31
0.0
  0
LWPOLYLINE
  5
125
100
AcDbEntity
  8
Calque_1
 62
7
100
AcDbPolyline
 90
2
 70
0
 10
60.066959
 20
189.001870
 30
0.0
 10
60.066959
 20
193.990770
 30
0.0
  0
SPLINE
  5
126
100
AcDbEntity
  8
Calque_1
 62
7
100
AcDbSpline
 70
0
 71
3
 72
13
 73
9
 74
7
 40
0.000000
 40
0.000000
 40
0.000000
 40
0.000000
 40
0.144075
 40
0.282709
 40
0.426278
 40
0.572747
 40
0.712468
 40
0.856660
 40
0.856660
 40
0.856660
 40
0.856660
 10
60.066959
 20
193.990770
 30
0.0
 10
60.070134
 20
194.038960
 30
0.0
 10
60.076366
 20
194.133520
 30
0.0
 10
60.132876
 20
194.266935
 30
0.0
 10
60.223092
 20
194.379096
 30
0.0
 10
60.333209
 20
194.472388
 30
0.0
 10
60.466884
 20
194.532327
 30
0.0
 10
60.561889
 20
194.538941
 30
0.0
 10
60.610139
 20
194.542300
 30
0.0
 11
60.066959
 21
193.990770
 31
0.0
 11
60.084601
 21
194.133761
 31
0.0
 11
60.137526
 21
194.261894
 31
0.0
 11
60.225735
 21
194.375170
 31
0.0
 11
60.339013
 21
194.468020
 31
0.0
 11
60.467148
 21
194.523730
 31
0.0
 11
60.610139
 21
194.542300
 31
0.0
  0
LWPOLYLINE
  5
127
100
AcDbEntity
  8
Calque_1
 62
7
100
AcDbPolyline
 90
2
 70
0
 10
60.610139
 20
194.542300
 30
0.0
 10
60.718775
 20
194.542300
 30
0.0
  0
SPLINE
  5
128
100
AcDbEntity
  8
Calque_1
 62
7
100
AcDbSpline
 70
0
 71
3
 72
10
 73
6
 74
4
 40
0.000000
 40
0.000000
 40
0.000000
 40
0.000000
 40
0.172185
 40
0.346697
 40
0.541701
 40
0.541701
 40
0.541701
 40
0.541701
 10
60.718775
 20
194.542300
 30
0.0
 10
60.776428
 20
194.536978
 30
0.0
 10
60.892513
 20
194.526261
 30
0.0
 10
61.054625
 20
194.434216
 30
0.0
 10
61.135636
 20
194.340871
 30
0.0
 10
61.178388
 20
194.291610
 30
0.0
 11
60.718775
 21
194.542300
 31
0.0
 11
60.888692
 21
194.514446
 31
0.0
 11
61.041897
 21
194.430882
 31
0.0
 11
61.178388
 21
194.291610
 31
0.0
  0
LWPOLYLINE
  5
129
100
AcDbEntity
  8
Calque_1
 62
7
100
AcDbPolyline
 90
3
 70
0
 10
61.178388
 20
194.291610
 30
0.0
 10
64.395681
 20
189.645330
 30
0.0
 10
64.395681
 20
194.157900
 30
0.0
  0
SPLINE
  5
12a
100
AcDbEntity
  8
Calque_1
 62
7
100
AcDbSpline
 70
0
 71
3
 72
19
 73
15
 74
13
 40
0.000000
 40
0.000000
 40
0.000000
 40
0.000000
 40
0.101005
 40
0.197216
 40
0.295833
 40
0.397359
 40
0.494653
 40
0.595771
 40
0.696890
 40
0.794184
 40
0.895710
 40
0.997235
 40
1.094529
 40
1.195649
 40
1.195649
 40
1.195649
 40
1.195649
 10
64.395681
 20
194.157900
 30
0.0
 10
64.397834
 20
194.191673
 30
0.0
 10
64.402037
 20
194.257617
 30
0.0
 10
64.440440
 20
194.350596
 30
0.0
 10
64.502836
 20
194.428007
 30
0.0
 10
64.578274
 20
194.493842
 30
0.0
 10
64.671499
 20
194.534345
 30
0.0
 10
64.771745
 20
194.546367
 30
0.0
 10
64.871892
 20
194.534294
 30
0.0
 10
64.965406
 20
194.494040
 30
0.0
 10
65.040490
 20
194.426583
 30
0.0
 10
65.107584
 20
194.351597
 30
0.0
 10
65.149169
 20
194.258064
 30
0.0
 10
65.153781
 20
194.191715
 30
0.0
 10
65.156132
 20
194.157900
 30
0.0
 11
64.395681
 21
194.157900
 31
0.0
 11
64.407752
 21
194.258181
 31
0.0
 11
64.443964
 21
194.347318
 31
0.0
 11
64.504317
 21
194.425310
 31
0.0
 11
64.582312
 21
194.490304
 31
0.0
 11
64.671449
 21
194.529301
 31
0.0
 11
64.771728
 21
194.542300
 31
0.0
 11
64.872008
 21
194.529301
 31
0.0
 11
64.961145
 21
194.490304
 31
0.0
 11
65.039140
 21
194.425310
 31
0.0
 11
65.104136
 21
194.347318
 31
0.0
 11
65.143133
 21
194.258181
 31
0.0
 11
65.156132
 21
194.157900
 31
0.0
  0
LWPOLYLINE
  5
12b
100
AcDbEntity
  8
Calque_1
 62
7
100
AcDbPolyline
 90
2
 70
0
 10
65.156132
 20
194.157900
 30
0.0
 10
65.156132
 20
189.169010
 30
0.0
  0
SPLINE
  5
12c
100
AcDbEntity
  8
Calque_1
 62
7
100
AcDbSpline
 70
0
 71
3
 72
13
 73
9
 74
7
 40
0.000000
 40
0.000000
 40
0.000000
 40
0.000000
 40
0.144193
 40
0.283917
 40
0.430388
 40
0.573958
 40
0.712592
 40
0.856667
 40
0.856667
 40
0.856667
 40
0.856667
 10
65.156132
 20
189.169010
 30
0.0
 10
65.152773
 20
189.120759
 30
0.0
 10
65.146159
 20
189.025754
 30
0.0
 10
65.086219
 20
188.892077
 30
0.0
 10
64.992928
 20
188.781957
 30
0.0
 10
64.880762
 20
188.691745
 30
0.0
 10
64.747346
 20
188.635236
 30
0.0
 10
64.652786
 20
188.629005
 30
0.0
 10
64.604596
 20
188.625830
 30
0.0
 11
65.156132
 21
189.169010
 31
0.0
 11
65.137562
 21
189.026018
 31
0.0
 11
65.081851
 21
188.897881
 31
0.0
 11
64.989000
 21
188.784600
 31
0.0
 11
64.875722
 21
188.696394
 31
0.0
 11
64.747587
 21
188.643471
 31
0.0
 11
64.604596
 21
188.625830
 31
0.0
  0
LWPOLYLINE
  5
12d
100
AcDbEntity
  8
Calque_1
 62
7
100
AcDbPolyline
 90
2
 70
0
 10
64.604596
 20
188.625830
 30
0.0
 10
64.504317
 20
188.625830
 30
0.0
  0
SPLINE
  5
12e
100
AcDbEntity
  8
Calque_1
 62
7
100
AcDbSpline
 70
0
 71
3
 72
13
 73
9
 74
7
 40
0.000000
 40
0.000000
 40
0.000000
 40
0.000000
 40
0.087522
 40
0.173333
 40
0.259545
 40
0.347374
 40
0.432278
 40
0.515857
 40
0.515857
 40
0.515857
 40
0.515857
 10
64.504317
 20
188.625830
 30
0.0
 10
64.475097
 20
188.627021
 30
0.0
 10
64.417228
 20
188.629380
 30
0.0
 10
64.332809
 20
188.650101
 30
0.0
 10
64.251514
 20
188.681538
 30
0.0
 10
64.180198
 20
188.730982
 30
0.0
 10
64.114623
 20
188.786201
 30
0.0
 10
64.079059
 20
188.829828
 30
0.0
 10
64.061417
 20
188.851470
 30
0.0
 11
64.504317
 21
188.625830
 31
0.0
 11
64.417037
 21
188.632330
 31
0.0
 11
64.333471
 21
188.651830
 31
0.0
 11
64.253619
 21
188.684330
 31
0.0
 11
64.180266
 21
188.732634
 31
0.0
 11
64.116199
 21
188.788348
 31
0.0
 11
64.061417
 21
188.851470
 31
0.0
  0
LWPOLYLINE
  5
12f
100
AcDbEntity
  8
Calque_1
 62
7
100
AcDbPolyline
 90
3
 70
0
 10
64.061417
 20
188.851470
 30
0.0
 10
60.827410
 20
193.522800
 30
0.0
 10
60.827410
 20
189.001870
 30
0.0
  0
SPLINE
  5
130
100
AcDbEntity
  8
Calque_1
 62
7
100
AcDbSpline
 70
0
 71
3
 72
13
 73
9
 74
7
 40
0.000000
 40
0.000000
 40
0.000000
 40
0.000000
 40
0.101116
 40
0.198410
 40
0.299938
 40
0.398555
 40
0.494766
 40
0.595769
 40
0.595769
 40
0.595769
 40
0.595769
 10
60.827410
 20
189.001870
 30
0.0
 10
60.825076
 20
188.968036
 30
0.0
 10
60.820498
 20
188.901647
 30
0.0
 10
60.778662
 20
188.808417
 30
0.0
 10
60.713193
 20
188.732979
 30
0.0
 10
60.635681
 20
188.670587
 30
0.0
 10
60.542727
 20
188.632185
 30
0.0
 10
60.476781
 20
188.627983
 30
0.0
 10
60.443007
 20
188.625830
 30
0.0
 11
60.827410
 21
189.001870
 31
0.0
 11
60.814411
 21
188.901593
 31
0.0
 11
60.775414
 21
188.812457
 31
0.0
 11
60.710418
 21
188.734460
 31
0.0
 11
60.632423
 21
188.674110
 31
0.0
 11
60.543286
 21
188.637900
 31
0.0
 11
60.443007
 21
188.625830
 31
0.0
  0
LWPOLYLINE
  5
131
100
AcDbEntity
  8
Calque_1
 62
7
100
AcDbPolyline
 90
1
 70
1
 10
60.443007
 20
188.625830
 30
0.0
  0
SPLINE
  5
132
100
AcDbEntity
  8
Calque_1
 62
7
100
AcDbSpline
 70
0
 71
3
 72
13
 73
9
 74
7
 40
0.000000
 40
0.000000
 40
0.000000
 40
0.000000
 40
0.101003
 40
0.197214
 40
0.295831
 40
0.394452
 40
0.490663
 40
0.591664
 40
0.591664
 40
0.591664
 40
0.591664
 10
73.663418
 20
188.625830
 30
0.0
 10
73.629624
 20
188.627965
 30
0.0
 10
73.563640
 20
188.632134
 30
0.0
 10
73.470961
 20
188.670784
 30
0.0
 10
73.393152
 20
188.731607
 30
0.0
 10
73.332329
 20
188.809415
 30
0.0
 10
73.293675
 20
188.902094
 30
0.0
 10
73.289506
 20
188.968077
 30
0.0
 10
73.287371
 20
189.001870
 30
0.0
 11
73.663418
 21
188.625830
 31
0.0
 11
73.563139
 21
188.637900
 31
0.0
 11
73.474002
 21
188.674110
 31
0.0
 11
73.396007
 21
188.734460
 31
0.0
 11
73.335654
 21
188.812457
 31
0.0
 11
73.299442
 21
188.901593
 31
0.0
 11
73.287371
 21
189.001870
 31
0.0
  0
LWPOLYLINE
  5
133
100
AcDbEntity
  8
Calque_1
 62
7
100
AcDbPolyline
 90
2
 70
0
 10
73.287371
 20
189.001870
 30
0.0
 10
73.287371
 20
194.157900
 30
0.0
  0
SPLINE
  5
134
100
AcDbEntity
  8
Calque_1
 62
7
100
AcDbSpline
 70
0
 71
3
 72
19
 73
15
 74
13
 40
0.000000
 40
0.000000
 40
0.000000
 40
0.000000
 40
0.101005
 40
0.197216
 40
0.295833
 40
0.397359
 40
0.494653
 40
0.595772
 40
0.696890
 40
0.794184
 40
0.895709
 40
0.997234
 40
1.094528
 40
1.195649
 40
1.195649
 40
1.195649
 40
1.195649
 10
73.287371
 20
194.157900
 30
0.0
 10
73.289524
 20
194.191673
 30
0.0
 10
73.293727
 20
194.257617
 30
0.0
 10
73.332130
 20
194.350596
 30
0.0
 10
73.394526
 20
194.428007
 30
0.0
 10
73.469963
 20
194.493842
 30
0.0
 10
73.563189
 20
194.534345
 30
0.0
 10
73.663434
 20
194.546367
 30
0.0
 10
73.763582
 20
194.534294
 30
0.0
 10
73.857095
 20
194.494040
 30
0.0
 10
73.932179
 20
194.426582
 30
0.0
 10
73.999273
 20
194.351597
 30
0.0
 10
74.040859
 20
194.258064
 30
0.0
 10
74.045471
 20
194.191715
 30
0.0
 10
74.047822
 20
194.157900
 30
0.0
 11
73.287371
 21
194.157900
 31
0.0
 11
73.299442
 21
194.258181
 31
0.0
 11
73.335654
 21
194.347318
 31
0.0
 11
73.396007
 21
194.425310
 31
0.0
 11
73.474002
 21
194.490304
 31
0.0
 11
73.563139
 21
194.529301
 31
0.0
 11
73.663418
 21
194.542300
 31
0.0
 11
73.763697
 21
194.529301
 31
0.0
 11
73.852834
 21
194.490304
 31
0.0
 11
73.930829
 21
194.425310
 31
0.0
 11
73.995825
 21
194.347318
 31
0.0
 11
74.034823
 21
194.258181
 31
0.0
 11
74.047822
 21
194.157900
 31
0.0
  0
LWPOLYLINE
  5
135
100
AcDbEntity
  8
Calque_1
 62
7
100
AcDbPolyline
 90
4
 70
0
 10
74.047822
 20
194.157900
 30
0.0
 10
74.047822
 20
191.935040
 30
0.0
 10
77.214975
 20
191.935040
 30
0.0
 10
77.214975
 20
194.157900
 30
0.0
  0
SPLINE
  5
136
100
AcDbEntity
  8
Calque_1
 62
7
100
AcDbSpline
 70
0
 71
3
 72
19
 73
15
 74
13
 40
0.000000
 40
0.000000
 40
0.000000
 40
0.000000
 40
0.101005
 40
0.197216
 40
0.295833
 40
0.397359
 40
0.494654
 40
0.595772
 40
0.696890
 40
0.794184
 40
0.895710
 40
0.997235
 40
1.094529
 40
1.195649
 40
1.195649
 40
1.195649
 40
1.195649
 10
77.214975
 20
194.157900
 30
0.0
 10
77.217128
 20
194.191673
 30
0.0
 10
77.221331
 20
194.257617
 30
0.0
 10
77.259734
 20
194.350596
 30
0.0
 10
77.322130
 20
194.428007
 30
0.0
 10
77.397568
 20
194.493842
 30
0.0
 10
77.490794
 20
194.534345
 30
0.0
 10
77.591039
 20
194.546367
 30
0.0
 10
77.691187
 20
194.534294
 30
0.0
 10
77.784700
 20
194.494040
 30
0.0
 10
77.859784
 20
194.426583
 30
0.0
 10
77.926878
 20
194.351597
 30
0.0
 10
77.968463
 20
194.258064
 30
0.0
 10
77.973075
 20
194.191715
 30
0.0
 10
77.975426
 20
194.157900
 30
0.0
 11
77.214975
 21
194.157900
 31
0.0
 11
77.227046
 21
194.258181
 31
0.0
 11
77.263258
 21
194.347318
 31
0.0
 11
77.323611
 21
194.425310
 31
0.0
 11
77.401606
 21
194.490304
 31
0.0
 11
77.490743
 21
194.529301
 31
0.0
 11
77.591023
 21
194.542300
 31
0.0
 11
77.691302
 21
194.529301
 31
0.0
 11
77.780439
 21
194.490304
 31
0.0
 11
77.858434
 21
194.425310
 31
0.0
 11
77.923430
 21
194.347318
 31
0.0
 11
77.962427
 21
194.258181
 31
0.0
 11
77.975426
 21
194.157900
 31
0.0
  0
LWPOLYLINE
  5
137
100
AcDbEntity
  8
Calque_1
 62
7
100
AcDbPolyline
 90
2
 70
0
 10
77.975426
 20
194.157900
 30
0.0
 10
77.975426
 20
189.001870
 30
0.0
  0
SPLINE
  5
138
100
AcDbEntity
  8
Calque_1
 62
7
100
AcDbSpline
 70
0
 71
3
 72
19
 73
15
 74
13
 40
0.000000
 40
0.000000
 40
0.000000
 40
0.000000
 40
0.101116
 40
0.198410
 40
0.299938
 40
0.398555
 40
0.494766
 40
0.595769
 40
0.696772
 40
0.792983
 40
0.891601
 40
0.990221
 40
1.086433
 40
1.187433
 40
1.187433
 40
1.187433
 40
1.187433
 10
77.975426
 20
189.001870
 30
0.0
 10
77.973092
 20
188.968038
 30
0.0
 10
77.968514
 20
188.901652
 30
0.0
 10
77.926678
 20
188.808399
 30
0.0
 10
77.861209
 20
188.733050
 30
0.0
 10
77.783698
 20
188.670333
 30
0.0
 10
77.690739
 20
188.633130
 30
0.0
 10
77.591040
 20
188.622104
 30
0.0
 10
77.491241
 20
188.633079
 30
0.0
 10
77.398567
 20
188.670529
 30
0.0
 10
77.320756
 20
188.731675
 30
0.0
 10
77.259933
 20
188.809398
 30
0.0
 10
77.221279
 20
188.902099
 30
0.0
 10
77.217110
 20
188.968079
 30
0.0
 10
77.214975
 20
189.001870
 30
0.0
 11
77.975426
 21
189.001870
 31
0.0
 11
77.962427
 21
188.901593
 31
0.0
 11
77.923430
 21
188.812457
 31
0.0
 11
77.858434
 21
188.734460
 31
0.0
 11
77.780439
 21
188.674110
 31
0.0
 11
77.691302
 21
188.637900
 31
0.0
 11
77.591023
 21
188.625830
 31
0.0
 11
77.490743
 21
188.637900
 31
0.0
 11
77.401606
 21
188.674110
 31
0.0
 11
77.323611
 21
188.734460
 31
0.0
 11
77.263258
 21
188.812457
 31
0.0
 11
77.227046
 21
188.901593
 31
0.0
 11
77.214975
 21
189.001870
 31
0.0
  0
LWPOLYLINE
  5
139
100
AcDbEntity
  8
Calque_1
 62
7
100
AcDbPolyline
 90
4
 70
0
 10
77.214975
 20
189.001870
 30
0.0
 10
77.214975
 20
191.224730
 30
0.0
 10
74.047822
 20
191.224730
 30
0.0
 10
74.047822
 20
189.001870
 30
0.0
  0
SPLINE
  5
13a
100
AcDbEntity
  8
Calque_1
 62
7
100
AcDbSpline
 70
0
 71
3
 72
13
 73
9
 74
7
 40
0.000000
 40
0.000000
 40
0.000000
 40
0.000000
 40
0.101116
 40
0.198410
 40
0.299938
 40
0.398555
 40
0.494766
 40
0.595769
 40
0.595769
 40
0.595769
 40
0.595769
 10
74.047822
 20
189.001870
 30
0.0
 10
74.045488
 20
188.968036
 30
0.0
 10
74.040909
 20
188.901647
 30
0.0
 10
73.999073
 20
188.808417
 30
0.0
 10
73.933604
 20
188.732979
 30
0.0
 10
73.856092
 20
188.670587
 30
0.0
 10
73.763138
 20
188.632185
 30
0.0
 10
73.697192
 20
188.627983
 30
0.0
 10
73.663418
 20
188.625830
 30
0.0
 11
74.047822
 21
189.001870
 31
0.0
 11
74.034823
 21
188.901593
 31
0.0
 11
73.995825
 21
188.812457
 31
0.0
 11
73.930829
 21
188.734460
 31
0.0
 11
73.852834
 21
188.674110
 31
0.0
 11
73.763697
 21
188.637900
 31
0.0
 11
73.663418
 21
188.625830
 31
0.0
  0
LWPOLYLINE
  5
13b
100
AcDbEntity
  8
Calque_1
 62
7
100
AcDbPolyline
 90
1
 70
1
 10
73.663418
 20
188.625830
 30
0.0
  0
SPLINE
  5
13c
100
AcDbEntity
  8
Calque_1
 62
7
100
AcDbSpline
 70
0
 71
3
 72
13
 73
9
 74
7
 40
0.000000
 40
0.000000
 40
0.000000
 40
0.000000
 40
0.101003
 40
0.197215
 40
0.295832
 40
0.394452
 40
0.490664
 40
0.591665
 40
0.591665
 40
0.591665
 40
0.591665
 10
79.979836
 20
188.625830
 30
0.0
 10
79.946042
 20
188.627965
 30
0.0
 10
79.880058
 20
188.632134
 30
0.0
 10
79.787379
 20
188.670784
 30
0.0
 10
79.709569
 20
188.731606
 30
0.0
 10
79.648746
 20
188.809415
 30
0.0
 10
79.610092
 20
188.902094
 30
0.0
 10
79.605923
 20
188.968077
 30
0.0
 10
79.603788
 20
189.001870
 30
0.0
 11
79.979836
 21
188.625830
 31
0.0
 11
79.879556
 21
188.637900
 31
0.0
 11
79.790419
 21
188.674110
 31
0.0
 11
79.712424
 21
188.734460
 31
0.0
 11
79.652071
 21
188.812457
 31
0.0
 11
79.615859
 21
188.901593
 31
0.0
 11
79.603788
 21
189.001870
 31
0.0
  0
LWPOLYLINE
  5
13d
100
AcDbEntity
  8
Calque_1
 62
7
100
AcDbPolyline
 90
2
 70
0
 10
79.603788
 20
189.001870
 30
0.0
 10
79.603788
 20
194.157900
 30
0.0
  0
SPLINE
  5
13e
100
AcDbEntity
  8
Calque_1
 62
7
100
AcDbSpline
 70
0
 71
3
 72
19
 73
15
 74
13
 40
0.000000
 40
0.000000
 40
0.000000
 40
0.000000
 40
0.101005
 40
0.197216
 40
0.295833
 40
0.397359
 40
0.494654
 40
0.595772
 40
0.696890
 40
0.794184
 40
0.895710
 40
0.997235
 40
1.094529
 40
1.195649
 40
1.195649
 40
1.195649
 40
1.195649
 10
79.603788
 20
194.157900
 30
0.0
 10
79.605941
 20
194.191673
 30
0.0
 10
79.610144
 20
194.257617
 30
0.0
 10
79.648547
 20
194.350596
 30
0.0
 10
79.710943
 20
194.428007
 30
0.0
 10
79.786381
 20
194.493842
 30
0.0
 10
79.879607
 20
194.534345
 30
0.0
 10
79.979852
 20
194.546367
 30
0.0
 10
80.080000
 20
194.534294
 30
0.0
 10
80.173513
 20
194.494040
 30
0.0
 10
80.248597
 20
194.426583
 30
0.0
 10
80.315691
 20
194.351597
 30
0.0
 10
80.357276
 20
194.258064
 30
0.0
 10
80.361888
 20
194.191715
 30
0.0
 10
80.364239
 20
194.157900
 30
0.0
 11
79.603788
 21
194.157900
 31
0.0
 11
79.615859
 21
194.258181
 31
0.0
 11
79.652071
 21
194.347318
 31
0.0
 11
79.712424
 21
194.425310
 31
0.0
 11
79.790419
 21
194.490304
 31
0.0
 11
79.879556
 21
194.529301
 31
0.0
 11
79.979836
 21
194.542300
 31
0.0
 11
80.080115
 21
194.529301
 31
0.0
 11
80.169252
 21
194.490304
 31
0.0
 11
80.247247
 21
194.425310
 31
0.0
 11
80.312243
 21
194.347318
 31
0.0
 11
80.351240
 21
194.258181
 31
0.0
 11
80.364239
 21
194.157900
 31
0.0
  0
LWPOLYLINE
  5
13f
100
AcDbEntity
  8
Calque_1
 62
7
100
AcDbPolyline
 90
4
 70
0
 10
80.364239
 20
194.157900
 30
0.0
 10
80.364239
 20
191.935040
 30
0.0
 10
83.531393
 20
191.935040
 30
0.0
 10
83.531393
 20
194.157900
 30
0.0
  0
SPLINE
  5
140
100
AcDbEntity
  8
Calque_1
 62
7
100
AcDbSpline
 70
0
 71
3
 72
19
 73
15
 74
13
 40
0.000000
 40
0.000000
 40
0.000000
 40
0.000000
 40
0.101005
 40
0.197216
 40
0.295833
 40
0.397359
 40
0.494653
 40
0.595771
 40
0.696890
 40
0.794184
 40
0.895710
 40
0.997235
 40
1.094529
 40
1.195649
 40
1.195649
 40
1.195649
 40
1.195649
 10
83.531393
 20
194.157900
 30
0.0
 10
83.533546
 20
194.191673
 30
0.0
 10
83.537749
 20
194.257617
 30
0.0
 10
83.576152
 20
194.350596
 30
0.0
 10
83.638548
 20
194.428007
 30
0.0
 10
83.713986
 20
194.493842
 30
0.0
 10
83.807211
 20
194.534345
 30
0.0
 10
83.907457
 20
194.546367
 30
0.0
 10
84.007604
 20
194.534294
 30
0.0
 10
84.101118
 20
194.494040
 30
0.0
 10
84.176202
 20
194.426583
 30
0.0
 10
84.243296
 20
194.351597
 30
0.0
 10
84.284881
 20
194.258064
 30
0.0
 10
84.289493
 20
194.191715
 30
0.0
 10
84.291844
 20
194.157900
 30
0.0
 11
83.531393
 21
194.157900
 31
0.0
 11
83.543464
 21
194.258181
 31
0.0
 11
83.579676
 21
194.347318
 31
0.0
 11
83.640029
 21
194.425310
 31
0.0
 11
83.718024
 21
194.490304
 31
0.0
 11
83.807161
 21
194.529301
 31
0.0
 11
83.907440
 21
194.542300
 31
0.0
 11
84.007720
 21
194.529301
 31
0.0
 11
84.096857
 21
194.490304
 31
0.0
 11
84.174852
 21
194.425310
 31
0.0
 11
84.239848
 21
194.347318
 31
0.0
 11
84.278845
 21
194.258181
 31
0.0
 11
84.291844
 21
194.157900
 31
0.0
  0
LWPOLYLINE
  5
141
100
AcDbEntity
  8
Calque_1
 62
7
100
AcDbPolyline
 90
2
 70
0
 10
84.291844
 20
194.157900
 30
0.0
 10
84.291844
 20
189.001870
 30
0.0
  0
SPLINE
  5
142
100
AcDbEntity
  8
Calque_1
 62
7
100
AcDbSpline
 70
0
 71
3
 72
19
 73
15
 74
13
 40
0.000000
 40
0.000000
 40
0.000000
 40
0.000000
 40
0.101116
 40
0.198410
 40
0.299938
 40
0.398555
 40
0.494766
 40
0.595770
 40
0.696772
 40
0.792983
 40
0.891601
 40
0.990221
 40
1.086433
 40
1.187433
 40
1.187433
 40
1.187433
 40
1.187433
 10
84.291844
 20
189.001870
 30
0.0
 10
84.289510
 20
188.968038
 30
0.0
 10
84.284932
 20
188.901652
 30
0.0
 10
84.243096
 20
188.808399
 30
0.0
 10
84.177627
 20
188.733050
 30
0.0
 10
84.100116
 20
188.670333
 30
0.0
 10
84.007157
 20
188.633130
 30
0.0
 10
83.907457
 20
188.622104
 30
0.0
 10
83.807658
 20
188.633079
 30
0.0
 10
83.714985
 20
188.670529
 30
0.0
 10
83.637174
 20
188.731676
 30
0.0
 10
83.576351
 20
188.809398
 30
0.0
 10
83.537697
 20
188.902099
 30
0.0
 10
83.533528
 20
188.968079
 30
0.0
 10
83.531393
 20
189.001870
 30
0.0
 11
84.291844
 21
189.001870
 31
0.0
 11
84.278845
 21
188.901593
 31
0.0
 11
84.239848
 21
188.812457
 31
0.0
 11
84.174852
 21
188.734460
 31
0.0
 11
84.096857
 21
188.674110
 31
0.0
 11
84.007720
 21
188.637900
 31
0.0
 11
83.907440
 21
188.625830
 31
0.0
 11
83.807161
 21
188.637900
 31
0.0
 11
83.718024
 21
188.674110
 31
0.0
 11
83.640029
 21
188.734460
 31
0.0
 11
83.579676
 21
188.812457
 31
0.0
 11
83.543464
 21
188.901593
 31
0.0
 11
83.531393
 21
189.001870
 31
0.0
  0
LWPOLYLINE
  5
143
100
AcDbEntity
  8
Calque_1
 62
7
100
AcDbPolyline
 90
4
 70
0
 10
83.531393
 20
189.001870
 30
0.0
 10
83.531393
 20
191.224730
 30
0.0
 10
80.364239
 20
191.224730
 30
0.0
 10
80.364239
 20
189.001870
 30
0.0
  0
SPLINE
  5
144
100
AcDbEntity
  8
Calque_1
 62
7
100
AcDbSpline
 70
0
 71
3
 72
13
 73
9
 74
7
 40
0.000000
 40
0.000000
 40
0.000000
 40
0.000000
 40
0.101116
 40
0.198410
 40
0.299938
 40
0.398555
 40
0.494766
 40
0.595769
 40
0.595769
 40
0.595769
 40
0.595769
 10
80.364239
 20
189.001870
 30
0.0
 10
80.361905
 20
188.968036
 30
0.0
 10
80.357327
 20
188.901647
 30
0.0
 10
80.315491
 20
188.808417
 30
0.0
 10
80.250022
 20
188.732979
 30
0.0
 10
80.172510
 20
188.670587
 30
0.0
 10
80.079556
 20
188.632185
 30
0.0
 10
80.013610
 20
188.627983
 30
0.0
 10
79.979836
 20
188.625830
 30
0.0
 11
80.364239
 21
189.001870
 31
0.0
 11
80.351240
 21
188.901593
 31
0.0
 11
80.312243
 21
188.812457
 31
0.0
 11
80.247247
 21
188.734460
 31
0.0
 11
80.169252
 21
188.674110
 31
0.0
 11
80.080115
 21
188.637900
 31
0.0
 11
79.979836
 21
188.625830
 31
0.0
  0
SPLINE
  5
145
100
AcDbEntity
  8
Calque_1
 62
7
100
AcDbSpline
 70
0
 71
3
 72
10
 73
6
 74
4
 40
0.000000
 40
0.000000
 40
0.000000
 40
0.000000
 40
0.540015
 40
1.055520
 40
1.560878
 40
1.560878
 40
1.560878
 40
1.560878
 10
95.006320
 20
188.584040
 30
0.0
 10
94.826268
 20
188.591591
 30
0.0
 10
94.474335
 20
188.606349
 30
0.0
 10
93.963060
 20
188.725771
 30
0.0
 10
93.654752
 20
188.871326
 30
0.0
 10
93.502131
 20
188.943380
 30
0.0
 11
95.006320
 21
188.584040
 31
0.0
 11
94.467783
 21
188.623967
 31
0.0
 11
93.966387
 21
188.743747
 31
0.0
 11
93.502131
 21
188.943380
 31
0.0
  0
SPLINE
  5
146
100
AcDbEntity
  8
Calque_1
 62
7
100
AcDbSpline
 70
0
 71
3
 72
10
 73
6
 74
4
 40
0.000000
 40
0.000000
 40
0.000000
 40
0.000000
 40
0.495760
 40
0.988177
 40
1.494262
 40
1.494262
 40
1.494262
 40
1.494262
 10
93.502131
 20
188.943380
 30
0.0
 10
93.361918
 20
189.031479
 30
0.0
 10
93.082437
 20
189.207083
 30
0.0
 10
92.726908
 20
189.563843
 30
0.0
 10
92.548155
 20
189.845297
 30
0.0
 10
92.457555
 20
189.987950
 30
0.0
 11
93.502131
 21
188.943380
 31
0.0
 11
93.092657
 21
189.222861
 31
0.0
 11
92.744465
 21
189.571051
 31
0.0
 11
92.457555
 21
189.987950
 31
0.0
  0
SPLINE
  5
147
100
AcDbEntity
  8
Calque_1
 62
7
100
AcDbSpline
 70
0
 71
3
 72
13
 73
9
 74
7
 40
0.000000
 40
0.000000
 40
0.000000
 40
0.000000
 40
0.525238
 40
1.071845
 40
1.655520
 40
2.238268
 40
2.782159
 40
3.303135
 40
3.303135
 40
3.303135
 40
3.303135
 10
92.457555
 20
189.987950
 30
0.0
 10
92.381704
 20
190.146297
 30
0.0
 10
92.226916
 20
190.469432
 30
0.0
 10
92.107721
 20
191.012669
 30
0.0
 10
92.067990
 20
191.583764
 30
0.0
 10
92.107606
 20
192.153935
 30
0.0
 10
92.226586
 20
192.694616
 30
0.0
 10
92.381678
 20
193.015051
 30
0.0
 10
92.457555
 20
193.171820
 30
0.0
 11
92.457555
 21
189.987950
 31
0.0
 11
92.248640
 21
190.469852
 31
0.0
 11
92.123291
 21
191.001892
 31
0.0
 11
92.081508
 21
191.584070
 31
0.0
 11
92.123291
 21
192.165318
 31
0.0
 11
92.248640
 21
192.694568
 31
0.0
 11
92.457555
 21
193.171820
 31
0.0
  0
SPLINE
  5
148
100
AcDbEntity
  8
Calque_1
 62
7
100
AcDbSpline
 70
0
 71
3
 72
10
 73
6
 74
4
 40
0.000000
 40
0.000000
 40
0.000000
 40
0.000000
 40
0.509151
 40
1.001570
 40
1.495248
 40
1.495248
 40
1.495248
 40
1.495248
 10
92.457555
 20
193.171820
 30
0.0
 10
92.547996
 20
193.315790
 30
0.0
 10
92.725905
 20
193.599000
 30
0.0
 10
93.081557
 20
193.956550
 30
0.0
 10
93.361820
 20
194.129710
 30
0.0
 10
93.502131
 20
194.216400
 30
0.0
 11
92.457555
 21
193.171820
 31
0.0
 11
92.744465
 21
193.592436
 31
0.0
 11
93.092657
 21
193.940629
 31
0.0
 11
93.502131
 21
194.216400
 31
0.0
  0
SPLINE
  5
149
100
AcDbEntity
  8
Calque_1
 62
7
100
AcDbSpline
 70
0
 71
3
 72
46
 73
42
 74
40
 40
0.000000
 40
0.000000
 40
0.000000
 40
0.000000
 40
0.507209
 40
1.023368
 40
1.563452
 40
1.928659
 40
2.268643
 40
2.586635
 40
2.903458
 40
3.227886
 40
3.561785
 40
3.691432
 40
3.813741
 40
3.947162
 40
4.028586
 40
4.109798
 40
4.196154
 40
4.281012
 40
4.367406
 40
4.461741
 40
4.515724
 40
4.567085
 40
4.617080
 40
4.887423
 40
5.146058
 40
5.394173
 40
5.646456
 40
5.918713
 40
6.213261
 40
6.670385
 40
7.091959
 40
7.491630
 40
7.869627
 40
8.240114
 40
8.617563
 40
8.999481
 40
9.395583
 40
9.815264
 40
10.235878
 40
10.634707
 40
11.020956
 40
11.020956
 40
11.020956
 40
11.020956
 10
93.502131
 20
194.216400
 30
0.0
 10
93.654660
 20
194.290350
 30
0.0
 10
93.962409
 20
194.439555
 30
0.0
 10
94.474054
 20
194.558180
 30
0.0
 10
94.948013
 20
194.592042
 30
0.0
 10
95.363219
 20
194.574874
 30
0.0
 10
95.702189
 20
194.532134
 30
0.0
 10
96.018472
 20
194.455057
 30
0.0
 10
96.321383
 20
194.351602
 30
0.0
 10
96.619328
 20
194.220419
 30
0.0
 10
96.855137
 20
194.106630
 30
0.0
 10
97.019168
 20
193.994857
 30
0.0
 10
97.083973
 20
193.878989
 30
0.0
 10
97.099976
 20
193.765791
 30
0.0
 10
97.089114
 20
193.666736
 30
0.0
 10
97.056474
 20
193.589438
 30
0.0
 10
97.007156
 20
193.520076
 30
0.0
 10
96.937237
 20
193.467836
 30
0.0
 10
96.853258
 20
193.436696
 30
0.0
 10
96.774615
 20
193.428978
 30
0.0
 10
96.708092
 20
193.433225
 30
0.0
 10
96.657101
 20
193.443999
 30
0.0
 10
96.543109
 20
193.493353
 30
0.0
 10
96.373369
 20
193.585410
 30
0.0
 10
96.131955
 20
193.680554
 30
0.0
 10
95.891995
 20
193.761245
 30
0.0
 10
95.640248
 20
193.818126
 30
0.0
 10
95.368722
 20
193.850314
 30
0.0
 10
95.027399
 20
193.862990
 30
0.0
 10
94.635686
 20
193.837697
 30
0.0
 10
94.218635
 20
193.738657
 30
0.0
 10
93.853274
 20
193.570345
 30
0.0
 10
93.539477
 20
193.347253
 30
0.0
 10
93.280995
 20
193.071675
 30
0.0
 10
93.081307
 20
192.749501
 30
0.0
 10
92.942141
 20
192.388334
 30
0.0
 10
92.858791
 20
191.996368
 30
0.0
 10
92.833077
 20
191.583644
 30
0.0
 10
92.859710
 20
191.170687
 30
0.0
 10
92.939448
 20
190.774192
 30
0.0
 10
93.042137
 20
190.532868
 30
0.0
 10
93.092659
 20
190.414140
 30
0.0
 11
93.502131
 21
194.216400
 31
0.0
 11
93.966387
 21
194.420672
 31
0.0
 11
94.467783
 21
194.543236
 31
0.0
 11
95.006320
 21
194.584090
 31
0.0
 11
95.371225
 21
194.569233
 31
0.0
 11
95.708275
 21
194.524663
 31
0.0
 11
96.017469
 21
194.450380
 31
0.0
 11
96.317378
 21
194.348247
 31
0.0
 11
96.615431
 21
194.220113
 31
0.0
 11
96.911626
 21
194.065980
 31
0.0
 11
97.013762
 21
193.986128
 31
0.0
 11
97.075044
 21
193.880278
 31
0.0
 11
97.095471
 21
193.748430
 31
0.0
 11
97.085258
 21
193.667649
 31
0.0
 11
97.054618
 21
193.592439
 31
0.0
 11
97.003551
 21
193.522800
 31
0.0
 11
96.935771
 21
193.471744
 31
0.0
 11
96.854990
 21
193.441111
 31
0.0
 11
96.761209
 21
193.430900
 31
0.0
 11
96.707354
 21
193.434611
 31
0.0
 11
96.657214
 21
193.445744
 31
0.0
 11
96.610790
 21
193.464300
 31
0.0
 11
96.367520
 21
193.582220
 31
0.0
 11
96.127964
 21
193.679713
 31
0.0
 11
95.892122
 21
193.756780
 31
0.0
 11
95.646067
 21
193.812491
 31
0.0
 11
95.375870
 21
193.845918
 31
0.0
 11
95.081532
 21
193.857060
 31
0.0
 11
94.625632
 21
193.823633
 31
0.0
 11
94.216159
 21
193.723353
 31
0.0
 11
93.853111
 21
193.556220
 31
0.0
 11
93.545773
 21
193.336163
 31
0.0
 11
93.292289
 21
193.065967
 31
0.0
 11
93.092659
 21
192.745630
 31
0.0
 11
92.953382
 21
192.390012
 31
0.0
 11
92.869816
 21
192.002826
 31
0.0
 11
92.841961
 21
191.584070
 31
0.0
 11
92.869816
 21
191.164380
 31
0.0
 11
92.953382
 21
190.774403
 31
0.0
 11
93.092659
 21
190.414140
 31
0.0
  0
SPLINE
  5
14a
100
AcDbEntity
  8
Calque_1
 62
7
100
AcDbSpline
 70
0
 71
3
 72
10
 73
6
 74
4
 40
0.000000
 40
0.000000
 40
0.000000
 40
0.000000
 40
0.374301
 40
0.744788
 40
1.124959
 40
1.124959
 40
1.124959
 40
1.124959
 10
93.092659
 20
190.414140
 30
0.0
 10
93.155188
 20
190.305865
 30
0.0
 10
93.279608
 20
190.090418
 30
0.0
 10
93.539566
 20
189.814064
 30
0.0
 10
93.747701
 20
189.674322
 30
0.0
 10
93.853111
 20
189.603550
 30
0.0
 11
93.092659
 21
190.414140
 31
0.0
 11
93.292289
 21
190.097519
 31
0.0
 11
93.545773
 21
189.827322
 31
0.0
 11
93.853111
 21
189.603550
 31
0.0
  0
LWPOLYLINE
  5
14b
100
AcDbEntity
  8
Calque_1
 62
7
100
AcDbPolyline
 90
1
 70
1
 10
79.979836
 20
188.625830
 30
0.0
  0
SPLINE
  5
14c
100
AcDbEntity
  8
Calque_1
 62
7
100
AcDbSpline
 70
0
 71
3
 72
34
 73
30
 74
28
 40
0.000000
 40
0.000000
 40
0.000000
 40
0.000000
 40
0.397751
 40
0.818671
 40
1.275728
 40
1.570277
 40
1.842533
 40
2.094817
 40
2.342931
 40
2.601566
 40
2.871909
 40
2.921904
 40
2.973265
 40
3.027248
 40
3.121582
 40
3.207976
 40
3.292835
 40
3.376217
 40
3.457428
 40
3.542549
 40
3.675970
 40
3.798279
 40
3.927926
 40
4.261823
 40
4.586250
 40
4.903075
 40
5.221067
 40
5.561051
 40
5.926259
 40
5.926259
 40
5.926259
 40
5.926259
 10
93.853111
 20
189.603550
 30
0.0
 10
93.972268
 20
189.544464
 30
0.0
 10
94.217522
 20
189.422849
 30
0.0
 10
94.636520
 20
189.330844
 30
0.0
 10
95.027324
 20
189.305068
 30
0.0
 10
95.368741
 20
189.317831
 30
0.0
 10
95.640243
 20
189.350001
 30
0.0
 10
95.891996
 20
189.406886
 30
0.0
 10
96.131955
 20
189.487575
 30
0.0
 10
96.373369
 20
189.582720
 30
0.0
 10
96.543108
 20
189.674777
 30
0.0
 10
96.657101
 20
189.724131
 30
0.0
 10
96.708091
 20
189.734904
 30
0.0
 10
96.774622
 20
189.739158
 30
0.0
 10
96.853208
 20
189.731398
 30
0.0
 10
96.937397
 20
189.700413
 30
0.0
 10
97.005763
 20
189.648222
 30
0.0
 10
97.057534
 20
189.582002
 30
0.0
 10
97.089455
 20
189.503827
 30
0.0
 10
97.099820
 20
189.403597
 30
0.0
 10
97.084067
 20
189.289136
 30
0.0
 10
97.019143
 20
189.173274
 30
0.0
 10
96.855158
 20
189.061499
 30
0.0
 10
96.619320
 20
188.947710
 30
0.0
 10
96.321384
 20
188.816557
 30
0.0
 10
96.018472
 20
188.712986
 30
0.0
 10
95.702189
 20
188.636327
 30
0.0
 10
95.363219
 20
188.591882
 30
0.0
 10
95.128090
 20
188.586716
 30
0.0
 10
95.006320
 20
188.584040
 30
0.0
 11
93.853111
 21
189.603550
 31
0.0
 11
94.216159
 21
189.441061
 31
0.0
 11
94.625632
 21
189.343568
 31
0.0
 11
95.081532
 21
189.311070
 31
0.0
 11
95.375870
 21
189.322212
 31
0.0
 11
95.646067
 21
189.355639
 31
0.0
 11
95.892122
 21
189.411350
 31
0.0
 11
96.127964
 21
189.488417
 31
0.0
 11
96.367520
 21
189.585910
 31
0.0
 11
96.610790
 21
189.703830
 31
0.0
 11
96.657214
 21
189.722386
 31
0.0
 11
96.707354
 21
189.733519
 31
0.0
 11
96.761209
 21
189.737230
 31
0.0
 11
96.854989
 21
189.727019
 31
0.0
 11
96.935769
 21
189.696386
 31
0.0
 11
97.003551
 21
189.645330
 31
0.0
 11
97.054618
 21
189.579416
 31
0.0
 11
97.085258
 21
189.504206
 31
0.0
 11
97.095471
 21
189.419700
 31
0.0
 11
97.075044
 21
189.287852
 31
0.0
 11
97.013762
 21
189.182002
 31
0.0
 11
96.911626
 21
189.102150
 31
0.0
 11
96.615431
 21
188.948021
 31
0.0
 11
96.317378
 21
188.819888
 31
0.0
 11
96.017469
 21
188.717750
 31
0.0
 11
95.708275
 21
188.643467
 31
0.0
 11
95.371225
 21
188.598897
 31
0.0
 11
95.006320
 21
188.584040
 31
0.0
  0
LWPOLYLINE
  5
14d
100
AcDbEntity
  8
Calque_1
 62
7
100
AcDbPolyline
 90
1
 70
1
 10
95.006320
 20
188.584040
 30
0.0
  0
SPLINE
  5
14e
100
AcDbEntity
  8
Calque_1
 62
7
100
AcDbSpline
 70
0
 71
3
 72
13
 73
9
 74
7
 40
0.000000
 40
0.000000
 40
0.000000
 40
0.000000
 40
0.101003
 40
0.197214
 40
0.295831
 40
0.394452
 40
0.490663
 40
0.591664
 40
0.591664
 40
0.591664
 40
0.591664
 10
98.618984
 20
188.625830
 30
0.0
 10
98.585190
 20
188.627965
 30
0.0
 10
98.519207
 20
188.632134
 30
0.0
 10
98.426528
 20
188.670784
 30
0.0
 10
98.348718
 20
188.731606
 30
0.0
 10
98.287895
 20
188.809415
 30
0.0
 10
98.249241
 20
188.902094
 30
0.0
 10
98.245072
 20
188.968077
 30
0.0
 10
98.242937
 20
189.001870
 30
0.0
 11
98.618984
 21
188.625830
 31
0.0
 11
98.518705
 21
188.637900
 31
0.0
 11
98.429568
 21
188.674110
 31
0.0
 11
98.351573
 21
188.734460
 31
0.0
 11
98.291220
 21
188.812457
 31
0.0
 11
98.255008
 21
188.901593
 31
0.0
 11
98.242937
 21
189.001870
 31
0.0
  0
LWPOLYLINE
  5
14f
100
AcDbEntity
  8
Calque_1
 62
7
100
AcDbPolyline
 90
2
 70
0
 10
98.242937
 20
189.001870
 30
0.0
 10
98.242937
 20
194.116120
 30
0.0
  0
SPLINE
  5
150
100
AcDbEntity
  8
Calque_1
 62
7
100
AcDbSpline
 70
0
 71
3
 72
13
 73
9
 74
7
 40
0.000000
 40
0.000000
 40
0.000000
 40
0.000000
 40
0.101001
 40
0.197212
 40
0.295833
 40
0.397358
 40
0.494653
 40
0.595771
 40
0.595771
 40
0.595771
 40
0.595771
 10
98.242937
 20
194.116120
 30
0.0
 10
98.245090
 20
194.149894
 30
0.0
 10
98.249293
 20
194.215839
 30
0.0
 10
98.287698
 20
194.308792
 30
0.0
 10
98.350091
 20
194.386303
 30
0.0
 10
98.425529
 20
194.451773
 30
0.0
 10
98.518759
 20
194.493608
 30
0.0
 10
98.585149
 20
194.498187
 30
0.0
 10
98.618984
 20
194.500520
 30
0.0
 11
98.242937
 21
194.116120
 31
0.0
 11
98.255008
 21
194.216397
 31
0.0
 11
98.291220
 21
194.305533
 31
0.0
 11
98.351573
 21
194.383530
 31
0.0
 11
98.429568
 21
194.448524
 31
0.0
 11
98.518705
 21
194.487521
 31
0.0
 11
98.618984
 21
194.500520
 31
0.0
  0
LWPOLYLINE
  5
151
100
AcDbEntity
  8
Calque_1
 62
7
100
AcDbPolyline
 90
2
 70
0
 10
98.618984
 20
194.500520
 30
0.0
 10
100.524290
 20
194.500520
 30
0.0
  0
SPLINE
  5
152
100
AcDbEntity
  8
Calque_1
 62
7
100
AcDbSpline
 70
0
 71
3
 72
25
 73
21
 74
19
 40
0.000000
 40
0.000000
 40
0.000000
 40
0.000000
 40
0.497642
 40
0.938504
 40
1.334209
 40
1.694272
 40
2.025270
 40
2.340996
 40
2.651409
 40
2.960843
 40
3.277463
 40
3.594077
 40
3.903508
 40
4.213919
 40
4.529645
 40
4.860644
 40
5.220707
 40
5.616412
 40
6.057273
 40
6.554916
 40
6.554916
 40
6.554916
 40
6.554916
 10
100.524290
 20
194.500520
 30
0.0
 10
100.690302
 20
194.495522
 30
0.0
 10
101.003384
 20
194.486097
 30
0.0
 10
101.441994
 20
194.398274
 30
0.0
 10
101.814578
 20
194.249301
 30
0.0
 10
102.120876
 20
194.052353
 30
0.0
 10
102.368083
 20
193.821801
 30
0.0
 10
102.546490
 20
193.554067
 30
0.0
 10
102.666516
 20
193.264685
 30
0.0
 10
102.740235
 20
192.959999
 30
0.0
 10
102.763220
 20
192.645352
 30
0.0
 10
102.740235
 20
192.330706
 30
0.0
 10
102.666516
 20
192.026024
 30
0.0
 10
102.546490
 20
191.736643
 30
0.0
 10
102.368083
 20
191.468909
 30
0.0
 10
102.120876
 20
191.238357
 30
0.0
 10
101.814578
 20
191.041409
 30
0.0
 10
101.441994
 20
190.892436
 30
0.0
 10
101.003384
 20
190.804613
 30
0.0
 10
100.690302
 20
190.795188
 30
0.0
 10
100.524290
 20
190.790190
 30
0.0
 11
100.524290
 21
194.500520
 31
0.0
 11
101.021044
 21
194.470808
 31
0.0
 11
101.452801
 21
194.381671
 31
0.0
 11
101.819560
 21
194.233110
 31
0.0
 11
102.122257
 21
194.038123
 31
0.0
 11
102.361813
 21
193.809710
 31
0.0
 11
102.538230
 21
193.547870
 31
0.0
 11
102.658936
 21
193.261888
 31
0.0
 11
102.731359
 21
192.961048
 31
0.0
 11
102.755500
 21
192.645350
 31
0.0
 11
102.731359
 21
192.329658
 31
0.0
 11
102.658936
 21
192.028821
 31
0.0
 11
102.538230
 21
191.742840
 31
0.0
 11
102.361813
 21
191.481000
 31
0.0
 11
102.122257
 21
191.252587
 31
0.0
 11
101.819560
 21
191.057600
 31
0.0
 11
101.452801
 21
190.909039
 31
0.0
 11
101.021044
 21
190.819902
 31
0.0
 11
100.524290
 21
190.790190
 31
0.0
  0
LWPOLYLINE
  5
153
100
AcDbEntity
  8
Calque_1
 62
7
100
AcDbPolyline
 90
3
 70
0
 10
100.524290
 20
190.790190
 30
0.0
 10
99.003388
 20
190.790190
 30
0.0
 10
99.003388
 20
189.001870
 30
0.0
  0
SPLINE
  5
154
100
AcDbEntity
  8
Calque_1
 62
7
100
AcDbSpline
 70
0
 71
3
 72
13
 73
9
 74
7
 40
0.000000
 40
0.000000
 40
0.000000
 40
0.000000
 40
0.101116
 40
0.198410
 40
0.299938
 40
0.398555
 40
0.494766
 40
0.595770
 40
0.595770
 40
0.595770
 40
0.595770
 10
99.003388
 20
189.001870
 30
0.0
 10
99.001054
 20
188.968036
 30
0.0
 10
98.996476
 20
188.901647
 30
0.0
 10
98.954640
 20
188.808417
 30
0.0
 10
98.889171
 20
188.732978
 30
0.0
 10
98.811659
 20
188.670587
 30
0.0
 10
98.718705
 20
188.632185
 30
0.0
 10
98.652758
 20
188.627983
 30
0.0
 10
98.618984
 20
188.625830
 30
0.0
 11
99.003388
 21
189.001870
 31
0.0
 11
98.990389
 21
188.901593
 31
0.0
 11
98.951392
 21
188.812457
 31
0.0
 11
98.886396
 21
188.734460
 31
0.0
 11
98.808401
 21
188.674110
 31
0.0
 11
98.719264
 21
188.637900
 31
0.0
 11
98.618984
 21
188.625830
 31
0.0
  0
SPLINE
  5
155
100
AcDbEntity
  8
Calque_1
 62
7
100
AcDbSpline
 70
0
 71
3
 72
10
 73
6
 74
4
 40
0.000000
 40
0.000000
 40
0.000000
 40
0.000000
 40
0.512889
 40
0.925770
 40
1.263466
 40
1.263466
 40
1.263466
 40
1.263466
 10
100.449080
 20
191.508860
 30
0.0
 10
100.619594
 20
191.515007
 30
0.0
 10
100.927373
 20
191.526102
 30
0.0
 10
101.347721
 20
191.620263
 30
0.0
 10
101.552118
 20
191.768200
 30
0.0
 10
101.644080
 20
191.834760
 30
0.0
 11
100.449080
 21
191.508860
 31
0.0
 11
100.960689
 21
191.545071
 31
0.0
 11
101.359022
 21
191.653704
 31
0.0
 11
101.644080
 21
191.834760
 31
0.0
  0
SPLINE
  5
156
100
AcDbEntity
  8
Calque_1
 62
7
100
AcDbSpline
 70
0
 71
3
 72
13
 73
9
 74
7
 40
0.000000
 40
0.000000
 40
0.000000
 40
0.000000
 40
0.305292
 40
0.599729
 40
0.907687
 40
1.215650
 40
1.510090
 40
1.815383
 40
1.815383
 40
1.815383
 40
1.815383
 10
101.644080
 20
191.834760
 30
0.0
 10
101.714171
 20
191.909481
 30
0.0
 10
101.851861
 20
192.056267
 30
0.0
 10
101.970952
 20
192.341215
 30
0.0
 10
102.007369
 20
192.645352
 30
0.0
 10
101.970953
 20
192.949490
 30
0.0
 10
101.851861
 20
193.234441
 30
0.0
 10
101.714171
 20
193.381228
 30
0.0
 10
101.644080
 20
193.455950
 30
0.0
 11
101.644080
 21
191.834760
 31
0.0
 11
101.839063
 21
192.069674
 31
0.0
 11
101.956053
 21
192.339871
 31
0.0
 11
101.995050
 21
192.645350
 31
0.0
 11
101.956053
 21
192.950834
 31
0.0
 11
101.839063
 21
193.221034
 31
0.0
 11
101.644080
 21
193.455950
 31
0.0
  0
LWPOLYLINE
  5
157
100
AcDbEntity
  8
Calque_1
 62
7
100
AcDbPolyline
 90
1
 70
1
 10
98.618984
 20
188.625830
 30
0.0
  0
SPLINE
  5
158
100
AcDbEntity
  8
Calque_1
 62
7
100
AcDbSpline
 70
0
 71
3
 72
10
 73
6
 74
4
 40
0.000000
 40
0.000000
 40
0.000000
 40
0.000000
 40
0.337697
 40
0.750578
 40
1.263466
 40
1.263466
 40
1.263466
 40
1.263466
 10
101.644080
 20
193.455950
 30
0.0
 10
101.552118
 20
193.522510
 30
0.0
 10
101.347721
 20
193.670447
 30
0.0
 10
100.927373
 20
193.764608
 30
0.0
 10
100.619594
 20
193.775703
 30
0.0
 10
100.449080
 20
193.781850
 30
0.0
 11
101.644080
 21
193.455950
 31
0.0
 11
101.359022
 21
193.637006
 31
0.0
 11
100.960689
 21
193.745639
 31
0.0
 11
100.449080
 21
193.781850
 31
0.0
  0
LWPOLYLINE
  5
159
100
AcDbEntity
  8
Calque_1
 62
7
100
AcDbPolyline
 90
4
 70
0
 10
100.449080
 20
193.781850
 30
0.0
 10
99.003388
 20
193.781850
 30
0.0
 10
99.003388
 20
191.508860
 30
0.0
 10
100.449080
 20
191.508860
 30
0.0
  0
ENDSEC
  0
SECTION
  2
OBJECTS
  0
DICTIONARY
  5
C
330
0
100
AcDbDictionary
  3
ACAD_GROUP
350
D
  3
ACAD_MLINESTYLE
350
17
  0
DICTIONARY
  5
D
330
C
100
AcDbDictionary
  0
DICTIONARY
  5
1A
330
C
100
AcDbDictionary
  0
DICTIONARY
  5
17
330
C
100
AcDbDictionary
  3
STANDARD
350
18
  0
DICTIONARY
  5
19
330
C
100
AcDbDictionary
  0
ENDSEC
  0
EOF
